<?xml version="1.0" encoding="UTF-8"?>
<svg width="1920px" height="352px" viewBox="0 0 1920 352" version="1.1" xmlns="http://www.w3.org/2000/svg" xmlns:xlink="http://www.w3.org/1999/xlink">
    <!-- Generator: Sketch 50 (54983) - http://www.bohemiancoding.com/sketch -->
    <title>layer6</title>
    <desc>Created with Sketch.</desc>
    <defs>
        <rect id="path-1" x="0" y="0" width="1920" height="1080"></rect>
        <path d="M732.028547,0 L731.679032,0.13951094 L727.703209,3.90700386 L723.726689,11.7886744 L723.587162,11.7886744 L723.377872,11.9979408 L722.610473,13.3937477 L723.168581,14.4393822 L724.285495,14.9276705 L726.796284,13.5325611 L721.703547,24.5539254 L721.214505,25.1817246 L719.471115,30.5528958 L719.540878,30.8319176 L719.819932,30.9714286 L720.796622,31.1813925 L723.308108,30.6931042 L724.14527,30.9714286 L719.680405,42.620592 L719.052534,42.5515341 L712.913345,44.0157014 L704.471959,41.0162162 L703.983615,41.0162162 L703.355743,40.5976834 L703.28598,40.4581725 L703.28598,40.3193591 L703.006228,40.1093951 L702.379054,37.6679537 L702.448818,36.2037864 L702.448818,35.2272098 L701.681419,34.3901441 L701.681419,34.2499356 L701.332601,34.1104247 L700.705427,32.7850708 L700.355912,32.366538 L700.286149,32.436991 L700.146622,32.1572716 L700.216385,32.1572716 L700.076858,31.6696808 L700.076858,26.9953668 L700.774493,26.3675676 L700.983784,26.5077761 L700.91402,26.576834 L701.124008,26.576834 L701.890709,26.7163449 L702.379054,26.7163449 L703.146453,26.437323 L703.355743,25.9490347 L703.634797,25.6707104 L699.728738,15.4857143 L698.890181,9.3479305 L698.33277,7.67310167 L698.193243,7.53428829 L696.867736,7.39407979 L695.402703,8.4411094 L690.2409,14.0906049 L689.263514,16.5320463 L690.658784,18.3456885 L692.054054,19.1129987 L689.19375,23.019305 L688.565878,27.1341802 L689.891385,28.3904762 L688.496115,31.8782497 L682.147635,26.647287 L678.519932,25.390991 L676.636318,25.8095238 L656.404899,18.9734878 L633.382939,21.0661519 L622.220777,29.4368082 L616.639696,30.1343629 C616.639696,30.1343629 607.640203,25.1119691 603.105574,22.5317143 C601.640541,21.6939511 600.594088,21.1366049 600.594088,21.1366049 C587.33902,22.3915058 574.781588,30.7628597 561.52652,30.0646075 C558.038345,30.0646075 554.550169,20.2995393 551.061993,20.2995393 C545.480912,19.601287 539.900529,20.2995393 534.528041,17.5086229 C533.342061,17.0203346 532.016554,16.5320463 530.481757,15.4159588 C515.831419,11.9281853 492.460642,6.27799228 492.460642,6.27799228 L489.670101,10.4633205 L479.903209,9.76576577 L456.183615,25.8095238 L453.393772,29.2972973 L444.672635,32.0875161 L438.045101,36.970399 L413.627872,39.0630631 L402.465709,43.2483912 L392.698818,62.0823681 L382.234291,53.014157 L378.04848,51.6190476 L347.352534,60.6872587 L346.654899,63.4774775 L342.469088,64.1750322 L332.004561,77.4285714 L267.333784,57.8970399 L259.450507,57.8272844 L237.823818,53.014157 L232.941069,53.7117117 L225.96402,59.2921493 L204.337331,60.6872587 L185.501182,44.6435006 L179.920101,46.03861 L147.270777,43.3181467 L108.063682,57.8970399 L77.3677365,83.7065637 L67.1829611,84.8226512 L60.6244932,82.3114543 L0.628569257,93.4723295 L0,538.930759 L1460.84797,538.930759 L1460.84797,539.558559 L1460.84797,540.883215 L1559.42382,540.883215 L1559.56334,539.767825 L1591.09715,539.558559 L1591.23528,539.977091 L1634.2103,539.977091 L1634.2103,539.83758 L1725.94932,539.83758 L1725.94932,541.511712 L2890.72095,541.511712 C2890.72095,541.093179 2890.79071,540.674646 2890.79071,540.256113 C2890.79071,534.815187 2890.86047,280.137967 2890.86047,274.69704 C2890.86047,263.88564 2890.93093,253.003786 2890.93093,242.190991 C2890.93093,235.354955 2891,228.449163 2891,221.613127 L2891,220.985328 C2887.86064,220.915573 2884.79105,220.915573 2881.65169,220.845817 L2881.65169,217.358044 C2881.65169,216.730245 2881.51146,216.241956 2881.02382,215.893179 C2880.675,215.614157 2880.25642,215.26538 2879.97806,214.916602 C2878.86115,213.451737 2877.39611,213.10296 2875.44343,213.521493 C2875.16368,214.149292 2874.7451,214.916602 2874.39628,215.683215 C2874.04816,216.520978 2873.55912,216.8 2872.65289,216.8 C2871.18716,216.730245 2869.72213,216.730245 2868.25709,216.730245 L2866.79206,216.730245 L2866.79206,220.148263 L2857.30492,220.148263 L2857.30492,238.074721 L2851.09527,238.074721 L2851.09527,258.931606 L2847.60709,258.931606 L2847.60709,264.303475 C2846.42181,264.652252 2840.28193,264.722008 2837.97973,264.442288 L2837.97973,258.37426 C2836.86351,258.304505 2835.88752,258.234749 2834.77061,258.164296 L2834.77061,250.631403 C2832.93653,250.551882 2831.12546,250.56374 2829.29836,250.574901 C2827.9282,250.583272 2826.54828,250.59234 2825.14324,250.561647 L2825.14324,205.918147 L2820.53885,205.918147 C2820.39932,205.429858 2820.2598,205.081081 2820.19003,204.731606 C2819.21334,200.407465 2817.39949,196.501158 2814.81824,192.873874 C2814.26014,192.106564 2814.12131,191.409009 2814.12131,190.502188 L2814.12131,168.180438 L2814.12131,166.436551 L2810.63243,166.436551 L2810.63243,171.667514 L2810.63243,176.968929 L2810.63243,182.130834 L2810.63243,187.711969 C2810.00456,187.223681 2809.65574,186.944659 2809.30762,186.595184 C2801.28482,179.689393 2791.93581,176.690605 2781.33176,177.597426 C2773.86706,178.225225 2767.23883,180.945689 2761.51962,185.618607 C2758.65861,187.920538 2756.21689,190.502188 2754.19445,193.570731 C2753.77517,194.199228 2753.28682,194.408494 2752.51943,194.408494 C2750.63581,194.338041 2748.75289,194.408494 2746.65999,194.408494 C2746.52046,196.640669 2746.58953,198.872147 2746.58953,201.104322 C2746.58953,203.337194 2746.52046,205.569369 2746.52046,207.801544 L2746.52046,214.497372 L2746.52046,221.193897 L2746.52046,227.89112 L2746.52046,234.796214 C2744.21757,234.935725 2741.98583,234.796214 2739.54341,234.935725 L2739.54341,248.956574 L2739.54341,263.047179 L2726.49833,263.047179 C2726.49833,262.420077 2726.42787,261.931789 2726.42787,261.373745 C2726.42787,253.072147 2726.42787,244.702188 2726.49833,236.400589 C2726.49833,235.284502 2726.28834,234.377681 2725.31166,233.749882 C2725.17213,233.610371 2725.0333,233.47086 2724.89307,233.332046 C2723.91639,232.70355 2723.77686,231.866484 2723.77686,230.820152 C2723.84732,228.239897 2723.77686,225.658945 2723.77686,223.077295 L2723.77686,221.543372 L2717.70743,221.543372 L2717.70743,185.968082 L2712.96351,185.968082 L2712.96351,180.038867 L2703.89495,180.038867 L2703.89495,186.037838 L2699.91774,186.037838 L2699.91774,195.594337 C2698.94105,195.663395 2698.17365,195.733151 2697.19696,195.803604 L2697.19696,218.473434 C2696.08074,218.543189 2695.10475,218.612945 2693.98784,218.612945 C2693.91807,222.519251 2693.91807,226.355802 2693.84831,230.262108 L2690.15084,230.262108 C2690.08108,223.077295 2690.15084,215.892481 2690.15084,208.707668 L2690.15084,187.083472 L2690.15084,165.459277 L2690.15084,143.765326 L2686.73243,143.765326 L2686.73243,139.859717 L2674.24476,139.859717 L2674.24476,145.299946 C2673.10343,145.414345 2672.00326,145.404579 2670.88914,145.393418 C2669.95919,145.385745 2669.01878,145.376677 2668.03581,145.440154 C2667.96605,173.969444 2667.96605,202.499431 2667.89628,231.099871 L2658.82703,231.099871 L2658.82703,238.633462 C2657.71151,238.703218 2656.73412,238.772973 2655.54814,238.772973 L2655.54814,255.095753 L2651.57232,255.095753 C2651.43279,253.49068 2651.50186,251.887001 2651.50186,250.281928 L2651.50186,245.399045 C2651.50186,243.725611 2651.57232,242.05148 2651.57232,240.376651 L2651.57232,235.494466 L2651.57232,230.471375 C2650.59493,230.401619 2649.75777,230.401619 2648.71202,230.331864 C2648.64225,225.797758 2648.71202,221.263653 2648.64225,216.659792 C2644.03716,215.334438 2639.43347,214.009084 2634.75861,212.684427 L2634.75861,211.219562 C2634.75861,195.663395 2634.75861,180.108623 2634.82908,164.553153 C2634.82908,163.506821 2634.55002,162.669755 2633.92145,161.83269 C2630.43328,157.018865 2627.01486,152.206435 2623.52739,147.463063 C2622.96928,146.765508 2622.75929,145.997501 2622.75929,145.160435 C2622.82905,142.16095 2622.75929,139.161465 2622.75929,136.162677 L2622.75929,134.697115 L2621.43448,134.697115 L2621.43448,136.162677 L2621.43448,145.160435 C2621.43448,146.067954 2621.22519,146.765508 2620.66639,147.532121 C2617.31774,152.415004 2613.96979,157.367642 2610.62044,162.320978 C2610.13209,163.087591 2609.9235,163.785145 2609.9235,164.691967 C2609.9235,177.945506 2609.9235,191.12929 2609.85304,204.382829 L2609.85304,206.126716 C2608.94611,206.47619 2608.10895,206.824968 2607.13296,207.243501 L2607.13296,211.289318 C2606.08651,211.359073 2605.24935,211.359073 2604.27196,211.428829 C2604.2022,212.405405 2604.2022,213.381284 2604.13313,214.428314 L2599.66757,214.428314 L2599.66757,208.847179 L2588.43634,208.847179 L2588.43634,213.242471 L2585.6458,213.242471 C2585.43581,213.661004 2585.22652,214.009781 2585.01723,214.428314 C2583.62196,217.636368 2582.22739,220.775364 2580.90188,223.984116 C2580.62283,224.682368 2580.4826,225.449678 2580.4826,226.146535 C2580.41354,231.30844 2580.41354,236.400589 2580.41354,241.563192 C2580.41354,242.958301 2579.85473,244.003936 2578.87874,245.050268 C2578.73851,215.892481 2578.80828,186.735393 2578.80828,157.507153 C2577.76182,157.158376 2576.78583,156.810296 2575.87891,156.461519 C2571.48311,154.926898 2567.01894,153.321825 2562.62384,151.857658 C2561.71622,151.577938 2561.15881,151.08965 2560.66976,150.323037 C2558.08921,145.928443 2555.4375,141.602906 2552.85695,137.209009 C2552.64696,136.790476 2552.3686,136.441001 2551.94932,135.8139 C2549.36877,140.138041 2546.85659,144.323369 2544.20557,148.648906 L2514.69631,148.648906 L2514.69631,156.880051 L2505.55659,156.880051 C2505.55659,157.577606 2505.48682,158.13565 2505.48682,158.693694 L2505.48682,191.199045 L2505.48682,239.679794 C2505.48682,240.098327 2505.55659,240.516162 2505.48682,240.935393 C2505.41706,241.213717 2505.3473,241.493436 2505.1387,241.63225 C2503.46368,242.470013 2501.78936,243.237323 2499.90574,244.144144 L2499.90574,201.662366 C2498.85999,201.243833 2497.81354,200.825997 2496.76639,200.406767 C2494.53395,199.500644 2492.37128,198.314801 2489.99932,197.826512 C2487.69713,197.338224 2485.18564,197.687001 2482.74392,197.687001 L2468.93074,197.687001 L2467.46641,197.687001 C2467.32688,196.361647 2467.18666,195.106049 2467.11689,193.849753 L2451.97821,193.849753 C2451.90845,194.338041 2451.76962,194.827027 2451.69916,195.454826 L2441.93226,195.454826 L2441.93226,213.661004 L2436.83953,213.661004 L2436.83953,222.659459 L2432.3049,222.659459 C2432.3049,227.053356 2432.23583,231.30844 2432.23583,235.633977 L2428.11909,235.633977 L2428.11909,196.570216 C2425.96619,196.491393 2423.88165,196.503251 2421.78805,196.513714 C2420.21697,196.522782 2418.64102,196.531153 2417.02669,196.501158 C2416.74764,195.873359 2416.39952,195.175107 2416.05,194.47825 C2415.91047,194.687516 2415.77164,194.756574 2415.77164,194.896782 C2415.56166,196.709727 2414.23615,197.268468 2412.63229,197.617246 C2410.19056,198.104837 2407.74884,198.872147 2405.16689,199.570399 L2405.16689,221.193897 L2400.35321,221.193897 L2400.35321,215.056113 L2388.49341,215.056113 L2388.49341,184.293254 C2387.3772,184.014929 2375.79715,183.874721 2373.42519,184.15444 L2373.42519,228.797941 L2368.54174,228.797941 L2368.54174,245.469498 L2361.49493,245.469498 L2361.49493,259.977938 L2359.40203,259.977938 C2359.40203,259.490347 2359.33296,258.931606 2359.33296,258.37426 C2359.33296,249.026329 2359.33296,239.679794 2359.40203,230.331864 C2359.40203,229.286229 2359.19274,228.309653 2358.4958,227.472587 C2357.7277,226.565766 2357.51911,225.519434 2357.51911,224.333591 C2357.58887,221.263653 2357.51911,218.264865 2357.51911,215.195624 C2357.51911,214.846847 2357.44865,214.567825 2357.44865,214.079537 L2353.3333,214.079537 L2353.3333,174.807207 C2352.21639,174.737452 2351.16993,174.667696 2349.98395,174.597941 L2349.98395,168.319251 C2348.86843,167.971171 2345.65931,167.900718 2343.63547,168.180438 L2343.63547,174.876963 L2340.84493,174.876963 C2340.77517,176.690605 2340.84493,178.364039 2340.77517,180.108623 L2340.77517,185.340283 C2340.21706,185.410039 2339.65895,185.54955 2338.96202,185.620003 L2338.96202,210.591763 C2338.12416,210.660821 2337.49628,210.731274 2336.65982,210.80103 L2336.65982,223.566281 L2334.00741,223.566281 L2334.00741,128.140798 C2333.17095,128.071042 2332.47401,128.001287 2331.63685,127.931532 L2331.63685,123.815959 L2322.98547,123.815959 L2322.98547,129.884685 L2318.66014,129.884685 L2318.66014,224.612613 C2317.42393,224.772353 2316.23306,224.749333 2315.03592,224.726314 C2314.13876,224.709573 2313.23742,224.692134 2312.31166,224.752124 L2312.31166,232.982571 C2311.54495,233.053024 2310.84662,233.12278 2310.07922,233.192535 L2310.07922,251.190144 L2307.21892,251.190144 L2307.21892,223.915058 C2306.59105,223.845302 2306.03294,223.776245 2305.3353,223.776245 C2305.26624,220.637248 2305.3353,217.56731 2305.3353,214.567825 L2305.3353,205.290347 L2305.3353,196.01287 L2305.3353,186.874903 L2305.3353,177.597426 L2305.3353,168.319251 L2305.3353,159.042471 L2305.3353,149.764296 L2305.3353,140.487516 L2305.3353,131.34955 L2305.3353,122.071375 L2305.3353,112.724839 L2292.28953,112.724839 L2292.28953,98.8435006 C2291.59189,98.8435006 2291.03378,98.7730476 2290.47568,98.7730476 L2272.68598,98.7730476 C2271.63953,98.7730476 2270.94189,98.4947233 2270.24426,97.6576577 C2265.08176,91.5191763 2258.45422,88.1011583 2250.22213,87.61287 C2249.87331,87.61287 2249.52449,87.5431145 2249.17568,87.5431145 C2249.03615,87.5431145 2248.89662,87.4733591 2248.61757,87.3331506 L2248.61757,63.8960103 L2245.75657,63.8960103 C2245.6875,65.4299331 2245.75657,66.9645534 2245.6875,68.5696268 L2245.6875,73.3129987 L2245.6875,77.9168597 L2245.6875,82.6602317 L2245.6875,87.4036036 C2231.10623,90.0543115 2222.87483,98.3545148 2220.85169,112.585328 L2206.48041,112.585328 L2206.48041,234.865969 C2204.80538,236.122265 2203.34105,237.168597 2201.80625,238.284685 C2201.38767,237.796396 2201.5272,237.308108 2201.5272,236.81982 L2201.5272,203.616216 L2201.5272,192.664607 C2201.5272,191.897297 2201.24814,191.409009 2200.55051,190.990476 C2198.87618,190.0139 2197.27162,188.967568 2195.66706,187.920538 C2194.89966,187.43225 2194.13226,187.223681 2193.22534,187.223681 L2180.52768,187.223681 L2178.85405,187.223681 C2178.78359,185.758816 2178.64546,184.433462 2178.575,182.9679 L2168.04071,182.9679 C2167.97095,183.526641 2167.97095,184.014929 2167.90118,184.711786 L2161.06436,184.711786 L2161.06436,194.756574 L2161.06436,204.802059 L2157.57618,204.802059 C2157.50642,206.546644 2157.57618,208.220077 2157.50642,209.894208 L2157.50642,214.916602 L2154.36706,214.916602 L2154.36706,229.146718 C2153.25084,229.216474 2152.27346,229.286229 2151.15794,229.286229 L2151.15794,249.44556 L2147.94882,249.44556 L2147.94882,244.352713 L2147.94882,219.799485 C2147.94882,219.310499 2148.01858,218.822909 2147.46047,218.405073 C2147.18142,218.195109 2147.25048,217.56731 2147.25048,217.078324 L2147.25048,201.802574 C2147.25048,201.035264 2147.18142,200.198198 2146.97213,199.430888 C2145.78615,194.548005 2144.59947,189.734878 2143.41419,184.851995 C2143.34443,184.503218 2143.2042,184.15444 2142.99561,183.456885 C2142.71586,184.782239 2142.4375,185.758816 2142.22751,186.735393 C2141.18176,191.269498 2140.13461,195.873359 2139.15861,200.407465 C2139.01909,201.104322 2138.94932,201.872329 2138.94932,202.638942 C2138.94932,210.940541 2138.87956,219.310499 2138.94932,227.612098 C2138.94932,229.565251 2138.39052,231.030116 2136.92618,232.564039 C2136.71689,230.750396 2136.92618,229.076963 2136.78596,227.26332 C2136.36877,227.192867 2136.01926,227.192867 2135.67044,227.12381 L2129.2522,227.12381 C2128.76315,227.12381 2128.34527,227.12381 2127.99645,226.634824 C2127.08953,225.449678 2126.53072,223.984813 2125.20591,223.077992 C2124.99662,222.939179 2125.06639,222.380438 2125.06639,222.03166 C2125.06639,219.450708 2125.06639,216.869755 2125.13615,214.288803 L2125.13615,212.684427 C2122.97348,212.614672 2120.81081,212.544219 2118.57838,212.544219 C2118.57838,211.359073 2118.50931,210.312741 2118.57838,209.266409 C2118.64814,208.220077 2118.43885,207.243501 2117.67145,206.406435 C2117.46216,206.127413 2117.25217,205.848391 2117.11404,205.569369 C2116.55524,204.383526 2115.64831,204.034749 2114.3228,204.523037 C2113.97468,205.639822 2113.55541,206.755212 2113.20589,208.010811 L2108.32314,208.010811 L2108.32314,211.707851 L2101.69561,211.707851 C2101.62584,214.009781 2101.69561,216.171503 2101.62584,218.33462 L2101.62584,224.752821 L2101.62584,231.448649 L2097.30051,231.448649 L2097.30051,254.467954 C2096.46334,254.537709 2095.76571,254.537709 2094.85878,254.607465 L2094.85878,260.746644 L2088.16079,260.746644 C2087.9522,258.444015 2088.16079,256.21184 2088.02196,253.840154 C2087.32432,253.770399 2086.62669,253.700644 2085.85859,253.561133 L2085.85859,245.260929 L2079.23176,245.260929 L2079.23176,195.873359 L2074.90572,195.873359 C2073.16163,191.54852 2071.41755,187.293436 2069.53463,182.689575 C2069.25557,183.247619 2069.04628,183.596396 2068.97582,183.875418 C2067.44172,187.781725 2065.83646,191.617578 2064.30236,195.524582 C2063.95355,196.431403 2063.39544,196.988749 2062.41875,197.198713 C2060.46537,197.617246 2058.5113,198.17529 2056.34932,198.733333 L2056.34932,220.426587 L2054.60524,220.426587 L2051.46588,220.426587 L2051.46588,214.219048 C2049.37228,214.149292 2047.41959,214.149292 2045.46622,214.149292 L2039.53632,214.149292 L2039.53632,183.177864 L2024.60693,183.177864 C2024.39764,198.035779 2024.67739,212.823938 2024.4667,227.821364 L2019.72348,227.821364 L2019.72348,234.099356 L2019.72348,240.237838 L2019.72348,246.51583 L2019.72348,252.653614 L2019.72348,258.931606 L2010.65353,258.931606 C2010.65353,258.37426 2010.58516,257.885972 2010.58516,257.327928 L2010.58516,229.42574 C2010.58516,228.309653 2010.44493,227.26332 2009.67684,226.426255 C2008.84037,225.519434 2008.70084,224.473102 2008.70084,223.287259 C2008.77061,220.357529 2008.70084,217.496857 2008.70084,214.567825 C2008.70084,214.079537 2008.63038,213.661004 2008.63038,213.102263 L2004.51503,213.102263 L2004.51503,173.760178 L2001.09592,173.760178 L2001.09592,167.134106 L1994.81721,167.134106 L1994.81721,173.970142 L1992.02667,173.970142 L1992.02667,184.433462 C1991.32973,184.503218 1990.84139,184.572973 1990.14375,184.711786 C1990.00422,193.012687 1990.21351,201.243833 1990.07399,209.684942 L1988.53919,209.684942 L1988.53919,112.09704 L1976.95914,112.09704 L1976.95914,99.5403578 L1963.84291,99.5403578 L1963.84291,88.3801802 L1959.51757,88.3801802 L1959.51757,17.0203346 L1957.3542,17.0203346 L1955.19223,17.0203346 L1955.19223,88.3104247 L1947.93613,88.3104247 L1947.93613,99.4712999 L1930.49525,99.4712999 L1930.49525,112.027284 L1921.77481,112.027284 L1921.77481,198.941902 L1914.72939,198.941902 L1914.72939,203.755727 C1913.9613,203.824785 1913.40319,203.894541 1912.70555,203.964994 C1912.63649,204.244015 1912.4272,204.523037 1912.35673,204.802059 C1911.31028,208.568855 1910.26453,212.265894 1909.28784,216.03269 C1909.14761,216.660489 1909.07855,217.358044 1909.07855,217.985843 C1909.07855,223.845302 1909.00878,229.704762 1909.07855,235.494466 C1909.07855,236.679611 1908.65927,237.726641 1907.89257,238.772973 L1907.89257,237.1679 L1907.89257,144.045045 C1907.89257,141.743115 1908.24139,142.370216 1906.14848,141.115315 C1904.61298,140.207797 1903.07889,139.371429 1901.47432,138.534363 C1906.00895,130.024196 1905.45154,122.072072 1898.05661,115.375547 C1892.3353,110.213642 1885.35895,109.027799 1878.17331,112.027284 C1869.17382,115.79408 1865.75541,122.909138 1866.73279,132.256371 L1863.45321,132.256371 C1863.38345,132.674903 1863.31438,132.953925 1863.31438,133.302703 L1863.31438,134.139768 L1863.31438,194.129472 C1863.31438,203.40695 1863.24392,212.754183 1863.31438,222.03166 C1863.31438,223.007539 1863.17416,223.91436 1862.47722,224.612613 C1861.15101,226.007722 1860.73313,227.681853 1860.94172,229.494798 C1861.08125,230.681338 1860.94172,231.936937 1860.94172,233.12278 C1860.94172,233.541313 1860.87196,234.028903 1860.87196,234.587645 C1859.96434,234.587645 1859.19764,234.6574 1858.43093,234.587645 C1857.59307,234.517889 1856.9652,234.796214 1856.33733,235.284502 C1855.36064,236.122265 1854.31419,236.819122 1852.98868,237.796396 L1852.98868,235.842546 C1852.98868,221.403861 1852.98868,206.964479 1853.05845,192.524399 C1853.05845,191.269498 1852.70963,190.432432 1851.52365,189.803936 C1850.05861,189.037323 1848.66334,188.060049 1847.26807,187.153228 C1846.50068,186.66494 1845.73328,186.456371 1844.82705,186.456371 L1831.98986,186.456371 L1830.45507,186.456371 C1830.31554,184.991506 1830.24578,183.666152 1830.10625,182.201287 L1819.64172,182.201287 C1819.57196,182.759331 1819.50289,183.247619 1819.36267,183.945174 L1812.66537,183.945174 L1812.66537,204.034051 L1809.10743,204.034051 L1809.10743,214.079537 C1808.47956,214.149292 1807.99052,214.149292 1807.57264,214.149292 L1805.89901,214.149292 C1805.82855,218.891967 1805.89901,223.636036 1805.82855,228.448466 L1802.68919,228.448466 L1802.68919,248.748005 L1799.48007,248.748005 L1799.48007,247.073874 L1799.48007,219.868543 C1799.48007,219.101931 1799.75912,218.194412 1798.92126,217.566613 C1798.71267,217.427799 1798.78313,216.799302 1798.78313,216.381467 C1798.78313,211.986873 1798.71267,207.59158 1798.78313,203.196986 C1798.78313,201.104322 1798.57314,199.011658 1798.01503,196.988749 C1796.89952,192.664607 1795.85236,188.339071 1794.80591,184.014232 C1794.73545,183.804965 1794.66639,183.596396 1794.38663,183.317375 C1794.2478,183.735907 1794.10828,184.224196 1793.96875,184.642728 C1792.85253,189.73418 1791.66586,194.756574 1790.55034,199.848723 C1790.41081,200.47722 1790.41081,201.174775 1790.41081,201.802574 C1790.41081,210.312044 1790.34105,218.822909 1790.41081,227.333076 C1790.41081,229.146718 1789.64341,230.402317 1788.38767,231.657218 L1788.38767,226.565766 L1788.03885,226.565766 L1788.03885,216.659792 L1732.5064,215.962934 L1731.45994,215.404193 L1731.25135,215.125869 L1729.64679,215.125869 L1729.08868,226.844788 L1714.57717,226.426255 L1714.36858,191.967053 L1712.55473,188.897115 L1711.01923,187.293436 L1710.95017,174.80651 L1710.04255,172.574335 L1709.69373,172.434824 L1706.55437,171.807722 L1703.13666,171.877477 L1703.13666,125.838867 L1702.8569,125.628903 L1699.9973,124.862291 L1698.53226,124.862291 L1696.78748,124.513514 L1696.50912,117.677477 L1696.3689,117.258945 L1685.20743,117.258945 L1685.20743,117.328003 L1684.57886,117.677477 L1684.09122,125.140615 L1679.62635,125.977681 L1679.41706,126.117192 L1679.3473,126.326458 L1678.85895,137.767053 L1675.85842,139.022651 L1675.71959,139.161465 L1675.30101,167.900718 L1672.78953,168.319251 L1671.95236,168.668726 L1671.74307,169.71436 L1671.81214,169.993382 L1671.74307,183.037655 L1669.92853,183.456188 L1668.04561,183.317375 L1667.69609,70.3825714 L1667.62703,70.2430605 L1667.4868,70.173305 L1665.81318,69.7554698 L1664.97532,69.7554698 L1663.92956,69.5455058 L1663.0917,64.6626229 L1662.88311,64.3842986 L1647.39561,64.7323784 L1647.39561,64.9416448 L1646.69728,65.2904221 L1646.27869,71.5684144 L1638.60541,72.4752355 L1638.53494,184.711786 L1627.37278,185.26983 L1626.88444,194.687516 L1623.60625,195.244862 L1623.46672,195.385071 L1622.97838,197.546793 L1622.49003,216.381467 L1619.42114,216.381467 L1619.48951,186.735393 L1618.23446,184.15444 L1615.51368,183.247619 L1615.51368,166.018018 L1608.11875,163.924656 L1606.65372,163.158044 L1606.02584,163.296857 L1597.86351,160.507336 L1598.14257,99.5403578 L1596.18919,92.9833436 L1595.9799,92.7740772 L1566.88851,93.332121 L1566.74899,93.5420849 L1565.07466,99.0527671 L1565.07466,150.601362 L1564.58702,152.13668 L1561.72601,157.089318 L1561.72601,157.576909 L1561.51672,158.413974 L1560.81909,158.553485 L1560.05169,158.553485 L1558.44643,159.181982 L1558.44643,159.320795 L1557.74949,162.739511 L1553.56368,162.599302 L1552.93581,156.252252 L1552.79628,155.833719 L1538.14595,155.833719 L1537.02903,161.134438 L1533.88967,162.250525 L1527.89001,177.87575 L1528.03024,197.896268 L1527.89001,197.896268 L1526.91332,202.080898 L1526.49474,87.8911943 L1526.35591,87.6826255 L1507.10118,80.6366255 L1503.12466,77.2186075 L1493.63682,61.0353385 L1493.63682,60.965583 L1492.38038,59.6402291 L1492.24155,59.6402291 L1490.91605,61.0353385 L1488.05505,65.9879768 L1487.91622,66.0577323 L1483.59088,73.591323 L1446.54576,75.7537426 L1444.66284,77.3581184 L1444.24356,86.7751068 L1433.77903,87.1245817 L1433.77903,87.2633951 L1432.73258,87.9609498 L1432.59375,137.278764 L1432.59375,140.975107 L1432.59375,198.733333 L1429.10488,200.685789 L1428.89628,200.895753 L1426.94291,201.59261 L1426.80268,182.688878 L1426.31434,182.759331 L1426.45386,182.410553 L1426.59409,148.160618 L1424.50048,145.230888 L1416.89626,141.951683 L1410.05944,140.417761 L1385.43292,140.487516 L1385.15386,138.742932 L1384.03765,135.604633 L1383.82836,135.395367 L1366.17819,135.395367 L1363.03883,137.626844 L1352.01689,138.045377 L1351.59761,138.185586 L1351.59761,161.344402 L1345.87701,161.902445 L1345.52889,162.041259 L1345.18007,173.272587 L1340.36569,173.760178 L1339.94711,173.899689 L1339.94711,174.318221 L1336.73798,177.38816 L1335.48224,175.435006 L1335.90152,175.435006 L1336.04035,175.016474 L1336.24964,142.649936 L1334.92413,140.068983 L1334.78461,139.999228 L1319.36687,140.068983 L1315.59964,141.951683 L1306.8792,143.974592 L1307.01873,149.625483 L1306.53038,150.601362 L1306.18157,150.671117 L1306.1118,150.950837 L1304.5777,150.950837 L1297.18277,148.92723 L1292.50792,149.834051 L1288.81045,148.857475 L1291.32194,147.113588 L1295.71704,140.906049 L1295.71704,140.487516 L1288.39187,139.300976 L1288.60186,139.161465 L1290.06689,139.23122 L1290.20572,138.882443 L1290.13596,137.208311 L1283.29913,133.232947 L1283.02008,133.232947 L1282.95032,132.813717 L1280.85741,131.209341 L1280.71788,131.209341 L1280.71788,131.000075 L1281.0667,129.325943 L1281.27669,128.977864 L1281.41482,128.907411 L1281.69457,128.698144 L1281.97363,126.535725 L1279.74119,124.722082 L1277.22971,123.536239 L1276.25372,121.931864 L1276.81182,121.583086 L1277.71875,121.792353 L1278.34592,121.723295 L1278.41569,120.048466 L1278.90403,118.862623 L1277.9978,117.048981 L1277.71875,116.770656 L1273.6027,114.258762 L1272.90507,114.119251 L1272.90507,114.189006 L1269.41689,109.585145 L1265.51014,100.168157 L1265.44037,99.6798687 L1264.67228,99.6798687 L1264.67228,99.4015444 L1255.53326,83.2873333 L1255.53326,83.2175779 L1254.90538,81.6836551 L1254.76655,81.6138996 L1254.62633,81.6138996 L1254.34728,81.5441441 L1254.34728,81.2651223 L1252.11554,78.4749035 L1250.0917,77.2186075 L1249.325,77.2883629 L1249.325,77.8464067 L1249.04595,78.0563707 L1248.69643,78.195184 L1248.62736,78.5446589 L1249.53359,83.0787645 L1249.39476,83.4275418 L1249.11571,83.3570888 L1248.90572,83.7756216 L1248.69643,85.0319176 L1249.95287,86.2177606 L1250.44122,86.4960849 L1250.51028,86.6362934 L1252.1853,94.5877194 L1251.69696,94.5877194 L1250.23193,120.886229 L1250.72027,124.233794 L1250.8598,124.373305 L1253.44035,124.373305 L1254.55726,122.699871 L1254.62633,122.281338 L1254.20775,129.884685 L1248.83666,137.557786 L1248.83666,137.975622 L1249.53359,138.254644 L1243.46486,139.929472 L1241.58055,139.859717 L1235.09255,135.53418 L1235.02348,135.395367 L1234.53444,135.115647 L1235.99947,132.605148 L1235.99947,132.395184 L1235.86064,132.186615 L1229.58123,127.65251 L1229.30287,127.164221 L1229.23241,126.954257 L1229.02382,126.815444 L1228.88359,126.675933 L1229.16265,126.60548 L1230.14003,126.884502 L1230.41839,126.675933 L1232.16318,123.327671 L1228.6743,115.51436 L1231.32671,120.467696 L1232.79035,121.235006 L1234.46607,120.746718 L1234.18632,119.629933 L1234.25538,117.816988 L1230.55792,107.562934 L1231.32601,107.493179 L1233.69728,106.098069 L1233.90726,105.539328 L1233.55845,104.005405 L1230.27956,101.075676 L1226.51233,95.3557272 L1225.95422,93.4723295 L1225.88376,93.402574 L1225.53494,93.2630631 L1225.32635,92.7043218 L1225.60541,92.0074646 L1225.11706,81.4046332 L1225.18613,81.2651223 L1225.11706,80.4978121 L1224.55895,80.0792793 L1224.34896,80.0792793 L1224.13967,79.9404659 L1224.34896,72.754955 L1224.69778,72.685897 L1224.83801,72.3364221 L1224.76824,67.8023166 L1224.62802,67.4535393 L1224.2799,67.3837838 L1223.93108,67.1047619 L1223.09392,57.6877735 L1220.51267,53.3636319 L1218.28024,53.3636319 L1217.16402,54.6185328 L1217.09426,54.7587413 L1216.88497,54.8277992 L1216.74474,55.0370656 L1214.23395,61.6645328 L1214.09443,61.8731017 L1214.16349,62.1521236 L1214.16349,62.9898867 L1213.67584,63.1984556 L1213.46655,63.1984556 L1211.86199,65.1516088 L1211.58294,64.3152407 L1211.02483,64.5238095 L1208.51334,66.8954955 L1207.74525,68.0122806 L1207.46689,68.2906049 L1207.60712,68.6393822 L1209.62886,70.3839665 L1212.62939,69.2671815 L1212.83868,69.3376345 L1208.51334,80.9163449 L1208.65287,81.2658198 L1209.00239,81.3348777 L1209.35051,81.3348777 L1211.16436,80.3589987 L1211.6527,79.9404659 L1211.37295,82.1028855 L1212.35034,81.6843526 L1212.27988,82.1726409 L1209.48934,86.4967825 L1209.48934,86.6362934 L1208.025,88.8684685 L1207.04831,89.4969653 L1207.04831,88.798713 L1206.34998,88.9389215 L1204.88564,90.5425997 L1204.81588,90.6821107 L1205.37329,93.6815959 L1206.4902,94.1001287 L1209.14122,92.7057169 L1209.35051,92.7057169 L1209.35051,95.77426 L1207.60712,100.029344 L1209.00239,99.6108108 L1208.93193,100.308366 L1208.30405,101.215187 L1208.16453,101.215187 L1208.025,101.284942 L1207.74595,101.494208 L1207.74595,100.168855 L1204.81588,103.377606 L1204.11824,103.796139 L1201.81605,101.075676 L1203.69896,101.424453 L1205.30492,100.099099 L1201.74559,88.0314028 L1203.00272,88.3801802 L1205.93209,86.7067465 L1206.28021,86.2882136 L1205.86233,85.8696808 L1203.83919,81.6836551 L1202.8625,76.8007722 L1202.37416,75.6149292 L1201.95627,70.243758 L1201.74559,69.8956782 L1200.69983,67.0350064 L1202.79274,67.5232947 L1204.88564,66.0584299 L1205.09493,65.7096525 L1203.14086,63.7564994 L1200.90912,60.5477477 L1200.90912,60.2694234 L1200.69983,60.1292149 L1200.28125,59.7106821 L1200.35032,59.6409266 L1200.5603,59.1526384 L1201.04865,58.803861 L1200.90912,52.1080335 L1200.84006,51.8980695 L1200.07196,51.3400257 L1199.72314,45.4108108 L1199.09527,45.8990991 L1197.00236,44.2954208 L1195.81569,43.876888 L1189.6772,55.8050734 L1188.77027,55.8050734 L1188.56098,55.9438867 L1187.58429,57.757529 L1189.32838,59.6409266 L1189.46791,59.7106821 L1189.81742,59.7106821 L1185.63091,65.9189189 L1186.88666,67.6621081 L1186.88666,67.8720721 L1187.30454,67.9418275 L1188.35169,68.7788932 L1185.70068,71.1505792 L1185.0728,71.4993565 L1183.88682,75.0568855 L1184.02635,75.4754183 L1184.514,76.172973 L1184.79375,76.8007722 L1181.16605,79.8002574 L1181.02652,79.8002574 L1181.02652,79.4514801 L1176.98024,64.593565 L1173.77111,61.1057915 L1161.49274,57.8272844 L1158.91218,58.3853282 L1157.86573,57.9667954 L1156.33024,53.9216757 L1160.23699,56.1531532 L1162.46943,55.5253539 L1162.46943,55.1068211 L1159.12078,48.0615187 L1159.39913,48.1312741 L1159.60912,48.3405405 L1160.72534,48.9690373 L1161.77179,48.410296 L1161.91132,46.1083655 L1159.19054,40.8767053 L1161.63157,37.7377091 L1162.74848,38.0864865 L1162.95847,37.5291403 L1161.77179,33.41287 L1161.07416,32.5765019 L1159.67889,29.2972973 L1159.46959,24.1353925 L1157.23716,19.4617761 L1155.84189,4.46435006 L1155.70167,4.25508366 L1155.49307,4.18532819 L1154.51569,4.04581725 L1151.2375,6.55701416 L1147.26098,12.1367542 L1145.58666,18.8339768 L1145.72688,19.2525097 L1146.91216,19.2525097 L1146.49358,20.7173745 L1146.8424,20.7173745 L1145.09831,23.019305 L1145.16807,23.9958816 L1144.88832,25.1119691 L1144.67973,25.2514801 L1144.60997,25.4607465 L1143.63328,27.2046332 L1143.7728,26.3675676 L1142.86588,26.6465894 L1141.19155,28.1107568 L1140.9125,25.7397683 L1138.40101,21.6939511 L1136.09952,21.833462 L1135.95929,21.972973 L1134.07568,27.9021879 L1133.51757,33.0633951 L1132.19136,31.5992278 L1132.33159,31.3899614 L1133.09829,29.3670528 L1133.09829,29.2275418 L1133.02853,29.0880309 L1132.47111,28.4602317 L1131.14491,25.1817246 L1130.02939,23.4378378 L1124.02903,18.0659691 L1128.77365,20.0198198 L1128.98294,19.8803089 L1130.51774,17.8574003 L1122.14611,5.85945946 L1119.77346,4.11557272 L1118.44795,4.53410553 L1116.6341,8.37065637 L1114.89071,26.3675676 L1115.03024,26.5070785 L1116.56503,27.0651223 L1117.12314,27.0651223 L1116.07669,32.5758044 L1113.42498,35.8543115 L1111.75135,35.2969653 L1111.26231,34.0399717 L1110.77396,33.3431145 L1106.93767,22.6705277 L1105.12382,21.9032175 L1104.91453,21.9032175 L1103.03091,20.7173745 L1102.82162,20.647619 L1102.61163,20.7173745 L1100.30944,24.415112 L1096.96149,42.1323037 L1096.82196,42.3415701 L1096.47314,46.03861 L1096.54291,46.3873874 L1096.40338,47.363964 L1094.86788,50.8510399 L1096.26385,53.2931789 L1094.58883,54.8982523 L1093.82143,59.0828829 L1096.47314,61.036036 L1097.65912,60.8274672 L1097.3103,61.1057915 L1096.33292,62.5009009 L1095.77481,62.5009009 L1092.00828,64.4540541 L1092.00828,67.6621081 L1091.86875,67.6621081 L1091.93851,68.3603604 L1092.98427,70.1042471 L1089.07821,72.4061776 L1088.93798,72.615444 L1088.93798,72.8247104 L1090.96182,75.3366049 L1091.31064,79.9404659 L1091.10065,81.3348777 L1082.24139,84.5436293 L1081.47329,84.1250965 L1081.47329,84.0560386 L1077.77652,81.7541081 L1077.49677,81.7541081 L1074.98598,80.4978121 L1077.6363,77.4285714 L1078.33393,72.615444 L1076.73007,70.3825714 L1080.07872,72.3364221 L1080.84611,72.2666667 L1080.91588,71.8481338 L1078.75251,65.2911197 L1073.0326,59.5711712 L1071.35828,53.0148546 L1070.59018,51.6197452 L1070.52181,51.1307593 L1070.24206,51.1307593 L1071.00876,50.4332046 L1071.7064,50.5029601 L1071.84662,50.0146718 L1071.42804,48.3405405 L1071.14829,47.8522523 L1071.14829,47.7824968 L1073.38072,48.3405405 L1076.52008,46.3176319 L1076.73007,45.8990991 L1075.54409,44.5039897 L1070.80017,40.8767053 L1070.1716,39.9001287 L1066.61366,29.994852 L1066.61366,29.4368082 L1064.17264,27.2743887 L1063.82312,27.2743887 L1060.47517,30.204816 L1057.96298,42.1330013 L1057.96298,44.7132561 L1058.03345,44.9225225 L1058.17297,44.992278 L1059.00944,45.2015444 L1060.33564,44.8534646 L1060.33564,45.6200772 L1056.49795,52.7351351 L1057.26605,58.5255367 L1057.61417,58.874314 L1060.33564,56.642139 L1060.40471,57.0599743 L1060.54423,56.9909163 L1053.9167,69.0579151 L1056.63818,71.8481338 L1056.63818,71.9178893 L1056.70794,72.1278533 L1055.73055,73.5229627 L1055.10268,74.0803089 L1053.15,77.6385354 L1055.4522,80.847287 L1054.61434,81.6843526 L1053.35859,82.3812098 L1053.15,82.3812098 L1044.08074,87.8918919 L1037.52228,82.3114543 L1027.47633,77.9866152 L1026.70963,77.9866152 L1025.87247,76.243426 L1018.05826,67.6635032 L1018.47753,67.5937477 L1020.36115,67.7325611 L1022.73311,66.3374517 L1022.9417,66.0591274 L1022.73311,65.7801055 L1016.10488,61.036036 L1015.26771,58.5945946 L1014.70961,57.8272844 L1015.26771,57.3389961 L1016.80321,53.9914311 L1016.73345,53.7814672 L1012.12836,51.2012124 L1011.98953,51.0617014 L1009.82616,46.9454311 L1010.03615,44.7139537 L1015.19795,48.2010296 L1016.10488,48.2010296 L1016.10488,47.6429858 L1014.78007,43.0398224 L1007.38444,30.204816 L1004.24508,27.623166 L1002.71168,27.762677 L997.268728,40.1093951 L996.850147,43.2483912 L999.571622,45.0620335 L996.502027,54.2697555 L996.571093,54.6882883 L999.50116,55.3167851 L1002.50099,52.5963218 L997.966363,63.3379665 L998.176351,69.2671815 L998.315181,69.2671815 L997.339189,71.9178893 L997.408255,75.4063604 L998.663998,75.8939511 L1000.82736,75.4754183 L998.873986,78.8941338 L992.385282,70.1042471 L991.409291,67.1752149 L988.687816,64.9423423 L987.501836,65.2220618 L987.083953,65.4306306 L985.758446,67.1752149 L986.106566,69.40739 L985.827512,72.3364221 L985.758446,72.4759331 L985.200338,81.962677 L986.525845,83.4979949 L986.804201,83.6368082 L987.014189,87.4733591 L987.292546,88.4499356 L980.455721,92.2864865 L979.269742,89.9852535 L980.735473,90.5425997 L981.991216,89.9852535 L982.269573,89.7055341 L980.316892,83.4972973 L981.571938,82.1726409 L977.247297,73.1734878 L977.247297,73.0339768 L977.734944,72.9642214 L979.200676,72.3364221 L979.200676,71.3598456 L979.758784,70.3142111 L980.107601,68.5005689 L978.223289,64.5238095 L977.526351,59.6409266 L977.386824,59.4323578 L977.386824,58.5945946 L976.758255,57.8977375 L976.758255,56.0833977 L973.410304,51.6895006 L970.89812,51.967825 L969.643074,63.8269524 L969.154032,63.7564994 L967.96875,66.3374517 L968.247106,72.1278533 L966.712309,77.5687799 L966.712309,78.0570682 L966.78277,78.0570682 L964.410811,80.7775315 L964.061296,82.7299871 L965.108446,83.7065637 L965.247973,83.7065637 L965.247973,83.8467722 L965.596791,83.9862831 L966.503716,84.1250965 L967.409944,83.9862831 L963.922466,89.845045 L963.922466,89.9852535 L965.805383,92.356242 L962.038851,97.1003115 L960.921938,99.6108108 L964.410811,103.238095 L961.969088,106.098069 L961.131926,109.376577 L961.270755,110.492664 L950.597635,100.587387 L955.202027,102.40103 L957.364696,101.145431 L957.922804,100.587387 L957.224471,100.168855 L955.898965,97.2398224 L955.760833,95.844713 L955.898965,95.844713 L957.573289,96.4718147 L958.968559,95.634749 L958.620439,93.0544942 L952.271959,82.0324324 L951.783615,81.4743887 L951.644088,81.5441441 L951.434797,81.0558559 L951.364336,80.4280566 L953.66723,81.2658198 L956.667061,80.9163449 L956.736127,80.4280566 L953.66723,72.4061776 L954.922973,72.685897 L956.387309,72.1976088 L956.736127,71.9178893 L956.527534,71.3598456 L950.946453,62.0830656 L946.481588,38.8537967 L942.923649,37.8772201 L942.714358,38.3662059 L940.202872,51.1307593 L939.644764,51.6197452 L937.691385,55.6648649 L937.482095,56.5019305 L935.389189,61.175547 L935.389189,61.5940798 L936.435642,61.7335907 L938.458086,60.5477477 L938.946431,60.0594595 L939.575,63.5479305 L932.737478,79.9404659 L933.57464,82.5911737 L933.993919,82.7997426 L937.691385,77.5680824 L940.76098,68.7788932 L941.178863,68.2906049 L939.365709,78.7539254 L939.226182,78.6841699 L932.807939,92.0779176 L934.900147,93.1242497 L936.296115,91.9377091 L936.296115,91.7988958 L937.342568,90.9611326 L936.923986,92.9149833 L931.691723,103.726384 L931.691723,103.865894 L925.900654,112.376062 L925.133953,103.099282 L926.947804,103.796139 L927.993559,103.58757 L928.06402,103.447362 L927.784966,99.4719974 L927.156397,97.9366795 L925.203716,87.683323 L929.249302,89.845045 L931.063851,89.0784324 L931.342208,88.8684685 L931.272444,88.5203887 L927.854032,82.7997426 L925.063492,71.1512767 L925.063492,71.0117658 L922.552005,67.5239923 L921.436486,67.6635032 L914.808953,88.0321004 L916.971622,89.1474903 L917.110451,89.1474903 L918.505721,88.5901441 L916.901858,93.9613153 L913.622973,99.8905302 L913.622973,100.168855 L913.7625,100.378819 L914.31991,105.470968 L909.227872,113.004559 L909.855046,119.770839 L910.832432,121.793748 L909.716216,129.885382 L907.693074,130.373671 L906.227343,130.373671 L902.25152,127.653207 L900.507432,120.676963 L900.158615,120.676963 L900.088851,115.654569 L900.367905,115.864533 L900.507432,116.073799 L901.763176,116.979923 L902.739865,116.352821 L902.948458,116.003346 L902.809628,114.469423 L902.879392,114.260157 L902.809628,114.050891 L902.181059,104.98268 L905.948986,96.820592 L906.297804,94.7286255 L906.507095,94.3798481 L907.902365,94.588417 L909.716914,92.1476731 L912.575823,72.1976088 L911.599133,68.2913024 L911.180552,67.8727696 L893.531081,88.5203887 L893.810135,88.869166 L896.181397,90.4728443 L897.018559,90.2642754 L889.484797,97.030556 L891.856757,99.9602857 L891.995586,99.9602857 L892.275338,100.099099 L887.670946,108.121676 L886.555427,102.262216 L886.205912,102.262216 L886.135451,100.587387 L886.345439,100.517632 L887.740709,91.7988958 L889.066216,92.2864865 L889.973142,92.0779176 L891.089358,89.6357786 L890.601014,88.1018559 L889.34527,72.9649189 L887.252365,68.7091377 L886.903547,68.5005689 L886.555427,68.7788932 L875.671622,83.2182754 L875.60116,83.3577864 L875.60116,83.4979949 L877.555236,85.3813925 L878.113345,85.4504505 L878.950507,85.8696808 L874.206588,94.3791506 L869.322444,98.4249678 L867.788345,100.308366 L868.206926,102.331274 L870.299831,103.726384 L873.229899,102.192461 L865.207095,115.724324 L867.3,120.049163 L866.463535,120.118919 L858.021453,116.910167 L857.462647,116.841109 L857.462647,116.910167 L856.835473,116.700901 L855.091385,117.398456 L854.882095,117.3287 L851.045799,114.259459 L850.905574,113.981135 L850.556059,113.981135 L843.510642,111.678507 L842.254899,109.16731 L838.487669,95.77426 L838.487669,95.634749 L837.999324,95.0069498 L838.069088,95.0069498 L837.72027,94.3093951 L828.371959,82.5207207 L824.255215,80.7775315 L820.977725,81.4046332 L816.930046,79.5219331 L805.070248,69.2671815 L799.978209,67.6635032 L798.303885,67.8023166 L788.816047,70.3142111 L778.491047,67.2442728 L774.235473,67.9418275 L766.351498,62.6411094 L766.351498,62.0126126 L768.16535,62.1521236 L770.817061,60.9662806 L771.026351,60.7570142 L770.956588,60.4779923 L767.886993,56.8507079 L764.60741,50.0146718 L764.677872,50.0146718 L765.724324,50.2246358 L767.119595,49.5263835 L767.049831,45.9688546 L764.468581,41.57426 L762.794257,36.9006435 L761.81687,28.809009 L762.794257,30.4831403 L764.259291,31.8084942 L765.654561,31.4597169 L765.933615,31.3202059 L766.003378,30.9714286 L764.817399,28.2509653 L764.538345,26.8558559 L762.305912,22.7402831 L761.538514,17.5790759 L760.492061,14.997426 L758.538682,13.3937477 L756.655068,14.0208494 L756.655068,21.2754183 L755.259797,27.2046332 L755.259797,27.4138996 L753.655236,29.8560386 L753.515709,30.2745714 L753.515709,31.8782497 L754.492399,32.5060489 L750.934459,42.2020592 L751.492568,47.8522523 L751.771622,48.1312741 L752.121137,47.9220077 L753.725,47.434417 L754.213345,47.5034749 L748.5625,57.2692407 L748.283446,57.2692407 L743.540225,55.385843 L743.330236,54.409964 L742.353547,52.7351351 L739.424177,47.2942085 L739.074662,46.8756757 L739.074662,46.8059202 L739.772297,47.0158842 L740.539696,46.7361647 L741.238029,45.5503218 L740.819448,44.5039897 L736.005068,38.2259974 L735.865541,37.9476731 L737.470101,38.2957529 L738.935135,37.8074646 L739.63277,37.3191763 L738.935135,36.830888 L734.958615,32.366538 L735.028378,32.2967825 L735.237669,29.7158301 L736.981757,28.5997426 L737.05152,28.3904762 L734.889549,20.0198198 L735.028378,20.0198198 L734.889549,18.1364221 L735.65625,14.7184041 L733.842399,2.85997426 L732.237838,0.0697554698 L732.028547,0 Z M1115.58834,56.9902188 L1115.8674,56.5019305 L1115.44882,56.1531532 L1110.21586,48.1312741 L1113.91402,47.9220077 L1108.61199,38.0864865 L1108.05389,35.2969653 L1108.33364,35.645045 L1110.49561,37.1099099 L1110.91419,37.0401544 L1112.93733,40.3186615 L1113.5652,40.8076474 L1114.75048,41.2952381 L1117.05338,39.9001287 L1117.19221,39.6908623 L1118.65794,38.6445302 L1117.89054,39.8303732 L1116.35574,41.434749 L1115.37905,44.7132561 L1117.75101,46.1083655 L1120.19343,45.8286461 L1120.2625,45.4108108 L1121.93752,42.6896499 L1121.16873,45.4798687 L1119.77346,46.8756757 L1116.6341,48.9683398 L1114.26354,52.4561133 L1114.19307,52.7344376 L1114.40167,52.9444015 L1116.84409,54.2 L1116.84409,54.2697555 L1117.47126,54.3395109 L1117.19221,55.246332 L1117.75101,56.571686 L1118.9363,57.0599743 L1120.12297,56.571686 L1121.16873,55.6648649 L1113.63497,67.7325611 L1111.68159,64.593565 L1111.33277,63.6867439 L1112.2397,63.5479305 L1113.63497,62.5706564 L1113.70473,62.4311454 L1113.70473,62.2916345 L1111.61113,57.9667954 L1113.28615,58.6643501 L1115.58834,56.9902188 Z M1146.8424,36.6906795 L1144.05116,40.5976834 L1142.37753,41.434749 L1141.81873,43.806435 L1144.60997,46.1083655 L1141.19155,49.2473616 L1141.05203,49.2473616 L1138.40101,47.9917632 L1140.00557,38.016731 L1140.70251,37.5975006 L1142.86658,38.2259974 L1146.8424,36.6906795 Z M1070.10253,47.0849421 L1069.12654,45.7595882 L1068.98632,44.2249678 L1071.14829,47.363964 L1070.10253,47.0849421 Z M981.991216,111.748263 L978.572804,105.400515 L977.805405,103.028829 L978.572804,104.284427 L981.224515,106.725869 L982.27027,106.586358 L982.27027,111.887076 L981.991216,111.748263 Z M961.480743,116.700901 L961.62027,116.631145 L965.247973,112.933408 L965.945608,112.933408 L965.875845,115.095828 L965.596791,115.584116 L964.480574,121.862108 L960.992399,123.327671 L955.0625,122.838685 L950.45741,124.304247 L950.179054,122.630116 L950.248818,121.931864 L949.341892,119.560875 L952.760304,119.002831 L957.853041,119.839199 L958.061633,119.560875 L958.201858,115.79408 L957.713514,114.328517 L958.759966,115.236036 L961.341216,116.700901 L961.480743,116.700901 Z" id="path-3"></path>
        <linearGradient x1="49.954094%" y1="95.1364335%" x2="50.0038176%" y2="60.8764285%" id="linearGradient-5">
            <stop stop-color="#0797CD" offset="0%"></stop>
            <stop stop-color="#0479A3" offset="100%"></stop>
        </linearGradient>
    </defs>
    <g id="Page-1" stroke="none" stroke-width="1" fill="none" fill-rule="evenodd">
        <g id="landing" transform="translate(0.000000, -728.000000)">
            <g id="layer6" transform="translate(0.000000, 70.000000)">
                <mask id="mask-2" fill="white">
                    <use xlink:href="#path-1"></use>
                </mask>
                <g id="Mask"></g>
                <g id="layer3" mask="url(#mask-2)">
                    <g transform="translate(-56.000000, 658.000000)">
                        <mask id="mask-4" fill="white">
                            <use xlink:href="#path-3"></use>
                        </mask>
                        <g id="Clip-2" stroke="none" fill="none"></g>
                        <path d="M732.028547,0 L731.679032,0.13951094 L727.703209,3.90700386 L723.726689,11.7886744 L723.587162,11.7886744 L723.377872,11.9979408 L722.610473,13.3937477 L723.168581,14.4393822 L724.285495,14.9276705 L726.796284,13.5325611 L721.703547,24.5539254 L721.214505,25.1817246 L719.471115,30.5528958 L719.540878,30.8319176 L719.819932,30.9714286 L720.796622,31.1813925 L723.308108,30.6931042 L724.14527,30.9714286 L719.680405,42.620592 L719.052534,42.5515341 L712.913345,44.0157014 L704.471959,41.0162162 L703.983615,41.0162162 L703.355743,40.5976834 L703.28598,40.4581725 L703.28598,40.3193591 L703.006228,40.1093951 L702.379054,37.6679537 L702.448818,36.2037864 L702.448818,35.2272098 L701.681419,34.3901441 L701.681419,34.2499356 L701.332601,34.1104247 L700.705427,32.7850708 L700.355912,32.366538 L700.286149,32.436991 L700.146622,32.1572716 L700.216385,32.1572716 L700.076858,31.6696808 L700.076858,26.9953668 L700.774493,26.3675676 L700.983784,26.5077761 L700.91402,26.576834 L701.124008,26.576834 L701.890709,26.7163449 L702.379054,26.7163449 L703.146453,26.437323 L703.355743,25.9490347 L703.634797,25.6707104 L699.728738,15.4857143 L698.890181,9.3479305 L698.33277,7.67310167 L698.193243,7.53428829 L696.867736,7.39407979 L695.402703,8.4411094 L690.2409,14.0906049 L689.263514,16.5320463 L690.658784,18.3456885 L692.054054,19.1129987 L689.19375,23.019305 L688.565878,27.1341802 L689.891385,28.3904762 L688.496115,31.8782497 L682.147635,26.647287 L678.519932,25.390991 L676.636318,25.8095238 L656.404899,18.9734878 L633.382939,21.0661519 L622.220777,29.4368082 L616.639696,30.1343629 C616.639696,30.1343629 607.640203,25.1119691 603.105574,22.5317143 C601.640541,21.6939511 600.594088,21.1366049 600.594088,21.1366049 C587.33902,22.3915058 574.781588,30.7628597 561.52652,30.0646075 C558.038345,30.0646075 554.550169,20.2995393 551.061993,20.2995393 C545.480912,19.601287 539.900529,20.2995393 534.528041,17.5086229 C533.342061,17.0203346 532.016554,16.5320463 530.481757,15.4159588 C515.831419,11.9281853 492.460642,6.27799228 492.460642,6.27799228 L489.670101,10.4633205 L479.903209,9.76576577 L456.183615,25.8095238 L453.393772,29.2972973 L444.672635,32.0875161 L438.045101,36.970399 L413.627872,39.0630631 L402.465709,43.2483912 L392.698818,62.0823681 L382.234291,53.014157 L378.04848,51.6190476 L347.352534,60.6872587 L346.654899,63.4774775 L342.469088,64.1750322 L332.004561,77.4285714 L267.333784,57.8970399 L259.450507,57.8272844 L237.823818,53.014157 L232.941069,53.7117117 L225.96402,59.2921493 L204.337331,60.6872587 L185.501182,44.6435006 L179.920101,46.03861 L147.270777,43.3181467 L108.063682,57.8970399 L77.3677365,83.7065637 L67.1829611,84.8226512 L60.6244932,82.3114543 L0.628569257,93.4723295 L0,538.930759 L1460.84797,538.930759 L1460.84797,539.558559 L1460.84797,540.883215 L1559.42382,540.883215 L1559.56334,539.767825 L1591.09715,539.558559 L1591.23528,539.977091 L1634.2103,539.977091 L1634.2103,539.83758 L1725.94932,539.83758 L1725.94932,541.511712 L2890.72095,541.511712 C2890.72095,541.093179 2890.79071,540.674646 2890.79071,540.256113 C2890.79071,534.815187 2890.86047,280.137967 2890.86047,274.69704 C2890.86047,263.88564 2890.93093,253.003786 2890.93093,242.190991 C2890.93093,235.354955 2891,228.449163 2891,221.613127 L2891,220.985328 C2887.86064,220.915573 2884.79105,220.915573 2881.65169,220.845817 L2881.65169,217.358044 C2881.65169,216.730245 2881.51146,216.241956 2881.02382,215.893179 C2880.675,215.614157 2880.25642,215.26538 2879.97806,214.916602 C2878.86115,213.451737 2877.39611,213.10296 2875.44343,213.521493 C2875.16368,214.149292 2874.7451,214.916602 2874.39628,215.683215 C2874.04816,216.520978 2873.55912,216.8 2872.65289,216.8 C2871.18716,216.730245 2869.72213,216.730245 2868.25709,216.730245 L2866.79206,216.730245 L2866.79206,220.148263 L2857.30492,220.148263 L2857.30492,238.074721 L2851.09527,238.074721 L2851.09527,258.931606 L2847.60709,258.931606 L2847.60709,264.303475 C2846.42181,264.652252 2840.28193,264.722008 2837.97973,264.442288 L2837.97973,258.37426 C2836.86351,258.304505 2835.88752,258.234749 2834.77061,258.164296 L2834.77061,250.631403 C2832.93653,250.551882 2831.12546,250.56374 2829.29836,250.574901 C2827.9282,250.583272 2826.54828,250.59234 2825.14324,250.561647 L2825.14324,205.918147 L2820.53885,205.918147 C2820.39932,205.429858 2820.2598,205.081081 2820.19003,204.731606 C2819.21334,200.407465 2817.39949,196.501158 2814.81824,192.873874 C2814.26014,192.106564 2814.12131,191.409009 2814.12131,190.502188 L2814.12131,168.180438 L2814.12131,166.436551 L2810.63243,166.436551 L2810.63243,171.667514 L2810.63243,176.968929 L2810.63243,182.130834 L2810.63243,187.711969 C2810.00456,187.223681 2809.65574,186.944659 2809.30762,186.595184 C2801.28482,179.689393 2791.93581,176.690605 2781.33176,177.597426 C2773.86706,178.225225 2767.23883,180.945689 2761.51962,185.618607 C2758.65861,187.920538 2756.21689,190.502188 2754.19445,193.570731 C2753.77517,194.199228 2753.28682,194.408494 2752.51943,194.408494 C2750.63581,194.338041 2748.75289,194.408494 2746.65999,194.408494 C2746.52046,196.640669 2746.58953,198.872147 2746.58953,201.104322 C2746.58953,203.337194 2746.52046,205.569369 2746.52046,207.801544 L2746.52046,214.497372 L2746.52046,221.193897 L2746.52046,227.89112 L2746.52046,234.796214 C2744.21757,234.935725 2741.98583,234.796214 2739.54341,234.935725 L2739.54341,248.956574 L2739.54341,263.047179 L2726.49833,263.047179 C2726.49833,262.420077 2726.42787,261.931789 2726.42787,261.373745 C2726.42787,253.072147 2726.42787,244.702188 2726.49833,236.400589 C2726.49833,235.284502 2726.28834,234.377681 2725.31166,233.749882 C2725.17213,233.610371 2725.0333,233.47086 2724.89307,233.332046 C2723.91639,232.70355 2723.77686,231.866484 2723.77686,230.820152 C2723.84732,228.239897 2723.77686,225.658945 2723.77686,223.077295 L2723.77686,221.543372 L2717.70743,221.543372 L2717.70743,185.968082 L2712.96351,185.968082 L2712.96351,180.038867 L2703.89495,180.038867 L2703.89495,186.037838 L2699.91774,186.037838 L2699.91774,195.594337 C2698.94105,195.663395 2698.17365,195.733151 2697.19696,195.803604 L2697.19696,218.473434 C2696.08074,218.543189 2695.10475,218.612945 2693.98784,218.612945 C2693.91807,222.519251 2693.91807,226.355802 2693.84831,230.262108 L2690.15084,230.262108 C2690.08108,223.077295 2690.15084,215.892481 2690.15084,208.707668 L2690.15084,187.083472 L2690.15084,165.459277 L2690.15084,143.765326 L2686.73243,143.765326 L2686.73243,139.859717 L2674.24476,139.859717 L2674.24476,145.299946 C2673.10343,145.414345 2672.00326,145.404579 2670.88914,145.393418 C2669.95919,145.385745 2669.01878,145.376677 2668.03581,145.440154 C2667.96605,173.969444 2667.96605,202.499431 2667.89628,231.099871 L2658.82703,231.099871 L2658.82703,238.633462 C2657.71151,238.703218 2656.73412,238.772973 2655.54814,238.772973 L2655.54814,255.095753 L2651.57232,255.095753 C2651.43279,253.49068 2651.50186,251.887001 2651.50186,250.281928 L2651.50186,245.399045 C2651.50186,243.725611 2651.57232,242.05148 2651.57232,240.376651 L2651.57232,235.494466 L2651.57232,230.471375 C2650.59493,230.401619 2649.75777,230.401619 2648.71202,230.331864 C2648.64225,225.797758 2648.71202,221.263653 2648.64225,216.659792 C2644.03716,215.334438 2639.43347,214.009084 2634.75861,212.684427 L2634.75861,211.219562 C2634.75861,195.663395 2634.75861,180.108623 2634.82908,164.553153 C2634.82908,163.506821 2634.55002,162.669755 2633.92145,161.83269 C2630.43328,157.018865 2627.01486,152.206435 2623.52739,147.463063 C2622.96928,146.765508 2622.75929,145.997501 2622.75929,145.160435 C2622.82905,142.16095 2622.75929,139.161465 2622.75929,136.162677 L2622.75929,134.697115 L2621.43448,134.697115 L2621.43448,136.162677 L2621.43448,145.160435 C2621.43448,146.067954 2621.22519,146.765508 2620.66639,147.532121 C2617.31774,152.415004 2613.96979,157.367642 2610.62044,162.320978 C2610.13209,163.087591 2609.9235,163.785145 2609.9235,164.691967 C2609.9235,177.945506 2609.9235,191.12929 2609.85304,204.382829 L2609.85304,206.126716 C2608.94611,206.47619 2608.10895,206.824968 2607.13296,207.243501 L2607.13296,211.289318 C2606.08651,211.359073 2605.24935,211.359073 2604.27196,211.428829 C2604.2022,212.405405 2604.2022,213.381284 2604.13313,214.428314 L2599.66757,214.428314 L2599.66757,208.847179 L2588.43634,208.847179 L2588.43634,213.242471 L2585.6458,213.242471 C2585.43581,213.661004 2585.22652,214.009781 2585.01723,214.428314 C2583.62196,217.636368 2582.22739,220.775364 2580.90188,223.984116 C2580.62283,224.682368 2580.4826,225.449678 2580.4826,226.146535 C2580.41354,231.30844 2580.41354,236.400589 2580.41354,241.563192 C2580.41354,242.958301 2579.85473,244.003936 2578.87874,245.050268 C2578.73851,215.892481 2578.80828,186.735393 2578.80828,157.507153 C2577.76182,157.158376 2576.78583,156.810296 2575.87891,156.461519 C2571.48311,154.926898 2567.01894,153.321825 2562.62384,151.857658 C2561.71622,151.577938 2561.15881,151.08965 2560.66976,150.323037 C2558.08921,145.928443 2555.4375,141.602906 2552.85695,137.209009 C2552.64696,136.790476 2552.3686,136.441001 2551.94932,135.8139 C2549.36877,140.138041 2546.85659,144.323369 2544.20557,148.648906 L2514.69631,148.648906 L2514.69631,156.880051 L2505.55659,156.880051 C2505.55659,157.577606 2505.48682,158.13565 2505.48682,158.693694 L2505.48682,191.199045 L2505.48682,239.679794 C2505.48682,240.098327 2505.55659,240.516162 2505.48682,240.935393 C2505.41706,241.213717 2505.3473,241.493436 2505.1387,241.63225 C2503.46368,242.470013 2501.78936,243.237323 2499.90574,244.144144 L2499.90574,201.662366 C2498.85999,201.243833 2497.81354,200.825997 2496.76639,200.406767 C2494.53395,199.500644 2492.37128,198.314801 2489.99932,197.826512 C2487.69713,197.338224 2485.18564,197.687001 2482.74392,197.687001 L2468.93074,197.687001 L2467.46641,197.687001 C2467.32688,196.361647 2467.18666,195.106049 2467.11689,193.849753 L2451.97821,193.849753 C2451.90845,194.338041 2451.76962,194.827027 2451.69916,195.454826 L2441.93226,195.454826 L2441.93226,213.661004 L2436.83953,213.661004 L2436.83953,222.659459 L2432.3049,222.659459 C2432.3049,227.053356 2432.23583,231.30844 2432.23583,235.633977 L2428.11909,235.633977 L2428.11909,196.570216 C2425.96619,196.491393 2423.88165,196.503251 2421.78805,196.513714 C2420.21697,196.522782 2418.64102,196.531153 2417.02669,196.501158 C2416.74764,195.873359 2416.39952,195.175107 2416.05,194.47825 C2415.91047,194.687516 2415.77164,194.756574 2415.77164,194.896782 C2415.56166,196.709727 2414.23615,197.268468 2412.63229,197.617246 C2410.19056,198.104837 2407.74884,198.872147 2405.16689,199.570399 L2405.16689,221.193897 L2400.35321,221.193897 L2400.35321,215.056113 L2388.49341,215.056113 L2388.49341,184.293254 C2387.3772,184.014929 2375.79715,183.874721 2373.42519,184.15444 L2373.42519,228.797941 L2368.54174,228.797941 L2368.54174,245.469498 L2361.49493,245.469498 L2361.49493,259.977938 L2359.40203,259.977938 C2359.40203,259.490347 2359.33296,258.931606 2359.33296,258.37426 C2359.33296,249.026329 2359.33296,239.679794 2359.40203,230.331864 C2359.40203,229.286229 2359.19274,228.309653 2358.4958,227.472587 C2357.7277,226.565766 2357.51911,225.519434 2357.51911,224.333591 C2357.58887,221.263653 2357.51911,218.264865 2357.51911,215.195624 C2357.51911,214.846847 2357.44865,214.567825 2357.44865,214.079537 L2353.3333,214.079537 L2353.3333,174.807207 C2352.21639,174.737452 2351.16993,174.667696 2349.98395,174.597941 L2349.98395,168.319251 C2348.86843,167.971171 2345.65931,167.900718 2343.63547,168.180438 L2343.63547,174.876963 L2340.84493,174.876963 C2340.77517,176.690605 2340.84493,178.364039 2340.77517,180.108623 L2340.77517,185.340283 C2340.21706,185.410039 2339.65895,185.54955 2338.96202,185.620003 L2338.96202,210.591763 C2338.12416,210.660821 2337.49628,210.731274 2336.65982,210.80103 L2336.65982,223.566281 L2334.00741,223.566281 L2334.00741,128.140798 C2333.17095,128.071042 2332.47401,128.001287 2331.63685,127.931532 L2331.63685,123.815959 L2322.98547,123.815959 L2322.98547,129.884685 L2318.66014,129.884685 L2318.66014,224.612613 C2317.42393,224.772353 2316.23306,224.749333 2315.03592,224.726314 C2314.13876,224.709573 2313.23742,224.692134 2312.31166,224.752124 L2312.31166,232.982571 C2311.54495,233.053024 2310.84662,233.12278 2310.07922,233.192535 L2310.07922,251.190144 L2307.21892,251.190144 L2307.21892,223.915058 C2306.59105,223.845302 2306.03294,223.776245 2305.3353,223.776245 C2305.26624,220.637248 2305.3353,217.56731 2305.3353,214.567825 L2305.3353,205.290347 L2305.3353,196.01287 L2305.3353,186.874903 L2305.3353,177.597426 L2305.3353,168.319251 L2305.3353,159.042471 L2305.3353,149.764296 L2305.3353,140.487516 L2305.3353,131.34955 L2305.3353,122.071375 L2305.3353,112.724839 L2292.28953,112.724839 L2292.28953,98.8435006 C2291.59189,98.8435006 2291.03378,98.7730476 2290.47568,98.7730476 L2272.68598,98.7730476 C2271.63953,98.7730476 2270.94189,98.4947233 2270.24426,97.6576577 C2265.08176,91.5191763 2258.45422,88.1011583 2250.22213,87.61287 C2249.87331,87.61287 2249.52449,87.5431145 2249.17568,87.5431145 C2249.03615,87.5431145 2248.89662,87.4733591 2248.61757,87.3331506 L2248.61757,63.8960103 L2245.75657,63.8960103 C2245.6875,65.4299331 2245.75657,66.9645534 2245.6875,68.5696268 L2245.6875,73.3129987 L2245.6875,77.9168597 L2245.6875,82.6602317 L2245.6875,87.4036036 C2231.10623,90.0543115 2222.87483,98.3545148 2220.85169,112.585328 L2206.48041,112.585328 L2206.48041,234.865969 C2204.80538,236.122265 2203.34105,237.168597 2201.80625,238.284685 C2201.38767,237.796396 2201.5272,237.308108 2201.5272,236.81982 L2201.5272,203.616216 L2201.5272,192.664607 C2201.5272,191.897297 2201.24814,191.409009 2200.55051,190.990476 C2198.87618,190.0139 2197.27162,188.967568 2195.66706,187.920538 C2194.89966,187.43225 2194.13226,187.223681 2193.22534,187.223681 L2180.52768,187.223681 L2178.85405,187.223681 C2178.78359,185.758816 2178.64546,184.433462 2178.575,182.9679 L2168.04071,182.9679 C2167.97095,183.526641 2167.97095,184.014929 2167.90118,184.711786 L2161.06436,184.711786 L2161.06436,194.756574 L2161.06436,204.802059 L2157.57618,204.802059 C2157.50642,206.546644 2157.57618,208.220077 2157.50642,209.894208 L2157.50642,214.916602 L2154.36706,214.916602 L2154.36706,229.146718 C2153.25084,229.216474 2152.27346,229.286229 2151.15794,229.286229 L2151.15794,249.44556 L2147.94882,249.44556 L2147.94882,244.352713 L2147.94882,219.799485 C2147.94882,219.310499 2148.01858,218.822909 2147.46047,218.405073 C2147.18142,218.195109 2147.25048,217.56731 2147.25048,217.078324 L2147.25048,201.802574 C2147.25048,201.035264 2147.18142,200.198198 2146.97213,199.430888 C2145.78615,194.548005 2144.59947,189.734878 2143.41419,184.851995 C2143.34443,184.503218 2143.2042,184.15444 2142.99561,183.456885 C2142.71586,184.782239 2142.4375,185.758816 2142.22751,186.735393 C2141.18176,191.269498 2140.13461,195.873359 2139.15861,200.407465 C2139.01909,201.104322 2138.94932,201.872329 2138.94932,202.638942 C2138.94932,210.940541 2138.87956,219.310499 2138.94932,227.612098 C2138.94932,229.565251 2138.39052,231.030116 2136.92618,232.564039 C2136.71689,230.750396 2136.92618,229.076963 2136.78596,227.26332 C2136.36877,227.192867 2136.01926,227.192867 2135.67044,227.12381 L2129.2522,227.12381 C2128.76315,227.12381 2128.34527,227.12381 2127.99645,226.634824 C2127.08953,225.449678 2126.53072,223.984813 2125.20591,223.077992 C2124.99662,222.939179 2125.06639,222.380438 2125.06639,222.03166 C2125.06639,219.450708 2125.06639,216.869755 2125.13615,214.288803 L2125.13615,212.684427 C2122.97348,212.614672 2120.81081,212.544219 2118.57838,212.544219 C2118.57838,211.359073 2118.50931,210.312741 2118.57838,209.266409 C2118.64814,208.220077 2118.43885,207.243501 2117.67145,206.406435 C2117.46216,206.127413 2117.25217,205.848391 2117.11404,205.569369 C2116.55524,204.383526 2115.64831,204.034749 2114.3228,204.523037 C2113.97468,205.639822 2113.55541,206.755212 2113.20589,208.010811 L2108.32314,208.010811 L2108.32314,211.707851 L2101.69561,211.707851 C2101.62584,214.009781 2101.69561,216.171503 2101.62584,218.33462 L2101.62584,224.752821 L2101.62584,231.448649 L2097.30051,231.448649 L2097.30051,254.467954 C2096.46334,254.537709 2095.76571,254.537709 2094.85878,254.607465 L2094.85878,260.746644 L2088.16079,260.746644 C2087.9522,258.444015 2088.16079,256.21184 2088.02196,253.840154 C2087.32432,253.770399 2086.62669,253.700644 2085.85859,253.561133 L2085.85859,245.260929 L2079.23176,245.260929 L2079.23176,195.873359 L2074.90572,195.873359 C2073.16163,191.54852 2071.41755,187.293436 2069.53463,182.689575 C2069.25557,183.247619 2069.04628,183.596396 2068.97582,183.875418 C2067.44172,187.781725 2065.83646,191.617578 2064.30236,195.524582 C2063.95355,196.431403 2063.39544,196.988749 2062.41875,197.198713 C2060.46537,197.617246 2058.5113,198.17529 2056.34932,198.733333 L2056.34932,220.426587 L2054.60524,220.426587 L2051.46588,220.426587 L2051.46588,214.219048 C2049.37228,214.149292 2047.41959,214.149292 2045.46622,214.149292 L2039.53632,214.149292 L2039.53632,183.177864 L2024.60693,183.177864 C2024.39764,198.035779 2024.67739,212.823938 2024.4667,227.821364 L2019.72348,227.821364 L2019.72348,234.099356 L2019.72348,240.237838 L2019.72348,246.51583 L2019.72348,252.653614 L2019.72348,258.931606 L2010.65353,258.931606 C2010.65353,258.37426 2010.58516,257.885972 2010.58516,257.327928 L2010.58516,229.42574 C2010.58516,228.309653 2010.44493,227.26332 2009.67684,226.426255 C2008.84037,225.519434 2008.70084,224.473102 2008.70084,223.287259 C2008.77061,220.357529 2008.70084,217.496857 2008.70084,214.567825 C2008.70084,214.079537 2008.63038,213.661004 2008.63038,213.102263 L2004.51503,213.102263 L2004.51503,173.760178 L2001.09592,173.760178 L2001.09592,167.134106 L1994.81721,167.134106 L1994.81721,173.970142 L1992.02667,173.970142 L1992.02667,184.433462 C1991.32973,184.503218 1990.84139,184.572973 1990.14375,184.711786 C1990.00422,193.012687 1990.21351,201.243833 1990.07399,209.684942 L1988.53919,209.684942 L1988.53919,112.09704 L1976.95914,112.09704 L1976.95914,99.5403578 L1963.84291,99.5403578 L1963.84291,88.3801802 L1959.51757,88.3801802 L1959.51757,17.0203346 L1957.3542,17.0203346 L1955.19223,17.0203346 L1955.19223,88.3104247 L1947.93613,88.3104247 L1947.93613,99.4712999 L1930.49525,99.4712999 L1930.49525,112.027284 L1921.77481,112.027284 L1921.77481,198.941902 L1914.72939,198.941902 L1914.72939,203.755727 C1913.9613,203.824785 1913.40319,203.894541 1912.70555,203.964994 C1912.63649,204.244015 1912.4272,204.523037 1912.35673,204.802059 C1911.31028,208.568855 1910.26453,212.265894 1909.28784,216.03269 C1909.14761,216.660489 1909.07855,217.358044 1909.07855,217.985843 C1909.07855,223.845302 1909.00878,229.704762 1909.07855,235.494466 C1909.07855,236.679611 1908.65927,237.726641 1907.89257,238.772973 L1907.89257,237.1679 L1907.89257,144.045045 C1907.89257,141.743115 1908.24139,142.370216 1906.14848,141.115315 C1904.61298,140.207797 1903.07889,139.371429 1901.47432,138.534363 C1906.00895,130.024196 1905.45154,122.072072 1898.05661,115.375547 C1892.3353,110.213642 1885.35895,109.027799 1878.17331,112.027284 C1869.17382,115.79408 1865.75541,122.909138 1866.73279,132.256371 L1863.45321,132.256371 C1863.38345,132.674903 1863.31438,132.953925 1863.31438,133.302703 L1863.31438,134.139768 L1863.31438,194.129472 C1863.31438,203.40695 1863.24392,212.754183 1863.31438,222.03166 C1863.31438,223.007539 1863.17416,223.91436 1862.47722,224.612613 C1861.15101,226.007722 1860.73313,227.681853 1860.94172,229.494798 C1861.08125,230.681338 1860.94172,231.936937 1860.94172,233.12278 C1860.94172,233.541313 1860.87196,234.028903 1860.87196,234.587645 C1859.96434,234.587645 1859.19764,234.6574 1858.43093,234.587645 C1857.59307,234.517889 1856.9652,234.796214 1856.33733,235.284502 C1855.36064,236.122265 1854.31419,236.819122 1852.98868,237.796396 L1852.98868,235.842546 C1852.98868,221.403861 1852.98868,206.964479 1853.05845,192.524399 C1853.05845,191.269498 1852.70963,190.432432 1851.52365,189.803936 C1850.05861,189.037323 1848.66334,188.060049 1847.26807,187.153228 C1846.50068,186.66494 1845.73328,186.456371 1844.82705,186.456371 L1831.98986,186.456371 L1830.45507,186.456371 C1830.31554,184.991506 1830.24578,183.666152 1830.10625,182.201287 L1819.64172,182.201287 C1819.57196,182.759331 1819.50289,183.247619 1819.36267,183.945174 L1812.66537,183.945174 L1812.66537,204.034051 L1809.10743,204.034051 L1809.10743,214.079537 C1808.47956,214.149292 1807.99052,214.149292 1807.57264,214.149292 L1805.89901,214.149292 C1805.82855,218.891967 1805.89901,223.636036 1805.82855,228.448466 L1802.68919,228.448466 L1802.68919,248.748005 L1799.48007,248.748005 L1799.48007,247.073874 L1799.48007,219.868543 C1799.48007,219.101931 1799.75912,218.194412 1798.92126,217.566613 C1798.71267,217.427799 1798.78313,216.799302 1798.78313,216.381467 C1798.78313,211.986873 1798.71267,207.59158 1798.78313,203.196986 C1798.78313,201.104322 1798.57314,199.011658 1798.01503,196.988749 C1796.89952,192.664607 1795.85236,188.339071 1794.80591,184.014232 C1794.73545,183.804965 1794.66639,183.596396 1794.38663,183.317375 C1794.2478,183.735907 1794.10828,184.224196 1793.96875,184.642728 C1792.85253,189.73418 1791.66586,194.756574 1790.55034,199.848723 C1790.41081,200.47722 1790.41081,201.174775 1790.41081,201.802574 C1790.41081,210.312044 1790.34105,218.822909 1790.41081,227.333076 C1790.41081,229.146718 1789.64341,230.402317 1788.38767,231.657218 L1788.38767,226.565766 L1788.03885,226.565766 L1788.03885,216.659792 L1732.5064,215.962934 L1731.45994,215.404193 L1731.25135,215.125869 L1729.64679,215.125869 L1729.08868,226.844788 L1714.57717,226.426255 L1714.36858,191.967053 L1712.55473,188.897115 L1711.01923,187.293436 L1710.95017,174.80651 L1710.04255,172.574335 L1709.69373,172.434824 L1706.55437,171.807722 L1703.13666,171.877477 L1703.13666,125.838867 L1702.8569,125.628903 L1699.9973,124.862291 L1698.53226,124.862291 L1696.78748,124.513514 L1696.50912,117.677477 L1696.3689,117.258945 L1685.20743,117.258945 L1685.20743,117.328003 L1684.57886,117.677477 L1684.09122,125.140615 L1679.62635,125.977681 L1679.41706,126.117192 L1679.3473,126.326458 L1678.85895,137.767053 L1675.85842,139.022651 L1675.71959,139.161465 L1675.30101,167.900718 L1672.78953,168.319251 L1671.95236,168.668726 L1671.74307,169.71436 L1671.81214,169.993382 L1671.74307,183.037655 L1669.92853,183.456188 L1668.04561,183.317375 L1667.69609,70.3825714 L1667.62703,70.2430605 L1667.4868,70.173305 L1665.81318,69.7554698 L1664.97532,69.7554698 L1663.92956,69.5455058 L1663.0917,64.6626229 L1662.88311,64.3842986 L1647.39561,64.7323784 L1647.39561,64.9416448 L1646.69728,65.2904221 L1646.27869,71.5684144 L1638.60541,72.4752355 L1638.53494,184.711786 L1627.37278,185.26983 L1626.88444,194.687516 L1623.60625,195.244862 L1623.46672,195.385071 L1622.97838,197.546793 L1622.49003,216.381467 L1619.42114,216.381467 L1619.48951,186.735393 L1618.23446,184.15444 L1615.51368,183.247619 L1615.51368,166.018018 L1608.11875,163.924656 L1606.65372,163.158044 L1606.02584,163.296857 L1597.86351,160.507336 L1598.14257,99.5403578 L1596.18919,92.9833436 L1595.9799,92.7740772 L1566.88851,93.332121 L1566.74899,93.5420849 L1565.07466,99.0527671 L1565.07466,150.601362 L1564.58702,152.13668 L1561.72601,157.089318 L1561.72601,157.576909 L1561.51672,158.413974 L1560.81909,158.553485 L1560.05169,158.553485 L1558.44643,159.181982 L1558.44643,159.320795 L1557.74949,162.739511 L1553.56368,162.599302 L1552.93581,156.252252 L1552.79628,155.833719 L1538.14595,155.833719 L1537.02903,161.134438 L1533.88967,162.250525 L1527.89001,177.87575 L1528.03024,197.896268 L1527.89001,197.896268 L1526.91332,202.080898 L1526.49474,87.8911943 L1526.35591,87.6826255 L1507.10118,80.6366255 L1503.12466,77.2186075 L1493.63682,61.0353385 L1493.63682,60.965583 L1492.38038,59.6402291 L1492.24155,59.6402291 L1490.91605,61.0353385 L1488.05505,65.9879768 L1487.91622,66.0577323 L1483.59088,73.591323 L1446.54576,75.7537426 L1444.66284,77.3581184 L1444.24356,86.7751068 L1433.77903,87.1245817 L1433.77903,87.2633951 L1432.73258,87.9609498 L1432.59375,137.278764 L1432.59375,140.975107 L1432.59375,198.733333 L1429.10488,200.685789 L1428.89628,200.895753 L1426.94291,201.59261 L1426.80268,182.688878 L1426.31434,182.759331 L1426.45386,182.410553 L1426.59409,148.160618 L1424.50048,145.230888 L1416.89626,141.951683 L1410.05944,140.417761 L1385.43292,140.487516 L1385.15386,138.742932 L1384.03765,135.604633 L1383.82836,135.395367 L1366.17819,135.395367 L1363.03883,137.626844 L1352.01689,138.045377 L1351.59761,138.185586 L1351.59761,161.344402 L1345.87701,161.902445 L1345.52889,162.041259 L1345.18007,173.272587 L1340.36569,173.760178 L1339.94711,173.899689 L1339.94711,174.318221 L1336.73798,177.38816 L1335.48224,175.435006 L1335.90152,175.435006 L1336.04035,175.016474 L1336.24964,142.649936 L1334.92413,140.068983 L1334.78461,139.999228 L1319.36687,140.068983 L1315.59964,141.951683 L1306.8792,143.974592 L1307.01873,149.625483 L1306.53038,150.601362 L1306.18157,150.671117 L1306.1118,150.950837 L1304.5777,150.950837 L1297.18277,148.92723 L1292.50792,149.834051 L1288.81045,148.857475 L1291.32194,147.113588 L1295.71704,140.906049 L1295.71704,140.487516 L1288.39187,139.300976 L1288.60186,139.161465 L1290.06689,139.23122 L1290.20572,138.882443 L1290.13596,137.208311 L1283.29913,133.232947 L1283.02008,133.232947 L1282.95032,132.813717 L1280.85741,131.209341 L1280.71788,131.209341 L1280.71788,131.000075 L1281.0667,129.325943 L1281.27669,128.977864 L1281.41482,128.907411 L1281.69457,128.698144 L1281.97363,126.535725 L1279.74119,124.722082 L1277.22971,123.536239 L1276.25372,121.931864 L1276.81182,121.583086 L1277.71875,121.792353 L1278.34592,121.723295 L1278.41569,120.048466 L1278.90403,118.862623 L1277.9978,117.048981 L1277.71875,116.770656 L1273.6027,114.258762 L1272.90507,114.119251 L1272.90507,114.189006 L1269.41689,109.585145 L1265.51014,100.168157 L1265.44037,99.6798687 L1264.67228,99.6798687 L1264.67228,99.4015444 L1255.53326,83.2873333 L1255.53326,83.2175779 L1254.90538,81.6836551 L1254.76655,81.6138996 L1254.62633,81.6138996 L1254.34728,81.5441441 L1254.34728,81.2651223 L1252.11554,78.4749035 L1250.0917,77.2186075 L1249.325,77.2883629 L1249.325,77.8464067 L1249.04595,78.0563707 L1248.69643,78.195184 L1248.62736,78.5446589 L1249.53359,83.0787645 L1249.39476,83.4275418 L1249.11571,83.3570888 L1248.90572,83.7756216 L1248.69643,85.0319176 L1249.95287,86.2177606 L1250.44122,86.4960849 L1250.51028,86.6362934 L1252.1853,94.5877194 L1251.69696,94.5877194 L1250.23193,120.886229 L1250.72027,124.233794 L1250.8598,124.373305 L1253.44035,124.373305 L1254.55726,122.699871 L1254.62633,122.281338 L1254.20775,129.884685 L1248.83666,137.557786 L1248.83666,137.975622 L1249.53359,138.254644 L1243.46486,139.929472 L1241.58055,139.859717 L1235.09255,135.53418 L1235.02348,135.395367 L1234.53444,135.115647 L1235.99947,132.605148 L1235.99947,132.395184 L1235.86064,132.186615 L1229.58123,127.65251 L1229.30287,127.164221 L1229.23241,126.954257 L1229.02382,126.815444 L1228.88359,126.675933 L1229.16265,126.60548 L1230.14003,126.884502 L1230.41839,126.675933 L1232.16318,123.327671 L1228.6743,115.51436 L1231.32671,120.467696 L1232.79035,121.235006 L1234.46607,120.746718 L1234.18632,119.629933 L1234.25538,117.816988 L1230.55792,107.562934 L1231.32601,107.493179 L1233.69728,106.098069 L1233.90726,105.539328 L1233.55845,104.005405 L1230.27956,101.075676 L1226.51233,95.3557272 L1225.95422,93.4723295 L1225.88376,93.402574 L1225.53494,93.2630631 L1225.32635,92.7043218 L1225.60541,92.0074646 L1225.11706,81.4046332 L1225.18613,81.2651223 L1225.11706,80.4978121 L1224.55895,80.0792793 L1224.34896,80.0792793 L1224.13967,79.9404659 L1224.34896,72.754955 L1224.69778,72.685897 L1224.83801,72.3364221 L1224.76824,67.8023166 L1224.62802,67.4535393 L1224.2799,67.3837838 L1223.93108,67.1047619 L1223.09392,57.6877735 L1220.51267,53.3636319 L1218.28024,53.3636319 L1217.16402,54.6185328 L1217.09426,54.7587413 L1216.88497,54.8277992 L1216.74474,55.0370656 L1214.23395,61.6645328 L1214.09443,61.8731017 L1214.16349,62.1521236 L1214.16349,62.9898867 L1213.67584,63.1984556 L1213.46655,63.1984556 L1211.86199,65.1516088 L1211.58294,64.3152407 L1211.02483,64.5238095 L1208.51334,66.8954955 L1207.74525,68.0122806 L1207.46689,68.2906049 L1207.60712,68.6393822 L1209.62886,70.3839665 L1212.62939,69.2671815 L1212.83868,69.3376345 L1208.51334,80.9163449 L1208.65287,81.2658198 L1209.00239,81.3348777 L1209.35051,81.3348777 L1211.16436,80.3589987 L1211.6527,79.9404659 L1211.37295,82.1028855 L1212.35034,81.6843526 L1212.27988,82.1726409 L1209.48934,86.4967825 L1209.48934,86.6362934 L1208.025,88.8684685 L1207.04831,89.4969653 L1207.04831,88.798713 L1206.34998,88.9389215 L1204.88564,90.5425997 L1204.81588,90.6821107 L1205.37329,93.6815959 L1206.4902,94.1001287 L1209.14122,92.7057169 L1209.35051,92.7057169 L1209.35051,95.77426 L1207.60712,100.029344 L1209.00239,99.6108108 L1208.93193,100.308366 L1208.30405,101.215187 L1208.16453,101.215187 L1208.025,101.284942 L1207.74595,101.494208 L1207.74595,100.168855 L1204.81588,103.377606 L1204.11824,103.796139 L1201.81605,101.075676 L1203.69896,101.424453 L1205.30492,100.099099 L1201.74559,88.0314028 L1203.00272,88.3801802 L1205.93209,86.7067465 L1206.28021,86.2882136 L1205.86233,85.8696808 L1203.83919,81.6836551 L1202.8625,76.8007722 L1202.37416,75.6149292 L1201.95627,70.243758 L1201.74559,69.8956782 L1200.69983,67.0350064 L1202.79274,67.5232947 L1204.88564,66.0584299 L1205.09493,65.7096525 L1203.14086,63.7564994 L1200.90912,60.5477477 L1200.90912,60.2694234 L1200.69983,60.1292149 L1200.28125,59.7106821 L1200.35032,59.6409266 L1200.5603,59.1526384 L1201.04865,58.803861 L1200.90912,52.1080335 L1200.84006,51.8980695 L1200.07196,51.3400257 L1199.72314,45.4108108 L1199.09527,45.8990991 L1197.00236,44.2954208 L1195.81569,43.876888 L1189.6772,55.8050734 L1188.77027,55.8050734 L1188.56098,55.9438867 L1187.58429,57.757529 L1189.32838,59.6409266 L1189.46791,59.7106821 L1189.81742,59.7106821 L1185.63091,65.9189189 L1186.88666,67.6621081 L1186.88666,67.8720721 L1187.30454,67.9418275 L1188.35169,68.7788932 L1185.70068,71.1505792 L1185.0728,71.4993565 L1183.88682,75.0568855 L1184.02635,75.4754183 L1184.514,76.172973 L1184.79375,76.8007722 L1181.16605,79.8002574 L1181.02652,79.8002574 L1181.02652,79.4514801 L1176.98024,64.593565 L1173.77111,61.1057915 L1161.49274,57.8272844 L1158.91218,58.3853282 L1157.86573,57.9667954 L1156.33024,53.9216757 L1160.23699,56.1531532 L1162.46943,55.5253539 L1162.46943,55.1068211 L1159.12078,48.0615187 L1159.39913,48.1312741 L1159.60912,48.3405405 L1160.72534,48.9690373 L1161.77179,48.410296 L1161.91132,46.1083655 L1159.19054,40.8767053 L1161.63157,37.7377091 L1162.74848,38.0864865 L1162.95847,37.5291403 L1161.77179,33.41287 L1161.07416,32.5765019 L1159.67889,29.2972973 L1159.46959,24.1353925 L1157.23716,19.4617761 L1155.84189,4.46435006 L1155.70167,4.25508366 L1155.49307,4.18532819 L1154.51569,4.04581725 L1151.2375,6.55701416 L1147.26098,12.1367542 L1145.58666,18.8339768 L1145.72688,19.2525097 L1146.91216,19.2525097 L1146.49358,20.7173745 L1146.8424,20.7173745 L1145.09831,23.019305 L1145.16807,23.9958816 L1144.88832,25.1119691 L1144.67973,25.2514801 L1144.60997,25.4607465 L1143.63328,27.2046332 L1143.7728,26.3675676 L1142.86588,26.6465894 L1141.19155,28.1107568 L1140.9125,25.7397683 L1138.40101,21.6939511 L1136.09952,21.833462 L1135.95929,21.972973 L1134.07568,27.9021879 L1133.51757,33.0633951 L1132.19136,31.5992278 L1132.33159,31.3899614 L1133.09829,29.3670528 L1133.09829,29.2275418 L1133.02853,29.0880309 L1132.47111,28.4602317 L1131.14491,25.1817246 L1130.02939,23.4378378 L1124.02903,18.0659691 L1128.77365,20.0198198 L1128.98294,19.8803089 L1130.51774,17.8574003 L1122.14611,5.85945946 L1119.77346,4.11557272 L1118.44795,4.53410553 L1116.6341,8.37065637 L1114.89071,26.3675676 L1115.03024,26.5070785 L1116.56503,27.0651223 L1117.12314,27.0651223 L1116.07669,32.5758044 L1113.42498,35.8543115 L1111.75135,35.2969653 L1111.26231,34.0399717 L1110.77396,33.3431145 L1106.93767,22.6705277 L1105.12382,21.9032175 L1104.91453,21.9032175 L1103.03091,20.7173745 L1102.82162,20.647619 L1102.61163,20.7173745 L1100.30944,24.415112 L1096.96149,42.1323037 L1096.82196,42.3415701 L1096.47314,46.03861 L1096.54291,46.3873874 L1096.40338,47.363964 L1094.86788,50.8510399 L1096.26385,53.2931789 L1094.58883,54.8982523 L1093.82143,59.0828829 L1096.47314,61.036036 L1097.65912,60.8274672 L1097.3103,61.1057915 L1096.33292,62.5009009 L1095.77481,62.5009009 L1092.00828,64.4540541 L1092.00828,67.6621081 L1091.86875,67.6621081 L1091.93851,68.3603604 L1092.98427,70.1042471 L1089.07821,72.4061776 L1088.93798,72.615444 L1088.93798,72.8247104 L1090.96182,75.3366049 L1091.31064,79.9404659 L1091.10065,81.3348777 L1082.24139,84.5436293 L1081.47329,84.1250965 L1081.47329,84.0560386 L1077.77652,81.7541081 L1077.49677,81.7541081 L1074.98598,80.4978121 L1077.6363,77.4285714 L1078.33393,72.615444 L1076.73007,70.3825714 L1080.07872,72.3364221 L1080.84611,72.2666667 L1080.91588,71.8481338 L1078.75251,65.2911197 L1073.0326,59.5711712 L1071.35828,53.0148546 L1070.59018,51.6197452 L1070.52181,51.1307593 L1070.24206,51.1307593 L1071.00876,50.4332046 L1071.7064,50.5029601 L1071.84662,50.0146718 L1071.42804,48.3405405 L1071.14829,47.8522523 L1071.14829,47.7824968 L1073.38072,48.3405405 L1076.52008,46.3176319 L1076.73007,45.8990991 L1075.54409,44.5039897 L1070.80017,40.8767053 L1070.1716,39.9001287 L1066.61366,29.994852 L1066.61366,29.4368082 L1064.17264,27.2743887 L1063.82312,27.2743887 L1060.47517,30.204816 L1057.96298,42.1330013 L1057.96298,44.7132561 L1058.03345,44.9225225 L1058.17297,44.992278 L1059.00944,45.2015444 L1060.33564,44.8534646 L1060.33564,45.6200772 L1056.49795,52.7351351 L1057.26605,58.5255367 L1057.61417,58.874314 L1060.33564,56.642139 L1060.40471,57.0599743 L1060.54423,56.9909163 L1053.9167,69.0579151 L1056.63818,71.8481338 L1056.63818,71.9178893 L1056.70794,72.1278533 L1055.73055,73.5229627 L1055.10268,74.0803089 L1053.15,77.6385354 L1055.4522,80.847287 L1054.61434,81.6843526 L1053.35859,82.3812098 L1053.15,82.3812098 L1044.08074,87.8918919 L1037.52228,82.3114543 L1027.47633,77.9866152 L1026.70963,77.9866152 L1025.87247,76.243426 L1018.05826,67.6635032 L1018.47753,67.5937477 L1020.36115,67.7325611 L1022.73311,66.3374517 L1022.9417,66.0591274 L1022.73311,65.7801055 L1016.10488,61.036036 L1015.26771,58.5945946 L1014.70961,57.8272844 L1015.26771,57.3389961 L1016.80321,53.9914311 L1016.73345,53.7814672 L1012.12836,51.2012124 L1011.98953,51.0617014 L1009.82616,46.9454311 L1010.03615,44.7139537 L1015.19795,48.2010296 L1016.10488,48.2010296 L1016.10488,47.6429858 L1014.78007,43.0398224 L1007.38444,30.204816 L1004.24508,27.623166 L1002.71168,27.762677 L997.268728,40.1093951 L996.850147,43.2483912 L999.571622,45.0620335 L996.502027,54.2697555 L996.571093,54.6882883 L999.50116,55.3167851 L1002.50099,52.5963218 L997.966363,63.3379665 L998.176351,69.2671815 L998.315181,69.2671815 L997.339189,71.9178893 L997.408255,75.4063604 L998.663998,75.8939511 L1000.82736,75.4754183 L998.873986,78.8941338 L992.385282,70.1042471 L991.409291,67.1752149 L988.687816,64.9423423 L987.501836,65.2220618 L987.083953,65.4306306 L985.758446,67.1752149 L986.106566,69.40739 L985.827512,72.3364221 L985.758446,72.4759331 L985.200338,81.962677 L986.525845,83.4979949 L986.804201,83.6368082 L987.014189,87.4733591 L987.292546,88.4499356 L980.455721,92.2864865 L979.269742,89.9852535 L980.735473,90.5425997 L981.991216,89.9852535 L982.269573,89.7055341 L980.316892,83.4972973 L981.571938,82.1726409 L977.247297,73.1734878 L977.247297,73.0339768 L977.734944,72.9642214 L979.200676,72.3364221 L979.200676,71.3598456 L979.758784,70.3142111 L980.107601,68.5005689 L978.223289,64.5238095 L977.526351,59.6409266 L977.386824,59.4323578 L977.386824,58.5945946 L976.758255,57.8977375 L976.758255,56.0833977 L973.410304,51.6895006 L970.89812,51.967825 L969.643074,63.8269524 L969.154032,63.7564994 L967.96875,66.3374517 L968.247106,72.1278533 L966.712309,77.5687799 L966.712309,78.0570682 L966.78277,78.0570682 L964.410811,80.7775315 L964.061296,82.7299871 L965.108446,83.7065637 L965.247973,83.7065637 L965.247973,83.8467722 L965.596791,83.9862831 L966.503716,84.1250965 L967.409944,83.9862831 L963.922466,89.845045 L963.922466,89.9852535 L965.805383,92.356242 L962.038851,97.1003115 L960.921938,99.6108108 L964.410811,103.238095 L961.969088,106.098069 L961.131926,109.376577 L961.270755,110.492664 L950.597635,100.587387 L955.202027,102.40103 L957.364696,101.145431 L957.922804,100.587387 L957.224471,100.168855 L955.898965,97.2398224 L955.760833,95.844713 L955.898965,95.844713 L957.573289,96.4718147 L958.968559,95.634749 L958.620439,93.0544942 L952.271959,82.0324324 L951.783615,81.4743887 L951.644088,81.5441441 L951.434797,81.0558559 L951.364336,80.4280566 L953.66723,81.2658198 L956.667061,80.9163449 L956.736127,80.4280566 L953.66723,72.4061776 L954.922973,72.685897 L956.387309,72.1976088 L956.736127,71.9178893 L956.527534,71.3598456 L950.946453,62.0830656 L946.481588,38.8537967 L942.923649,37.8772201 L942.714358,38.3662059 L940.202872,51.1307593 L939.644764,51.6197452 L937.691385,55.6648649 L937.482095,56.5019305 L935.389189,61.175547 L935.389189,61.5940798 L936.435642,61.7335907 L938.458086,60.5477477 L938.946431,60.0594595 L939.575,63.5479305 L932.737478,79.9404659 L933.57464,82.5911737 L933.993919,82.7997426 L937.691385,77.5680824 L940.76098,68.7788932 L941.178863,68.2906049 L939.365709,78.7539254 L939.226182,78.6841699 L932.807939,92.0779176 L934.900147,93.1242497 L936.296115,91.9377091 L936.296115,91.7988958 L937.342568,90.9611326 L936.923986,92.9149833 L931.691723,103.726384 L931.691723,103.865894 L925.900654,112.376062 L925.133953,103.099282 L926.947804,103.796139 L927.993559,103.58757 L928.06402,103.447362 L927.784966,99.4719974 L927.156397,97.9366795 L925.203716,87.683323 L929.249302,89.845045 L931.063851,89.0784324 L931.342208,88.8684685 L931.272444,88.5203887 L927.854032,82.7997426 L925.063492,71.1512767 L925.063492,71.0117658 L922.552005,67.5239923 L921.436486,67.6635032 L914.808953,88.0321004 L916.971622,89.1474903 L917.110451,89.1474903 L918.505721,88.5901441 L916.901858,93.9613153 L913.622973,99.8905302 L913.622973,100.168855 L913.7625,100.378819 L914.31991,105.470968 L909.227872,113.004559 L909.855046,119.770839 L910.832432,121.793748 L909.716216,129.885382 L907.693074,130.373671 L906.227343,130.373671 L902.25152,127.653207 L900.507432,120.676963 L900.158615,120.676963 L900.088851,115.654569 L900.367905,115.864533 L900.507432,116.073799 L901.763176,116.979923 L902.739865,116.352821 L902.948458,116.003346 L902.809628,114.469423 L902.879392,114.260157 L902.809628,114.050891 L902.181059,104.98268 L905.948986,96.820592 L906.297804,94.7286255 L906.507095,94.3798481 L907.902365,94.588417 L909.716914,92.1476731 L912.575823,72.1976088 L911.599133,68.2913024 L911.180552,67.8727696 L893.531081,88.5203887 L893.810135,88.869166 L896.181397,90.4728443 L897.018559,90.2642754 L889.484797,97.030556 L891.856757,99.9602857 L891.995586,99.9602857 L892.275338,100.099099 L887.670946,108.121676 L886.555427,102.262216 L886.205912,102.262216 L886.135451,100.587387 L886.345439,100.517632 L887.740709,91.7988958 L889.066216,92.2864865 L889.973142,92.0779176 L891.089358,89.6357786 L890.601014,88.1018559 L889.34527,72.9649189 L887.252365,68.7091377 L886.903547,68.5005689 L886.555427,68.7788932 L875.671622,83.2182754 L875.60116,83.3577864 L875.60116,83.4979949 L877.555236,85.3813925 L878.113345,85.4504505 L878.950507,85.8696808 L874.206588,94.3791506 L869.322444,98.4249678 L867.788345,100.308366 L868.206926,102.331274 L870.299831,103.726384 L873.229899,102.192461 L865.207095,115.724324 L867.3,120.049163 L866.463535,120.118919 L858.021453,116.910167 L857.462647,116.841109 L857.462647,116.910167 L856.835473,116.700901 L855.091385,117.398456 L854.882095,117.3287 L851.045799,114.259459 L850.905574,113.981135 L850.556059,113.981135 L843.510642,111.678507 L842.254899,109.16731 L838.487669,95.77426 L838.487669,95.634749 L837.999324,95.0069498 L838.069088,95.0069498 L837.72027,94.3093951 L828.371959,82.5207207 L824.255215,80.7775315 L820.977725,81.4046332 L816.930046,79.5219331 L805.070248,69.2671815 L799.978209,67.6635032 L798.303885,67.8023166 L788.816047,70.3142111 L778.491047,67.2442728 L774.235473,67.9418275 L766.351498,62.6411094 L766.351498,62.0126126 L768.16535,62.1521236 L770.817061,60.9662806 L771.026351,60.7570142 L770.956588,60.4779923 L767.886993,56.8507079 L764.60741,50.0146718 L764.677872,50.0146718 L765.724324,50.2246358 L767.119595,49.5263835 L767.049831,45.9688546 L764.468581,41.57426 L762.794257,36.9006435 L761.81687,28.809009 L762.794257,30.4831403 L764.259291,31.8084942 L765.654561,31.4597169 L765.933615,31.3202059 L766.003378,30.9714286 L764.817399,28.2509653 L764.538345,26.8558559 L762.305912,22.7402831 L761.538514,17.5790759 L760.492061,14.997426 L758.538682,13.3937477 L756.655068,14.0208494 L756.655068,21.2754183 L755.259797,27.2046332 L755.259797,27.4138996 L753.655236,29.8560386 L753.515709,30.2745714 L753.515709,31.8782497 L754.492399,32.5060489 L750.934459,42.2020592 L751.492568,47.8522523 L751.771622,48.1312741 L752.121137,47.9220077 L753.725,47.434417 L754.213345,47.5034749 L748.5625,57.2692407 L748.283446,57.2692407 L743.540225,55.385843 L743.330236,54.409964 L742.353547,52.7351351 L739.424177,47.2942085 L739.074662,46.8756757 L739.074662,46.8059202 L739.772297,47.0158842 L740.539696,46.7361647 L741.238029,45.5503218 L740.819448,44.5039897 L736.005068,38.2259974 L735.865541,37.9476731 L737.470101,38.2957529 L738.935135,37.8074646 L739.63277,37.3191763 L738.935135,36.830888 L734.958615,32.366538 L735.028378,32.2967825 L735.237669,29.7158301 L736.981757,28.5997426 L737.05152,28.3904762 L734.889549,20.0198198 L735.028378,20.0198198 L734.889549,18.1364221 L735.65625,14.7184041 L733.842399,2.85997426 L732.237838,0.0697554698 L732.028547,0 Z M1115.58834,56.9902188 L1115.8674,56.5019305 L1115.44882,56.1531532 L1110.21586,48.1312741 L1113.91402,47.9220077 L1108.61199,38.0864865 L1108.05389,35.2969653 L1108.33364,35.645045 L1110.49561,37.1099099 L1110.91419,37.0401544 L1112.93733,40.3186615 L1113.5652,40.8076474 L1114.75048,41.2952381 L1117.05338,39.9001287 L1117.19221,39.6908623 L1118.65794,38.6445302 L1117.89054,39.8303732 L1116.35574,41.434749 L1115.37905,44.7132561 L1117.75101,46.1083655 L1120.19343,45.8286461 L1120.2625,45.4108108 L1121.93752,42.6896499 L1121.16873,45.4798687 L1119.77346,46.8756757 L1116.6341,48.9683398 L1114.26354,52.4561133 L1114.19307,52.7344376 L1114.40167,52.9444015 L1116.84409,54.2 L1116.84409,54.2697555 L1117.47126,54.3395109 L1117.19221,55.246332 L1117.75101,56.571686 L1118.9363,57.0599743 L1120.12297,56.571686 L1121.16873,55.6648649 L1113.63497,67.7325611 L1111.68159,64.593565 L1111.33277,63.6867439 L1112.2397,63.5479305 L1113.63497,62.5706564 L1113.70473,62.4311454 L1113.70473,62.2916345 L1111.61113,57.9667954 L1113.28615,58.6643501 L1115.58834,56.9902188 Z M1146.8424,36.6906795 L1144.05116,40.5976834 L1142.37753,41.434749 L1141.81873,43.806435 L1144.60997,46.1083655 L1141.19155,49.2473616 L1141.05203,49.2473616 L1138.40101,47.9917632 L1140.00557,38.016731 L1140.70251,37.5975006 L1142.86658,38.2259974 L1146.8424,36.6906795 Z M1070.10253,47.0849421 L1069.12654,45.7595882 L1068.98632,44.2249678 L1071.14829,47.363964 L1070.10253,47.0849421 Z M981.991216,111.748263 L978.572804,105.400515 L977.805405,103.028829 L978.572804,104.284427 L981.224515,106.725869 L982.27027,106.586358 L982.27027,111.887076 L981.991216,111.748263 Z M961.480743,116.700901 L961.62027,116.631145 L965.247973,112.933408 L965.945608,112.933408 L965.875845,115.095828 L965.596791,115.584116 L964.480574,121.862108 L960.992399,123.327671 L955.0625,122.838685 L950.45741,124.304247 L950.179054,122.630116 L950.248818,121.931864 L949.341892,119.560875 L952.760304,119.002831 L957.853041,119.839199 L958.061633,119.560875 L958.201858,115.79408 L957.713514,114.328517 L958.759966,115.236036 L961.341216,116.700901 L961.480743,116.700901 Z" id="Fill-1" stroke="none" fill="url(#linearGradient-5)" fill-rule="evenodd" mask="url(#mask-4)"></path>
                    </g>
                </g>
            </g>
        </g>
    </g>
</svg>