<?xml version="1.0" encoding="UTF-8"?>
<svg width="1920px" height="443px" viewBox="0 0 1920 443" version="1.1" xmlns="http://www.w3.org/2000/svg" xmlns:xlink="http://www.w3.org/1999/xlink">
    <!-- Generator: Sketch 50 (54983) - http://www.bohemiancoding.com/sketch -->
    <title>layer2</title>
    <desc>Created with Sketch.</desc>
    <defs>
        <rect id="path-1" x="0" y="0" width="1920" height="1080"></rect>
        <polygon id="path-3" points="0.0004 0.6 3660.87073 0.6 3660.87073 442.9997 0.0004 442.9997"></polygon>
        <path d="M122.197,1.379 C121.044,1.613 119.861,1.847 118.701,1.8 C106.9,1.2 95.301,3 83.901,5.8 C69.101,9.5 54.501,13.3 41.101,20.8 C33.3,25.1 25.201,29 20.201,37 C18.901,38.9 17.4,40.7 15.901,42.4 C12.8,46.001 10.701,50.3 9.601,55 C8.3,60.5 7.601,66.4 3.801,71.1 C3.4,71.6 3.101,72.3 3.001,72.9 C1.701,78 0.101,83.1 0.8,86.8 C1.101,93.001 1.4,97.3 2.3,102.2 C3.9,108.5 6.7,114.2 8.8,120.199 C9.6,122.2 10.9,123.9 12.501,125.3 C21,132.9 29.2,140.6 39.7,145.7 C45,148.3 50.4,150.599 56,152.599 C58.1,153.3 60.201,152.599 62.3,153.6 C70.1,157.2 78.701,157 87,157.8 C91.4,158.2 95.8,158.8 100.3,159.1 C109.201,159.8 117.9,161.4 126.8,162.099 C130.9,162.4 135,162.9 139,163.8 C146.701,165.6 154.4,167.5 162.401,167 C163.201,166.9 164.1,167 164.9,167.1 C172.8,168.6 180.3,171.4 188.4,172.4 C196.201,173.3 203.9,175.4 211.6,176.8 C221.8,178.5 232,179.9 242.3,181.099 C250.5,182 258.8,182.1 267,182.8 C274.3,183.4 281.7,182.9 289,182.9 C290.3,183 291.7,182.9 293,182.7 C297.3,181.4 301.4,181.9 305.7,182.5 C309.3,183 312.9,183.8 316.5,183.699 C322.8,183.5 328.8,185.5 335,186.299 C340.2,187 345.401,188.5 350.601,188.6 C365.5,188.8 380.4,189.3 395.2,186.7 C402.001,185.499 408.9,184.8 415.6,183.3 C423.9,181.5 432.1,179.1 440.3,177 C447,175.3 453.7,173.1 460.501,172.9 C471.4,172.7 482.1,170.7 492.9,169.6 C496.599,169.2 500.4,168.8 504.099,168.2 C510.7,167.199 517.3,165.7 524.1,165.6 C531.5,165.4 539,164.8 546.4,164.5 C549.8,164.4 553.6,164.599 556.7,163.501 C567.8,159.5 579.3,161.001 590.6,160 C598.8,159.2 607.099,158 615.4,158.7 C615.7,158.8 616.1,158.8 616.401,158.7 C620.934,157.58 625.524,157.597 630.111,157.616 C634.124,157.631 638.133,157.647 642.099,156.9 C646.901,155.9 651.901,156.8 656.901,155.9 C665.5,154.5 673.901,152.5 682.201,149.9 C695.6,145.3 707.5,137.1 716.6,126.3 C720.2,122.5 723.1,117.9 725,113 C727.099,107.001 727.099,100.9 727.099,94.7 C727.3,87.2 725.6,79.9 722.201,73.199 C721.5,71.8 722,70 720.5,68.699 C717.5,66.099 716.4,62.4 714.901,58.9 C712.3,53.001 710.5,46.6 705.201,42.4 C702.4,40.3 699.9,37.9 697.3,35.599 C693.4,32.1 688.701,29.5 683.601,27.9 C682.401,27.5 681.101,27.1 679.901,26.6 C672.5,23.8 665.101,20.7 656.901,21.599 C653.5,21.9 650.401,20.5 647.301,19.5 C640.601,17.2 633.601,17.1 626.7,17.7 C621.201,18.2 615.9,19.099 610.2,18.8 C597.4,18.101 584.6,18.001 571.901,19.7 C563,21 553.901,21.6 544.8,21.699 C541,21.8 537.2,22.3 533.5,23 C526,24.3 518.7,25.7 511,25.7 L488,25.7 C486.8,25.6 485.7,25.6 484.5,25.8 C479.863,26.974 475.162,26.96 470.452,26.947 C466.733,26.937 463.006,26.927 459.301,27.5 C452.501,28.5 445.501,28.8 438.7,30 C427.7,32.101 416.901,35 406.401,38.7 C400.101,40.799 393.5,41.1 387,42 C380.7,42.8 375,41.8 369.001,40.799 C364.501,40 359.9,39.5 355.4,38.7 C349.7,37.8 343.9,37.4 338.3,36.5 C330.7,35.2 323.1,35.4 315.601,35.1 C305.9,34.7 296.1,35.3 286.301,35.8 C274.101,36.4 262.301,34.1 250.701,31 C235.9,27.2 221.501,22.2 206.501,19 C194,16.3 181.7,12.8 169.401,9.1 C158.701,6 147.801,3.6 136.8,1.9 C133.301,1.3 129.601,1.501 126,1 C125.755,0.966 125.504,0.952 125.25,0.952 C124.281,0.952 123.251,1.165 122.197,1.379" id="path-5"></path>
        <linearGradient x1="50.0238506%" y1="52.2501148%" x2="49.8165039%" y2="5.54243384%" id="linearGradient-7">
            <stop stop-color="#0AAFED" offset="0%"></stop>
            <stop stop-color="#08A5DF" offset="100%"></stop>
        </linearGradient>
    </defs>
    <g id="Page-1" stroke="none" stroke-width="1" fill="none" fill-rule="evenodd">
        <g id="landing" transform="translate(0.000000, -600.000000)">
            <g id="layer2" transform="translate(0.000000, 70.000000)">
                <mask id="mask-2" fill="white">
                    <use xlink:href="#path-1"></use>
                </mask>
                <g id="Mask"></g>
                <g mask="url(#mask-2)">
                    <g transform="translate(-273.000000, 529.000000)">
                        <g id="Group-6" transform="translate(0.000000, 0.400000)">
                            <g id="Group-3">
                                <mask id="mask-4" fill="white">
                                    <use xlink:href="#path-3"></use>
                                </mask>
                                <g id="Clip-2"></g>
                                <path d="M616.7004,26.5997 L635.4004,11.0997 L639.6004,13.2997 L645.3004,15.5997 L728.5004,61.4997 L743.3004,65.5997 L750.5004,65.9997 L756.9004,65.5997 L767.0004,63.7997 L794.9004,53.4997 L829.0004,35.1997 L853.8004,25.0997 L872.6004,13.9997 L880.0004,13.7997 L906.5004,27.0997 L913.4004,31.9997 L917.9004,33.4997 L933.7004,32.2997 L952.0004,28.8997 L969.1004,23.8997 L989.9004,27.5997 L999.4004,36.1997 L1059.1004,74.9997 L1077.1004,82.5997 L1100.1004,76.5997 L1265.3004,2.0997 L1274.9004,0.5997 L1289.9004,4.9997 L1377.0004,45.0997 L1389.0004,48.9997 L1399.4004,50.5997 L1427.2004,30.8997 L1432.4004,25.6997 L1455.4004,12.9997 L1468.3014,8.4997 L1472.1004,6.5997 L1503.8014,32.2997 L1519.2004,48.1997 L1531.7004,55.0997 L1542.5004,53.5997 L1556.5004,50.2997 L1606.9004,32.6997 L1612.5004,34.5997 L1636.9004,57.8997 L1649.7004,65.9997 L1656.0004,66.1997 L1692.2004,61.2997 L1709.0004,61.0997 L1772.9004,87.5997 L1895.9004,81.5997 L1932.7004,74.1997 L1946.8014,76.3997 L2010.9004,107.5997 L2094.9004,93.5997 L2141.3014,94.9997 L2155.7004,101.7997 L2185.9004,113.5997 L2280.9004,86.5997 L2317.1004,102.9997 L2331.8014,112.3997 L2430.0004,118.5997 C2430.0004,118.5997 2433.2004,121.2997 2438.1004,125.2997 C2456.0004,142.5997 2478.0004,161.5997 2496.0004,170.5997 C2524.0004,185.5997 2559.0004,194.5997 2594.0004,198.5997 C2602.5004,199.5997 2610.8014,199.0997 2619.4004,197.8997 C2662.0004,187.5997 2704.0004,191.5997 2748.0004,202.5997 C2782.0004,211.5997 2813.0004,198.5997 2847.0004,191.5997 C2852.0004,190.5997 2856.8014,190.3997 2861.5004,190.2997 C2866.3014,190.1997 2871.1004,190.3997 2876.3014,189.9997 C2908.0004,188.5997 2934.0004,169.5997 2965.0004,160.5997 C2997.5004,151.3997 3025.1004,168.6997 3052.5004,183.2997 C3058.0004,186.1997 3063.5004,189.0997 3069.0004,191.5997 C3110.0004,203.5997 3153.0004,215.5997 3196.0004,212.5997 C3213.0004,211.5997 3230.0004,208.7997 3247.0004,206.5997 C3252.7004,205.8997 3258.3014,205.1997 3264.0004,204.5997 C3307.0004,199.5997 3343.0004,225.5997 3385.0004,234.5997 C3400.0004,237.5997 3415.0004,237.5997 3429.0004,232.5997 C3433.5004,230.8997 3438.0004,229.0997 3442.4004,227.2997 C3446.9004,225.4997 3451.3004,223.5997 3455.8004,221.7997 C3480.3004,210.8997 3506.0004,205.3997 3532.0994,203.4997 C3538.5994,202.9997 3545.2004,202.7997 3551.8004,202.6997 C3585.9004,202.6997 3629.9004,197.6997 3646.9004,218.6997 C3672.9004,252.6997 3653.9004,305.7007 3657.7004,352.0997 C3658.2004,360.9997 3658.7004,368.9997 3659.0994,375.8997 C3659.9004,389.5997 3660.5004,398.3997 3660.5004,398.3997 L1742.2004,401.2997 L1741.0994,397.7997 L1250.1004,432.3997 L1249.8004,434.7997 L1121.9004,440.4997 L1122.9004,436.4997 L911.7004,442.9997 L911.7004,442.8997 L797.5004,438.2997 L797.3004,440.5997 L739.4004,435.7007 L0.0004,406.2007 L37.0004,108.8997 L255.5004,101.7007 L359.9004,86.7007 L378.5004,81.8997 L475.8004,30.2997 L538.9004,70.7997 L587.7004,47.3997 L599.9004,40.4997 L610.3004,32.7997 L616.7004,26.5997 Z" id="Fill-1" fill="#09A6E0" mask="url(#mask-4)"></path>
                            </g>
                            <path d="M616.7004,26.5997 C617.9004,27.1997 613.4004,31.0997 612.8004,33.8997 C617.0004,36.2997 625.6004,41.0997 625.6004,41.0997 C625.6004,41.0997 648.4004,53.7997 658.8004,61.6997 C663.8004,65.4997 668.7004,69.3997 671.6004,75.0997 C672.4004,76.7997 673.9004,77.7997 675.2004,78.9997 C679.1004,82.3997 683.1004,85.5997 684.2004,91.4997 C684.7004,94.3997 685.7004,97.3997 686.0004,100.4997 C686.4004,102.2997 687.1004,103.9997 688.2004,105.3997 C691.7004,110.8997 691.8004,114.7997 688.2004,119.7997 C685.0004,124.2997 685.0004,125.5997 688.3004,129.6997 C689.1004,130.6997 689.7004,131.8997 690.6004,132.8997 C692.0004,134.1997 692.2004,136.2997 691.2004,137.8997 C688.8004,142.7997 686.8004,147.8997 684.2004,152.6997 C681.7004,157.2997 677.0004,159.7997 673.1004,162.9997 C671.7004,163.9997 670.5004,165.2997 669.6004,166.6997 C667.5004,170.2997 663.2004,171.1997 659.3004,171.5997 C656.8004,171.6997 654.4004,172.3997 652.2004,173.4997 C651.0004,174.2007 649.6004,174.9997 648.1004,173.8997 C647.4004,173.4997 646.5004,173.4997 645.7004,173.7007 C641.4004,175.2997 637.2004,173.9997 632.9004,173.8997 C626.4004,173.7997 620.2004,172.0997 613.8004,171.4997 C609.6004,171.0997 605.5004,169.2997 601.2004,169.5997 C600.3004,169.6997 599.7004,168.8997 599.1004,168.3997 C595.9004,165.7997 592.0004,164.1997 588.0004,163.6997 C586.3004,163.5997 584.8004,162.7997 583.6004,161.5997 C579.6004,156.4997 573.6004,155.5997 568.0004,153.6997 C566.9004,153.3997 565.8004,152.9997 564.8004,152.4997 C558.7004,149.1997 552.0004,147.2997 545.1004,146.6997 C540.5004,146.1997 536.1004,144.7997 531.5004,144.2997 C527.1004,143.7997 522.8004,142.4997 518.3004,142.5997 C508.0004,142.7997 498.0004,140.6997 488.2004,138.1997 C487.9004,138.0997 487.6004,137.7997 487.3004,137.7997 C480.9004,138.2997 474.9004,136.1997 468.7004,135.5997 C464.0004,135.0997 459.3004,134.7997 454.8004,132.5997 C451.0004,130.5997 446.3004,131.3997 442.4004,129.5997 C436.1004,126.6997 429.3004,125.5997 422.7004,123.6997 C421.3004,123.1997 420.1004,122.2997 419.1004,121.1997 C416.8004,118.9997 414.2004,117.7997 411.0004,119.1997 C409.9004,119.6997 408.7004,119.5997 407.7004,118.9997 C400.8004,115.6997 393.4004,114.0997 386.3004,111.3997 C381.1004,109.4997 376.8004,106.0997 371.8004,103.9997 C367.9004,102.2997 364.3004,99.6997 360.1004,98.6997 C360.1004,95.6997 359.5004,92.5997 360.9004,89.5997 C361.0004,89.4997 360.3004,88.9997 360.0004,88.6997 C364.3004,85.0997 369.6004,83.7997 374.9004,82.6997 C378.7004,81.8997 382.3004,80.8997 385.5004,78.5997 C391.9004,74.0997 398.9004,70.6997 406.0004,67.2997 C418.0004,61.5997 429.6004,55.3997 441.2004,48.9997 C447.4004,45.5997 454.2004,42.9997 459.6004,38.1997 C463.1004,35.1997 467.1004,32.7997 471.3004,30.9997 C474.1004,29.6997 476.4004,29.7997 478.7004,31.4997 C481.4004,33.3997 484.4004,34.8997 487.6004,35.8997 C488.9004,36.2997 490.0004,37.0997 490.8004,38.0997 C493.8004,41.5997 497.6004,44.2997 501.9004,46.0997 C506.0004,47.8997 509.8004,50.3997 513.0004,53.4997 C514.5004,54.9997 516.4004,56.1997 518.5004,56.8997 C524.7004,59.0997 529.6004,63.2997 534.2004,67.8997 C536.1004,69.7997 537.9004,71.8997 541.0004,69.8997 C541.4004,69.5997 542.3004,69.9997 542.9004,69.9997 C547.0004,69.9997 551.0004,69.0997 554.8004,67.4997 C565.5004,63.2997 574.2004,56.0997 583.6004,49.8997 C584.9004,48.8997 586.3004,47.9997 587.8004,47.2997 C597.7004,43.5997 604.9004,36.2007 612.8004,29.5997 C613.9004,28.4997 615.3004,27.5997 616.7004,26.5997" id="Fill-4" fill="#0AAEEC"></path>
                        </g>
                        <g id="Group-9" transform="translate(765.000000, 60.400000)">
                            <mask id="mask-6" fill="white">
                                <use xlink:href="#path-5"></use>
                            </mask>
                            <g id="Clip-8"></g>
                            <path d="M122.197,1.379 C121.044,1.613 119.861,1.847 118.701,1.8 C106.9,1.2 95.301,3 83.901,5.8 C69.101,9.5 54.501,13.3 41.101,20.8 C33.3,25.1 25.201,29 20.201,37 C18.901,38.9 17.4,40.7 15.901,42.4 C12.8,46.001 10.701,50.3 9.601,55 C8.3,60.5 7.601,66.4 3.801,71.1 C3.4,71.6 3.101,72.3 3.001,72.9 C1.701,78 0.101,83.1 0.8,86.8 C1.101,93.001 1.4,97.3 2.3,102.2 C3.9,108.5 6.7,114.2 8.8,120.199 C9.6,122.2 10.9,123.9 12.501,125.3 C21,132.9 29.2,140.6 39.7,145.7 C45,148.3 50.4,150.599 56,152.599 C58.1,153.3 60.201,152.599 62.3,153.6 C70.1,157.2 78.701,157 87,157.8 C91.4,158.2 95.8,158.8 100.3,159.1 C109.201,159.8 117.9,161.4 126.8,162.099 C130.9,162.4 135,162.9 139,163.8 C146.701,165.6 154.4,167.5 162.401,167 C163.201,166.9 164.1,167 164.9,167.1 C172.8,168.6 180.3,171.4 188.4,172.4 C196.201,173.3 203.9,175.4 211.6,176.8 C221.8,178.5 232,179.9 242.3,181.099 C250.5,182 258.8,182.1 267,182.8 C274.3,183.4 281.7,182.9 289,182.9 C290.3,183 291.7,182.9 293,182.7 C297.3,181.4 301.4,181.9 305.7,182.5 C309.3,183 312.9,183.8 316.5,183.699 C322.8,183.5 328.8,185.5 335,186.299 C340.2,187 345.401,188.5 350.601,188.6 C365.5,188.8 380.4,189.3 395.2,186.7 C402.001,185.499 408.9,184.8 415.6,183.3 C423.9,181.5 432.1,179.1 440.3,177 C447,175.3 453.7,173.1 460.501,172.9 C471.4,172.7 482.1,170.7 492.9,169.6 C496.599,169.2 500.4,168.8 504.099,168.2 C510.7,167.199 517.3,165.7 524.1,165.6 C531.5,165.4 539,164.8 546.4,164.5 C549.8,164.4 553.6,164.599 556.7,163.501 C567.8,159.5 579.3,161.001 590.6,160 C598.8,159.2 607.099,158 615.4,158.7 C615.7,158.8 616.1,158.8 616.401,158.7 C620.934,157.58 625.524,157.597 630.111,157.616 C634.124,157.631 638.133,157.647 642.099,156.9 C646.901,155.9 651.901,156.8 656.901,155.9 C665.5,154.5 673.901,152.5 682.201,149.9 C695.6,145.3 707.5,137.1 716.6,126.3 C720.2,122.5 723.1,117.9 725,113 C727.099,107.001 727.099,100.9 727.099,94.7 C727.3,87.2 725.6,79.9 722.201,73.199 C721.5,71.8 722,70 720.5,68.699 C717.5,66.099 716.4,62.4 714.901,58.9 C712.3,53.001 710.5,46.6 705.201,42.4 C702.4,40.3 699.9,37.9 697.3,35.599 C693.4,32.1 688.701,29.5 683.601,27.9 C682.401,27.5 681.101,27.1 679.901,26.6 C672.5,23.8 665.101,20.7 656.901,21.599 C653.5,21.9 650.401,20.5 647.301,19.5 C640.601,17.2 633.601,17.1 626.7,17.7 C621.201,18.2 615.9,19.099 610.2,18.8 C597.4,18.101 584.6,18.001 571.901,19.7 C563,21 553.901,21.6 544.8,21.699 C541,21.8 537.2,22.3 533.5,23 C526,24.3 518.7,25.7 511,25.7 L488,25.7 C486.8,25.6 485.7,25.6 484.5,25.8 C479.863,26.974 475.162,26.96 470.452,26.947 C466.733,26.937 463.006,26.927 459.301,27.5 C452.501,28.5 445.501,28.8 438.7,30 C427.7,32.101 416.901,35 406.401,38.7 C400.101,40.799 393.5,41.1 387,42 C380.7,42.8 375,41.8 369.001,40.799 C364.501,40 359.9,39.5 355.4,38.7 C349.7,37.8 343.9,37.4 338.3,36.5 C330.7,35.2 323.1,35.4 315.601,35.1 C305.9,34.7 296.1,35.3 286.301,35.8 C274.101,36.4 262.301,34.1 250.701,31 C235.9,27.2 221.501,22.2 206.501,19 C194,16.3 181.7,12.8 169.401,9.1 C158.701,6 147.801,3.6 136.8,1.9 C133.301,1.3 129.601,1.501 126,1 C125.755,0.966 125.504,0.952 125.25,0.952 C124.281,0.952 123.251,1.165 122.197,1.379" id="Fill-7" fill="url(#linearGradient-7)" mask="url(#mask-6)"></path>
                        </g>
                    </g>
                </g>
            </g>
        </g>
    </g>
</svg>