<?xml version="1.0" encoding="UTF-8"?>
<svg width="1697px" height="462px" viewBox="0 0 1697 462" version="1.1" xmlns="http://www.w3.org/2000/svg" xmlns:xlink="http://www.w3.org/1999/xlink">
    <!-- Generator: Sketch 50 (54983) - http://www.bohemiancoding.com/sketch -->
    <title>layer5</title>
    <desc>Created with Sketch.</desc>
    <defs>
        <rect id="path-1" x="0" y="0" width="1920" height="1080"></rect>
        <path d="M0.7,70.3 C4.7,100.3 26.7,126.3 24,157.199 C24.1,160.9 24,164.8 24,168.7 C23.2,290.2 21.7,496 21.7,496 L204.5,496 L403.5,496 L911.1,488.5 L2460.7,485.5 L2757.399,483.4 C2757.399,483.4 2756.8,389.9 2756.2,308.1 C2756.1,303.6 2756.1,299.1 2756.1,294.6 C2756.469,272.163 2761.17,248.737 2761.21,227.041 L2761.21,226.492 C2761.185,213.192 2759.375,200.551 2753.699,189.2 C2748.7,180.2 2722.7,194.199 2704.7,195.2 C2677.7,196.2 2653.699,185.199 2627.699,181.2 C2597.7,176.199 2568.7,181.2 2538.699,185.199 C2506.916,190.308 2476.098,188.651 2445.333,186.995 C2421.894,185.733 2398.483,184.47 2374.699,186.2 C2355.7,187.2 2336.7,193.199 2316.7,193.199 C2294.091,193.671 2271.704,191.257 2249.34,188.844 C2224.225,186.135 2199.137,183.425 2173.8,184.8 C2169.5,184.7 2165.199,184.7 2160.9,184.7 C2132.699,183.2 2106.699,187.2 2079.699,194.199 C2062.085,198.745 2045.441,195.22 2028.847,191.695 C2016.236,189.015 2003.654,186.337 1990.699,187.2 C1981.699,188.2 1972.699,190.2 1964.301,194.9 C1956.7,198.1 1948.9,200.5 1941,201.2 C1937.1,201.6 1933.1,201.5 1929.001,200.9 C1925,200.3 1920.9,199.1 1916.699,197.3 C1903.7,190.3 1889.699,186.3 1875.7,185.3 C1820.7,180.3 1767.8,178.099 1712.301,169.4 C1701.2,167.6 1690,165.6 1678.7,163.3 C1637.699,150.3 1597.7,132.3 1552.7,142.3 C1480.7,158.3 1410.7,193.3 1340.699,169.3 C1273.7,146.3 1204.7,139.3 1135.699,140.3 C1086.7,141.3 1043.699,114.3 997.7,98.3 C881.699,58.3 761.7,104.3 648.699,142.3 C571.7,168.3 489.7,141.3 416.7,112.3 C305.7,69.3 199.7,2.3 79.701,0.3 C79.076,0.282 78.451,0.274 77.819,0.274 C41.987,0.275 -6.179,28.045 0.7,70.3" id="path-3"></path>
        <linearGradient x1="49.9233409%" y1="96.6110209%" x2="49.9871879%" y2="40.4125701%" id="linearGradient-5">
            <stop stop-color="#0797CD" offset="0%"></stop>
            <stop stop-color="#0582AF" offset="100%"></stop>
        </linearGradient>
    </defs>
    <g id="Page-1" stroke="none" stroke-width="1" fill="none" fill-rule="evenodd">
        <g id="landing" transform="translate(-223.000000, -618.000000)">
            <g id="layer5" transform="translate(0.000000, 70.000000)">
                <mask id="mask-2" fill="white">
                    <use xlink:href="#path-1"></use>
                </mask>
                <g id="Mask"></g>
                <g id="layer4" mask="url(#mask-2)">
                    <g transform="translate(223.000000, 548.000000)">
                        <path d="M951.0003,163.9998 L951.0003,163.8998 L951.0003,163.9998 Z" id="Fill-1" fill="#0682AF"></path>
                        <g id="Group-38" stroke-width="1" fill="none">
                            <path d="M1093.8999,167.7999 C1093.7999,167.8999 1093.5999,167.9999 1093.5999,168.0999 C1093.6999,168.0999 1093.8999,167.9999 1093.8999,167.7999" id="Fill-2" fill="#0682AF"></path>
                            <polygon id="Fill-4" fill="#0682AF" points="1122.8003 140.0001 1122.9003 140.0001 1122.9003 139.9001"></polygon>
                            <path d="M413.8999,105.4 C416.1999,105.3 415.5999,103.6 415.5999,102.3 C414.4999,103.1 413.4999,103.9 413.8999,105.4" id="Fill-6" fill="#0682AF"></path>
                            <path d="M1088.0005,126.4 C1089.3005,125.6 1089.8995,123.9 1091.8005,124.4 C1092.6995,121.4 1094.8995,121 1097.6005,121.4 C1097.6005,118.6 1098.1005,115.8 1097.3005,112.6 C1093.1005,117.9 1088.3995,121.8 1083.6995,126 C1086.6995,127.2 1086.6995,127.2 1088.0005,126.4" id="Fill-8" fill="#0682AF"></path>
                            <path d="M882.6001,118.0001 C883.5001,115.9001 884.4001,113.8001 885.3001,111.7001 C885.6001,111.0001 885.9991,110.0001 886.8001,111.4001 C887.3001,111.3001 887.6001,110.9001 887.7001,110.4001 L891.7001,110.3001 L891.3001,107.5001 C891.7001,106.5001 891.2001,106.0001 890.4991,105.5001 C889.9991,106.0001 889.8001,106.3001 889.8001,106.6001 C889.7001,106.3001 889.9001,105.9001 890.4991,105.4001 C890.2001,101.4001 890.1001,97.5001 890.4001,93.5001 L890.4001,93.4001 C890.2001,92.1001 889.4001,91.0001 888.1001,90.6001 C887.4001,91.5001 886.4991,92.4001 887.4991,93.6001 C886.3001,96.5001 887.4001,99.6001 886.7001,102.4001 C887.6001,103.5001 887.8001,104.6001 887.8001,105.8001 C887.8001,104.6001 887.6001,103.5001 886.7001,102.4001 C884.2001,108.1001 880.7001,113.5001 879.1001,119.9001 C881.2001,120.5001 882.0001,119.6001 882.6001,118.0001" id="Fill-10" fill="#0682AF"></path>
                            <polygon id="Fill-12" fill="#0682AF" points="1093.6997 167.4 1093.6997 167.3 1093.5997 167.3"></polygon>
                            <path d="M574,198.7999 C571.1,200.0999 570.3,201.7999 569.4,204.1999 C572.3,203.4999 573.1,201.6999 574,198.7999" id="Fill-14" fill="#0682AF"></path>
                            <path d="M1123.6001,123.4 C1124.9001,123.4 1125.8001,123 1126.0001,121.6 L1123.9001,119.7 C1124.1001,121.2 1122.0001,121.9 1123.6001,123.4" id="Fill-16" fill="#0682AF"></path>
                            <path d="M592.3999,203.1998 C593.4999,201.6998 592.8999,200.4998 591.6999,199.3998 L590.1999,199.5998 C590.6999,200.8998 590.4999,202.5998 592.3999,203.1998" id="Fill-18" fill="#0682AF"></path>
                            <path d="M1122.8003,139.2999 C1122.8003,139.2999 1122.6993,139.2999 1122.8003,139.2999" id="Fill-20" fill="#0682AF"></path>
                            <path d="M642.6997,213.4 C644.8997,212.9 644.3007,211.7 643.5007,210.4 C642.0007,211.1 641.6997,212.1 642.6997,213.4" id="Fill-22" fill="#0682AF"></path>
                            <path d="M793.0005,178.0001 C793.1995,178.8001 793.5005,179.5001 793.6995,180.3001 C794.6995,179.3001 794.1995,178.0001 794.3995,176.7001 C792.8995,176.0001 792.8005,176.8001 793.0005,178.0001" id="Fill-24" fill="#0682AF"></path>
                            <path d="M590.7002,197.1002 C590.3002,197.0002 589.8002,197.2002 589.5002,197.6002 C589.0002,198.4002 589.5002,199.1002 590.2002,199.6002 L591.7002,199.4002 C591.7002,198.5002 592.2002,197.4002 590.7002,197.1002" id="Fill-26" fill="#0682AF"></path>
                            <path d="M412.7002,108.4 C412.6002,108.5 412.6002,108.5 412.5002,108.5 C411.9002,108.9 411.7002,109.8 412.1002,110.4 C413.6002,110.1 414.3002,109.6 412.7002,108.4" id="Fill-28" fill="#0682AF"></path>
                            <path d="M607.6997,166.2999 C607.5997,165.7999 607.1997,165.3999 606.6997,165.3999 C606.1997,165.6999 605.8997,166.0999 606.3007,166.4999 C606.8007,167.1999 607.3007,166.8999 607.6997,166.2999" id="Fill-30" fill="#0682AF"></path>
                            <path d="M829.6997,192.4 C828.8997,192.4 828.6997,192.7 828.8007,193.3 C829.3007,193.2 829.5997,192.9 829.6997,192.4" id="Fill-32" fill="#0682AF"></path>
                            <path d="M483.8999,148.6998 C483.8999,148.7998 484.0999,148.9998 484.1999,149.0998 C484.2999,148.9998 484.4999,148.8998 484.4999,148.7998 C484.4999,148.6998 484.2999,148.4998 484.1999,148.3998 C484.0999,148.5998 483.8999,148.5998 483.8999,148.6998" id="Fill-34" fill="#0682AF"></path>
                            <path d="M1716.3003,201.2999 C1716.9003,204.1999 1716.0003,204.6999 1713.8003,203.9999 C1714.1993,202.0999 1715.5003,202.4999 1716.3003,201.2999 Z M1777.5003,186.2999 C1779.1993,184.1999 1778.4003,187.5999 1779.6003,187.2999 C1780.8003,186.9999 1781.2003,185.5999 1782.3003,185.6999 C1783.0003,185.6999 1783.6003,186.4999 1783.9003,187.2999 L1785.5003,186.2999 C1786.3003,184.8999 1787.1003,184.8999 1787.9003,186.2999 C1788.4003,186.4999 1788.7003,186.8999 1788.7003,187.3999 L1788.7003,187.0999 L1789.6003,187.0999 C1790.7003,184.8999 1791.8003,184.8999 1792.9003,187.0999 C1794.0003,187.1999 1794.7003,187.5999 1794.7003,188.8999 L1794.7003,203.2999 C1794.7003,204.4999 1794.0003,204.9999 1792.9003,205.0999 C1791.8003,207.2999 1790.7003,207.2999 1789.6003,205.0999 L1788.7003,205.0999 C1786.8003,207.4999 1786.8003,207.4999 1785.6003,205.0999 L1783.6003,204.0999 L1781.7003,205.0999 C1780.4003,203.4999 1781.5003,201.4999 1780.8003,199.8999 C1780.2003,198.5999 1778.2003,199.7999 1777.6003,198.1999 C1776.1993,194.3999 1776.1993,190.1999 1777.5003,186.2999 Z M1599.6003,200.1999 C1598.4993,198.8999 1598.6003,196.0999 1596.1003,197.6999 C1594.9993,199.6999 1596.6993,202.2999 1594.1003,204.1999 L1594.1003,187.3999 C1595.9003,187.4999 1598.1003,189.8999 1599.6003,185.6999 L1599.6003,200.1999 Z M1590.6003,203.5999 C1588.6003,205.3999 1586.9003,203.6999 1584.8003,202.9999 C1584.6993,198.0999 1584.6003,193.0999 1584.9003,186.7999 C1587.4003,188.5999 1588.9003,188.5999 1590.6003,187.5999 L1590.6003,203.5999 Z M1348.1993,150.9999 C1346.1993,155.5999 1347.3003,160.8999 1345.9003,165.7999 C1345.8003,166.0999 1346.3003,166.6999 1346.4993,167.0999 C1345.4993,167.5999 1344.4993,167.3999 1343.1003,167.2999 C1340.4003,158.6999 1342.1003,149.6999 1340.4993,140.8999 C1342.6003,140.9999 1344.6003,141.9999 1345.9993,143.7999 C1347.6993,145.5999 1349.6993,147.4999 1348.1993,150.9999 Z M1345.1003,181.8999 C1345.0003,186.9999 1343.4003,191.8999 1344.6003,197.0999 C1345.4003,200.5999 1343.8003,204.3999 1344.6003,208.1999 C1344.9003,209.2999 1343.6993,210.2999 1341.6993,209.9999 C1342.3003,203.2999 1341.1003,196.4999 1342.5003,189.5999 C1343.1993,185.9999 1342.9003,181.8999 1342.5003,178.0999 C1342.1993,175.4999 1343.1003,175.3999 1346.1003,175.3999 C1343.5003,177.7999 1345.0003,179.9999 1345.1003,181.8999 Z M1300.5003,235.4999 C1297.6003,234.6999 1296.6003,233.0999 1296.6993,230.3999 C1296.8003,227.0999 1296.6993,223.6999 1296.6993,220.1999 C1299.4003,218.5999 1300.8003,217.0999 1300.1003,212.9999 C1299.4003,208.7999 1298.3003,204.6999 1297.0003,200.6999 C1299.4003,199.7999 1301.1993,201.9999 1303.3003,201.5999 C1303.4003,213.3999 1301.1993,224.1999 1300.5003,235.4999 Z M1280.9003,232.8999 C1280.3003,234.3999 1279.1993,235.5999 1277.8003,236.3999 C1276.4993,224.7999 1274.3003,213.4999 1274.8003,201.3999 C1276.9003,202.0999 1278.1993,199.5999 1280.6993,200.7999 C1280.6993,203.8999 1279.1003,206.7999 1278.8003,209.8999 C1278.4003,213.7999 1278.4993,217.3999 1281.1003,220.4999 C1281.1993,220.6999 1281.6003,220.9999 1281.6003,221.1999 C1281.4003,225.0999 1282.4003,229.0999 1280.9003,232.8999 Z M1235.6003,167.0999 C1234.5003,167.4999 1233.3003,167.4999 1232.1003,167.1999 C1232.0003,166.8999 1231.6993,166.5999 1231.6993,166.2999 C1231.5003,160.5999 1230.9003,154.8999 1229.6993,149.2999 C1229.0003,146.2999 1230.6993,144.4999 1232.6993,142.9999 C1234.1993,142.0999 1235.6993,141.2999 1237.3003,140.6999 L1235.6003,167.0999 Z M1236.3003,210.3999 C1234.4993,209.9999 1233.6993,209.2999 1233.9003,207.8999 C1233.9003,202.8999 1232.3003,197.7999 1234.6003,192.8999 C1235.1003,191.8999 1234.4003,190.9999 1234.3003,190.0999 C1233.6003,186.0999 1233.3003,181.9999 1232.8003,177.8999 C1232.6003,176.4999 1232.9003,175.2999 1234.3003,174.5999 C1236.1003,177.4999 1237.5003,201.2999 1236.3003,210.3999 Z M1137.8003,165.1999 C1138.3003,166.4999 1139.6003,167.6999 1139.6993,169.0999 C1139.1993,167.7999 1137.9003,166.6999 1137.8003,165.1999 Z M1134.1993,146.7999 L1134.0003,146.8999 L1134.1993,146.7999 Z M1134.1993,147.0999 L1134.0003,146.8999 L1134.1993,147.0999 Z M1130.3003,135.9999 L1130.1993,135.6999 L1130.3003,135.9999 Z M932.6993,124.4999 C932.6003,123.6999 932.9003,122.9999 934.1003,122.2999 C933.0003,122.9999 932.6993,123.6999 932.6993,124.4999 Z M933.1003,128.9999 C933.0003,128.9999 932.9003,129.0999 932.8003,129.0999 C932.9003,129.0999 932.9993,129.0999 932.9993,128.9999 C933.3003,128.8999 933.3003,128.4999 933.4003,128.1999 C933.3003,128.4999 933.3003,128.8999 933.1003,128.9999 Z M932.4003,127.6999 L932.4993,127.5999 C932.9003,127.4999 933.1993,127.7999 933.4003,128.0999 C933.4003,128.0999 933.3003,127.9999 933.1993,127.9999 C933.0003,127.6999 932.6993,127.4999 932.4003,127.6999 Z M876.1993,154.9999 C876.3003,154.8999 876.5003,154.7999 876.5003,154.6999 C876.5003,154.7999 876.3003,154.8999 876.1993,154.9999 Z M788.8003,167.4999 C788.8003,169.9999 789.4003,170.1999 791.9003,170.9999 C791.9003,170.9999 791.9003,171.0999 791.9993,171.0999 C789.3003,170.1999 788.6993,169.9999 788.8003,167.4999 Z M789.3003,176.8999 L789.4003,176.8999 L789.1993,177.0999 L789.3003,176.8999 Z M789.1003,176.8999 L789.1993,177.0999 L789.1003,176.8999 Z M788.6993,183.3999 C788.6003,184.6999 789.1003,185.7999 790.1993,187.3999 C789.1003,185.7999 788.6003,184.6999 788.6993,183.3999 Z M788.4003,158.3999 L788.6993,158.3999 L788.6993,158.0999 C788.9003,158.1999 789.1003,158.3999 789.1993,158.5999 C789.1003,158.4999 788.9003,158.3999 788.6993,158.3999 C788.6993,158.7999 788.8003,159.0999 789.0003,159.3999 C788.9003,159.4999 788.8003,159.4999 788.6993,159.3999 C788.6003,158.9999 788.5003,158.6999 788.4003,158.3999 Z M789.6993,151.4999 L789.6993,151.7999 C789.6993,152.1999 789.8003,152.4999 790.1003,152.7999 C789.5003,152.4999 789.1993,151.7999 789.3003,151.0999 C789.3003,150.4999 789.1993,149.9999 788.9993,149.6999 C789.5003,149.9999 789.6993,150.4999 789.6993,151.4999 Z M791.6003,165.0999 C791.3003,165.9999 791.1003,166.8999 791.0003,167.8999 C791.0003,166.8999 791.3003,165.9999 791.6003,165.0999 Z M595.5003,219.8999 C592.9003,220.9999 591.2003,218.6999 588.5003,219.0999 C590.6003,213.6999 594.9003,210.4999 596.6003,205.1999 C598.3003,210.6999 597.6003,212.9999 594.0003,215.8999 L595.5003,219.8999 Z M579.7003,193.8999 C579.8003,192.8999 579.6003,191.7999 579.8003,190.7999 C579.7003,191.7999 579.8003,192.8999 579.7003,193.8999 Z M476.9003,147.2999 C476.9003,147.1999 476.9003,147.1999 476.9003,147.2999 C477.6003,146.2999 478.4003,145.4999 478.7003,144.3999 C478.5003,145.4999 477.7003,146.3999 476.9003,147.2999 Z M473.8003,146.8999 C473.8003,147.2999 474.0003,147.5999 474.4003,148.0999 C473.9003,147.6999 473.7003,147.2999 473.8003,146.8999 Z M418.2003,102.0999 C418.0003,102.1999 417.8003,102.1999 417.6003,102.1999 C417.7003,102.1999 417.9003,102.0999 418.0003,102.0999 C419.2003,101.3999 421.2003,94.9999 421.1003,92.9999 C421.2003,92.9999 421.2003,92.8999 421.3003,92.8999 C421.4003,94.8999 419.4003,101.3999 418.2003,102.0999 Z M419.5003,134.7999 C419.5003,134.7999 419.4003,134.6999 419.5003,134.7999 C420.2003,131.6999 419.2003,128.8999 418.8003,125.9999 C418.8003,125.8999 418.8003,125.8999 418.9003,125.7999 C419.2003,128.7999 420.2003,131.6999 419.5003,134.7999 Z M416.2003,111.7999 L416.0003,111.8999 L416.2003,111.9999 L416.2003,112.0999 L416.0003,111.8999 L416.2003,111.7999 Z M406.3003,141.3999 L406.1003,141.3999 C410.0003,141.2999 410.2003,141.0999 410.2003,136.6999 C410.1003,136.6999 409.9003,136.5999 409.8003,136.5999 C410.0003,136.5999 410.2003,136.5999 410.4003,136.6999 C410.3003,141.0999 410.1003,141.2999 406.3003,141.3999 Z M395.9003,142.7999 C395.8003,142.3999 395.7003,141.8999 395.8003,141.3999 L395.9003,141.3999 C395.8003,141.8999 395.8003,142.2999 395.9003,142.7999 Z M359.9003,130.1999 L361.5003,128.3999 L361.6003,128.3999 L359.9003,130.1999 Z M335.9003,103.6999 C336.0003,103.1999 336.1003,102.8999 336.3003,102.6999 C336.1003,102.8999 336.0003,103.1999 335.9003,103.6999 Z M332.5003,108.6999 C329.5003,106.4999 326.3003,106.5999 323.7003,104.2999 C326.3003,106.5999 329.5003,106.3999 332.5003,108.6999 Z M327.4003,97.0999 C328.5003,95.0999 329.9003,94.7999 332.3003,94.1999 C330.0003,94.7999 328.6003,95.1999 327.5003,97.0999 C326.5003,98.8999 324.9003,100.4999 322.8003,100.3999 C324.9003,100.3999 326.4003,98.8999 327.4003,97.0999 Z M323.4003,71.2999 C324.8003,71.1999 326.0003,72.3999 327.3003,71.8999 C325.9003,72.4999 324.7003,71.2999 323.4003,71.2999 Z M485.8003,83.4999 C485.5003,84.1999 484.8003,84.6999 484.3003,85.2999 C484.8003,84.6999 485.4003,84.1999 485.8003,83.4999 Z M612.3003,194.8999 C611.8003,194.5999 611.6993,194.1999 611.6993,193.8999 C611.6993,194.1999 611.8003,194.5999 612.3003,194.8999 Z M612.6993,193.7999 C612.6993,193.1999 612.5003,192.5999 612.0003,192.1999 C612.5003,192.5999 612.6993,193.1999 612.6993,193.7999 Z M1093.6003,141.2999 C1093.8003,143.0999 1094.0003,144.9999 1092.4003,146.4999 C1093.9003,144.9999 1093.8003,143.1999 1093.6003,141.2999 Z M1094.6003,134.9999 C1094.8003,136.1999 1094.3003,137.3999 1093.9003,138.5999 C1094.3003,137.3999 1094.6993,136.1999 1094.6003,134.9999 Z M2834.8003,273.6999 C2834.6993,267.8999 2834.6993,262.7999 2834.6003,258.5999 C2834.5003,250.2999 2834.4003,245.5999 2834.4003,245.5999 C2832.6003,252.3999 2830.6003,257.3999 2831.5003,264.0999 L2831.5003,275.5999 L2830.3003,278.7999 L2827.2003,275.1999 L2827.3003,266.4999 C2825.7003,264.3999 2823.7003,263.3999 2822.7003,257.3999 C2821.7003,254.3999 2815.7003,250.3999 2814.7003,248.3999 C2809.7003,216.3999 2819.7003,184.3999 2810.7003,153.3999 C2809.7003,147.3999 2807.7003,141.3999 2801.7003,136.3999 C2799.7003,133.3999 2795.7003,127.3999 2794.7003,128.3999 C2793.3003,133.3999 2792.3003,138.3999 2791.6003,143.3999 C2790.9003,148.3999 2790.4003,153.4999 2790.1003,158.4999 C2789.7003,168.2999 2789.7003,178.2999 2790.2003,188.7999 C2790.4003,193.8999 2790.6003,198.8999 2790.8003,203.9999 C2791.3003,219.1999 2791.4013,234.2999 2788.7003,249.2999 C2787.7003,244.7999 2786.8003,240.3999 2785.9003,235.9999 C2785.1003,231.5999 2784.3003,227.1999 2783.8003,222.7999 C2779.6993,202.3999 2782.6993,153.3999 2764.6993,164.3999 C2750.6993,172.3999 2766.6993,205.3999 2759.6993,224.3999 C2753.6993,241.3999 2756.6993,267.3999 2750.6993,286.3999 C2748.6993,281.3999 2739.6993,284.3999 2739.6993,278.3999 C2738.6993,263.3999 2738.6993,248.3999 2736.6993,234.3999 C2732.6993,204.3999 2737.6993,174.3999 2733.6993,144.3999 C2732.6993,136.3999 2720.6993,142.3999 2713.6993,141.3999 C2712.6993,154.3999 2715.6993,168.3999 2714.6993,181.3999 C2716.6993,179.3999 2717.6993,176.3999 2717.6993,173.3999 C2719.6993,186.3999 2718.6993,199.3999 2715.6993,212.3999 C2714.6993,211.3999 2713.6993,208.3999 2713.6993,208.3999 C2686.6993,217.3999 2700.6993,246.3999 2692.6993,267.3999 C2690.6993,256.3999 2694.6993,245.3999 2693.6993,234.3999 C2692.6993,235.3999 2690.6993,236.3999 2689.6993,236.3999 C2679.6993,229.3999 2687.6993,211.3999 2685.6993,200.3999 C2678.6993,203.3999 2672.6993,203.3999 2665.6993,202.3999 C2663.6993,201.3999 2661.6993,204.3999 2660.0003,205.2999 L2650.0003,205.9999 L2646.0003,209.9999 L2646.1003,265.4999 L2642.8003,268.3999 L2639.6003,265.3999 L2639.7003,251.3999 L2635.7003,247.4999 L2632.6003,244.4999 L2632.7003,237.4999 L2628.3003,232.9999 L2624.8003,229.6999 L2624.9013,206.6999 L2622.4013,204.0999 L2611.9013,204.0999 L2609.7003,203.1999 L2606.8003,201.4999 L2589.7003,201.3999 L2585.8003,204.9999 L2582.9013,207.7999 L2563.7003,207.6999 L2539.8013,212.3999 L2535.8013,218.4999 L2536.0003,268.3999 L2533.1013,271.4999 L2527.5003,265.5999 L2527.5003,262.0999 L2529.7003,247.8999 L2529.2003,244.5999 L2527.4013,238.0999 L2527.4013,195.4999 C2527.4013,188.3999 2527.5003,181.2999 2527.7003,174.6999 C2527.7003,162.2999 2531.7003,150.2999 2527.7003,140.2999 C2525.7003,137.2999 2515.7003,138.4999 2514.7003,132.4999 C2514.7003,128.2999 2515.7003,120.2999 2510.7003,121.2999 C2495.7003,123.2999 2486.7003,140.2999 2470.7003,139.2999 C2463.7003,139.2999 2462.7003,131.2999 2460.7003,125.2999 C2459.7003,133.2999 2462.7003,144.2999 2455.7003,148.2999 C2445.7003,153.2999 2434.7003,148.2999 2423.7003,147.2999 C2421.7003,147.2999 2417.7003,149.2999 2418.7003,152.2999 C2419.7003,152.2999 2420.7003,152.2999 2421.7003,151.2999 C2420.7003,172.2999 2417.7003,194.2999 2418.9013,215.3999 L2418.8003,222.8999 L2420.9013,243.9999 L2419.3003,261.8999 L2418.4013,269.7999 L2417.3003,271.5999 L2416.0003,269.6999 L2415.1013,262.4999 L2413.4013,246.8999 L2410.0003,245.3999 L2405.7003,234.7999 L2403.7003,232.7999 L2400.3013,228.6999 L2397.2003,225.6999 L2389.5003,225.7999 L2379.2003,239.6999 L2379.2003,105.1999 L2374.7003,100.4999 L2372.5003,98.2999 L2371.9013,90.9999 L2364.1013,90.4999 L2362.7003,90.4999 L2359.1013,94.0999 L2358.3003,97.2999 L2355.5003,101.4999 L2355.6013,246.4999 L2353.6013,249.5999 L2351.6013,246.4999 L2351.6013,231.1999 L2350.5003,228.7999 L2348.2003,225.3999 L2348.1003,191.5999 L2347.1003,188.6999 L2345.3003,185.7999 L2345.3003,173.9999 L2344.3003,171.8999 L2341.2003,167.5999 L2341.2003,163.3999 L2338.6003,160.8999 L2331.4003,167.7999 L2331.4003,169.4999 L2329.4003,171.4999 L2326.3003,174.7999 L2326.4003,230.2999 L2322.6003,234.0999 L2319.6003,237.1999 L2319.7003,250.7999 L2318.7003,254.6999 L2316.9003,260.7999 L2317.0003,284.1999 L2316.0003,286.6999 L2313.9003,285.1999 L2311.8003,283.9999 L2305.9003,283.9999 L2303.0003,281.0999 L2302.9003,258.0999 L2302.3003,257.4999 L2295.6993,250.1999 L2295.6003,188.9999 L2293.4003,186.0999 L2273.6003,186.2999 L2272.4993,188.2999 L2272.6003,219.6999 L2275.3003,215.1999 L2276.3003,216.8999 L2275.8003,235.4999 L2274.1003,238.7999 L2271.4003,235.6999 L2256.8003,235.6999 L2257.1003,241.5999 L2256.1003,245.3999 L2256.3003,255.7999 L2257.3003,270.2999 L2255.3003,272.2999 L2253.8003,270.6999 L2254.3003,252.4999 L2253.6993,245.4999 L2250.1993,245.4999 L2246.6003,241.9009 L2246.6003,220.5999 L2246.1003,211.4009 L2237.1993,208.2999 L2229.9003,202.9009 L2224.6993,206.1999 L2215.3003,206.0999 L2211.3003,210.0999 L2211.4003,265.5999 L2208.1003,268.5009 L2204.9003,265.5009 L2205.0003,251.5009 L2201.0003,247.5999 L2197.9003,244.5999 L2198.0003,237.5999 L2193.6003,233.0999 L2190.1003,229.7999 L2190.2003,206.7999 L2187.7003,204.1999 L2177.2003,204.1999 L2175.0003,203.2999 L2172.1003,201.5999 L2155.0003,201.5009 L2151.1003,205.0999 L2148.2003,207.9009 L2129.0003,207.7999 L2105.1013,212.5009 L2101.1013,218.5999 L2101.3003,268.5009 L2098.4013,271.5999 L2092.8003,265.6999 L2092.8003,262.1999 L2095.0003,248.0009 L2094.5003,244.6999 L2092.7003,238.1999 L2092.7003,153.0999 L2092.1003,143.6999 L2082.4013,143.0999 L2078.6003,139.4009 L2078.7003,133.7999 L2074.8003,129.7999 L2036.4013,130.0009 L2031.8003,127.2999 L2022.8003,111.5999 L2020.6013,111.5009 L2021.9013,117.9009 L2016.5003,131.4009 L2008.8013,131.9009 L2003.8013,135.6999 L1985.9013,142.1999 L1980.4013,150.9009 L1981.9013,150.2999 L1983.6013,148.5009 L1984.2003,151.5999 L1983.7003,162.2999 L1982.5013,169.5999 L1982.8013,190.4009 L1984.1013,215.9009 L1984.0013,223.4009 L1986.1013,244.5009 L1984.5013,262.4009 L1983.6013,270.2999 L1983.6013,270.4009 L1981.3013,270.4009 L1981.2003,270.1999 L1980.3013,263.0009 L1978.6013,247.4009 L1975.2013,245.9009 L1970.9013,235.2999 L1968.9013,233.2999 L1965.5013,229.2009 L1962.4013,226.2009 L1954.7013,226.2999 L1944.0013,230.2009 L1944.0013,178.7009 C1941.0013,178.6009 1943.1013,181.7999 1940.9013,182.9009 C1934.7013,182.9009 1927.9013,183.4009 1921.1013,182.7999 C1912.8013,182.1009 1906.1013,185.7009 1899.2013,189.0009 L1899.2013,242.7009 L1898.0013,243.6009 C1898.4013,244.4009 1899.0013,244.9009 1899.7013,244.1009 C1900.0013,243.7999 1900.0013,243.5009 1899.8013,243.2009 C1900.1013,243.6009 1900.3013,244.2999 1900.5013,245.4009 C1899.8013,246.2009 1899.2013,245.7009 1898.8013,244.9009 C1894.0013,242.1009 1892.4023,237.7009 1892.6013,232.4009 L1892.6013,228.4009 L1892.6013,133.6009 C1892.6013,131.7999 1893.1013,130.0009 1891.8013,128.0009 C1889.5013,128.0009 1887.0013,128.1009 1884.5013,128.0009 C1882.9013,127.9009 1881.1013,128.7009 1879.9013,127.0009 C1878.8013,126.9009 1877.8013,126.7009 1877.8013,125.4009 C1877.7003,123.6009 1876.8013,122.0009 1876.1013,120.0009 C1871.1013,120.0009 1866.2013,120.1009 1861.2013,119.9009 C1858.7013,119.7009 1855.7013,120.2999 1854.7013,116.9009 L1840.7013,116.9009 C1837.3013,112.4009 1835.9013,107.5009 1832.5013,103.9009 C1830.6013,103.5009 1829.1013,105.1009 1827.2013,104.9009 C1824.0013,108.5009 1822.2013,113.0009 1819.8013,117.1009 C1818.6013,119.4009 1816.5013,121.2009 1814.0013,122.0009 C1807.4013,124.1009 1801.0013,126.7009 1794.5013,129.1009 C1794.5013,136.0009 1794.4013,142.6009 1794.5013,149.2999 C1794.6013,151.5009 1793.9013,153.6009 1792.6013,155.2999 C1788.2013,160.7999 1783.8013,166.2999 1779.4023,171.7999 C1779.3013,172.2999 1778.9023,172.7009 1778.4023,172.7999 C1778.5013,173.2999 1778.1013,173.7009 1777.7013,173.7999 C1774.7013,177.4009 1772.9023,181.2009 1774.6013,185.9009 C1776.0013,190.1009 1775.8013,197.0009 1774.2013,199.8009 C1772.1013,200.0009 1769.8013,199.1009 1767.9023,200.6009 C1766.3013,201.8009 1767.1013,203.7009 1767.0013,205.3009 C1766.9023,206.9009 1766.1023,207.8009 1764.5013,207.7009 C1763.4023,207.6009 1762.2013,208.0009 1761.0013,207.2009 C1760.8013,206.3009 1760.7013,204.5009 1760.5013,204.5009 C1756.5013,204.1009 1756.1023,201.3009 1756.1023,198.2009 C1756.1023,197.9009 1755.8013,197.6009 1755.5013,197.5009 C1753.0013,196.6009 1753.4023,194.5009 1753.4023,192.6009 C1753.4023,176.3009 1753.3013,159.9009 1753.4023,143.6009 C1753.5013,139.8009 1752.9023,136.5009 1750.4023,133.2009 L1721.5013,134.8009 C1720.5013,136.1009 1720.4023,137.8009 1720.4023,139.5009 C1720.5013,149.7009 1720.5013,159.8009 1720.5013,169.9009 C1722.3013,170.9009 1721.2013,172.6009 1721.5013,173.9009 C1723.1023,177.7009 1723.0013,177.7009 1718.7013,177.9009 C1718.4023,182.9009 1718.4023,187.9009 1718.7013,192.9009 C1719.6013,193.0009 1721.1013,192.6009 1721.2013,193.7009 C1721.4023,195.5009 1719.7013,194.7009 1718.7013,194.9009 C1718.4023,197.0009 1720.2013,198.8009 1719.4023,200.9009 C1720.9023,201.6009 1720.5013,202.6009 1720.0013,203.7009 C1717.9023,203.6009 1718.7013,202.1009 1718.5013,201.1009 C1715.2013,199.5009 1712.7013,196.7009 1711.5013,193.2009 C1710.7013,190.8009 1709.6023,188.5009 1708.2013,186.3009 C1705.9023,182.7009 1705.6013,181.6009 1708.3013,179.1009 C1710.0013,177.5009 1709.5013,176.5009 1709.0013,175.0009 C1706.3013,174.8009 1704.3013,176.7009 1701.7013,176.8009 C1701.8013,170.7009 1696.4023,172.6009 1693.9023,172.2009 C1688.9023,171.3009 1686.6013,175.8009 1685.0013,179.7009 C1682.3013,180.6009 1680.2013,177.6009 1677.5013,179.9009 C1677.5013,173.7009 1677.3013,168.0009 1677.5013,162.4009 C1677.5013,159.8009 1677.0013,157.6009 1675.4023,155.9009 C1675.8013,154.5009 1678.6013,154.5009 1676.6013,152.7009 L1674.9023,152.7009 C1675.1013,151.8009 1675.8013,151.9009 1676.3013,151.8009 L1676.3013,112.6009 C1668.1013,112.9009 1667.6013,113.6009 1667.3013,107.8009 C1663.9023,108.3009 1660.8013,106.9009 1657.6013,106.7009 C1656.6013,106.6009 1656.5013,105.6009 1656.4023,104.8009 C1655.1013,104.5009 1653.7013,104.5009 1652.4023,104.8009 C1652.4023,105.2009 1652.0013,105.6009 1651.5013,105.7009 C1651.1023,106.9009 1651.9023,108.4009 1650.9023,109.4009 C1649.6013,110.3009 1647.7013,109.1009 1646.7013,110.8009 L1646.7013,182.6009 C1646.7013,184.9009 1646.6013,187.3009 1646.5013,189.6009 C1645.8013,193.8009 1643.2013,196.9009 1640.2013,199.7009 C1638.8013,201.0009 1637.5013,200.8009 1637.7013,198.4009 C1636.4023,197.0009 1636.7013,195.4009 1636.7013,193.8009 C1636.6013,190.7009 1636.6013,187.7009 1636.5013,184.6009 C1632.4023,183.8009 1631.0013,182.3009 1630.6023,177.5009 C1630.5013,175.9009 1630.6023,174.2009 1630.6023,172.3009 C1625.1023,170.1009 1625.3013,165.4009 1625.6023,160.7009 C1622.7013,160.4009 1619.8013,160.4009 1616.9023,160.8009 C1616.1023,163.6009 1616.8013,165.9009 1617.4023,168.2009 C1614.0013,169.1009 1611.1023,168.8009 1608.9023,166.4009 C1605.2013,162.4009 1601.6023,158.2009 1597.7013,153.9009 C1592.4023,159.6009 1586.7013,165.3009 1581.5013,171.4009 C1578.0013,175.5009 1575.9023,180.0009 1577.4023,186.1009 C1578.5013,190.6009 1577.9023,195.6009 1576.6023,200.3009 C1576.1023,202.0009 1575.2013,201.8009 1573.6023,201.2009 L1573.6023,178.4009 C1569.6023,176.0009 1566.7013,179.8009 1563.1023,179.5009 C1562.6023,174.4009 1559.4023,170.9009 1556.1023,167.9009 C1550.0013,162.3009 1543.1023,157.9009 1534.6023,156.1009 C1524.5013,153.8009 1514.0013,154.1009 1504.0013,157.0009 C1498.4023,158.7009 1493.6023,162.1009 1488.6023,165.5009 C1488.6023,159.6009 1488.3013,154.1009 1488.7013,148.6009 C1488.9023,145.6009 1486.5013,144.3009 1485.4023,142.2009 C1484.9023,141.1009 1483.1023,141.4009 1481.9023,141.8009 C1480.9023,143.8009 1480.5013,145.9009 1480.6023,148.1009 C1480.7013,155.4009 1480.5013,162.8009 1480.7013,170.1009 C1480.9023,172.7009 1480.2013,175.3009 1478.7013,177.5009 C1475.4023,182.2009 1473.2013,187.6009 1472.4023,193.3009 C1470.0013,194.0009 1467.8013,192.9009 1465.5013,194.4009 C1466.7013,199.1009 1464.0013,204.3009 1467.5013,208.8009 C1467.9023,209.4009 1467.6023,210.5009 1467.6023,211.3009 L1467.6023,235.3009 C1467.8023,236.8009 1467.4023,238.3009 1466.5013,239.5009 C1462.9023,243.8009 1462.1023,248.7009 1463.9023,254.1009 C1464.8013,256.9009 1464.3013,257.4009 1461.4023,257.6009 C1459.2013,257.7009 1457.1023,257.6009 1455.2013,257.6009 C1453.2013,261.6009 1457.7013,267.7009 1450.7013,269.2999 C1450.2013,271.7009 1451.2013,274.1009 1449.9023,276.5009 C1445.5013,276.1999 1441.2013,277.1009 1437.1023,276.1009 C1436.2013,273.9009 1437.2013,271.7999 1436.3013,270.0009 C1432.7013,268.6999 1432.6023,268.6999 1432.6023,265.2999 C1432.7013,260.2999 1432.7013,255.2999 1432.8013,250.2999 C1432.8013,246.7009 1434.5013,242.7009 1431.3013,239.4009 C1431.1023,239.2009 1432.4023,238.7009 1432.0013,238.0009 C1430.3013,237.2999 1428.4023,238.2999 1426.5013,237.0009 L1426.5013,213.6999 L1414.0013,213.6999 C1414.8013,209.1999 1414.6013,208.9009 1410.9023,208.6999 C1408.5013,208.6009 1406.2013,209.1009 1403.9023,208.4009 L1402.0013,203.6999 C1399.8013,204.1999 1397.4023,202.9009 1395.3013,204.6009 C1392.1023,207.1009 1389.6023,210.1009 1390.5013,215.1009 C1387.3013,214.0009 1384.4023,215.9009 1381.7013,213.2999 C1383.7013,211.6009 1381.4023,209.7999 1381.9023,208.1009 C1382.9023,205.0009 1381.9023,202.0009 1381.7013,199.0009 C1381.6013,197.2999 1380.5013,196.0009 1380.7013,194.1999 C1381.4023,189.1009 1379.7013,184.1999 1380.1013,179.0009 C1380.3013,175.7999 1379.3013,172.4009 1379.6013,169.0009 C1379.9023,166.5009 1379.8013,164.0009 1379.3013,161.5009 C1377.8013,156.5999 1378.9023,151.2999 1377.0013,146.5009 C1376.6013,145.5009 1378.3013,144.0009 1377.1013,142.9009 C1375.2013,141.1999 1375.7013,139.0009 1375.6013,136.9009 C1375.5013,133.1999 1373.0013,129.6009 1375.6013,125.9009 C1373.5013,121.9009 1373.9023,117.2999 1373.3013,113.0009 C1372.8013,109.0009 1371.5013,105.0009 1371.7013,100.9009 C1371.8013,99.1009 1371.5013,97.2999 1370.8013,95.6009 C1369.9013,93.2999 1369.5013,90.9009 1369.7013,88.4009 C1369.9013,85.7999 1369.6013,83.1999 1369.0013,80.6009 C1368.2013,77.7999 1368.3013,74.9009 1369.2013,72.1999 C1369.8013,70.6999 1369.6013,69.0009 1368.8013,67.6009 C1367.9013,65.4009 1366.1013,63.0009 1367.0013,60.6999 C1368.1013,57.6999 1367.2013,54.7999 1367.6013,51.9009 C1367.7013,50.1999 1368.6013,48.6999 1370.1013,47.7999 C1370.7013,47.6009 1371.3013,47.4009 1371.9013,47.2009 C1374.4013,46.0009 1374.6013,44.7999 1372.5013,42.6009 C1372.3013,42.2999 1372.1013,42.1009 1371.9013,41.7999 C1369.9013,38.7999 1365.4013,38.2009 1364.4013,34.1009 C1364.3013,33.5009 1362.6013,33.4009 1362.3013,34.2009 C1360.9013,38.2009 1357.5013,40.2009 1354.6013,42.7999 C1354.4023,43.0009 1354.3013,43.1009 1354.2013,43.2009 C1353.6013,44.0009 1353.8013,45.2009 1354.6013,45.7999 C1356.4023,47.5009 1358.1013,49.4009 1360.6013,50.2009 C1358.3013,56.7999 1359.4023,63.7999 1358.0013,70.5009 C1357.8013,71.2009 1357.8013,71.9009 1358.0013,72.5009 C1360.4023,78.0009 1357.9023,83.2999 1357.3013,88.5009 C1357.0013,90.9009 1357.0013,93.4009 1356.5013,95.7999 C1355.4023,101.7009 1353.6013,107.6009 1353.9023,113.7009 C1354.0013,117.2999 1353.5013,120.9009 1352.4023,124.2999 C1352.1013,125.4009 1351.6013,126.2999 1352.2013,127.5009 C1353.9023,131.4009 1351.2013,134.7009 1351.3013,139.0009 C1347.8013,136.6009 1345.1013,134.9009 1342.6013,132.9009 C1340.6013,131.4009 1339.5013,128.9009 1339.7013,126.4009 C1339.8013,122.2999 1339.9023,118.0009 1338.6013,114.1009 C1337.3013,110.2009 1339.2013,105.7009 1336.1013,102.2999 C1337.7013,99.2009 1334.5013,96.4009 1335.3013,93.6009 C1336.7013,88.5009 1335.2013,83.6009 1334.2013,79.0009 C1332.6013,71.7999 1333.4023,64.4009 1331.0013,57.2999 C1329.6013,53.2999 1330.1013,48.5009 1330.0013,44.1009 C1329.9023,36.0009 1328.1013,27.9009 1328.8013,19.7999 C1329.0013,18.1009 1328.4023,16.4009 1327.2013,15.2999 C1328.7013,13.2009 1330.9023,12.7009 1333.0013,11.7999 C1334.9023,11.0009 1335.1023,10.4009 1333.7013,8.2999 C1331.8013,5.5009 1329.2013,3.7999 1327.0013,1.6009 C1325.2013,-0.0991 1322.7013,0.2009 1320.8013,2.0009 C1318.6023,4.2009 1317.2013,7.2009 1314.1023,8.7009 C1313.3013,9.1009 1313.4023,11.2009 1314.3013,11.2009 C1317.4023,11.2999 1318.6023,14.4009 1321.2013,14.9009 C1320.7013,18.6009 1319.4023,22.1009 1319.6023,25.9009 C1319.7013,28.0009 1319.8013,30.1009 1318.8013,32.2009 C1318.1023,33.7999 1318.1023,35.5009 1318.7013,37.1009 C1321.1023,42.4009 1318.5013,47.5009 1318.3013,52.7009 C1318.0013,58.4009 1317.1023,64.0009 1315.5013,69.5009 C1314.0013,75.2999 1315.5013,81.2999 1313.7013,87.1009 C1313.0013,89.4009 1312.4023,91.6009 1313.5013,94.2009 C1314.1023,95.4009 1314.6023,97.7999 1312.1023,98.7999 C1311.8013,98.9009 1311.6023,99.7009 1311.7013,100.1009 C1312.4023,104.7999 1310.6023,109.1999 1309.7013,113.6999 C1308.7013,118.6009 1308.6023,123.5009 1308.1023,128.6009 C1307.6023,133.6999 1307.1023,138.6999 1306.9023,143.6999 C1306.7013,147.1009 1305.6023,150.6999 1305.8013,153.9009 C1306.4023,162.6999 1304.4023,171.4009 1305.5013,180.1999 C1305.8013,181.2999 1305.6023,182.5009 1304.9023,183.5009 C1303.9023,184.6999 1305.1023,185.7999 1305.0013,187.1009 C1303.5013,187.4009 1302.3013,186.1999 1300.8013,186.1999 C1296.6023,186.2999 1296.6023,186.1009 1296.5013,181.7999 C1296.5013,181.5009 1296.5013,181.0999 1296.4023,180.7999 C1295.6023,175.5999 1294.1023,170.5009 1291.9023,165.6999 C1292.4023,164.9009 1293.3013,164.2999 1294.3013,164.2999 C1296.4023,164.0009 1295.6023,162.1999 1295.4023,161.1999 C1295.1023,159.7999 1289.2013,158.1999 1288.3013,159.1999 C1287.0013,160.6999 1285.1023,159.7999 1283.7013,160.7999 L1283.7013,163.6999 C1285.0013,165.0009 1287.6023,163.4009 1288.2013,165.9009 C1288.0013,166.1009 1287.6023,166.1999 1287.4023,166.4009 C1285.8013,168.7999 1286.4023,172.2999 1283.6023,174.1999 C1285.4023,177.1009 1283.1023,180.2999 1284.0013,183.1009 C1284.8013,185.6009 1283.7013,186.1999 1281.8013,186.2999 C1279.5013,186.5009 1277.1023,186.0009 1274.9023,187.6009 C1273.8013,182.6999 1274.3013,178.1009 1274.1023,173.6009 C1273.8013,167.1009 1274.4023,160.5009 1273.5013,153.9009 C1272.7013,148.6999 1273.5013,143.2999 1272.0013,138.1009 C1271.6023,136.5009 1271.5013,134.7999 1271.7013,133.1999 C1272.5013,127.4009 1270.0013,122.1009 1269.8013,116.5009 C1269.7013,113.5009 1269.4023,110.5009 1269.0013,107.5999 C1268.6013,105.1999 1267.5013,103.0009 1267.3013,100.5009 C1266.9023,98.0999 1266.4023,95.7999 1265.8013,93.5009 C1269.0013,91.7999 1266.4023,89.4009 1266.0013,87.6999 C1265.0013,84.1999 1265.4023,80.7999 1264.7013,77.1009 C1264.0013,73.4009 1262.9023,69.6999 1263.2013,65.9009 C1263.4023,64.4009 1263.2013,62.9009 1262.8013,61.5009 C1260.4023,55.2999 1261.3013,48.5999 1260.3013,42.0999 C1259.6013,38.0009 1262.5013,33.5999 1259.3013,29.4009 C1258.5013,28.1999 1259.3013,25.7999 1259.2013,24.0009 C1259.1013,20.9009 1258.9023,17.7999 1258.8013,14.5999 L1265.3013,10.5999 C1264.9023,8.1999 1263.4023,6.6999 1261.7013,5.0999 C1254.8013,-1.4991 1253.8013,-1.5991 1248.3013,5.9009 C1247.3013,7.2999 1245.5013,8.5999 1245.4023,10.0009 C1245.2013,12.4009 1248.3013,12.0009 1249.6013,13.4009 C1250.3013,14.0999 1251.1013,14.5999 1251.9023,15.0999 C1251.6013,15.5009 1251.2013,16.0009 1251.2013,16.4009 C1251.0013,22.0999 1252.2013,28.0009 1249.2013,33.5009 C1248.7013,34.5999 1248.8013,35.7999 1249.3013,36.9009 C1250.3013,38.5999 1250.1013,40.4009 1250.0013,42.1999 C1249.6013,48.2999 1249.6013,54.5009 1247.5013,60.1999 C1246.8013,62.2999 1248.8013,64.0009 1247.6013,65.1999 C1245.2013,67.6999 1246.4023,70.5009 1246.0013,73.1999 C1245.3013,77.5999 1245.1013,82.0009 1244.2013,86.2999 C1243.7013,88.9009 1242.3013,91.5009 1243.9013,94.4009 C1244.5013,95.4009 1244.1013,97.1999 1243.6013,98.6999 C1243.0013,100.7999 1242.5013,103.0999 1242.0013,105.2999 C1240.9013,109.9999 1241.5013,114.7999 1240.1013,119.3999 C1239.6013,120.8999 1239.4013,122.4999 1239.6013,123.9999 C1239.9013,126.6999 1239.3013,130.2999 1237.6013,132.0999 C1235.1013,134.5999 1232.1013,137.1999 1228.2013,138.2999 C1228.3013,136.2999 1227.9013,134.2999 1227.2013,132.3999 C1226.7013,131.2999 1226.2013,129.4999 1226.7013,128.7999 C1229.4013,125.3999 1227.1013,122.6999 1225.8013,119.8999 C1225.2013,118.8999 1225.0013,117.6999 1225.2013,116.5999 C1226.3013,112.1999 1225.3013,107.7999 1224.9013,103.5999 C1224.2013,96.9999 1221.6013,90.5999 1222.1013,83.7999 C1222.2003,83.2999 1222.1013,82.7999 1222.0013,82.2999 C1220.7003,78.8999 1220.7003,75.0999 1222.0013,71.6999 C1222.5013,70.4999 1222.8013,68.5999 1221.5013,67.4999 C1219.8013,65.9999 1220.3013,64.1999 1220.2003,62.3999 C1219.9013,60.1999 1219.9013,57.8999 1220.0013,55.5999 C1220.2003,53.4999 1218.8013,50.9999 1221.0013,48.7999 C1222.1013,47.6999 1223.3013,47.7999 1224.3013,47.1999 C1226.8013,45.7999 1226.7013,44.9999 1225.0013,42.4999 C1222.8013,39.2999 1218.8013,37.9009 1217.1013,34.1999 C1216.7003,33.2999 1214.9013,33.1999 1214.6013,34.1999 C1213.3013,37.9999 1209.6013,39.6999 1207.3013,42.4999 C1206.6013,43.2999 1206.0013,44.5999 1206.5013,44.7999 C1209.3013,45.8999 1209.9013,49.6999 1213.2003,49.9999 C1212.6013,50.6999 1212.3013,51.4999 1212.3013,52.4009 C1212.3013,57.7999 1213.3013,63.4009 1210.4013,68.4999 C1210.0003,69.4009 1210.0003,70.4999 1210.4013,71.4009 C1213.0003,77.5999 1210.4013,83.7999 1209.9013,89.9009 C1209.3013,96.4009 1207.3013,102.6999 1207.2003,109.2999 C1207.1013,113.0999 1206.6013,116.7999 1205.8013,120.5009 C1205.2003,123.5009 1204.0003,126.1999 1205.2003,129.4009 C1205.7003,130.6999 1205.3013,132.2999 1204.8013,133.7999 C1203.7003,137.1999 1202.2003,140.7999 1202.5003,144.1999 C1203.0003,150.0009 1200.1013,155.1999 1200.5003,160.9009 C1200.7003,163.5999 1199.3013,166.4009 1199.5003,169.1999 C1199.7003,172.0009 1197.5003,175.0999 1200.2003,177.7999 C1200.2003,177.7999 1200.0003,178.4009 1199.8013,178.5999 C1198.4013,180.0999 1201.2003,181.7999 1199.2003,183.5009 C1198.0003,184.5009 1198.5003,187.2999 1198.6013,188.6999 C1199.2003,195.7999 1197.1013,202.9009 1198.0003,210.0009 C1198.5003,213.7999 1197.8013,217.6999 1197.9013,221.5999 C1198.0003,224.4009 1199.0003,227.4009 1198.1013,230.0999 C1196.7003,234.4009 1197.4013,238.5999 1197.2003,242.9009 C1197.1013,245.6999 1197.2003,248.5009 1197.2003,251.0999 C1192.3013,252.9009 1190.5003,249.5009 1188.6013,246.6999 C1185.7003,242.4009 1183.8013,237.5009 1181.3013,232.9009 C1179.7003,229.7999 1177.5003,226.7999 1174.1013,225.7999 C1169.9013,224.5999 1166.2003,221.9009 1161.7003,221.5999 L1161.6013,221.5999 C1160.4013,221.5009 1159.5003,220.5009 1159.5003,219.2999 C1159.5003,215.4999 1158.6013,211.6999 1160.3013,208.0999 C1158.2003,205.9009 1156.3013,203.9009 1158.3013,200.6999 C1158.8013,199.5999 1158.6013,198.2999 1157.8013,197.4009 C1156.1013,195.4009 1155.5003,192.7999 1154.3013,190.5999 C1151.5003,191.0999 1149.7003,188.6999 1147.3013,187.9009 C1146.5003,187.6999 1146.3013,186.9009 1146.3013,186.0999 C1146.4013,186.4999 1146.7003,186.9009 1147.2003,186.9999 C1149.6013,187.6999 1151.3013,190.1999 1154.2003,189.6999 C1154.6013,188.5999 1154.4013,187.3999 1153.6013,186.5999 C1150.0013,186.5999 1150.0013,186.5999 1146.4013,183.4999 C1146.4013,183.7999 1146.3013,184.0999 1146.3013,184.4009 C1145.4013,184.4999 1144.5013,184.2999 1144.0013,183.5999 C1142.8013,181.1999 1140.9013,179.0009 1140.5013,176.1999 C1141.1013,178.4999 1142.7003,180.4999 1143.8013,182.6999 C1144.3013,183.6999 1145.4013,183.7999 1146.4013,183.4999 C1145.1013,179.7999 1143.9013,175.9009 1140.4013,173.5999 L1140.3013,170.5999 C1140.3013,170.2999 1140.3013,169.9999 1140.2003,169.6999 C1142.5013,168.8999 1145.9013,171.6999 1147.3013,166.7999 C1143.9013,166.7999 1142.2003,162.8999 1138.5013,163.3999 C1138.6013,161.8999 1138.7003,160.2999 1137.4013,158.4999 C1141.1013,159.0999 1143.7003,161.9999 1147.2003,161.1999 L1147.2003,160.2999 C1148.4013,159.6999 1148.1013,159.0999 1147.2003,158.4999 L1147.2003,159.0999 C1144.6013,155.8999 1140.6013,155.1999 1137.1013,153.5999 L1135.4013,155.0999 L1135.4013,154.1999 L1137.0013,152.7999 C1136.6013,151.8999 1136.5013,150.8999 1135.5013,150.2999 C1135.7003,149.6999 1136.1013,149.2999 1136.9013,149.5999 C1138.0013,149.9999 1139.0013,150.5999 1140.0013,151.0999 C1142.8013,152.2999 1145.2003,151.6999 1147.2003,149.1999 C1142.8013,145.2999 1135.2003,146.3999 1132.1013,139.6999 C1134.9013,139.4999 1137.1013,141.5999 1139.5013,139.8999 C1138.3013,136.9999 1134.7003,137.2999 1133.6013,134.7999 C1134.9013,134.1999 1136.1013,133.6999 1136.4013,131.2999 C1131.6013,130.5999 1129.7013,126.2999 1127.0013,122.7999 C1126.9013,122.6999 1126.6013,122.6999 1126.5013,122.5999 C1126.3013,123.9999 1125.4013,124.3999 1124.1013,124.3999 C1123.5013,128.7999 1122.7003,133.1999 1121.5013,137.5999 L1121.4013,137.5999 C1121.2013,138.4999 1119.5013,139.2999 1120.8013,140.2999 C1121.7013,141.0999 1122.3013,139.5999 1123.1013,139.5999 L1123.2013,138.2999 C1123.9013,138.3999 1124.3013,138.6999 1124.3013,139.3999 C1124.3013,140.0999 1124.0013,140.3999 1123.3013,140.2999 C1123.7013,142.5999 1123.2013,144.7999 1121.8013,146.6999 C1119.0013,149.7999 1120.7013,151.6999 1122.7013,153.5999 C1122.6013,154.2999 1122.4013,154.9999 1122.1013,155.6999 C1120.9013,158.1999 1118.4013,160.5999 1121.9013,163.2999 C1122.4013,163.6999 1122.2013,164.8999 1121.4013,165.4999 C1120.6013,166.0999 1120.5013,167.2999 1119.9013,167.8999 C1117.8013,169.8999 1117.1013,171.8999 1119.5013,174.1999 C1120.9013,175.5999 1120.4013,177.0999 1118.9013,177.8999 C1115.5013,179.6999 1113.9013,183.3999 1110.5013,185.9999 C1108.0013,185.9999 1104.9013,186.4999 1102.1013,185.7999 C1100.1013,185.1999 1098.0013,185.3999 1096.2013,186.3999 C1093.8013,187.5999 1091.9013,186.0999 1091.6013,183.4999 C1091.4013,181.5999 1092.1013,179.8999 1092.2013,178.0999 C1091.0013,177.9999 1090.4013,177.3999 1090.2013,176.7999 C1090.5013,177.1999 1091.0013,177.5999 1092.0013,177.6999 C1092.1013,175.0999 1093.9013,172.8999 1093.3013,170.1999 C1093.3013,170.1999 1093.3013,170.0999 1093.4013,170.0999 C1093.6013,169.4999 1093.6013,168.8999 1094.0013,168.3999 C1093.8013,168.3999 1093.5013,168.3999 1093.3013,168.1999 C1091.7013,167.1999 1090.9013,166.5999 1090.6013,165.7999 C1091.0013,166.3999 1091.8013,166.8999 1093.0013,167.6999 C1093.2013,167.3999 1093.2013,166.7999 1093.8013,166.8999 C1094.0013,166.8999 1094.0013,167.2999 1094.1013,167.5999 L1095.1013,167.3999 C1095.3013,165.7999 1095.0013,164.5999 1094.3013,163.4999 C1095.2013,164.5999 1095.6013,165.9999 1095.4023,167.8999 C1095.8013,168.7999 1096.1013,169.6999 1096.5013,170.5999 C1097.2013,172.2999 1098.3013,173.7999 1100.2013,172.9999 C1102.1013,172.1999 1101.8013,170.2999 1101.2013,168.6999 C1100.1013,165.6999 1098.9013,162.6999 1097.8013,159.6999 C1096.2013,155.2999 1095.9013,155.3999 1098.7013,153.0999 C1099.0013,145.3999 1096.4013,137.9999 1100.3013,130.7999 C1099.1013,129.3999 1098.1013,128.1999 1098.7013,125.9999 C1099.1013,124.9009 1098.4013,123.4999 1098.2013,122.1999 C1095.6013,121.7999 1093.4013,122.1999 1092.4013,125.1999 C1091.0013,129.4009 1089.0013,133.4999 1086.5013,137.1999 C1085.4013,138.9009 1083.7013,140.4999 1083.5013,142.6999 L1083.2013,142.6999 C1082.5013,144.5999 1084.5013,144.6999 1085.1013,145.6999 C1086.0013,145.1999 1087.0013,144.6999 1086.7013,143.4999 C1086.8013,143.4999 1086.8013,143.4999 1086.9013,143.5999 C1087.6013,145.1999 1086.4013,145.5999 1085.4013,146.1999 C1084.6013,147.8999 1082.7013,147.9999 1081.4013,148.8999 C1079.3013,150.1999 1077.9013,152.3999 1077.5013,154.7999 C1077.4013,154.6999 1077.3013,154.6999 1077.1013,154.6999 L1077.1013,155.0999 C1077.2003,155.5999 1077.6013,155.9009 1078.1013,155.7999 C1078.1013,155.6999 1078.1013,155.6999 1078.0013,155.5999 C1078.2003,155.7999 1078.3013,156.0999 1078.4013,156.2999 C1079.9013,156.5999 1080.7013,154.5999 1082.3013,155.0999 C1082.4013,154.6999 1082.6013,154.2999 1083.0013,154.5999 C1083.4013,154.9009 1083.1013,155.2999 1082.6013,155.4009 C1082.5013,156.9009 1081.5013,158.1999 1080.1013,158.7999 C1077.2003,159.9009 1076.2003,162.9009 1074.3013,164.5999 C1072.4013,166.2999 1073.2003,167.6999 1074.9013,168.9009 C1076.6013,169.0999 1077.5013,166.6999 1079.4013,167.5999 C1078.0013,171.7999 1074.8013,174.5009 1071.7003,177.0009 C1070.1013,178.1999 1070.3013,179.0009 1071.0013,180.1999 C1071.4013,181.0009 1072.6013,181.2999 1072.1013,182.9009 C1070.3013,183.0009 1069.5013,184.5999 1068.3013,185.7999 C1068.1013,185.6999 1068.0013,185.6999 1067.8013,185.5999 C1066.6013,186.2999 1067.2003,187.5999 1066.7003,188.5999 C1068.4013,188.5999 1070.2003,189.1999 1071.7003,188.1999 L1071.7003,187.6999 C1071.8013,187.6999 1071.9013,187.7999 1072.0013,187.7999 L1072.0013,188.5999 C1070.5013,189.5999 1068.7003,189.0009 1067.0013,189.0009 C1064.8013,190.6999 1062.1013,191.5999 1059.6013,190.5009 C1056.0013,188.9009 1052.4013,187.4009 1048.3013,188.0999 C1047.3013,188.0999 1046.3013,187.6999 1045.7003,186.9009 C1041.9013,183.5999 1036.7003,182.4009 1033.3013,178.5999 C1033.1013,178.1999 1032.4013,177.9009 1032.1013,178.0009 C1029.6013,179.0009 1027.9013,177.1999 1026.1013,176.0009 C1024.7003,175.0999 1023.0013,174.7999 1021.4013,175.2999 C1021.4013,175.9009 1021.4013,176.5999 1020.7013,176.9009 C1020.1013,177.1999 1019.6013,176.7999 1019.4013,176.1999 C1019.7013,176.5009 1020.0013,176.6999 1020.4013,176.5009 C1021.1013,176.2999 1021.1013,175.5009 1021.1013,174.9009 C1020.3013,174.6999 1019.4013,174.5009 1019.0013,175.5999 C1019.1013,175.6999 1019.1013,175.9009 1019.2003,176.0009 C1017.2003,175.9009 1015.4013,174.4009 1013.2003,175.5009 C1007.8013,178.0999 1002.9013,176.1999 998.2003,173.4009 C994.3013,171.0009 991.4013,167.5009 987.1013,165.4009 C981.3013,162.5009 976.7003,165.5009 971.6013,166.1999 C971.3013,166.1999 971.0013,166.6009 970.8013,166.7999 C967.5013,170.4009 963.2003,173.1999 961.6013,178.0009 C952.9013,178.6999 948.6013,172.6999 942.9013,167.0999 C946.2013,167.5009 948.5013,167.6999 948.7013,164.2999 C949.2013,164.1999 949.6013,164.0999 950.1013,164.0999 L950.2013,164.0999 C950.4013,164.5999 950.7013,164.6999 951.1013,164.1999 L951.4013,164.1999 L951.4013,164.0009 C952.1013,163.9009 953.0013,164.0999 953.1013,163.0999 C953.3013,162.5009 952.9013,161.9009 952.3013,161.6999 L952.2013,161.6999 C949.0013,157.0009 943.5013,153.7999 943.3013,147.2999 C947.1013,146.6999 947.9013,153.4009 952.6013,150.0999 C950.3013,147.4009 948.6013,144.4009 945.9013,142.1999 C943.7013,140.4009 942.2013,138.0999 941.4013,135.4009 C941.0013,134.2999 940.9013,132.9999 942.8013,133.0999 C943.1013,134.0009 943.3013,135.2999 944.8013,134.4009 C945.6013,133.9009 945.1013,132.9999 944.2013,132.6999 L940.2013,121.9009 L936.6013,121.6999 L936.6013,121.4999 L940.1013,121.6999 C938.3013,120.0999 940.1013,117.4009 938.4023,115.6999 C938.3013,115.4009 938.2013,115.1999 938.1013,114.9009 C937.1013,114.9009 936.2013,114.7999 935.5013,114.2999 C936.1013,114.7999 937.1013,114.7999 938.0013,114.6999 C939.1013,113.2999 939.6013,113.5009 940.2013,115.1999 C940.8013,117.6999 941.6013,120.2999 945.3013,120.4009 C943.0013,115.4009 941.3013,110.0999 937.8013,105.5999 C935.4013,107.7999 936.2013,110.6999 934.7013,112.6999 C934.7013,112.7999 934.7013,112.9009 934.8013,113.0009 C933.1013,115.2999 932.0013,117.9009 931.4013,120.5009 C930.5013,125.4009 928.8013,129.9009 927.2013,134.5009 C926.4013,136.9009 924.3013,138.7999 924.3013,141.5999 C925.8013,142.0009 927.3013,142.0999 928.8013,141.6999 C929.8013,139.9999 929.0013,137.6999 931.1013,136.4009 C931.1013,143.5999 927.0013,148.9999 923.6013,154.6999 C922.6013,156.4009 920.9023,157.4999 921.1013,159.7999 C921.1013,160.0999 921.1013,160.2999 921.0013,160.5999 C920.6013,161.9999 919.2013,162.7999 917.8013,162.3999 C916.0013,161.7999 913.5013,162.4999 912.6013,161.4999 C909.3013,157.8999 905.1013,158.1999 900.9023,157.7999 C897.5013,157.4999 895.3013,154.1999 891.8013,153.5999 C890.8013,153.3999 890.5013,152.0999 890.5013,151.0999 C890.8013,145.9999 889.6013,140.7999 891.2013,135.8999 C892.3013,137.5999 893.4023,139.2999 894.7013,140.7999 C895.6013,141.8999 896.8013,142.2999 898.2013,140.7999 C896.4023,138.6999 895.5013,135.8999 893.5013,133.8999 C893.6013,133.0999 893.5013,132.3999 893.0013,131.6999 C892.5013,129.0999 892.0013,126.6999 891.5013,124.0999 C891.1013,122.1999 890.6013,120.1999 891.6013,118.1999 C893.2013,119.9999 893.3013,123.0999 897.0013,123.1999 C897.0013,118.2999 894.8013,114.4999 892.1013,110.7999 L889.1013,110.7999 L889.1013,110.8999 L888.3013,110.8999 C888.2013,111.3999 887.9023,111.7999 887.4023,111.8999 C886.1013,117.1999 885.7013,122.4999 881.1013,126.7999 C878.7013,129.0999 876.2013,132.4999 876.2013,136.3999 C879.0013,138.2999 879.2013,134.8999 881.0013,134.2999 C881.1013,135.2999 881.4023,136.1999 881.1013,136.5999 C877.8013,141.5999 875.7013,147.1999 871.6013,151.5999 C869.7013,153.6999 869.8013,154.9999 872.1013,155.9999 C872.9023,156.2999 874.0013,155.7999 874.7013,156.3999 C873.9013,159.7999 871.0013,162.2999 870.9013,165.9999 C870.8013,167.4999 869.2013,167.8999 867.8013,167.8999 C866.6013,167.8999 865.5013,167.3999 865.5013,166.3999 C865.6013,163.0999 862.0013,160.8999 863.0013,157.3999 C865.8013,155.9999 866.0013,155.5999 864.0013,153.4999 C861.1013,150.3999 858.2013,147.2999 856.7013,143.0999 C856.4013,142.1999 855.5013,141.7999 854.7013,142.0999 C854.2013,142.5999 854.0013,143.2999 854.2013,143.9999 C855.6013,147.1999 855.8013,150.7999 854.8013,154.1999 C853.4013,159.1999 855.7013,164.1999 854.2013,169.0999 C853.8013,170.4999 855.7013,170.7999 856.7013,172.1999 C852.1013,171.0999 849.9013,172.6999 849.3013,176.8999 C848.7013,180.5999 845.6013,182.0999 842.4013,182.8999 C841.3013,183.1999 839.9013,182.9999 839.4013,184.1999 C837.5013,188.4999 833.4013,190.3999 830.0013,193.0999 C829.9013,193.4999 829.6013,193.8999 829.1013,193.9999 C828.6013,196.1999 827.3013,197.3999 825.2003,198.3999 C822.1013,199.8999 818.9013,200.5999 815.9013,201.9999 C815.8013,201.7999 815.6013,201.4999 815.5013,201.1999 C811.7003,201.5999 810.6013,205.8999 807.0013,207.2999 C806.8013,205.5999 805.8013,204.6999 804.7003,203.5999 C803.6013,202.4999 802.7003,201.3999 804.8013,200.0999 C806.5003,199.0999 805.9013,197.4999 804.5003,196.4999 C798.6013,192.4999 796.2003,186.2999 793.6013,180.1999 C793.3013,179.3999 793.1013,178.6999 792.9013,177.8999 C792.6013,176.6999 792.8013,175.8999 794.3013,176.5999 C796.1013,177.4999 795.3013,180.9999 798.7003,180.7999 C796.4013,171.5999 793.2003,162.7999 791.3013,153.5999 C791.4013,153.5999 791.6013,153.6999 791.7003,153.6999 C791.5013,150.7999 791.9013,147.5999 788.6013,145.4999 C787.4013,146.6999 787.3013,147.9999 787.3013,149.2999 L786.9013,149.2999 C786.5003,150.8999 786.5003,152.5999 786.8013,154.2999 C787.7003,154.3999 788.2003,154.5999 788.5003,154.9999 C788.2003,154.7999 787.8013,154.6999 787.2003,154.6999 C786.2003,155.9999 786.5003,157.0999 786.9013,158.3999 L786.7003,158.3999 C785.4013,162.1999 786.2003,166.0999 786.0003,169.8999 C785.5003,176.8999 786.2003,183.8999 787.8013,190.6999 C788.6013,193.7999 788.7003,196.9999 788.3013,200.1999 C787.6013,204.7999 787.8013,209.3999 787.7003,213.9999 C787.6013,217.4999 786.6013,220.4999 785.1013,224.1999 C782.9013,220.6999 781.5013,216.7999 780.9013,212.6999 C780.3013,207.4999 778.7003,202.6999 777.2003,197.6999 C775.6013,192.3999 774.0013,186.9999 774.0013,181.2999 C774.0013,180.0999 773.4013,178.9999 772.3013,178.4999 C771.0013,177.9999 770.1013,178.9999 769.7013,180.1999 L769.7013,180.6999 C769.1013,180.9999 769.2013,181.3999 769.7013,181.7999 L769.7013,189.2999 C770.5013,189.6999 771.3013,190.5999 771.9013,191.5999 C771.3013,190.7999 770.6013,190.0999 770.0013,189.6999 C768.6013,192.7999 769.1013,196.0999 769.0013,199.3999 L768.7003,199.3999 C768.5013,203.6999 770.0013,208.1999 767.3013,212.2999 C766.8013,213.0999 767.4013,213.7999 767.4013,214.5999 C767.7003,217.7999 769.6013,220.9999 767.3013,223.9999 C765.6013,224.7999 764.3013,223.9009 763.1013,223.0999 C762.1013,217.4999 762.1013,211.7999 759.1013,206.4999 C756.5013,206.4009 755.9013,207.9999 755.9013,210.2999 L755.9013,218.6999 C755.9013,224.5009 755.9013,224.5009 750.2013,226.7999 C749.7013,226.9999 749.4013,227.4999 749.0013,227.6999 C745.5013,228.9009 742.1013,230.5009 738.2013,230.5999 C734.8013,230.6999 731.4013,231.0009 729.3013,234.2999 C728.4013,235.6999 727.1013,235.5999 725.7013,235.1999 C722.9013,229.7999 723.3013,223.6999 723.0013,217.9009 C720.6013,217.4999 719.2013,217.9009 718.7013,219.9999 C718.2013,221.7999 717.6013,223.4999 716.9013,225.0999 C715.9013,227.2999 715.4013,230.1999 713.7013,231.4009 C710.0013,234.0999 705.6013,235.6999 701.1013,232.5999 C700.1013,231.9999 699.1013,231.4999 698.1013,230.9009 C692.8013,227.6999 689.3013,229.2999 688.6013,235.1999 C686.5013,236.5009 683.6013,237.0009 682.8013,240.0009 C682.1013,242.5009 680.1013,243.2999 678.0013,244.5009 C675.3013,246.0999 672.1013,244.6999 669.5013,246.4009 C665.2003,249.1999 661.1013,248.5009 657.0013,246.0009 C655.2003,244.7999 652.9013,244.2999 650.8013,244.6999 C647.2013,245.4009 643.9013,243.6999 643.3013,240.5999 C642.7013,237.7999 642.4013,234.9009 642.5013,232.0009 C642.8013,225.9009 644.3013,219.9009 642.9013,213.6999 C641.9013,212.2999 642.2013,211.4009 643.7013,210.6999 C643.0013,205.4009 643.5013,199.9009 641.9013,194.6999 L642.1013,194.6999 C641.9013,193.5009 643.6013,192.5009 643.2003,191.5999 C641.3013,187.7999 642.9013,183.6999 642.1013,179.9009 C641.9013,178.9009 641.8013,178.0009 640.3013,177.6999 C638.5013,182.9009 636.3013,187.9009 634.2003,193.0009 C633.1013,195.7999 630.9013,197.9009 630.1013,200.7999 C629.8013,201.7999 628.6013,202.6009 629.6013,203.9009 C630.8013,205.4009 631.8013,204.1999 632.9013,203.7999 C633.1013,205.9009 631.9013,207.1999 630.5013,208.7999 C628.0013,211.5009 625.2003,214.1999 623.7003,218.0009 C626.5013,219.1999 627.0013,222.1999 627.7003,224.5009 C628.6013,227.5009 625.6013,229.5999 624.4013,232.6999 C622.1013,231.2999 620.2003,230.4009 618.7003,228.0999 C617.0013,225.1999 616.9013,221.5999 614.3013,219.2999 C615.5013,219.1999 616.8013,219.4009 617.1013,217.6999 C616.1013,218.1999 613.3013,215.5009 614.3013,219.2999 L614.2003,219.1999 C613.3013,215.2999 616.1013,218.0999 617.0013,217.5999 C617.1013,217.2999 617.1013,216.9009 617.1013,216.5999 C616.2003,211.5009 614.8013,206.5009 612.8013,201.6999 C612.0013,199.9009 611.4013,198.1999 613.0013,196.5009 C615.6013,198.7999 615.2003,203.5009 620.0013,203.9009 C619.5013,200.0999 617.8013,197.0999 616.7003,193.9009 C614.5013,187.6999 612.2003,181.5999 613.2003,174.7999 C614.5013,175.0999 613.8013,177.0009 615.5013,177.1999 C618.0013,175.1999 616.2003,173.2999 615.0013,171.4009 C613.1013,171.9009 612.2003,172.1999 612.2003,172.7999 C612.1013,172.1009 613.0013,171.7999 615.0013,171.2999 C613.9013,166.4009 614.9013,161.5009 614.1013,156.7009 C614.1013,154.9009 614.0013,153.1009 614.0013,151.2999 C614.0013,151.0009 614.0013,150.7009 613.9013,150.5009 C614.0013,150.7999 614.1013,151.1009 614.1013,151.5009 C614.1013,153.2999 614.2003,155.1009 614.2003,156.9009 C616.1013,154.7009 616.4013,150.0009 614.6013,148.2999 C613.3013,147.1009 612.3013,147.7999 612.3013,149.5009 L612.2003,149.5009 C611.0013,153.9009 610.0013,158.2009 608.0013,162.2999 C607.5013,163.2999 606.8013,164.2999 607.1013,165.5009 C607.6013,165.5009 608.0013,165.9009 608.1013,166.4009 C608.7003,166.6009 609.9013,166.2009 609.8013,166.7999 C609.4013,169.7999 610.6013,173.2999 608.2003,175.7999 C604.7003,179.5009 602.3003,184.1009 599.2013,188.2009 C598.4013,189.4009 597.4013,190.7009 598.5013,192.2009 C600.1013,193.1009 601.0013,191.7999 602.1013,191.2009 L605.8013,184.6009 C606.5003,185.9009 606.9013,186.9009 606.9013,187.7009 C606.9013,186.9009 606.5003,186.0009 605.8013,184.7999 L602.1013,191.4009 L603.1013,191.7009 C603.0013,193.2009 601.3003,194.0009 601.0013,195.2999 C599.4013,202.2999 593.8013,206.0009 589.0013,210.2999 C588.8013,210.5009 588.1013,210.1009 587.6013,210.0009 C587.1013,208.2999 586.4013,206.2999 587.6013,205.1999 C589.5013,203.4009 589.1013,201.9009 588.4013,199.9009 C588.0013,198.6999 588.3013,197.0999 588.3013,195.6999 C588.6013,195.6999 588.8013,195.7999 589.1013,195.7999 L589.1013,195.4009 L589.1013,195.9009 C590.0013,196.5009 590.9013,196.9009 591.7013,195.7999 C592.5013,194.6009 591.5013,193.6999 591.0013,192.6999 C590.0013,192.6999 589.5013,193.0009 589.3013,193.5009 C589.5013,193.0009 589.9013,192.6009 591.0013,192.6009 L590.9013,190.6009 C589.5013,191.1009 588.5013,190.1999 587.1013,188.6999 L587.1013,188.4009 C588.5013,189.7999 589.5013,190.7999 591.0013,190.4009 L589.1013,175.4009 C589.1013,175.4009 589.0013,175.4009 589.0013,175.5009 C589.3013,170.9009 589.7013,166.1999 590.0013,161.4009 C590.2013,159.7999 590.1013,158.2999 587.5013,159.0009 C586.4013,164.0999 585.8013,169.4009 584.2013,174.4009 C582.3013,178.0999 580.5013,181.7999 580.5013,186.0999 C581.0013,186.6999 581.2013,187.5009 581.1013,188.2999 C581.3013,188.9009 581.7013,189.4999 581.6013,189.9009 C581.5013,189.4999 581.3013,188.9999 581.2013,188.5999 C581.1013,188.5999 581.1013,188.4999 581.0013,188.4999 C581.2013,187.6999 580.9013,186.9999 580.3013,186.4009 L580.2013,186.5999 L580.2013,186.6999 C578.5013,187.3999 577.4013,188.9999 577.3013,190.6999 C576.9013,193.4999 573.4013,195.3999 574.4013,198.6999 C576.3013,198.8999 576.0013,196.7999 577.2013,196.6999 C577.3013,197.8999 577.2013,199.0999 576.9013,200.2999 C575.6013,203.4999 574.6013,206.6999 573.3013,209.8999 C572.6013,211.5999 573.8013,213.6999 572.0013,214.7999 C568.4013,213.3999 564.5013,212.2999 563.9013,207.6999 C563.8013,207.4999 563.0013,207.3999 562.6013,207.0999 C560.0013,205.2999 556.7013,204.7999 553.6013,205.5999 C550.9013,206.2999 549.9013,205.4009 547.9013,203.7999 C545.6013,201.9999 544.3013,198.2999 540.7013,198.4999 C537.7013,198.5999 536.1013,196.8999 534.7013,194.7999 C532.9013,192.4999 531.5013,189.8999 530.4013,187.1999 C530.1013,186.3999 530.1013,185.6999 529.1013,185.3999 C523.7013,183.5999 519.7013,179.2999 514.4013,177.0999 C513.0013,177.6999 511.7013,178.2999 510.5013,179.0999 C508.8013,180.2999 506.4013,180.2999 504.7013,178.8999 C501.6013,176.3999 498.6013,176.8999 495.7013,178.5999 C493.8013,179.6999 492.4013,179.3999 491.6013,177.6999 C491.0013,176.2999 490.0013,175.2999 489.4013,173.8999 C487.8013,170.0999 486.6013,166.0999 484.4013,162.3999 C482.9013,159.7999 480.8013,156.6999 483.5013,153.4999 L480.1013,149.4999 L480.0013,149.4999 C480.2013,148.1999 479.6013,146.3999 482.0013,146.4999 L482.0013,146.5999 C482.6013,147.2999 483.0013,148.3999 484.5013,147.3999 C484.0013,145.2999 484.5013,142.7999 482.9013,140.7999 C481.4013,140.6999 481.0013,141.3999 480.9013,142.3999 C480.9013,141.3999 481.3013,140.5999 482.9013,140.6999 C482.9013,139.8999 483.2013,139.0999 482.3013,138.5999 C479.8013,139.5999 480.5013,135.5999 478.4013,135.9999 C478.4013,135.8999 478.5013,135.8999 478.5013,135.7999 C480.7013,135.3999 479.9013,139.4999 482.4013,138.3999 L481.0013,125.4999 L480.9013,125.4999 L480.9013,122.5999 C479.7013,122.6999 478.8013,123.0999 478.4013,124.0999 C478.7013,122.7999 479.7013,122.4999 481.0013,122.3999 L481.0013,122.0999 L481.0013,122.6999 L482.7013,123.3999 C481.7013,121.5999 485.2013,119.3999 482.2013,117.6999 C481.2013,118.2999 479.9013,118.4999 479.4013,119.6999 L479.3013,119.5999 C479.7013,118.1999 481.2013,117.9999 482.2013,117.3999 C484.1013,112.3999 483.1013,106.9999 483.2013,101.8999 C486.1013,100.8999 484.2013,105.5999 487.0013,104.9999 C487.3013,99.9999 484.9013,95.0999 486.4013,89.6999 C487.1013,90.2999 487.7013,91.7999 488.9013,90.3999 C488.2013,88.0999 487.9013,85.4999 486.3013,83.3999 C486.3013,83.2999 486.4013,83.2999 486.4013,83.1999 L486.0013,79.4999 L485.9013,79.4999 C486.0013,78.4999 485.9013,77.2999 485.6013,76.2999 C483.9013,76.7999 484.2013,78.2999 484.0013,79.5999 C482.2013,83.3999 481.5013,87.6999 479.0013,91.0999 C479.1013,92.0999 480.8013,92.8999 479.8013,93.9999 C480.2013,93.0999 478.8013,92.2999 478.8013,91.3999 C476.7013,93.5999 476.8013,93.7999 479.1013,94.6999 C479.2013,94.5999 479.2013,94.5999 479.3013,94.5999 C479.3013,96.1999 478.9013,97.7999 478.2013,99.1999 C476.0013,103.1999 474.2013,107.2999 472.3013,111.0999 C472.5013,112.8999 474.9013,112.0999 475.1013,113.5999 C474.7013,117.0999 472.3013,119.1999 470.4013,121.9999 C468.5013,124.7999 467.0013,127.5999 464.0013,129.2999 C462.6013,129.9999 462.5013,131.1999 463.6013,132.4999 C464.1013,133.2999 465.5013,133.0999 465.5013,134.1999 C463.5013,140.5999 463.5013,140.5999 459.6013,141.7999 C458.2013,135.5999 459.2013,129.1999 458.2013,123.3999 C459.1013,122.1999 460.5013,122.8999 460.6013,122.5999 C460.5013,119.3999 459.7013,116.1999 458.1013,113.3999 L458.0013,113.3999 L458.1013,111.6999 L456.2013,111.6999 L456.2013,111.3999 L455.8013,111.1999 C455.8013,111.0999 455.7013,111.0999 455.6013,111.0999 L455.4013,110.9999 C456.1013,110.3999 455.9013,111.1999 456.1013,111.3999 L458.2013,111.3999 L457.9013,107.6999 C459.3013,107.7999 461.2013,108.1999 460.6013,106.1999 C459.6013,103.3999 460.5013,100.2999 458.8013,97.7999 C458.4013,97.8999 457.7013,97.7999 457.4013,98.0999 C457.4013,97.4999 458.4013,97.4999 459.0013,97.3999 L459.0013,83.4999 C457.3013,83.7999 457.1013,84.8999 456.9013,86.0999 C456.1013,92.4999 455.5013,98.7999 453.3013,104.8999 C452.3013,107.5999 451.3013,110.3999 450.6013,113.1999 C449.9013,115.9999 449.3013,118.6999 452.0013,120.6999 C450.2013,123.6999 448.2013,126.1999 447.1013,129.3999 C446.0013,132.5999 445.7013,132.4999 448.8013,134.6999 C448.0013,136.7999 446.3013,138.3999 445.8013,140.7999 C445.3013,143.4999 443.9013,143.6999 440.5013,141.9999 C441.9013,139.9999 440.1013,137.1999 441.6013,135.4999 C443.0013,133.9999 439.3003,130.1999 443.9013,130.6999 C445.3013,124.2999 440.7013,117.7999 444.8013,111.5999 C443.1013,108.3999 444.4013,104.7999 443.9013,101.3999 C443.5013,99.1999 443.7013,96.8999 443.1013,94.6999 C442.9013,93.7999 442.5013,93.0999 441.5013,93.1999 C440.8013,93.2999 440.1013,93.5999 440.0013,94.2999 C439.1013,99.7999 435.6013,104.4999 436.0013,110.3999 C436.2013,112.7999 436.9013,115.6999 435.0013,117.9999 C431.6013,122.0999 431.9013,127.3999 431.1013,132.1999 C430.4013,136.0999 428.5013,138.5999 426.1013,141.4999 C422.0013,135.6999 421.9013,130.1999 425.0013,124.4999 C425.7013,123.2999 426.9013,122.0999 426.1013,120.3999 L425.8003,120.3999 C425.1013,119.3999 424.3003,119.7999 423.5013,120.2999 C423.4013,120.2999 423.4013,120.1999 423.3003,120.0999 C424.5013,117.8999 423.2013,115.7999 423.0013,113.5999 C424.1013,112.8999 422.7003,111.3999 423.7003,110.9999 C426.0013,109.8999 425.1013,108.6999 424.2003,107.2999 C423.4013,108.2999 422.5013,109.1999 422.0013,110.1999 C422.4013,109.0999 423.5013,108.0999 424.3003,106.9999 C424.4013,105.0999 423.4013,103.3999 423.0013,101.5999 C426.3003,100.8999 426.3003,100.8999 425.4013,97.6999 C424.2013,97.5999 423.6013,97.7999 423.3003,98.2999 C423.6013,97.7999 424.2013,97.3999 425.5013,97.4999 C425.6013,93.1999 424.1013,88.8999 424.4013,84.4999 L424.1013,84.4999 C422.9013,83.2999 422.3003,83.2999 421.3003,84.7999 L421.5013,84.7999 C420.0013,88.3999 417.1003,91.3999 417.4013,95.6999 C417.9013,95.8999 418.3003,96.1999 418.8003,96.1999 C418.2003,96.3999 417.8003,95.8999 417.2003,95.6999 C416.8003,98.0999 416.9013,100.4999 415.8003,102.5999 L416.0013,102.5999 C416.0013,103.8999 416.5013,105.5999 414.3003,105.6999 C414.0013,106.6999 413.0013,107.4999 413.1013,108.6999 C414.7003,109.8999 414.0013,110.3999 412.5013,110.6999 C412.3003,112.1999 411.4013,113.5999 411.6013,114.9999 C412.8003,116.0999 413.7003,115.3999 414.6013,115.0999 C414.9013,114.7999 415.3003,114.4999 415.7003,114.8999 C416.1013,115.2999 415.8003,115.6999 415.4013,115.9999 C414.9013,118.1999 413.9013,120.2999 412.3003,121.9999 C410.3003,124.1999 408.6013,126.8999 406.7003,129.2999 C405.8003,130.4999 406.2003,131.3999 407.0013,132.3999 C407.6013,133.9999 406.3003,135.4999 406.4013,136.9999 C406.8003,137.3999 407.2013,137.5999 407.6013,137.5999 C407.2003,137.5999 406.7003,137.4999 406.2003,136.9999 C406.1013,135.4999 407.4013,134.0999 406.8003,132.3999 C403.4013,132.8999 400.2003,131.7999 396.9013,131.0999 C392.5013,130.1999 388.0013,129.4999 383.9013,132.7999 C382.5013,133.9999 380.8003,136.1999 378.3003,135.5999 C378.2003,135.3999 378.1003,135.2999 378.1003,135.0999 C377.0013,133.1999 375.1003,132.5999 373.1003,132.0999 C373.1003,132.1999 373.0013,132.1999 373.0013,132.2999 C371.7003,131.1999 370.2003,130.5999 368.5013,130.4999 C366.6003,130.4999 366.2003,129.1999 366.0013,127.6999 L365.9013,127.6999 C366.0013,126.9999 365.6013,126.7999 365.0013,126.7999 C362.7003,126.2999 361.2003,124.5999 360.1003,122.7999 C358.4013,120.1999 356.0013,117.9999 353.2003,116.5999 C353.1003,116.5999 352.9013,116.5999 352.8003,116.6999 C352.5013,116.8999 352.2003,117.1999 352.1003,117.4999 C352.3003,116.9999 352.7003,116.4999 353.3003,116.3999 C352.9013,114.1999 352.8003,111.7999 353.9013,109.6999 L355.5003,110.4999 C356.7003,108.2999 355.2003,106.5999 354.7003,104.7999 C353.5003,105.1999 352.8003,105.4999 352.5003,105.7999 C352.7003,105.3999 353.4013,105.0999 354.8003,104.5999 L355.1003,100.9999 L356.7003,100.9999 C356.7003,98.7999 358.1003,98.4999 359.7003,98.6999 C358.1003,98.5999 356.8003,98.8999 356.8003,100.9999 L357.1003,103.3999 C358.9003,103.8999 360.6003,104.1999 361.5003,102.3999 C362.3003,100.7999 360.8003,99.7999 359.9013,98.6999 L359.8003,98.6999 C359.6003,96.8999 360.7003,95.0999 359.2003,93.4999 C357.9013,93.7999 356.9013,95.0999 355.4013,94.3999 C354.4013,93.6999 355.3003,91.9999 354.4013,91.0999 C353.9013,91.3999 353.5003,91.6999 353.1003,91.8999 C353.5013,91.5999 353.9013,91.2999 354.5013,90.9999 C355.3003,91.8999 354.4013,93.5999 355.5013,94.2999 C357.1003,94.9999 358.1003,93.6999 359.3003,93.3999 C358.2003,91.2999 357.8003,89.0999 358.1003,86.7999 C358.4013,85.2999 358.8003,83.4999 357.1003,82.3999 C357.7003,81.6999 358.3003,81.8999 359.0013,82.3999 C360.3003,83.4999 361.7003,84.3999 363.9013,82.8999 C362.2003,78.3999 361.6003,73.4999 362.1003,68.6999 C362.3003,66.6999 363.6003,64.5999 362.2003,62.5999 L362.1003,62.5999 C361.4013,60.9999 360.6003,60.6999 359.6003,62.3999 L359.7003,62.3999 C358.7003,67.2999 359.1003,72.3999 358.5013,77.5999 L358.4013,77.5999 C359.0013,72.3999 358.6003,67.3999 359.6003,62.3999 C356.9013,63.6999 356.8003,66.3999 355.8003,68.5999 C355.0013,68.8999 354.5013,69.6999 354.5013,70.4999 C353.6003,75.2999 351.7003,79.6999 350.0013,84.1999 C349.6003,85.2999 348.3003,86.1999 348.9013,87.5999 C347.4013,89.4999 349.4013,91.5999 348.5013,93.3999 L350.8003,93.8999 C350.8003,93.9999 350.8003,93.9999 350.7003,94.0999 L348.5013,93.5999 C346.6003,94.8999 346.6003,96.5999 347.0013,98.6999 C346.5013,100.2999 345.5013,101.8999 346.0013,103.5999 C346.9013,103.6999 347.8003,103.7999 347.7003,104.7999 C347.7003,103.7999 346.9013,103.7999 346.0013,103.6999 C344.8003,104.8999 344.8003,107.0999 342.7003,107.3999 C341.1013,106.9999 341.6013,105.3999 340.8003,104.6999 C340.8003,103.5999 340.0013,103.0999 339.1003,102.5999 C339.1003,98.3999 336.8003,94.8999 335.6003,91.0999 C334.8003,88.4999 336.4013,86.0999 335.0013,83.7999 L335.1003,83.7999 C336.9013,82.8999 335.0013,82.3999 334.9013,81.7999 C334.2003,81.8999 333.2003,81.8999 333.3003,82.8999 C333.3003,83.3999 333.6003,83.4999 333.9013,83.5999 C333.5013,83.4999 333.2003,83.2999 333.2003,82.7999 C333.1003,81.6999 334.1003,81.7999 334.8003,81.6999 C334.7003,80.3999 335.7003,78.9999 334.6003,77.8999 C331.3003,74.4999 333.3003,69.7999 331.2003,66.0999 C333.0003,60.5999 328.8003,56.0999 329.0003,50.2999 C325.2003,53.6999 324.9013,58.0999 322.8003,61.5999 C322.4013,62.3999 322.8003,63.2999 323.6003,63.6999 C325.3003,64.4999 324.5003,65.2999 323.9013,66.3999 C323.5003,67.1999 323.7003,68.0999 324.4013,68.6999 L325.3003,68.6999 L324.4013,68.6999 L323.0003,71.6999 C321.6003,77.7999 321.6003,77.7999 324.7003,82.1999 C324.8003,82.2999 324.7003,82.4999 324.7003,82.6999 L324.8003,82.6999 C322.5003,85.0999 321.5003,88.0999 320.4003,91.0999 C318.9003,95.4999 317.4003,95.9999 313.4003,93.7999 C313.0003,93.5999 312.5003,93.3999 312.1003,93.1999 C310.8003,92.3999 309.2003,92.3999 307.9003,93.1999 C306.5003,94.1999 306.6003,95.7999 307.0003,97.2999 C307.1003,98.2999 307.5003,99.2999 308.0003,100.0999 C311.3003,103.9999 314.6003,107.8999 317.9003,111.7999 L317.8003,111.7999 L318.0003,114.5999 C316.9013,115.5999 315.5003,116.2999 313.9013,116.4999 C309.6003,117.2999 305.3003,115.5999 301.0003,116.4999 C301.3003,117.3999 301.1003,118.0999 300.8003,118.6999 L228.0003,88.7999 L124.5003,74.6999 L3.2003,180.9999 L0.0003,344.5999 L80.0003,626.4999 L1876.4003,626.4999 C1878.5003,628.5999 1881.1993,629.6999 1884.1003,629.6999 L2319.1003,629.6999 L2398.9993,629.6999 L2833.9993,629.6999 L2837.1993,626.4999 C2837.4003,626.4999 2835.6003,337.5999 2834.8003,273.6999 Z" id="Fill-36" fill="#0682AF"></path>
                        </g>
                        <g id="Group-41" stroke-width="1" fill="none" transform="translate(80.000000, 143.000000)">
                            <mask id="mask-4" fill="white">
                                <use xlink:href="#path-3"></use>
                            </mask>
                            <g id="Clip-40"></g>
                            <path d="M0.7,70.3 C4.7,100.3 26.7,126.3 24,157.199 C24.1,160.9 24,164.8 24,168.7 C23.2,290.2 21.7,496 21.7,496 L204.5,496 L403.5,496 L911.1,488.5 L2460.7,485.5 L2757.399,483.4 C2757.399,483.4 2756.8,389.9 2756.2,308.1 C2756.1,303.6 2756.1,299.1 2756.1,294.6 C2756.469,272.163 2761.17,248.737 2761.21,227.041 L2761.21,226.492 C2761.185,213.192 2759.375,200.551 2753.699,189.2 C2748.7,180.2 2722.7,194.199 2704.7,195.2 C2677.7,196.2 2653.699,185.199 2627.699,181.2 C2597.7,176.199 2568.7,181.2 2538.699,185.199 C2506.916,190.308 2476.098,188.651 2445.333,186.995 C2421.894,185.733 2398.483,184.47 2374.699,186.2 C2355.7,187.2 2336.7,193.199 2316.7,193.199 C2294.091,193.671 2271.704,191.257 2249.34,188.844 C2224.225,186.135 2199.137,183.425 2173.8,184.8 C2169.5,184.7 2165.199,184.7 2160.9,184.7 C2132.699,183.2 2106.699,187.2 2079.699,194.199 C2062.085,198.745 2045.441,195.22 2028.847,191.695 C2016.236,189.015 2003.654,186.337 1990.699,187.2 C1981.699,188.2 1972.699,190.2 1964.301,194.9 C1956.7,198.1 1948.9,200.5 1941,201.2 C1937.1,201.6 1933.1,201.5 1929.001,200.9 C1925,200.3 1920.9,199.1 1916.699,197.3 C1903.7,190.3 1889.699,186.3 1875.7,185.3 C1820.7,180.3 1767.8,178.099 1712.301,169.4 C1701.2,167.6 1690,165.6 1678.7,163.3 C1637.699,150.3 1597.7,132.3 1552.7,142.3 C1480.7,158.3 1410.7,193.3 1340.699,169.3 C1273.7,146.3 1204.7,139.3 1135.699,140.3 C1086.7,141.3 1043.699,114.3 997.7,98.3 C881.699,58.3 761.7,104.3 648.699,142.3 C571.7,168.3 489.7,141.3 416.7,112.3 C305.7,69.3 199.7,2.3 79.701,0.3 C79.076,0.282 78.451,0.274 77.819,0.274 C41.987,0.275 -6.179,28.045 0.7,70.3" id="Fill-39" fill="url(#linearGradient-5)" mask="url(#mask-4)"></path>
                        </g>
                    </g>
                </g>
            </g>
        </g>
    </g>
</svg>