<?xml version="1.0" encoding="UTF-8"?>
<svg width="1920px" height="940px" viewBox="0 0 1920 940" version="1.1" xmlns="http://www.w3.org/2000/svg" xmlns:xlink="http://www.w3.org/1999/xlink">
    <!-- Generator: Sketch 50 (54983) - http://www.bohemiancoding.com/sketch -->
    <title>layer7</title>
    <desc>Created with Sketch.</desc>
    <defs>
        <rect id="path-1" x="0" y="0" width="1920" height="1000"></rect>
        <polygon id="path-3" points="0.000366047666 0.889 4876.164 0.889 4876.164 1107 0.000366047666 1107"></polygon>
        <path d="M321.464,5.101 C303.464,14.5 281.865,14.5 260.964,21.5 C257.965,22.301 255.165,23.101 252.365,23.9 C244.564,26.4 236.865,29.2 229.164,32.201 C210.564,39.7 191.764,46.001 173.265,53.8 C151.664,62.901 129.965,71.901 109.265,83.601 C94.465,92.101 79.365,100.401 65.965,111.701 C52.965,122.7 41.365,135.4 31.364,149.8 C18.865,168.1 9.764,189.001 4.865,211.3 C0.064,231.301 -0.936,252.301 2.064,272.701 C5.964,299.3 15.164,324.401 29.063,346.301 C42.365,367.5 59.365,384.901 77.764,400.5 C102.464,421.401 127.764,441.601 153.364,461.301 C178.764,480.901 204.264,500.001 231.664,516.2 C251.464,527.701 271.665,538.301 292.164,547.701 C318.964,559.9 346.565,569.101 374.264,577.8 C394.864,584.301 415.464,591.001 436.364,596.201 C453.164,600.401 470.365,600.601 487.265,603.001 C500.464,601.501 513.564,599.3 526.564,595.201 C541.264,590.1 554.063,579.101 562.064,564.301 C568.564,553.001 571.464,539.7 570.364,526.4 C568.964,505.4 560.164,486.4 557.064,465.701 C554.664,449.8 556.865,435.901 564.164,422.3 C573.164,405.401 585.864,392.301 597.764,378.301 C607.764,366.5 618.164,355.101 627.264,342.301 C637.765,327.7 646.964,311.3 648.764,292.9 C651.065,269.001 650.164,244.7 646.464,220.9 C644.564,208.501 641.464,196.701 637.365,185.601 C636.064,181.9 634.565,178.201 633.064,174.7 C631.964,171.7 630.864,168.8 629.564,166 C628.265,163.001 626.865,160.1 625.264,157.2 C617.464,145.701 610.265,132.2 601.664,120.601 C599.564,117.701 597.064,114.7 593.264,110.901 C579.686,99.305 566.601,84.763 550.014,79.248 C553.555,80.292 558.062,78.99 560.365,76.4 C561.564,73.701 557.965,73.701 556.764,73.701 L559.164,73.701 C560.365,72.301 560.365,72.301 561.564,71.001 C556.764,71.001 551.965,76.3 547.164,72.301 C523.064,44.101 491.865,23.9 461.064,8.001 C458.365,7.1 455.764,6.3 453.064,5.7 C445.264,4.001 437.164,3.401 428.764,3.9 C422.364,4.101 416.264,4.701 410.265,5.101 C399.294,5.577 388.003,4.086 376.802,2.596 C367.048,1.298 357.364,-7.10586104e-15 348.017,0.001 C338.744,0.001 329.803,1.279 321.464,5.101 Z M559.164,73.701 L563.965,73.701 L559.164,73.701 Z" id="path-5"></path>
        <radialGradient cx="50.3361326%" cy="48.9700541%" fx="50.3361326%" fy="48.9700541%" r="41.2197853%" gradientTransform="translate(0.503361,0.489701),scale(0.928181,1.000000),rotate(1.933954),scale(1.000000,0.950601),translate(-0.503361,-0.489701)" id="radialGradient-7">
            <stop stop-color="#046495" offset="0%"></stop>
            <stop stop-color="#045680" offset="100%"></stop>
        </radialGradient>
    </defs>
    <g id="Page-1" stroke="none" stroke-width="1" fill="none" fill-rule="evenodd">
        <g id="Artboard" transform="translate(-457.000000, -588.000000)">
            <g id="layer7" transform="translate(457.000000, 528.000000)">
                <mask id="mask-2" fill="white">
                    <use xlink:href="#path-1"></use>
                </mask>
                <g id="Mask"></g>
                <g id="layer8" mask="url(#mask-2)">
                    <g transform="translate(-1279.000000, 60.000000)">
                        <g id="Group-52">
                            <g id="Group-3">
                                <mask id="mask-4" fill="white">
                                    <use xlink:href="#path-3"></use>
                                </mask>
                                <g id="Clip-2"></g>
                                <path d="M3603.4644,753.9006 C3602.3634,753.9006 3601.3634,753.0006 3601.4644,751.9006 C3601.3634,750.9006 3601.3634,749.8006 3602.6644,749.6006 C3603.9644,749.4006 3604.1644,750.5006 3604.2644,751.5006 C3604.4644,752.3006 3604.1644,753.3006 3603.4644,753.9006 Z M3056.9644,735.0006 C3056.7644,735.9006 3056.2644,736.7006 3055.3634,736.2006 C3052.8634,734.7006 3054.3634,732.1006 3053.0644,730.0006 C3056.6644,730.4006 3057.3634,732.3006 3056.9644,735.0006 Z M3043.1644,690.0006 C3046.2644,694.6006 3050.6644,695.1006 3055.2644,695.0006 C3057.4644,694.9006 3056.8634,696.7006 3056.8634,697.9006 L3056.8634,721.0006 C3045.4644,713.8006 3044.6644,701.9006 3043.1644,690.0006 Z M3041.4644,688.6006 C3041.3634,688.3006 3041.1644,688.0006 3041.0644,687.7006 C3041.1644,687.3006 3041.3634,687.2006 3041.6644,687.6006 C3041.8634,687.9006 3041.9644,688.2006 3041.9644,688.5006 C3041.9644,689.1006 3041.7644,689.1006 3041.4644,688.6006 Z M3033.2644,641.8006 C3033.3634,641.8006 3033.5644,641.6006 3033.6644,641.6006 C3034.0644,641.7006 3034.1644,641.9006 3033.9644,642.2006 L3033.2644,641.8006 Z M2983.0644,743.3006 C2977.8634,753.6006 2970.6644,762.3006 2962.4644,770.3006 C2960.8634,771.8006 2959.6644,773.6006 2958.7644,775.6006 C2957.9644,780.0006 2953.9644,780.2006 2950.9644,781.5006 C2949.7644,782.1006 2947.6644,781.7006 2947.8634,783.6006 C2948.1644,785.8006 2950.4644,784.1006 2951.8634,785.2006 C2949.6644,789.7006 2944.1644,788.7006 2941.0644,791.6006 C2940.9644,791.7006 2939.8634,791.1006 2939.5644,790.6006 C2936.9644,786.5006 2936.7644,781.8006 2936.4644,777.2006 C2936.3634,776.0006 2937.6644,775.9006 2938.2644,776.2006 C2942.6644,778.2006 2945.7644,775.4006 2949.1644,773.5006 C2946.8634,770.6006 2949.9644,770.5006 2951.2644,769.5006 C2955.2644,766.3006 2959.4644,763.2006 2960.6644,757.7006 C2958.7644,758.9006 2957.1644,757.8006 2955.4644,757.2006 C2954.0644,756.7006 2952.7644,756.5006 2951.8644,756.6006 C2955.7644,755.4006 2960.2644,756.4006 2963.3644,753.3006 C2964.2644,749.4006 2965.0644,745.5006 2968.0644,742.5006 C2968.9644,741.6006 2970.0644,740.3006 2969.1644,739.0006 C2968.4644,738.0006 2966.8634,738.4006 2965.8634,738.6006 C2964.8634,738.8006 2963.5644,739.8006 2962.9644,738.2006 C2962.3634,736.6006 2961.4644,735.1006 2962.6644,733.1006 C2965.5644,728.1006 2969.7644,724.0006 2972.7644,719.1006 C2974.0644,717.0006 2974.5644,714.1006 2977.5644,713.2006 C2976.4644,710.4006 2976.6644,707.2006 2978.1644,704.6006 L2979.5644,711.6006 C2981.6644,712.2006 2983.0644,710.2006 2985.2644,710.0006 C2983.4644,717.4006 2979.5644,723.5006 2975.9644,729.8006 C2975.4644,730.8006 2974.1644,731.8006 2975.3634,732.9006 C2976.5644,734.0006 2977.3634,732.3006 2978.1644,731.7006 C2979.0644,731.0006 2979.9644,730.2006 2980.7644,729.4006 C2982.1644,727.8006 2982.2644,727.6006 2984.0644,729.7006 C2988.5644,735.0006 2985.3634,738.6006 2983.0644,743.3006 Z M2908.2644,820.0006 C2907.1644,815.4006 2904.3634,811.3006 2908.7644,806.2006 C2909.2644,811.3006 2914.8634,815.6006 2908.2644,820.0006 Z M2895.7644,816.4006 C2896.9644,819.3006 2900.5644,818.8006 2903.0644,821.3006 C2898.6644,821.4006 2896.2644,820.3006 2895.7644,816.4006 Z M2895.1644,799.9006 C2894.4644,800.9006 2893.6644,800.2006 2893.0644,799.8006 C2890.9644,798.4006 2889.0644,796.9006 2889.6644,793.8006 C2891.3634,795.0006 2891.9644,797.3006 2894.5644,797.6006 C2895.5644,797.7006 2895.8634,798.9006 2895.1644,799.9006 Z M2883.5644,773.2006 C2885.3634,775.1006 2887.5644,776.7006 2888.2644,779.3006 C2885.8634,777.8006 2882.5644,777.2006 2883.5644,773.2006 Z M2874.7644,761.4006 L2883.3634,772.9006 C2877.7644,771.2006 2876.0644,766.4006 2874.7644,761.4006 Z M2891.6644,781.7006 C2890.2644,782.1006 2889.9644,781.2006 2889.4644,780.4006 C2890.3634,780.5006 2891.4644,780.5006 2891.6644,781.7006 Z M2850.7644,752.9006 C2848.4644,755.8006 2848.2644,759.9006 2845.6644,762.8006 C2844.5644,764.1006 2844.5644,766.5006 2842.1644,766.2006 C2840.3634,765.9006 2838.8634,764.5006 2838.3634,762.7006 C2838.1644,762.1006 2837.8634,761.5006 2837.5644,760.9006 C2843.5644,759.1006 2843.7644,758.5006 2842.5644,751.6006 C2842.2644,750.0006 2843.6644,748.4006 2845.2644,748.0006 C2850.1644,746.6006 2852.4644,742.5006 2855.9644,739.0006 C2856.0644,744.3006 2854.0644,748.9006 2850.7644,752.9006 Z M2852.6644,774.9006 C2852.4644,775.7006 2850.9644,776.1006 2850.0644,776.7006 C2849.3634,775.6006 2848.7644,774.5006 2849.8634,773.3006 C2851.1644,771.8006 2852.3634,770.4006 2853.7644,768.7006 C2853.5644,770.8006 2853.2644,772.9006 2852.6644,774.9006 Z M2828.8634,797.5006 C2828.5644,797.4006 2828.3634,795.8006 2828.7644,795.3006 C2830.1644,793.3006 2831.7644,794.6006 2833.3634,795.5006 C2831.8634,796.3006 2830.8634,798.4006 2828.8634,797.5006 Z M2825.7644,773.1006 C2824.3634,772.3006 2825.9644,769.3006 2827.0644,770.2006 C2828.4644,771.3006 2829.9644,771.4006 2831.9644,772.1006 C2829.7644,774.3006 2827.6644,774.2006 2825.7644,773.1006 Z M2800.9644,732.3006 L2801.4644,731.6006 C2801.5644,731.8006 2801.6644,732.0006 2801.6644,732.1006 C2801.5644,732.6006 2801.3634,732.6006 2800.9644,732.3006 Z M2652.2644,711.5006 C2651.2644,712.9006 2649.2644,711.9006 2648.1644,711.3006 C2646.1644,710.2006 2644.1644,710.1006 2641.9644,709.4006 C2647.8634,707.3006 2654.4644,707.4006 2659.2644,702.6006 C2657.2644,706.1006 2654.3634,708.4006 2652.2644,711.5006 Z M2585.3634,677.4006 C2585.4644,679.3006 2585.6644,681.2006 2586.1644,683.0006 C2585.4644,681.7006 2583.2644,679.9006 2585.3634,677.4006 Z M2577.5644,637.3006 C2577.2644,637.7006 2577.0644,638.1006 2576.7644,638.5006 C2576.5644,638.1006 2575.6644,638.3006 2576.0644,637.5006 C2576.2644,637.1006 2576.5644,636.7006 2576.8634,636.4006 C2577.0644,636.7006 2577.9644,636.6006 2577.5644,637.3006 Z M2546.1644,705.4006 C2543.3634,704.7006 2540.9644,702.8006 2539.7644,700.1006 C2539.2644,699.2006 2539.4644,698.1006 2540.2644,697.4006 C2541.0644,696.8006 2541.7644,697.5006 2542.5644,697.7006 C2546.1644,698.5006 2548.6644,702.1006 2552.7644,701.6006 C2552.4644,706.4006 2548.6644,705.8006 2546.1644,705.4006 Z M2528.7644,671.2006 L2528.6644,670.9006 L2528.8634,670.9006 L2528.7644,671.2006 Z M2507.0644,687.3006 C2506.7644,689.0006 2505.2644,689.0006 2503.9644,688.5006 C2501.9644,687.7006 2503.1644,686.1006 2503.6644,685.3006 C2504.9644,683.2006 2506.4644,681.4006 2508.2644,679.7006 C2509.8644,678.4006 2510.3634,676.6006 2511.4644,675.2006 C2512.9644,680.5006 2508.0644,683.1006 2507.0644,687.3006 Z M2507.3644,659.9006 C2507.3644,659.6006 2507.4644,658.8006 2508.1644,659.1006 C2508.5644,659.3006 2508.8644,659.6006 2509.1644,659.9006 L2508.3644,660.6006 C2507.2644,660.9006 2507.3644,660.2006 2507.3644,659.9006 Z M2448.4644,677.3006 L2448.4644,677.1006 C2449.9644,679.1006 2452.3644,680.8006 2452.8644,684.0006 C2450.0644,682.2006 2447.1644,681.2006 2448.4644,677.3006 Z M2407.3644,620.8006 C2406.9644,620.6006 2406.7644,620.4006 2407.1644,619.9006 L2407.4644,619.9006 C2407.4644,620.2006 2407.3644,620.5006 2407.3644,620.8006 Z M2268.0644,636.1006 L2268.2644,636.5006 L2267.9644,637.2006 C2267.8644,637.0006 2267.6644,636.9006 2267.6644,636.8006 C2267.7644,636.6006 2267.9644,636.3006 2268.0644,636.1006 Z M4867.5644,836.3006 L4867.2644,832.7006 L4850.5644,832.7006 L4850.5644,843.3006 L4826.0644,843.2006 L4826.0644,788.7006 L4815.9644,788.7006 L4815.9644,781.6006 L4812.4644,781.3006 L4812.3634,760.8006 L4793.3634,760.8006 L4791.7644,761.9006 L4789.5644,765.2006 L4785.9634,767.2006 L4776.9634,767.2006 L4774.1634,767.2006 L4774.1634,775.8006 L4770.8634,768.5006 L4770.8634,725.5006 L4770.5644,722.2006 L4764.9634,696.6006 L4764.3634,694.3006 L4763.6634,695.5006 L4758.4634,717.3006 L4757.2644,727.8006 L4757.2644,750.0006 L4757.0644,752.0006 L4756.1634,755.9006 L4756.1634,801.7006 L4756.1634,804.5006 L4750.8634,804.5006 L4750.8634,770.2006 L4745.7644,770.2006 L4745.6634,746.1006 L4742.9634,746.1006 L4740.4634,746.0006 L4740.4634,729.1006 L4734.6634,729.1006 L4734.6634,695.3006 L4723.7644,695.3006 L4723.3634,692.4006 L4706.3634,692.4006 L4705.8634,699.6006 L4703.3634,699.6006 L4682.5644,699.6006 L4678.5644,700.8006 L4671.6634,705.3006 L4669.1634,709.8006 L4669.2644,782.8006 L4669.2644,786.1006 L4663.8634,781.8006 L4660.4644,780.6006 L4656.5644,780.6006 L4656.4644,778.1006 L4656.4644,772.0006 L4653.9644,763.7006 L4652.6644,759.3006 L4652.6644,712.3006 L4652.6644,611.2006 L4652.6644,609.8006 L4652.3634,608.1006 L4647.0644,608.1006 L4628.4634,574.0006 L4596.2644,579.6006 L4590.7644,618.6006 L4583.1634,623.0006 L4580.3634,627.9006 L4580.3634,784.8006 L4580.3634,787.5006 L4578.4634,782.0006 L4578.4634,752.5006 L4578.1634,749.2006 L4573.1634,730.3006 L4572.6634,728.9006 L4569.3634,728.5006 L4569.3634,720.4006 L4557.8634,720.4006 L4557.8634,574.0006 L4543.7644,574.0006 L4543.7644,552.8006 L4515.4634,552.8006 L4515.4634,534.0006 L4503.6634,534.0006 L4503.6634,414.0006 L4500.1634,414.0006 L4496.6634,414.0006 L4496.6634,534.2006 L4489.5634,534.2006 L4489.5634,553.0006 L4468.3634,553.0006 L4468.3634,574.2006 L4449.5634,574.2006 L4449.5634,738.6006 L4447.0634,738.6006 L4446.8634,696.5006 L4443.7634,696.1006 L4443.7634,678.4006 L4439.2634,678.4006 L4439.2634,666.9006 L4429.2644,666.9006 L4429.2644,678.0006 L4423.7644,678.0006 L4423.7644,744.3006 L4417.0644,744.3006 L4416.9644,746.8006 L4416.9644,761.4006 L4415.3634,766.6006 L4413.8634,771.6006 L4413.8634,818.6006 L4413.7644,821.3006 L4399.0644,821.3006 L4399.0644,810.8006 L4399.0644,800.4006 L4399.0644,789.8006 L4399.0644,779.4006 L4399.0644,768.9006 L4391.3634,768.9006 L4391.1644,693.7006 L4366.8634,693.7006 L4366.8634,745.8006 L4357.2644,745.8006 L4347.4634,745.9006 L4347.4634,756.3006 L4342.3634,756.3006 L4339.5644,756.3006 L4339.5644,719.9006 L4329.7644,717.3006 L4326.6634,714.5006 L4319.0634,694.9006 L4318.0634,692.8006 L4309.3634,715.0006 L4302.3634,715.0006 L4302.3634,798.2006 L4291.5634,798.2006 L4291.5634,812.1006 L4288.0634,812.5006 L4287.8634,824.1006 L4277.0634,824.1006 L4277.0634,813.8006 L4273.1634,813.6006 L4273.1634,774.8006 L4266.1634,774.8006 L4266.1634,763.5006 L4266.1634,752.6006 L4266.0634,741.4006 L4255.3634,741.4006 L4255.3634,735.2006 L4247.4634,735.2006 L4245.5644,729.3006 L4240.9634,731.1006 L4240.0644,732.5006 L4238.6634,737.3006 L4238.6634,742.8006 L4228.0644,743.1006 L4228.0644,745.7006 L4228.1634,758.7006 L4227.9634,760.5006 L4223.4634,766.5006 L4221.3634,767.3006 L4210.9634,767.3006 L4209.0644,767.5006 L4208.7644,776.4006 L4205.4634,768.1006 L4205.4634,726.0006 L4205.0644,722.3006 L4200.0644,699.2006 L4198.8634,693.7006 L4198.1644,696.1006 L4192.3634,720.7006 L4191.8634,724.7006 L4191.8634,750.5006 L4191.4644,752.7006 L4190.6644,755.0006 L4190.6644,796.3006 L4190.6644,804.9006 L4185.4644,804.9006 L4185.4644,770.9006 L4180.2644,770.6006 L4180.2644,746.6006 L4175.1644,746.6006 L4175.1644,738.2006 L4175.0644,729.6006 L4169.4634,729.6006 L4169.4634,712.7006 L4169.4634,695.8006 L4158.3634,695.8006 L4158.1634,692.9006 L4141.0644,692.9006 L4140.5644,700.1006 L4137.8634,700.1006 L4117.2644,700.1006 L4113.2644,701.3006 L4105.3634,706.5006 L4103.7644,709.4006 L4103.7644,727.8006 L4103.7644,783.8006 L4103.3634,786.3006 L4095.8634,780.5006 L4095.8634,574.5006 L4072.5644,574.5006 C4072.5644,574.5006 4070.0644,571.8006 4063.6634,565.6006 C4059.1634,561.5006 4054.9634,557.3006 4048.4634,551.6006 C4042.6634,549.5006 4034.6634,550.5006 4031.6634,557.5006 C4029.6634,560.5006 4028.6634,557.5006 4027.6634,555.5006 C4026.6634,566.5006 4026.6634,577.5006 4026.6634,588.5006 C4028.6634,577.5006 4027.6634,566.5006 4029.6634,555.5006 C4025.6634,566.5006 4027.6634,578.5006 4025.6634,590.5006 C4028.6634,583.5006 4023.6634,575.5006 4028.6634,568.5006 C4030.6634,582.5006 4019.6634,583.5006 4008.5644,580.1006 C4003.6634,582.0006 3999.1634,584.0006 3995.6634,582.5006 C3988.6634,578.5006 3992.6634,562.5006 3985.3634,553.8006 C3981.3634,552.8006 3977.4634,551.6006 3974.1634,551.0006 L3959.7644,551.0006 L3956.8634,551.1006 L3956.8634,574.5006 L3936.2644,574.5006 L3936.2644,590.3006 L3936.2644,605.9006 L3936.2644,621.3006 L3936.2644,636.9006 L3936.2644,652.5006 L3936.2644,668.1006 L3936.2644,683.7006 L3936.2644,699.3006 L3936.2644,714.7006 L3936.2644,730.3006 L3936.2644,745.9006 L3936.2644,761.5006 L3933.1644,761.8006 L3933.1644,807.7006 L3928.5644,807.7006 L3928.5644,776.9006 L3924.8634,776.5006 L3924.8634,762.6006 L3914.5644,762.4006 L3914.5644,602.8006 L3907.5644,602.8006 L3907.5644,592.6006 L3893.4634,592.6006 L3893.4634,599.5006 L3889.5644,599.9006 L3889.5644,760.6006 L3885.2644,760.6006 L3885.2644,739.0006 L3881.5644,738.6006 L3881.5644,696.5006 L3878.6644,696.0006 L3878.6644,687.1006 L3878.5644,678.3006 L3873.9634,678.3006 L3873.9634,667.0006 L3863.6634,667.2006 L3863.6634,677.8006 L3858.2644,678.1006 L3858.2644,744.3006 L3851.5644,744.3006 L3851.3634,746.2006 L3851.3634,761.6006 L3849.7644,766.8006 L3848.2644,771.6006 L3848.3634,818.8006 L3848.2644,821.5006 L3844.8634,821.5006 L3844.8634,797.1006 L3833.3634,797.1006 L3833.3634,769.0006 L3825.3634,769.0006 L3825.3634,693.8006 L3800.9644,694.1006 L3800.9644,746.0006 L3781.6644,746.0006 L3781.6644,756.3006 L3781.0644,756.3006 L3781.0644,754.7006 L3781.0644,756.3006 L3773.8634,756.3006 L3773.8634,719.9006 L3761.7644,716.7006 L3756.6634,712.2006 L3756.2644,711.5006 L3754.6634,714.9006 L3751.8634,714.8006 C3751.8634,661.3006 3751.7644,607.7006 3751.8634,554.1006 C3751.8634,549.0006 3751.2644,546.1006 3745.3634,547.3006 C3742.9634,547.7006 3742.1634,546.6006 3742.1634,544.2006 C3742.0644,540.6006 3743.9634,535.7006 3741.2644,533.8006 C3738.5644,531.9006 3733.8634,533.2006 3730.0644,533.1006 L3728.0644,533.1006 C3723.9634,532.4006 3722.3634,533.9006 3722.8634,538.2006 C3723.0644,539.7006 3723.9644,542.8006 3721.6644,542.8006 C3716.6644,542.8006 3717.6644,546.0006 3717.6644,548.8006 C3717.7644,618.1006 3717.8634,687.4006 3717.8634,756.7006 C3717.8634,758.7006 3718.7644,761.2006 3715.0644,761.2006 C3711.3634,761.2006 3712.1644,758.8006 3712.1644,756.8006 C3712.1644,749.5006 3712.2644,742.1006 3712.1644,734.8006 C3712.0644,733.6006 3712.9644,731.2006 3710.5644,731.4006 C3706.3634,731.7006 3707.2644,728.8006 3707.2644,726.5006 C3707.2644,710.3006 3707.2644,694.2006 3707.1634,678.0006 C3707.1634,676.6006 3708.2644,674.1006 3705.7644,673.9006 C3702.4634,673.7006 3703.1634,671.6006 3703.1634,669.7006 L3703.1634,652.7006 C3703.1634,651.5006 3703.6634,649.4006 3701.6634,649.7006 C3696.1634,650.4006 3697.1634,646.7006 3697.1634,643.5006 C3697.0644,641.5006 3697.0644,639.5006 3697.1634,637.5006 C3697.4634,634.5006 3696.1634,633.9006 3693.4634,633.9006 C3683.1634,633.7006 3683.1634,633.6006 3683.1634,643.8006 L3683.1634,646.3006 C3683.4634,648.5006 3682.3634,649.5006 3680.2644,649.1006 C3676.1634,648.3006 3675.8634,650.5016 3675.8634,653.9006 C3675.9644,680.4006 3675.8634,706.9006 3676.0644,733.4006 C3676.0644,737.7006 3675.2644,739.7006 3670.6644,738.9006 C3667.0644,738.2006 3666.2644,740.1006 3666.3634,743.4006 C3666.5644,749.9006 3666.3634,756.4006 3666.4644,762.9006 C3666.4644,765.0016 3666.3634,766.9006 3664.9644,768.5016 C3662.7644,771.0016 3662.3634,774.0016 3662.3634,777.3006 C3662.5644,788.5016 3662.5644,799.6006 3662.4644,810.8006 C3662.4644,812.1006 3663.4644,814.0016 3661.0644,814.4006 C3659.3634,814.7006 3658.0644,814.4006 3658.0644,812.2006 C3658.0644,810.2006 3656.3634,810.5016 3655.0644,810.5016 C3652.2644,810.3006 3649.3634,810.3006 3646.5644,810.5016 C3643.1644,810.8006 3642.3634,809.5016 3642.3634,806.3006 C3642.4644,795.3006 3642.2644,784.3006 3642.1644,773.3006 L3641.2644,772.5016 C3631.8644,772.0016 3631.8644,772.0016 3631.8644,762.1006 C3631.7644,732.8006 3631.7644,703.6006 3631.6644,674.3006 C3631.6644,672.2006 3632.1644,670.1006 3628.5654,670.2006 C3619.1644,670.5016 3609.6644,670.4006 3600.1644,670.5016 C3600.0654,671.8006 3600.3644,673.1006 3598.5654,673.4006 C3598.5654,688.4006 3598.6644,703.4006 3598.6644,718.4006 C3603.4644,718.6006 3601.3644,714.1006 3602.5654,712.0016 C3604.3644,712.3006 3604.0654,713.5016 3604.0654,714.4006 C3603.7644,723.2016 3605.0654,732.2016 3603.3644,741.0016 C3602.9644,742.8006 3603.2644,745.7006 3600.9644,745.8006 C3598.8644,745.8006 3597.3644,743.7016 3597.0654,741.3006 C3590.0654,740.9006 3583.0654,740.9006 3576.0654,741.3006 C3575.3644,744.2016 3574.2644,746.9006 3576.5654,749.8006 C3578.0654,751.8006 3575.0654,753.2016 3575.0654,755.2016 C3575.1644,760.1016 3574.3644,765.3006 3575.3644,770.1016 C3576.8644,777.0016 3574.7644,784.1016 3576.8644,790.9006 C3577.4654,792.9006 3575.4654,793.3006 3574.0654,793.7016 C3571.8644,794.4006 3571.9644,792.7016 3571.9644,791.4006 C3571.6644,782.7016 3571.8644,774.0016 3572.6644,765.3006 C3572.9644,762.0016 3574.0654,758.4006 3571.7644,755.2016 C3570.0654,755.1016 3568.4644,755.1016 3566.7644,755.2016 C3562.5654,755.9006 3561.4644,754.3006 3561.5654,750.1016 C3561.8644,739.9016 3561.6644,729.8006 3561.5654,719.6016 C3561.5654,715.1016 3562.9644,709.6016 3560.8644,706.4016 C3558.5654,702.9016 3552.2644,703.4016 3548.0654,702.0016 C3543.8644,700.6016 3538.4644,700.9016 3537.6644,694.2016 C3536.5654,698.7016 3533.7654,699.2016 3530.1644,699.0016 C3525.6644,698.7016 3521.1644,699.2016 3516.6644,698.8016 C3511.9654,698.4016 3510.9654,700.1016 3510.9654,704.6016 C3511.1644,731.1016 3510.9654,757.6016 3511.1644,784.1016 C3511.1644,788.0016 3509.6644,788.3016 3506.4654,788.3016 C3503.2654,788.3016 3501.6644,787.8016 3501.8644,784.0016 C3502.1644,777.3016 3501.5654,770.6016 3501.9654,764.0016 C3502.2654,759.5016 3500.8644,757.6016 3496.2654,758.4016 C3492.8644,758.9016 3491.3644,757.8016 3491.7654,754.1016 C3492.0654,750.8006 3491.4654,747.4016 3491.8644,744.1016 C3492.5654,739.1016 3490.9654,736.7016 3485.5654,737.7016 C3481.6644,738.4006 3480.4654,736.9006 3480.5654,732.9006 C3480.7654,721.9006 3480.5654,710.9006 3480.6644,699.9006 C3480.6644,697.2016 3479.9654,696.1016 3477.0654,696.2016 C3472.0654,696.4006 3467.0654,696.3006 3462.0654,696.2016 C3460.8644,696.2016 3458.8644,696.9006 3458.8644,694.9006 C3458.7654,691.5016 3456.4654,692.4006 3454.6644,692.4006 C3446.4654,692.4006 3438.2654,692.6016 3430.1644,692.3006 C3426.0654,692.2016 3424.0654,693.3006 3424.5654,697.5016 C3425.0654,701.0016 3423.4654,701.6016 3420.3644,701.5016 C3411.1644,701.3006 3401.9654,701.8006 3392.8644,701.3006 C3381.0654,700.4006 3369.2654,702.8006 3358.6644,708.0016 C3354.4654,710.1016 3352.7654,711.9006 3352.8644,716.7016 C3353.1644,740.5016 3353.0654,764.4006 3353.1644,788.2016 C3353.2654,791.4006 3352.7654,792.9006 3348.9654,792.7016 C3340.9654,792.3006 3340.9654,792.6016 3340.9654,784.2016 L3340.9654,779.2016 C3341.1644,772.2016 3340.0654,765.2016 3344.1644,758.8006 C3345.0654,757.2016 3344.7654,755.3006 3343.4654,754.1016 C3340.6644,751.4006 3340.8644,748.1016 3340.8644,744.8006 L3340.8644,622.8006 C3340.8644,618.2016 3342.4654,612.0016 3340.0654,609.3006 C3337.2654,606.2016 3330.9654,608.3006 3326.1644,608.4006 C3322.0654,608.5016 3319.9654,607.8006 3320.6644,603.1006 C3321.0654,600.5016 3320.4654,597.7006 3320.7654,595.1006 C3321.2654,590.8006 3319.9654,589.2006 3315.1644,589.3006 C3296.7654,589.7006 3278.4654,589.4006 3260.1644,589.6006 C3256.8644,589.6006 3255.0654,588.5016 3253.5654,585.7006 C3249.4654,578.1006 3245.0654,570.7006 3240.6644,563.2006 C3239.7654,561.6006 3238.7654,559.1006 3237.5654,563.0016 C3240.6644,565.5016 3239.9654,569.0016 3239.4654,572.2006 C3238.3644,579.2006 3235.1644,585.4006 3231.7654,591.5016 C3229.5654,595.4006 3225.6654,595.5016 3220.6654,592.2006 C3219.0654,594.9006 3216.4654,596.9006 3213.4654,597.7006 C3204.8654,600.6006 3196.3654,603.9006 3187.8654,607.0016 C3179.3654,610.1016 3179.3654,610.1006 3179.9654,619.4006 C3180.6654,619.1006 3181.6654,619.0016 3182.1654,618.5016 C3182.9654,617.6006 3182.9654,615.3006 3184.5654,615.9006 C3186.5654,616.6006 3185.8654,619.0016 3185.4654,620.3006 C3184.2654,625.3006 3184.0654,630.5016 3184.7654,635.6016 C3185.1654,639.4006 3182.8654,642.3006 3183.0654,646.1016 C3183.5654,656.0016 3182.5654,666.0016 3183.5654,675.9006 C3184.7654,688.0016 3183.6654,700.3006 3185.3654,712.4006 C3185.8654,715.8006 3185.1654,719.5016 3185.2654,723.1016 C3185.5654,733.3006 3188.0654,743.2016 3188.2654,753.3006 C3188.4654,761.8006 3187.2654,770.4006 3185.9654,778.9006 C3185.3654,782.7016 3186.3654,786.6006 3184.6654,790.2016 C3184.1654,791.1016 3184.7654,792.9006 3183.0654,792.8006 C3181.6654,792.7016 3181.6654,791.1016 3181.1654,790.1016 C3179.5654,786.8006 3180.2654,783.2016 3179.8654,779.8006 C3178.8654,772.3006 3177.1654,765.0016 3177.3654,757.4006 C3175.0654,758.2016 3173.4654,758.1006 3172.4654,755.3006 C3170.6654,750.2016 3168.3654,745.2016 3166.2654,740.1016 C3165.6654,738.8006 3165.3654,736.8006 3163.3654,737.2016 C3158.0654,738.1016 3158.0654,735.0016 3158.4654,731.3006 C3158.8654,727.6006 3157.3654,726.7016 3153.9654,727.0016 C3150.3654,727.3006 3146.6654,727.1006 3142.9654,727.1006 C3134.1654,727.1006 3133.9654,727.1006 3133.9654,736.1006 C3133.9654,739.7006 3132.3654,740.3006 3129.4654,740.0016 C3126.9654,739.8006 3123.3654,741.3006 3123.9654,736.3006 C3124.2654,734.1016 3123.9654,732.2016 3120.9654,732.6016 C3117.3654,733.1016 3117.3654,731.0016 3117.3654,728.4006 C3117.3654,726.1016 3118.7654,723.0016 3115.0654,722.2016 C3111.5654,721.4006 3111.5654,719.1016 3111.5654,716.2016 L3111.5654,627.3006 C3111.6654,624.7016 3110.8654,622.1016 3109.3654,619.9006 C3098.3654,614.7016 3065.8654,616.0016 3059.1654,619.5016 C3057.8654,622.1016 3056.8654,624.4006 3056.8654,627.4006 C3056.9654,646.8006 3057.0654,666.3006 3057.0654,685.8006 C3057.0654,687.2016 3057.9654,688.9006 3056.1654,689.9006 C3054.3644,690.9006 3053.4654,689.1016 3052.2654,688.4006 C3046.0654,684.7016 3043.7654,677.4006 3038.7654,672.5016 C3036.7654,670.6016 3036.0654,666.7016 3036.2654,663.2016 C3036.3644,661.6016 3036.5654,661.1016 3038.0654,661.2016 C3039.3654,661.3006 3041.1654,663.1016 3041.5654,660.4006 C3041.9654,658.7016 3041.0654,657.0016 3039.4654,656.3006 C3033.3654,653.4006 3032.6654,648.2016 3033.5654,642.4006 C3035.1654,642.0016 3036.6654,641.5016 3038.2654,640.9006 C3039.4654,640.5016 3041.1654,640.1006 3040.7654,638.4006 C3040.4654,636.9006 3038.9654,637.4006 3037.8644,637.3006 C3034.9654,637.1016 3032.2654,636.7016 3029.9654,634.8006 C3028.3644,633.5016 3026.7654,632.4006 3024.6644,633.9006 C3022.8644,635.1006 3021.8644,637.3006 3022.2654,639.5016 C3024.2654,652.8006 3021.5654,666.2006 3022.1644,679.5016 C3022.3644,683.8006 3019.7654,687.8006 3021.3644,692.1006 C3022.5654,691.4006 3023.8644,690.6006 3025.1644,689.9006 C3026.6644,689.1006 3028.1644,689.6006 3028.2654,691.1006 C3028.5654,694.7006 3030.9654,697.1006 3032.4654,700.0016 C3034.5654,704.1006 3030.8644,707.1006 3030.7654,710.7006 C3030.6644,711.5016 3029.0654,710.9006 3028.0654,710.7006 C3024.6644,709.9006 3021.0654,710.9006 3018.5654,713.3006 C3018.0654,715.6006 3017.5654,717.8006 3017.0654,720.1006 C3016.4654,722.8006 3015.4654,722.7006 3013.0654,721.4006 C3006.9654,718.2016 3004.1644,711.8006 2998.7654,708.0016 C2998.5654,707.9006 2998.4654,707.8006 2998.3644,707.7006 C2997.5654,706.9006 2997.5654,705.7006 2998.3644,704.9006 C3001.1644,701.9006 2998.7654,699.8006 2997.1644,697.6006 C2994.1644,697.2006 2992.8644,695.5016 2993.7654,692.3006 C2996.3644,692.8006 2996.3644,695.6006 2998.0654,696.8006 C3001.7654,697.9006 3002.6644,701.7006 3005.0654,704.1006 C3006.2654,705.5016 3008.3644,706.0016 3010.0654,705.2006 C3011.3644,704.7006 3012.6644,703.9006 3012.5654,702.4006 C3012.3644,700.7006 3011.3644,699.7006 3009.5654,698.9006 C3007.0654,697.8006 3005.8644,695.3006 3004.5654,693.0006 C3001.8644,688.3006 2998.6644,684.0006 2994.9654,680.1006 C2988.9654,673.7006 2981.9654,667.5006 2982.2654,657.4006 C2980.8644,656.7006 2981.3644,655.5006 2981.5654,653.9006 L2983.0654,656.8006 C2987.0654,662.2006 2993.5654,661.2006 2999.0654,662.9006 C3000.5654,663.4006 3002.2654,663.0006 3002.6654,661.2006 C3002.7654,661.2006 3002.7654,661.1006 3002.7654,661.0016 C3003.0654,659.5016 3002.0654,658.2006 3000.5654,657.9006 C2995.6654,657.5016 2992.4654,654.2006 2988.8654,651.4006 C2981.6654,645.9006 2976.6654,638.9006 2976.1654,629.6006 C2975.8654,625.3006 2971.7654,625.1006 2969.8654,622.6006 C2968.8654,621.2006 2965.9654,623.3006 2965.7654,625.9006 C2965.7654,627.2006 2965.9654,628.5016 2966.2654,629.8006 C2968.4654,639.1006 2967.0654,647.8006 2962.9654,656.4006 C2961.6654,659.1006 2961.0654,662.1006 2961.4654,665.0016 C2961.6654,666.5016 2961.9654,668.0016 2963.7654,667.3006 C2970.2654,664.5016 2967.5654,669.8006 2967.0654,671.6006 C2966.1654,675.0016 2964.2654,678.1006 2962.9654,681.4006 C2961.3654,685.3006 2959.8654,689.3006 2958.4654,693.3006 C2957.9654,694.7016 2957.8654,696.4006 2959.6654,697.2016 L2959.7654,697.2016 C2961.2654,698.0016 2963.1654,697.4006 2963.9654,695.8006 C2965.2654,693.6016 2966.2654,691.4006 2967.0654,689.0016 C2969.2654,683.0016 2969.7654,676.4006 2972.6654,670.5016 C2974.2654,671.6006 2974.0654,672.8006 2973.7654,674.2006 C2972.5654,679.8006 2970.7654,685.2006 2968.3644,690.4006 C2965.8644,695.4006 2966.7654,697.5016 2971.5654,697.9006 C2967.8644,710.2006 2962.7654,721.7006 2952.3644,730.1006 C2951.1654,731.1006 2949.6654,733.2006 2951.0654,735.5016 C2952.6644,738.2006 2954.9654,737.0016 2957.1644,736.4006 C2955.6644,741.5016 2952.0654,745.4006 2946.8644,748.0016 C2944.5654,749.1006 2942.2654,750.6006 2943.3644,753.7006 C2944.3644,756.6006 2947.8644,757.9006 2949.7654,757.3006 C2948.5654,758.2006 2948.1644,759.9006 2948.3644,762.6006 C2948.5654,766.3006 2946.8644,767.8006 2943.4654,766.3006 C2939.3644,764.5006 2936.4654,761.1006 2934.0654,757.5006 C2930.1644,751.5006 2930.1644,751.4006 2931.1644,747.9006 C2931.2654,747.9006 2931.4654,747.9006 2931.5654,748.0006 C2933.0654,750.2006 2933.6644,753.6006 2937.5654,752.5006 C2940.1644,751.8006 2941.8644,750.2006 2941.7654,747.1006 C2941.6644,743.6006 2940.6644,741.3006 2936.5654,741.6006 C2935.4654,741.6006 2934.9654,740.3006 2934.2654,740.0006 C2930.8644,738.4006 2932.0654,734.8006 2930.8644,732.3006 C2928.7654,727.9006 2927.2654,723.3006 2926.4654,718.5006 C2924.8644,708.4006 2923.9654,698.0006 2922.7654,687.8006 C2922.4654,685.8006 2922.2654,683.3006 2919.5654,683.7006 C2917.3644,684.0016 2914.9654,685.0016 2914.6644,687.9006 C2914.4654,688.9006 2914.4654,689.9006 2914.7654,690.9006 C2917.0654,695.5006 2914.3644,700.1006 2913.3644,704.0006 C2910.8644,713.4006 2906.5654,722.3006 2902.1644,731.0006 C2900.7654,733.9006 2898.6644,737.7006 2902.1644,739.3006 C2905.1644,740.6006 2906.7654,736.4006 2908.0654,733.8006 C2909.5654,730.8006 2910.3644,727.3006 2913.1644,724.5006 C2913.9654,728.4006 2913.7654,731.8006 2911.8644,734.6006 C2909.1644,738.8006 2906.0654,742.7006 2902.5654,746.3006 C2899.8644,748.9006 2900.4654,751.6006 2900.6644,754.5006 C2900.9654,757.5006 2903.6644,756.7006 2905.3644,756.7006 C2907.8644,756.7006 2907.2654,758.1006 2907.4644,759.6006 C2908.2654,765.4006 2904.1644,770.2006 2904.2654,775.9006 C2904.2654,777.3006 2902.9644,777.2006 2901.6644,777.2006 C2896.5654,777.3006 2895.8644,772.0006 2892.4654,770.0006 C2890.5654,768.9006 2887.1644,767.5006 2887.4654,763.5006 C2888.7654,764.4006 2890.1644,765.2006 2891.6644,766.0006 C2893.3644,766.8006 2895.4654,766.2006 2896.5654,764.6006 C2897.5654,763.2006 2897.6644,761.0006 2896.0654,760.1006 C2890.2654,757.0006 2888.7654,750.0006 2883.0654,746.8006 C2880.6644,745.5006 2879.0654,742.5006 2878.1644,738.5006 C2882.4654,741.7006 2886.7654,742.9006 2890.4654,745.1006 C2891.9654,746.0006 2892.9654,748.1006 2894.9654,746.9006 C2897.1644,745.6006 2896.2654,743.4006 2895.6644,741.5006 C2895.0654,739.2006 2893.5654,737.2006 2891.3644,736.3006 C2888.2654,734.9006 2885.0654,733.6006 2881.7654,732.6006 C2872.7654,729.8006 2868.7654,723.3006 2868.5654,714.0006 C2868.8644,714.1006 2869.1644,714.2006 2869.3644,714.4006 C2869.5654,714.7006 2869.6644,715.1006 2869.8644,715.3006 C2873.1644,718.8006 2875.3644,724.0006 2881.5654,723.0006 C2883.3644,722.7006 2885.6644,723.1006 2886.3644,721.0006 C2887.0654,718.9006 2885.6644,716.9006 2883.9654,715.9006 C2875.4654,711.0006 2873.8644,702.4006 2871.4654,694.1006 C2871.2654,693.2006 2870.9654,692.3006 2871.8644,692.0006 C2872.7654,691.7006 2873.2654,692.7006 2873.9654,693.0006 C2875.9654,693.9006 2875.1644,696.8006 2877.3644,697.6006 C2882.5654,699.5006 2887.7654,701.4006 2892.9654,703.3006 C2893.8644,703.7006 2894.7654,704.0006 2895.6644,702.9006 C2896.5654,701.8006 2897.1644,700.3006 2896.3644,699.2006 C2895.0654,697.4006 2893.7654,694.6006 2891.3644,694.8006 C2884.8644,695.5006 2882.4644,690.4006 2878.5654,687.1006 C2872.2644,681.7006 2871.1644,675.4006 2873.9644,667.6006 C2875.1644,669.5006 2875.8644,671.6006 2877.3644,672.7006 C2878.9644,673.9006 2880.7654,676.6006 2883.2654,674.8006 C2885.7654,673.0006 2884.7654,670.3006 2884.0654,667.9006 C2883.8644,667.4006 2883.1644,667.0006 2882.8644,666.4006 C2879.4654,658.6006 2873.3644,651.7006 2874.4654,642.2006 C2874.9654,637.5006 2874.5654,632.6006 2874.5654,627.8006 C2874.5654,626.4006 2874.9654,624.3006 2873.7654,624.1006 C2869.2654,623.2006 2870.9644,619.8006 2870.4644,617.3006 C2869.0654,616.9006 2868.3644,615.4006 2868.6644,614.0006 C2863.9644,611.8006 2862.2644,612.5006 2861.4644,617.4006 C2860.9644,620.4006 2861.0654,623.6006 2860.5654,626.6006 C2858.3644,638.9006 2855.3644,650.9006 2849.9644,662.3006 C2848.4644,665.3006 2849.2654,668.8006 2852.6644,669.6006 C2855.4644,670.3006 2858.9644,669.7006 2859.4644,665.4006 C2859.6644,663.8006 2859.8644,662.2006 2861.9644,660.8006 L2860.4644,669.3006 C2864.3644,672.0006 2861.6644,675.9006 2862.1644,679.2006 C2862.2644,680.2006 2861.3644,681.1006 2862.4644,682.3006 C2866.8644,687.2006 2867.1644,693.7006 2862.9644,698.5006 C2860.5654,701.2006 2857.6644,703.4006 2853.6644,702.3006 C2852.8644,706.6006 2850.6644,710.2006 2848.0654,713.7006 C2846.4644,715.7006 2844.5654,718.3006 2847.6644,720.5006 C2850.7644,722.7006 2853.2644,721.3006 2855.1644,718.4006 C2855.9644,717.1006 2856.8644,716.0006 2858.1644,714.1006 C2859.0654,721.0006 2857.6644,727.4006 2853.1644,730.7006 C2849.2644,733.6006 2845.9644,737.7006 2841.0654,739.5006 C2838.5654,740.5006 2837.5654,740.0006 2836.4644,737.9006 C2834.5654,734.3006 2832.4644,730.8006 2830.7654,727.0006 C2829.7654,724.8006 2827.6644,722.1006 2832.7654,721.0006 C2835.1644,720.5006 2836.9644,715.5006 2834.4644,714.0006 C2829.9644,711.3006 2831.2654,706.4006 2828.4644,703.5006 C2829.4644,702.5006 2830.0654,703.1006 2830.3644,703.5006 C2832.4644,706.3006 2834.0654,709.0006 2838.5654,708.3006 C2842.1644,707.7006 2845.0654,706.9006 2847.3644,704.0006 C2848.8644,702.3006 2850.5654,700.8006 2852.3644,699.4006 C2850.5654,695.6006 2854.7654,691.8006 2852.2654,688.0006 C2848.1644,690.1006 2846.4644,694.6006 2842.7654,697.2006 C2840.9644,698.5006 2839.0654,699.1006 2838.0654,697.6006 C2836.3644,695.0006 2833.3644,693.2006 2832.3644,690.4006 C2829.7654,683.3006 2826.5654,676.1006 2825.8644,668.7006 C2824.6644,656.4006 2821.3644,644.3006 2822.0654,631.8006 C2822.1644,629.6006 2821.0654,626.4006 2818.7654,626.1006 C2813.6644,625.5016 2815.1644,622.0016 2815.6644,619.6006 C2816.1644,616.9006 2815.1644,614.3006 2815.9654,611.7006 C2816.3644,610.5016 2816.9654,608.6006 2815.1644,608.3006 C2813.3644,608.0006 2813.2654,609.9006 2813.0654,611.1006 C2812.0654,616.7006 2811.1644,622.2006 2810.4654,627.8006 C2809.6644,634.4006 2807.8644,640.4006 2803.1644,645.6006 C2800.1644,648.9006 2795.6644,653.5016 2798.7654,658.2006 C2801.8644,662.9006 2799.2654,664.8006 2796.7654,667.5016 C2795.6644,668.5016 2794.6644,669.6006 2793.6644,670.7006 C2790.7654,674.6006 2791.9654,678.4006 2796.4654,679.9006 C2800.2654,681.1006 2798.8644,683.5006 2797.4654,685.3006 C2793.5654,690.4006 2791.0654,696.5006 2785.8644,700.7006 C2784.4654,701.8006 2783.5654,703.8006 2782.6644,705.6006 C2781.3644,708.2006 2782.3644,709.9006 2785.0654,710.4006 C2788.3644,710.9006 2791.6644,711.4006 2794.1644,708.2006 C2794.7654,707.4006 2795.9654,707.2006 2796.8644,707.7006 C2797.6644,708.0016 2797.3644,708.5016 2797.1644,709.2006 C2794.9654,717.0016 2790.4654,723.7006 2787.1644,730.9006 C2785.1644,735.4006 2780.1644,737.8006 2778.9654,743.1006 C2778.3644,745.7006 2776.3644,748.2006 2779.3644,750.1006 C2782.0654,751.8006 2784.5654,750.7006 2786.6644,748.1006 C2791.1644,742.8006 2795.8644,737.7006 2800.5654,732.5016 C2801.9654,739.3006 2800.5654,745.0016 2794.7654,749.4006 C2791.8644,751.5016 2788.6644,753.5016 2786.3644,756.2006 C2782.8644,760.4006 2779.2654,760.3006 2776.7654,755.4006 C2775.9654,753.7006 2775.6644,751.8006 2775.8644,750.0016 C2776.0654,744.2006 2776.6644,738.4006 2776.4654,732.6006 C2776.0654,721.8006 2763.1644,713.0016 2752.9654,720.3006 C2751.8644,721.2006 2750.6644,721.8006 2749.2654,721.3006 C2745.2654,719.8006 2740.8644,719.2006 2736.5654,719.5006 C2733.1644,719.9006 2733.4654,716.1006 2731.5654,714.7006 C2730.2654,713.8006 2731.3644,713.2006 2731.8644,712.9006 C2735.1654,711.0006 2734.7654,708.5006 2733.3644,705.7006 C2731.9654,702.7006 2728.7654,700.9006 2725.4654,701.1006 C2716.0654,701.3006 2710.4654,695.0006 2704.4654,689.4006 C2703.0654,688.1006 2701.9654,686.0006 2704.3644,684.3006 C2706.2654,683.0006 2707.7654,683.4006 2709.2654,685.5006 C2710.4654,687.2006 2712.4654,687.7006 2714.6654,686.8006 C2716.8654,685.9006 2716.6654,683.9006 2716.7654,682.1006 C2717.1654,677.5016 2712.8644,676.3006 2710.4654,673.9006 C2708.2654,671.8006 2705.5654,669.5016 2705.9654,666.8006 C2706.6644,661.7006 2707.7654,656.7006 2708.1644,651.5016 C2708.3644,650.3006 2709.0654,649.3006 2710.0654,648.8006 C2711.3644,648.3006 2711.8644,649.8006 2712.5654,650.7006 C2714.0654,652.5016 2715.6644,654.1006 2717.2654,655.7006 C2719.6644,658.1006 2721.9654,656.5016 2723.9654,655.1006 C2725.5654,654.0016 2727.7654,652.0016 2726.1644,650.2006 C2724.1644,647.9006 2723.1644,644.9006 2721.1644,643.1006 C2717.5654,639.9006 2715.5654,635.6006 2712.6644,631.9006 C2710.8644,629.7016 2711.3644,627.3006 2713.0654,623.6006 C2713.4654,627.9006 2714.6644,630.0016 2717.8644,630.2006 C2720.1644,630.4006 2722.1644,630.0016 2723.4654,627.8006 C2724.9654,625.2006 2725.6644,622.8006 2723.7654,619.9006 C2721.7654,616.7006 2720.5654,613.2006 2717.6644,610.5016 C2716.8644,609.7006 2715.5654,608.2006 2716.5654,607.0016 C2717.8644,605.4006 2718.7654,607.4006 2719.7654,608.0016 C2721.5654,609.0016 2723.8644,609.4006 2724.3644,607.2006 C2724.9654,604.4006 2725.5654,601.5016 2723.6644,598.6006 C2720.0654,593.1006 2719.2654,586.8006 2719.7654,580.3006 C2720.0654,576.5006 2719.3644,572.2006 2715.6644,570.9006 C2711.6644,569.6006 2710.4654,573.5006 2709.1644,576.7006 C2707.0654,581.7006 2705.1644,586.8006 2702.3644,591.4006 C2699.8644,595.4006 2696.9654,599.2006 2695.0654,603.5006 C2694.2654,605.4006 2693.2654,607.9006 2696.8644,608.4006 C2699.0654,607.2006 2700.7654,605.3006 2701.6644,602.9006 C2703.2654,598.7006 2707.0654,599.4006 2710.0654,599.1006 C2712.7654,598.9006 2711.7654,601.6006 2710.9654,602.7006 C2709.0654,605.2006 2708.8644,608.2006 2707.9654,611.0006 C2706.7654,614.7006 2705.4654,618.3006 2706.4654,622.5006 C2707.2654,626.0006 2705.6644,629.3006 2702.8644,631.8006 C2699.4654,634.7006 2696.6654,638.3006 2694.5654,642.2006 C2693.2654,644.9006 2690.2654,644.4006 2688.2654,645.8006 C2686.8644,651.1006 2686.1644,656.6006 2683.4654,661.5006 C2680.6644,666.7006 2674.7654,667.7006 2670.6644,671.1006 C2667.6644,673.6006 2664.9654,676.4006 2666.8644,679.7006 C2668.7654,683.0006 2672.5654,682.4006 2675.6644,680.2006 C2675.7654,680.1006 2676.1644,680.3006 2676.3644,680.4006 C2676.8644,682.0006 2675.7654,682.9006 2674.5654,683.5006 C2664.8644,688.2006 2655.8644,694.0006 2645.1644,697.1006 C2639.2654,698.8006 2639.2654,696.9006 2638.8644,692.9006 C2638.7654,692.4006 2638.6644,691.9006 2638.7654,691.4006 C2639.0654,690.0006 2637.4644,688.2006 2639.1644,687.3006 C2640.6644,686.5006 2641.8644,688.0006 2643.0654,688.9006 C2644.8644,690.3006 2646.8644,691.4006 2648.8644,689.6006 C2650.8644,687.8006 2653.7654,686.4006 2652.5654,682.8006 C2651.5654,680.1006 2650.3644,677.1006 2647.1644,677.1006 C2644.8644,677.1006 2644.2654,675.8006 2642.9654,674.6006 C2638.6644,670.5006 2640.1644,665.1006 2640.5654,660.5006 C2641.2654,652.1006 2641.6644,643.8006 2640.3644,635.5006 C2640.1644,634.1006 2640.2654,632.8006 2638.4654,632.4006 C2636.9654,631.9006 2635.3644,632.6006 2634.6644,634.0006 C2633.8644,635.2006 2633.5654,636.7006 2631.7654,637.1006 C2629.4644,637.6006 2629.1644,639.1006 2629.1644,641.5006 C2629.0654,646.9006 2628.2654,652.2006 2625.5654,657.3006 C2623.8644,660.4006 2622.3644,663.6006 2621.1644,666.9006 C2619.7654,670.5006 2618.0654,673.7006 2614.2654,675.6006 C2610.2654,677.7006 2610.1644,682.2006 2613.2654,685.5006 C2616.0654,688.6006 2618.4644,685.6006 2621.3644,684.8006 C2620.3644,689.4006 2620.0654,694.0006 2615.6644,695.6006 C2608.8644,698.1006 2607.8644,704.2006 2605.5654,709.7006 C2605.2654,710.5006 2605.9654,711.8006 2604.7654,712.2006 C2603.7654,712.5006 2602.9644,711.7006 2602.1644,711.0006 C2600.9654,710.1006 2601.1644,709.0006 2601.9654,708.0006 C2606.6644,702.5006 2604.4654,697.9006 2600.9654,692.7006 C2599.2654,690.1006 2598.2654,685.7006 2601.0654,682.9006 C2602.7654,681.1006 2605.6644,679.9006 2604.1644,677.1006 C2602.6644,674.3006 2600.2654,672.3006 2596.4654,673.6006 C2595.1644,674.1006 2593.1644,674.9006 2593.0654,672.6006 C2592.9654,667.8006 2589.2654,663.7006 2590.5654,658.3006 C2594.2654,661.9006 2598.5654,664.7006 2603.2654,666.7006 C2605.5654,667.6006 2607.2654,667.3006 2608.7654,666.0006 C2610.8644,664.3006 2608.9644,662.5006 2607.9644,661.3006 C2606.1644,659.2006 2604.1644,657.4006 2601.7654,656.1006 C2594.3644,652.3006 2591.1644,645.8006 2593.0654,637.5006 C2594.2654,638.5006 2595.3644,639.4006 2596.2654,640.1006 C2597.1644,640.8006 2598.2654,641.4006 2599.4644,640.7006 C2600.8644,639.8006 2600.5654,638.3006 2600.1644,637.1006 C2596.7644,625.5006 2598.8644,613.3006 2595.6644,601.6006 C2595.0654,599.5006 2595.9644,597.2006 2592.9644,597.0006 C2590.1644,596.8006 2589.4644,599.1006 2589.0654,601.3006 C2588.1644,607.3006 2585.6644,613.0006 2581.9644,617.8006 C2577.9644,623.0006 2574.6644,628.7006 2570.4644,633.8006 C2569.4644,635.1006 2568.6644,636.7006 2569.8644,638.4006 C2570.4644,639.3006 2570.9644,640.5006 2572.4644,640.4006 C2573.5654,640.3006 2574.5654,638.1006 2575.6644,640.1006 C2576.5654,641.8006 2574.8644,642.7006 2574.1644,643.9006 C2571.7644,648.3006 2567.1644,651.9006 2567.8644,657.4006 C2568.3644,661.9006 2566.0654,664.4006 2563.1644,666.2006 C2558.6644,669.0016 2554.5654,672.6006 2549.6644,675.0016 C2549.4644,675.2006 2549.1644,675.3006 2548.9644,675.5016 C2547.3644,676.8006 2547.0654,679.3006 2548.4644,681.0016 C2549.9644,683.0016 2552.3644,684.1006 2554.5654,682.5016 C2560.9644,678.1006 2568.3644,675.2006 2573.5654,669.1006 C2568.8644,678.8006 2561.2644,686.8006 2551.8644,692.1006 C2550.3644,693.0016 2548.5654,692.9006 2547.2654,691.7006 C2543.9644,689.3006 2540.4644,687.2006 2537.4644,684.5016 C2533.9644,681.2006 2530.7654,677.5016 2529.7654,672.4006 C2531.9644,673.2006 2534.0654,674.4006 2535.7654,676.1006 C2537.7654,678.3006 2540.8644,677.9006 2541.8644,677.1006 C2543.5654,675.6006 2543.3644,671.9006 2541.8644,670.7006 C2539.4644,668.7006 2538.0654,665.9006 2535.7654,663.8006 C2530.1644,658.6006 2528.1644,651.6006 2527.2654,644.2006 C2528.0654,646.8006 2529.9644,648.9006 2530.8644,651.6006 C2532.6644,656.4006 2535.5654,660.7006 2539.4644,664.1006 C2540.6644,665.2006 2542.3644,665.3006 2543.6644,664.3006 C2544.9644,663.4006 2544.7644,662.0006 2544.2644,660.7006 C2543.4644,658.9006 2542.5654,657.2006 2541.6644,655.4006 C2546.4644,654.0006 2548.0654,652.0006 2545.8644,649.7006 C2541.2644,644.9006 2538.5654,638.9006 2535.5654,633.1006 C2535.2644,632.4006 2533.8644,631.5016 2535.8644,631.0016 C2540.3644,630.0016 2539.2644,626.9006 2538.2644,624.0016 C2537.6644,622.3006 2536.7644,621.3006 2538.9644,619.6006 C2542.5654,616.8006 2541.8644,614.6006 2537.8644,612.7006 C2535.4644,611.5016 2532.2644,611.3006 2531.3644,608.0016 C2530.1644,603.6006 2528.2644,599.4006 2527.7644,594.7006 C2527.0654,588.1006 2526.9644,581.4006 2524.5654,575.0016 C2523.7644,572.8006 2522.4644,572.2006 2520.6644,572.2006 C2518.5654,572.3006 2517.7644,573.8006 2518.0654,575.7006 C2518.5654,579.5016 2517.2644,583.1006 2517.0654,586.9006 C2516.3644,598.3006 2512.2644,608.7006 2507.0654,618.6006 C2505.5654,621.4006 2506.1644,623.0006 2508.3644,624.4006 C2511.2654,626.3006 2512.6644,624.1006 2513.8644,622.1006 C2515.5654,619.1006 2517.0654,616.0006 2518.9644,612.4006 C2519.7654,617.3006 2516.4644,620.1006 2515.2654,623.5006 C2513.7654,627.6006 2513.8644,632.4006 2511.6644,635.9006 C2506.9644,643.3006 2504.7644,652.2006 2498.0654,658.4006 C2497.2644,659.2006 2496.9644,660.5006 2496.4644,661.5006 C2495.6644,663.2006 2495.3644,664.9006 2497.1644,666.3006 C2498.9644,667.7006 2500.6644,667.4006 2502.1644,666.3006 C2503.8644,665.1006 2505.3644,663.6006 2507.3644,661.8006 C2507.3644,663.1006 2507.7644,664.0006 2507.3644,664.6006 C2504.4644,669.3006 2501.6644,674.1006 2498.1644,678.4006 C2496.9644,679.8006 2495.9644,681.5016 2495.2644,683.3006 C2494.6644,684.8006 2495.2644,687.3006 2493.3644,687.5016 C2491.4644,687.7006 2490.2644,685.6006 2489.3644,684.1006 C2487.4644,681.0016 2485.2644,679.0016 2481.2644,679.8006 C2480.2644,679.9006 2479.2644,679.7006 2478.4644,679.2006 C2474.1644,676.7006 2470.7644,677.4006 2467.7644,681.6006 C2464.7644,685.8006 2460.9644,685.1006 2458.7644,680.4006 C2456.2644,675.0016 2453.2644,669.9006 2450.8644,664.5016 C2447.8644,657.9006 2445.3644,651.0016 2447.9644,643.6006 C2448.6644,641.5016 2448.1644,639.2006 2446.4644,639.2006 C2440.3644,639.1006 2440.5654,632.7006 2436.8644,630.4006 C2440.3644,630.0006 2440.4644,633.6006 2442.4644,635.0006 C2443.4644,635.7006 2443.8644,637.5006 2445.6644,636.3006 C2447.0654,635.4006 2446.8644,633.9006 2446.5654,632.7006 C2446.1644,631.5016 2445.5654,630.3006 2444.7644,629.2006 C2441.5654,623.9006 2439.0654,618.2006 2437.3644,612.2006 C2436.2644,608.4006 2437.3644,604.7006 2435.8644,601.1006 C2435.2644,599.6006 2434.5644,597.4006 2436.4644,596.6006 C2438.6644,595.6006 2438.9644,598.2006 2439.6644,599.4006 C2442.5644,604.6006 2446.9644,609.1006 2448.0644,615.3006 C2448.2644,616.4006 2449.3644,617.9006 2450.8644,617.7006 C2452.3644,617.5016 2452.0644,615.7006 2452.0644,614.8006 C2451.9644,611.0016 2452.3644,606.9006 2450.1644,603.8006 C2447.2644,599.8006 2445.6644,595.2006 2443.4644,590.9006 C2439.4644,583.2006 2440.2644,574.2006 2437.5644,565.7006 C2441.5644,568.6006 2443.0644,568.0016 2444.2644,563.8006 C2444.5644,562.9006 2444.5644,561.8006 2444.1644,560.9006 C2441.2644,554.2006 2442.5644,547.5016 2443.2644,540.6006 C2443.8644,535.3006 2444.8644,530.0016 2445.2644,524.6006 C2445.5644,522.4006 2444.4644,520.2006 2442.5644,519.1006 C2441.1644,518.4006 2438.7644,518.0016 2438.0644,519.7006 C2436.9644,522.4006 2434.6644,524.3006 2434.0644,527.5016 C2433.2644,531.5016 2432.5644,536.1006 2429.2644,539.4006 C2425.5644,543.1006 2422.1644,547.2006 2418.4644,551.0016 C2416.3644,553.2006 2415.4644,555.5016 2416.9644,558.1006 C2418.3644,560.5016 2420.5644,562.1006 2423.4644,559.7006 L2423.8644,558.9006 L2424.3644,559.4006 L2423.6644,559.9006 C2423.7644,562.2006 2422.8644,564.5006 2421.1644,566.1006 C2418.4644,568.9006 2415.7644,572.0006 2414.4644,575.8006 C2413.5644,578.5006 2413.1644,581.2006 2417.0644,581.8006 C2419.5644,582.2006 2418.4644,583.4006 2418.1644,584.6006 C2415.4644,594.4006 2410.7644,603.1006 2403.1644,610.2006 C2400.5644,612.6006 2396.1644,614.7006 2398.0644,618.9006 C2399.6644,622.5006 2403.9644,620.2006 2406.9644,620.9006 C2404.0644,622.1006 2401.4644,623.7006 2398.4644,624.7006 C2391.8644,626.9006 2390.7644,631.5006 2394.8644,636.7006 C2395.5644,637.6006 2395.6644,638.1006 2394.7644,638.6006 C2391.1644,640.6006 2389.6644,645.1006 2384.9644,646.0006 C2381.5644,646.6006 2379.7644,652.4006 2382.1644,654.0006 C2387.2644,657.4006 2382.4644,657.8006 2380.8644,658.5006 C2378.2644,659.5006 2375.8644,661.0006 2373.8644,663.0006 C2372.7644,664.2006 2370.5644,665.3006 2371.7644,667.5006 C2372.7644,669.5006 2374.7644,670.7006 2376.9644,670.6006 C2379.3644,670.4006 2381.7644,670.2006 2384.1644,670.0006 C2381.0644,672.7006 2379.2644,676.2006 2376.4644,678.7006 C2372.0644,682.6006 2371.2644,682.1006 2368.6644,676.6006 C2368.1644,675.5006 2367.4644,674.6006 2366.6644,673.8006 C2365.2644,672.2006 2364.1644,671.1006 2366.5644,669.0006 C2368.4644,667.3006 2369.3644,664.5006 2366.9644,662.0006 C2360.7644,655.6006 2364.3644,647.7006 2363.6644,640.5006 C2363.4644,638.7006 2365.3644,638.5006 2366.9644,638.5006 C2374.6644,638.3006 2376.1644,636.0006 2372.7644,629.1006 C2370.6644,624.9006 2369.9644,620.7006 2371.6644,616.2006 C2371.8644,615.6006 2372.4644,614.6006 2372.2644,614.4006 C2367.8644,609.6006 2372.2644,604.0006 2370.3644,598.2006 C2376.4644,605.3006 2376.4644,605.5006 2373.3644,611.4006 L2374.1644,612.2006 L2375.0644,611.8006 C2377.6644,610.7006 2379.4644,608.6006 2381.2644,606.5006 C2384.7644,602.2006 2379.3644,601.4006 2378.4644,598.9006 C2378.2644,598.6006 2378.1644,598.3006 2378.0644,598.0006 C2376.6644,591.1006 2371.8644,584.8006 2374.9644,577.0006 C2375.6644,575.2006 2375.1644,572.3006 2375.8644,570.0006 C2376.4644,568.0006 2375.6644,567.2006 2373.4644,566.8006 C2369.3644,566.1006 2366.8644,569.1006 2363.5644,570.3006 C2361.0644,571.2006 2357.5644,571.2006 2357.6644,574.4006 C2357.7644,578.3006 2361.8644,576.5006 2364.0644,577.4006 C2364.2644,577.5006 2364.5644,577.7006 2364.7644,577.8006 C2362.8644,579.7006 2360.5644,581.3006 2358.0644,582.3006 C2353.1644,584.2006 2348.6644,587.0006 2344.7644,590.6006 C2342.9644,592.2006 2343.1644,594.1006 2344.1644,596.0006 C2345.3644,598.1006 2347.0644,596.8006 2348.5644,596.5006 C2350.3644,596.1006 2352.1644,595.4006 2354.3644,594.6006 C2350.6644,604.5006 2346.0644,614.0006 2340.4644,623.0006 C2339.8644,624.0006 2338.9644,624.3006 2338.0644,623.4006 C2337.3644,622.7006 2336.0644,621.9006 2337.4644,620.6006 C2341.5644,616.9006 2338.4644,615.0006 2335.3644,614.0006 C2331.7644,612.8006 2330.6644,610.2006 2329.7644,607.1006 C2329.4644,606.1006 2328.7644,604.6006 2330.7644,604.5006 C2333.5644,604.4006 2333.5644,602.4006 2333.3644,600.7006 C2333.1644,599.0006 2333.0644,597.7006 2335.2644,597.7006 C2337.4644,597.7006 2339.6644,597.7006 2340.4644,595.0006 C2341.3644,591.9006 2339.6644,589.6006 2337.7644,588.0006 C2332.2644,583.5006 2329.4644,577.7006 2328.3644,570.8006 C2327.8644,568.1006 2327.9644,565.4006 2328.5644,562.7006 C2329.2644,560.5006 2328.4644,558.2006 2326.5644,557.0006 C2323.8644,555.3006 2323.0644,557.8006 2321.7644,559.0006 C2319.0644,561.5006 2316.0644,563.3006 2313.5644,566.3006 C2311.7644,568.4006 2308.3644,569.6006 2306.8644,572.6006 C2305.8644,574.6006 2305.0644,576.4006 2302.6644,577.7006 C2300.2644,579.0006 2298.9644,582.2006 2298.7644,584.9006 C2298.5644,587.4006 2301.4644,587.3006 2303.2644,588.0006 C2304.5644,588.4006 2304.7644,589.5006 2303.7644,590.2006 C2299.3644,593.3006 2297.4644,598.4006 2293.7644,602.0006 C2288.8644,606.8006 2289.7644,611.0006 2295.9644,613.3006 C2299.2644,614.5006 2299.6644,615.9006 2298.0644,619.2006 C2295.2644,625.0016 2292.2644,630.6006 2288.8644,636.1006 C2287.4644,638.4006 2286.5644,640.6006 2289.4644,642.6006 C2292.3644,644.6006 2294.0644,642.6006 2295.6644,640.7006 C2297.7644,638.2006 2300.2644,636.1006 2302.0644,633.3006 C2298.5644,640.9006 2295.0644,648.3006 2289.6644,654.7006 C2286.4644,658.5016 2286.6644,661.7006 2290.6644,663.1006 C2294.4644,664.4006 2294.0644,666.3006 2292.9644,669.0016 C2292.2644,670.9006 2291.1644,672.6006 2290.4644,674.3006 C2288.1644,679.7006 2285.7644,678.3006 2283.1644,674.9006 C2279.7644,670.4006 2275.5644,669.2006 2270.4644,671.6006 C2269.9644,671.7006 2269.5644,671.8006 2269.0644,671.8006 C2267.3644,664.2006 2260.8644,658.6006 2261.7644,650.4006 C2263.1644,657.3006 2268.1644,661.5006 2272.7644,666.0006 C2273.6644,666.9006 2274.3644,668.3006 2276.0644,667.5006 C2277.7644,666.7006 2278.2644,664.7006 2277.4644,663.7006 C2273.5644,658.9006 2274.2644,652.7006 2271.8644,647.5006 C2270.5644,644.5006 2267.3644,641.8006 2268.2644,637.7006 C2270.5644,637.8006 2271.1644,641.8006 2273.8644,639.4006 C2275.2644,638.0006 2275.9644,636.4006 2274.7644,635.0006 C2270.9644,630.6006 2269.5644,624.6006 2265.3644,620.6006 C2261.5644,617.0006 2261.4644,613.3006 2263.0644,608.9006 C2265.2644,609.3006 2267.1644,610.7006 2268.2644,612.7006 C2269.5644,615.0006 2271.5644,616.9006 2273.6644,615.7006 C2275.7644,614.5006 2273.9644,611.7006 2273.1644,609.9006 C2270.4644,604.2006 2269.2644,598.0006 2267.7644,592.0006 C2266.8644,588.1006 2267.9644,584.1006 2268.4644,580.3006 C2269.2644,574.0006 2266.3644,568.0006 2267.0644,561.7006 C2267.0644,561.3006 2265.9644,560.5006 2265.2644,560.1006 C2261.1644,557.7006 2257.1644,560.5006 2257.6644,566.1006 C2258.5644,576.0006 2252.9644,583.2006 2248.0644,590.7006 C2243.4644,597.7006 2237.1644,603.3006 2230.6644,608.5006 C2227.9644,610.7006 2227.0644,613.8006 2229.4644,616.4006 C2231.8644,619.0006 2234.9644,617.6006 2237.4644,615.5006 C2239.0644,614.1006 2240.5644,612.6006 2242.1644,611.2006 C2242.2644,611.7006 2242.3644,612.0006 2242.3644,612.5006 C2241.1644,622.3006 2232.8644,628.1006 2228.5644,636.3006 C2225.3644,642.3006 2219.8644,647.0006 2216.4644,653.1006 C2215.4644,655.0016 2213.1644,656.4006 2215.1644,658.8006 C2217.1644,661.2006 2219.5644,661.1006 2222.2644,659.6006 C2228.1644,656.2006 2231.4644,650.2006 2236.6644,645.2006 C2235.0644,650.4006 2235.0644,655.4006 2234.4644,660.3006 C2233.6644,666.6006 2229.5644,669.1006 2223.5644,666.5006 C2221.8644,665.8006 2220.1644,664.9006 2218.3644,666.0006 C2216.5644,667.1006 2215.1644,666.4006 2213.8644,665.3006 C2211.8644,663.5006 2210.2644,663.7006 2208.5644,666.0006 C2205.7644,669.7006 2202.4644,670.1006 2198.1644,667.7006 C2191.7644,664.1006 2186.7644,659.0006 2181.0644,654.6006 C2178.2644,652.5006 2175.3644,648.9006 2172.1644,654.2006 C2171.9644,654.6006 2171.0644,655.0006 2170.8644,654.8006 C2167.2644,652.7006 2162.8644,655.0006 2159.4644,652.0006 C2157.3644,650.0006 2154.2644,649.9006 2152.0644,651.7006 C2150.6644,652.8006 2149.0644,652.7006 2147.3644,652.7006 C2143.0644,652.6006 2140.0644,654.6006 2139.6644,659.3006 C2139.5644,660.7006 2139.8644,662.2006 2138.4644,662.9006 C2136.5644,663.9006 2136.5644,661.7006 2135.6644,660.9006 C2134.4644,659.8006 2132.9644,659.0006 2131.3644,658.5006 C2130.1644,658.1006 2128.7644,657.8006 2129.3644,655.8006 C2130.7644,651.0006 2126.6644,647.2006 2126.9644,642.5006 C2127.0644,641.3006 2125.5644,639.9006 2124.1644,639.2006 C2119.6644,637.0006 2116.5644,633.0006 2113.7644,629.1006 C2110.8644,625.0006 2109.8644,619.5006 2112.6644,615.5006 C2117.8644,608.0006 2113.8644,601.2006 2112.1644,594.5006 C2110.3644,587.2006 2106.3644,580.6006 2108.3644,572.4006 C2109.9644,565.8006 2101.4644,551.5006 2095.4644,548.8006 C2095.0644,548.7006 2094.7644,548.6006 2094.4644,548.5006 C2087.6644,547.4006 2080.7644,546.6006 2077.9644,538.7006 C2077.3644,537.7006 2076.3644,536.9006 2075.2644,536.6006 C2072.7644,535.8006 2071.5644,534.0006 2070.5644,531.8006 C2068.6644,527.7006 2057.0644,521.9006 2052.7644,522.8006 C2052.3644,522.8006 2051.9644,522.8006 2051.7644,523.0006 C2048.4644,526.4006 2043.6644,525.7006 2039.8644,527.5006 C2034.5644,529.9006 2032.7644,526.3006 2032.9644,521.5006 C2033.1644,520.3006 2033.4644,519.2006 2034.0644,518.2006 C2035.5644,514.1006 2032.4644,502.0006 2029.0644,499.3006 C2027.8644,498.2006 2026.3644,497.8006 2024.8644,498.0006 C2022.0644,498.6006 2020.0644,497.5006 2018.3644,495.4006 C2013.0644,488.9006 2006.0644,487.2006 1998.1644,489.1006 C1995.1644,489.7996 1993.1644,489.2996 1991.1644,486.9006 C1987.2644,482.4006 1982.5644,476.8006 1977.2644,476.5006 C1969.6644,476.1006 1966.7644,470.9006 1962.0644,467.2006 C1961.3644,466.7006 1960.5644,466.4006 1959.7644,466.4006 C1958.6644,466.2996 1957.8644,466.1006 1957.7644,464.7996 C1957.4644,461.5006 1954.9644,460.0006 1952.4644,458.6006 C1950.8644,457.7006 1949.4644,456.7006 1949.4644,454.9006 C1949.3644,450.5006 1945.8644,447.6006 1944.7644,443.6006 C1944.2644,441.7006 1942.3644,440.5006 1940.4644,440.7996 C1935.7644,441.2996 1935.4644,438.6006 1935.7644,435.1006 C1936.0644,431.6006 1935.0644,429.7006 1930.8644,429.5006 C1927.9644,429.4006 1924.6644,429.2006 1922.3644,426.2006 C1917.8644,420.2006 1915.5644,412.9006 1911.2644,406.9006 C1909.1644,403.9006 1908.0644,400.5006 1906.1644,397.7006 C1902.7644,392.7006 1897.0644,390.2996 1891.5644,388.0006 C1890.9644,387.7996 1889.9644,388.2006 1889.1644,388.4006 C1885.6644,389.4006 1882.6644,386.9006 1882.3644,384.7006 C1881.9644,381.5006 1880.1644,380.0006 1878.1644,378.5006 C1873.4644,374.9006 1872.0644,370.2996 1873.2644,364.7996 C1873.5644,363.2996 1872.8644,361.9006 1872.7644,360.6006 C1872.3644,353.7996 1866.2644,350.2006 1863.8644,344.6006 C1862.7644,342.0006 1860.9644,339.5006 1857.6644,338.5006 C1855.7644,337.7996 1854.2644,336.1006 1853.9644,334.1006 C1852.8644,328.0006 1848.8644,323.7996 1844.9644,319.5006 C1843.5644,317.9006 1842.3644,316.2996 1839.9644,315.7996 C1835.8644,315.0006 1835.3644,313.4006 1838.3644,310.2006 C1839.8644,308.5006 1841.7644,307.1006 1843.5644,305.6006 C1844.6644,304.5006 1845.7644,303.4006 1844.9644,301.7006 C1843.6644,299.1006 1844.3644,296.5006 1844.5644,293.9006 C1845.3644,285.4006 1844.4644,283.9006 1836.2644,283.1006 C1832.1644,282.7006 1831.4644,281.6006 1832.4644,277.6006 C1834.2644,270.7006 1834.2644,264.8006 1827.7644,258.9006 C1823.3644,254.9006 1820.5644,249.7006 1814.0644,247.9006 C1808.0644,246.2006 1801.8644,244.1006 1798.9644,237.5006 C1798.7644,237.1006 1797.7644,236.7996 1797.1644,236.7996 C1795.0644,236.7996 1793.7644,235.5006 1792.5644,234.1006 C1790.0644,231.0006 1787.6644,227.6006 1782.7644,228.7006 C1781.6644,228.9006 1780.5644,228.0006 1779.8644,227.0006 C1776.6644,222.1006 1772.1644,218.1006 1766.9644,215.5006 C1759.1644,211.5006 1750.6644,210.1006 1742.5644,207.4006 C1738.5644,206.0006 1734.2644,204.7996 1730.2644,203.2996 C1722.7644,205.0006 1719.9644,199.4006 1718.8644,194.0006 C1718.2644,192.7006 1717.5644,191.4006 1716.6644,190.2006 C1714.4644,187.7006 1711.5644,188.2996 1710.6644,191.2996 C1710.1644,193.2006 1709.1644,194.9006 1707.0644,194.7006 C1706.9644,194.6006 1706.7644,194.6006 1706.6644,194.6006 C1704.6644,194.2006 1703.3644,192.4006 1703.7644,190.4006 C1704.1644,187.2006 1702.8644,185.0006 1700.4644,183.1006 C1699.7644,182.5006 1698.9644,181.7006 1698.2644,182.2006 C1691.5644,186.9006 1688.5644,177.9006 1683.0644,178.2996 C1682.5644,178.4006 1681.9644,177.6006 1682.1644,176.7996 C1682.4644,175.7996 1683.3644,175.9006 1684.1644,175.9006 C1686.1644,175.7996 1688.7644,176.5006 1688.5644,173.0006 L1686.3644,172.6006 C1683.6644,172.2996 1680.5644,174.6006 1678.5644,171.0006 C1675.4644,170.0006 1673.0644,173.7996 1670.0644,172.2996 C1666.3644,170.5006 1662.3644,169.7996 1658.2644,169.0006 C1656.0644,168.6006 1653.2644,168.4006 1651.8644,165.9006 C1651.4644,165.6006 1650.6644,165.5006 1650.5644,165.2006 C1647.8644,157.6006 1641.4644,157.5006 1635.1644,157.9006 C1629.6644,158.2006 1626.4644,154.6006 1622.5644,151.9006 L1618.8644,148.7006 C1612.4644,147.7996 1606.1644,145.7996 1599.4644,146.6006 C1595.2644,147.1006 1591.1644,145.2006 1587.5644,142.7006 C1585.6644,143.1006 1584.6644,141.9006 1583.6644,140.7006 C1578.8644,140.7996 1574.0644,141.5006 1570.0644,137.7996 C1569.5644,137.4006 1568.7644,137.2006 1569.0644,136.5006 C1569.4644,135.6006 1570.4644,135.9006 1571.2644,135.7996 C1571.6644,134.5006 1571.6644,133.1006 1571.0644,131.7996 C1567.1644,131.4006 1563.0644,130.5006 1559.5644,133.2996 C1558.0644,134.5006 1558.5644,132.9006 1558.2644,132.5006 C1554.9644,128.7006 1553.9644,123.7006 1551.8644,119.2996 C1551.4644,118.4006 1551.3644,117.4006 1551.4644,116.4006 C1551.3644,113.1006 1553.7644,111.5006 1556.3644,111.1006 C1559.5644,110.6006 1559.9644,113.5006 1560.3644,115.7006 C1560.7644,117.5006 1560.2644,119.4006 1560.8644,121.1006 C1562.1644,125.1006 1564.6644,127.9006 1569.3644,127.7996 C1569.1644,127.2006 1568.9644,126.4006 1568.5644,126.1006 C1561.4644,121.7006 1565.0644,113.9006 1562.7644,108.0006 C1562.6644,107.6006 1562.7644,107.1006 1563.0644,106.7006 C1568.4644,103.2996 1565.0644,99.4006 1562.8644,97.0006 C1558.5644,92.2006 1559.7644,86.5006 1558.5644,81.2006 C1560.4644,80.7996 1560.4644,82.4006 1561.3644,82.7006 C1562.8644,83.2006 1564.4644,85.0006 1565.8644,83.2006 C1566.9644,81.9006 1565.8644,80.4006 1564.9644,79.2006 L1559.7644,71.9006 C1554.9644,71.9006 1555.9644,69.6006 1557.7644,66.9006 C1558.2644,62.1006 1555.4644,57.4006 1557.1644,52.2006 C1557.9644,52.9006 1558.6644,53.7006 1559.3644,54.6006 C1560.1644,55.9006 1561.4644,56.7996 1562.5644,55.7996 C1563.3644,55.0006 1562.1644,53.7006 1561.4644,52.7006 C1557.2644,47.5006 1555.3644,40.7006 1556.2644,34.0006 C1554.9644,31.6006 1554.4644,29.1006 1556.7644,26.9006 C1554.9644,19.7006 1555.4644,12.4006 1555.4644,5.1006 C1555.4644,3.1006 1555.6644,0.7006 1552.6644,0.9006 C1550.3644,1.0006 1548.5644,2.1006 1548.3644,4.8006 C1548.1644,8.5006 1547.8644,12.3006 1547.2644,16.0006 C1546.4644,21.0006 1547.3644,26.4006 1543.1644,30.5006 C1542.1644,31.4006 1540.8644,32.8006 1542.0644,34.3006 C1543.8644,36.6006 1544.3644,32.5006 1545.9644,33.3006 C1546.2644,38.0006 1545.2644,42.3006 1541.9644,46.0006 C1541.1644,47.0006 1539.8644,49.3006 1541.7644,49.6006 C1545.1644,50.2006 1544.2644,52.3006 1544.3644,54.3006 C1544.7644,60.3006 1542.7644,65.5006 1539.5644,70.4006 C1538.1644,72.5006 1535.7644,74.1006 1535.6644,76.3006 C1536.8644,78.4006 1541.7644,74.9006 1539.8644,79.9006 C1539.3644,81.2006 1539.2644,82.7006 1538.3644,84.0006 C1534.5644,89.6006 1531.0644,95.4006 1527.6644,101.2996 C1527.0644,102.2996 1525.1644,103.9006 1527.2644,105.0006 C1528.8644,105.9006 1529.7644,104.2996 1530.8644,103.1006 C1531.9644,101.9006 1531.0644,99.1006 1533.9644,99.4006 C1535.0644,102.7996 1532.7644,105.5006 1532.3644,108.5006 C1531.2644,116.2996 1528.4644,123.9006 1524.2644,130.6006 C1522.8644,132.9006 1521.7644,136.1006 1518.0644,136.1006 C1515.7644,135.6006 1512.4644,139.2996 1511.3644,134.2996 L1508.3644,134.1006 C1506.5644,135.0006 1504.7644,135.6006 1503.3644,133.4006 L1499.3644,133.4006 C1497.4644,138.5006 1492.6644,141.2006 1489.2644,145.0006 C1486.9644,147.6006 1481.6644,147.2006 1477.5644,147.1006 C1473.2644,150.4006 1469.2644,153.6996 1463.3644,149.2996 C1459.6644,146.5006 1452.4644,148.0006 1449.2644,151.2006 C1447.5644,152.9006 1446.6644,151.5006 1445.5644,150.6006 C1442.3644,148.1006 1432.5644,147.2996 1429.3644,149.4006 C1424.5644,152.5006 1418.6644,152.7006 1413.6644,153.5006 C1403.7644,155.1006 1397.2644,145.6006 1388.9644,141.5006 C1388.6644,141.2996 1388.4644,141.0006 1388.4644,140.7006 C1388.3644,134.4006 1386.7644,128.1006 1387.8644,121.2996 C1389.5644,123.0006 1390.3644,124.7996 1392.4644,125.1006 C1394.5644,125.4006 1396.9644,128.0006 1398.5644,124.9006 C1400.1644,121.7996 1397.5644,120.9006 1395.1644,119.6996 C1389.0644,116.6006 1387.0644,110.7996 1388.7644,103.1996 C1388.9644,102.1006 1388.9644,100.6006 1387.8644,100.0006 C1384.7644,98.4006 1384.9644,95.4006 1384.6644,92.6996 C1383.9644,86.1006 1383.3644,79.2996 1382.6644,72.4006 C1384.1644,73.0006 1385.6644,73.5006 1386.9644,74.1006 C1388.2644,74.6996 1389.7644,76.1006 1390.7644,74.1006 C1391.7644,72.1006 1389.6644,71.6996 1388.4644,71.0006 C1385.6644,69.2996 1383.4644,66.5006 1383.1644,63.6006 C1382.4644,56.6006 1381.1644,49.6006 1381.5644,42.5006 C1381.6644,38.9006 1382.3644,34.2996 1380.4644,32.0006 C1378.8644,30.1006 1377.9644,27.7006 1377.9644,25.2996 C1377.6644,20.9006 1377.4644,16.5006 1377.2644,12.1006 C1377.2644,11.0006 1377.7644,9.4006 1376.1644,9.2996 C1374.3644,9.2006 1374.9644,10.9006 1374.9644,11.9006 C1374.8644,14.6006 1375.0644,17.1996 1374.9644,19.9006 C1374.6644,27.7996 1375.7644,35.7996 1372.6644,43.5006 C1370.9644,47.6996 1367.5644,50.6996 1365.9644,54.9006 C1364.8644,57.7996 1364.5644,60.1006 1368.6644,59.2996 C1370.4644,59.0006 1371.0644,59.7996 1370.6644,60.9006 C1368.0644,68.0006 1369.9644,75.6006 1367.3644,82.6996 C1365.3644,88.7996 1362.5644,94.6996 1359.1644,100.1996 C1358.4644,101.4006 1357.7644,102.5006 1358.4644,103.7996 C1358.9644,104.7996 1359.8644,104.2996 1360.6644,104.0006 C1366.2644,101.5006 1365.0644,105.0006 1364.3644,108.0996 C1363.8644,109.6996 1363.5644,111.2996 1363.4644,112.9006 C1363.2644,118.7996 1358.5644,122.5006 1356.3644,127.4006 C1353.9644,132.7996 1351.6644,138.1996 1348.5644,143.0996 C1347.1644,145.2996 1345.5644,147.9006 1348.8644,149.4006 C1351.6644,150.6996 1353.0644,148.4006 1354.2644,146.0006 C1355.7644,142.9006 1355.9644,139.0996 1359.0644,136.5996 C1359.4644,141.5996 1356.5644,145.6996 1355.9644,150.1996 C1355.5644,152.4006 1355.2644,153.4006 1353.0644,153.9006 C1350.6644,154.4006 1348.4644,154.9006 1346.7644,152.5996 C1345.2644,150.5996 1343.8644,148.5006 1342.5644,146.4006 C1340.3644,143.0006 1338.5644,139.5006 1333.2644,141.5996 C1331.8644,142.0996 1329.5644,141.5996 1327.9644,140.7996 C1317.6644,135.7996 1307.9644,143.4006 1297.8644,142.4006 C1294.8644,142.2996 1294.8644,147.2996 1292.8644,146.2996 C1282.8644,140.2996 1272.8644,145.2996 1265.8644,143.2996 C1249.5644,146.4006 1233.5644,144.4006 1217.7644,144.2996 C1202.0644,146.9006 1186.5644,160.5006 1171.2644,157.2996 C1155.9644,153.9006 1140.8644,163.0996 1125.8644,164.2996 C1116.3644,158.0006 1106.7644,159.0006 1097.1644,160.2996 C1087.5644,161.5996 1077.8644,163.2996 1068.1644,158.5006 C1058.4644,156.0006 1048.7644,169.0006 1038.9644,157.0996 C1029.2644,152.9006 1019.4644,155.5006 1009.7644,152.5006 C1000.0644,148.1996 990.3644,151.7996 980.7644,149.5006 C971.1644,153.5006 961.5644,143.5996 952.0644,154.4006 C942.5644,150.0996 933.1644,152.9006 923.8644,157.5996 C914.5644,153.7996 905.3644,161.9006 896.2644,172.0996 C890.0644,167.7996 883.9644,161.9006 877.7644,179.2996 C864.7644,186.1996 851.5644,183.1996 837.9644,190.7996 C824.4644,196.1996 810.7644,197.6996 796.7644,190.2996 C787.2644,192.5996 777.8644,182.9006 768.5644,184.2996 C759.2644,183.0996 749.9644,185.0996 740.7644,178.5996 C731.5644,172.0006 722.3644,190.7996 713.2644,176.0006 C704.0644,176.0996 694.9644,170.2996 685.7644,169.6996 C676.5644,166.2996 667.3644,167.0006 658.0644,167.9006 C648.7644,168.7996 639.3644,169.9006 629.9644,167.1006 C619.5644,163.1006 609.3644,178.7996 599.2644,166.6996 C582.5644,186.6006 565.8644,167.1006 549.0644,165.6006 C532.3644,170.4006 515.5644,164.1996 498.6644,162.1006 C490.2644,161.6006 481.7644,157.9006 473.2644,155.2996 C464.7644,152.7006 456.2644,151.2996 447.7644,155.2996 C440.7644,150.7006 433.7644,138.5006 426.7644,156.7996 C419.7644,149.7996 412.7644,160.7996 405.8634,154.6006 C398.9644,164.0006 392.0644,149.1996 385.1644,158.4006 C378.2644,152.6006 371.4644,175.6006 364.7644,164.2996 C364.7644,166.2996 363.7644,159.2996 362.7644,161.4006 C353.7644,155.6006 344.9644,172.6006 336.1644,166.5006 C323.0644,172.6996 310.2644,181.7996 297.2644,169.1996 C284.2644,182.9006 271.1644,164.7996 257.6644,166.1996 C241.6644,146.1996 225.6644,167.4006 209.6644,157.1996 C193.6644,139.4006 177.7644,150.0006 161.9644,147.2996 C146.0644,149.6996 130.3634,145.7996 114.6644,144.2996 C112.6644,155.7996 110.6644,147.4006 109.6644,140.2996 C107.6644,133.5996 106.6644,144.6996 105.6644,143.2996 C103.6644,147.9006 101.6644,136.4006 98.6644,139.2996 C93.6644,131.5006 88.6644,143.9006 83.6644,141.2996 C76.1644,131.0006 69.1644,137.7996 62.0644,136.9006 C54.9644,136.0006 47.8634,135.5996 40.1644,135.9006 C26.3634,136.2996 14.6644,138.7996 9.6644,144.2996 C-9.3356,167.2996 5.6644,209.2996 4.9644,243.0996 L4.9644,277.4006 C4.9644,551.7996 4.9644,826.1996 4.8634,1100.7006 C4.8634,1104.5006 5.6644,1105.2996 9.4644,1105.2996 C839.7644,1105.2006 2890.2644,1105.2006 3720.5644,1105.2996 L3720.5644,1107.0006 L4876.1644,1107.0006 L4876.1644,836.4006 L4867.5644,836.4006 L4867.5644,836.3006 Z" id="Fill-1" fill="#045681" mask="url(#mask-4)"></path>
                            </g>
                            <path d="M3180.564,619.5007 C3181.364,619.2007 3182.264,619.1007 3182.764,618.6007 C3183.564,617.7007 3183.564,615.4007 3185.165,616.0007 C3187.165,616.7007 3186.464,619.0007 3186.064,620.4007 C3184.864,625.4007 3184.665,630.6007 3185.364,635.7007 C3185.764,639.5007 3183.464,642.4007 3183.665,646.2007 C3184.165,656.1007 3183.264,666.1007 3184.165,676.0007 C3185.364,688.1007 3184.264,700.4007 3185.964,712.5007 C3186.464,715.9007 3185.764,719.6007 3185.865,723.2007 C3186.264,733.4007 3188.665,743.3007 3188.865,753.4007 C3189.064,761.9007 3187.865,770.5007 3186.564,779.0007 C3185.964,782.8007 3186.964,786.7007 3185.264,790.3007 C3184.764,791.2007 3185.464,793.0007 3183.665,792.9007 C3182.364,792.8007 3182.264,791.3007 3181.764,790.2007 C3180.165,786.9007 3180.964,783.3007 3180.464,779.9007 C3179.464,772.5007 3177.864,765.1007 3177.964,757.5007 C3180.864,756.1007 3180.165,753.4007 3180.165,750.9007 C3180.165,709.1007 3180.064,667.2007 3179.964,625.4007 C3180.364,623.4007 3180.564,621.5007 3180.564,619.5007" id="Fill-4" fill="#045C89"></path>
                            <path d="M3180.564,619.5007 C3181.364,619.2007 3182.264,619.1007 3182.764,618.6007 C3183.564,617.7007 3183.564,615.4007 3185.165,616.0007 C3187.165,616.7007 3186.464,619.0007 3186.064,620.4007 C3184.864,625.4007 3184.665,630.6007 3185.364,635.7007 C3185.764,639.5007 3183.464,642.4007 3183.665,646.2007 C3184.165,656.1007 3183.264,666.1007 3184.165,676.0007 C3185.364,688.1007 3184.264,700.4007 3185.964,712.5007 C3186.464,715.9007 3185.764,719.6007 3185.865,723.2007 C3186.264,733.4007 3188.665,743.3007 3188.865,753.4007 C3189.064,761.9007 3187.865,770.5007 3186.564,779.0007 C3185.964,782.8007 3186.964,786.7007 3185.264,790.3007 C3184.764,791.2007 3185.464,793.0007 3183.665,792.9007 C3182.364,792.8007 3182.264,791.3007 3181.764,790.2007 C3180.165,786.9007 3180.964,783.3007 3180.464,779.9007 C3179.464,772.5007 3177.864,765.1007 3177.964,757.5007 C3180.864,756.1007 3180.165,753.4007 3180.165,750.9007 C3180.165,709.1007 3180.064,667.2007 3179.964,625.4007 C3180.364,623.4007 3180.564,621.5007 3180.564,619.5007 Z" id="Stroke-6" stroke="#045C89"></path>
                            <path d="M2949.4644,773.4006 C2947.0644,770.5006 2950.2644,770.4006 2951.5644,769.4006 C2955.5644,766.2006 2959.7644,763.1006 2960.9644,757.6006 C2960.7644,755.4006 2963.7644,755.3006 2963.8634,753.2006 C2964.7644,749.3006 2965.4644,745.4006 2968.5644,742.4006 C2969.4644,741.5006 2970.5644,740.2006 2969.6644,738.9006 C2968.9644,737.9006 2967.5644,738.3006 2966.3634,738.5006 C2965.1634,738.7006 2964.0644,739.8006 2963.4644,738.1006 C2962.8634,736.4006 2961.9644,735.0006 2963.1634,733.0006 C2966.0644,728.0006 2970.2644,723.9006 2973.2644,719.0006 C2974.6634,716.8006 2975.0644,713.9006 2978.0644,713.1006 C2979.5644,713.6006 2979.3634,712.1006 2980.0644,711.5006 C2982.1634,712.1006 2983.5644,710.1006 2985.7644,709.9006 C2983.9634,717.3006 2980.0644,723.4006 2976.4634,729.7006 C2975.8634,730.7006 2974.6634,731.7006 2975.8634,732.8006 C2977.0644,733.9006 2977.8634,732.3006 2978.6634,731.6006 C2979.5644,730.9006 2980.4644,730.2006 2981.2644,729.3006 C2982.6634,727.7006 2982.7644,727.5006 2984.5644,729.6006 C2989.0644,735.0006 2985.9644,738.6006 2983.5644,743.2006 C2978.3634,753.6006 2971.0644,762.2006 2962.9644,770.2006 C2961.3634,771.7006 2960.1634,773.5006 2959.2644,775.5006 C2955.8634,775.2006 2953.4644,770.7006 2949.4644,773.4006" id="Fill-8" fill="#045C89"></path>
                            <path d="M2949.4644,773.4006 C2947.0644,770.5006 2950.2644,770.4006 2951.5644,769.4006 C2955.5644,766.2006 2959.7644,763.1006 2960.9644,757.6006 C2960.7644,755.4006 2963.7644,755.3006 2963.8634,753.2006 C2964.7644,749.3006 2965.4644,745.4006 2968.5644,742.4006 C2969.4644,741.5006 2970.5644,740.2006 2969.6644,738.9006 C2968.9644,737.9006 2967.5644,738.3006 2966.3634,738.5006 C2965.1634,738.7006 2964.0644,739.8006 2963.4644,738.1006 C2962.8634,736.4006 2961.9644,735.0006 2963.1634,733.0006 C2966.0644,728.0006 2970.2644,723.9006 2973.2644,719.0006 C2974.6634,716.8006 2975.0644,713.9006 2978.0644,713.1006 C2979.5644,713.6006 2979.3634,712.1006 2980.0644,711.5006 C2982.1634,712.1006 2983.5644,710.1006 2985.7644,709.9006 C2983.9634,717.3006 2980.0644,723.4006 2976.4634,729.7006 C2975.8634,730.7006 2974.6634,731.7006 2975.8634,732.8006 C2977.0644,733.9006 2977.8634,732.3006 2978.6634,731.6006 C2979.5644,730.9006 2980.4644,730.2006 2981.2644,729.3006 C2982.6634,727.7006 2982.7644,727.5006 2984.5644,729.6006 C2989.0644,735.0006 2985.9644,738.6006 2983.5644,743.2006 C2978.3634,753.6006 2971.0644,762.2006 2962.9644,770.2006 C2961.3634,771.7006 2960.1634,773.5006 2959.2644,775.5006 C2955.8634,775.2006 2953.4644,770.7006 2949.4644,773.4006 Z" id="Stroke-10" stroke="#045C89"></path>
                            <path d="M2706.3638,605.1008 C2706.6648,604.5008 2707.0638,604.2008 2707.0638,603.8008 C2707.0638,603.1008 2706.6648,602.6008 2705.9648,602.9008 C2705.6648,602.9998 2705.4648,603.7008 2705.4648,604.1008 C2705.4648,604.4998 2705.9648,604.7008 2706.3638,605.1008 M2697.4648,608.3008 C2699.6648,607.1008 2701.3638,605.1008 2702.2638,602.8008 C2703.8638,598.6008 2707.7638,599.3008 2710.6648,599.0008 C2713.3638,598.8008 2712.3638,601.4008 2711.5638,602.6008 C2709.7638,605.1008 2709.4648,608.1008 2708.5638,610.9008 C2707.4648,614.7008 2706.0638,618.2008 2707.0638,622.4008 C2707.8638,625.8008 2706.3638,629.2008 2703.4648,631.7008 C2700.0638,634.6008 2697.2638,638.1008 2695.1648,642.1008 C2693.8638,644.7008 2690.8638,644.2008 2688.8638,645.7008 C2685.6648,645.7008 2684.2638,648.5008 2682.0638,650.1008 C2679.4648,652.2008 2677.1648,652.7008 2674.8638,649.7008 C2672.5638,646.7008 2673.2638,643.9008 2676.1648,642.7008 C2680.3638,640.9008 2682.3638,636.9008 2686.0638,634.8008 C2688.5638,633.4008 2690.7638,631.7008 2687.5638,628.4008 C2686.0638,626.8008 2686.4648,624.4008 2688.1648,622.1008 C2690.8638,618.4008 2693.2638,614.5008 2696.7638,611.4008 C2697.6648,610.5008 2698.4648,609.5008 2697.4648,608.3008" id="Fill-12" fill="#045C89"></path>
                            <path d="M2706.3638,605.1008 C2706.6648,604.5008 2707.0638,604.2008 2707.0638,603.8008 C2707.0638,603.1008 2706.6648,602.6008 2705.9648,602.9008 C2705.6648,602.9998 2705.4648,603.7008 2705.4648,604.1008 C2705.4648,604.4998 2705.9648,604.7008 2706.3638,605.1008 Z M2697.4648,608.3008 C2699.6648,607.1008 2701.3638,605.1008 2702.2638,602.8008 C2703.8638,598.6008 2707.7638,599.3008 2710.6648,599.0008 C2713.3638,598.8008 2712.3638,601.4008 2711.5638,602.6008 C2709.7638,605.1008 2709.4648,608.1008 2708.5638,610.9008 C2707.4648,614.7008 2706.0638,618.2008 2707.0638,622.4008 C2707.8638,625.8008 2706.3638,629.2008 2703.4648,631.7008 C2700.0638,634.6008 2697.2638,638.1008 2695.1648,642.1008 C2693.8638,644.7008 2690.8638,644.2008 2688.8638,645.7008 C2685.6648,645.7008 2684.2638,648.5008 2682.0638,650.1008 C2679.4648,652.2008 2677.1648,652.7008 2674.8638,649.7008 C2672.5638,646.7008 2673.2638,643.9008 2676.1648,642.7008 C2680.3638,640.9008 2682.3638,636.9008 2686.0638,634.8008 C2688.5638,633.4008 2690.7638,631.7008 2687.5638,628.4008 C2686.0638,626.8008 2686.4648,624.4008 2688.1648,622.1008 C2690.8638,618.4008 2693.2638,614.5008 2696.7638,611.4008 C2697.6648,610.5008 2698.4648,609.5008 2697.4648,608.3008 Z" id="Stroke-14" stroke="#045C89"></path>
                            <path d="M2861.3638,669.3005 C2865.2638,672.0005 2862.6648,675.9005 2863.0638,679.2005 C2863.1648,680.2005 2862.2638,681.1005 2863.3638,682.3005 C2867.7638,687.2005 2867.9648,693.7005 2863.8638,698.5005 C2861.4648,701.2005 2858.6648,703.4005 2854.5638,702.3005 C2853.9648,701.4005 2854.7638,699.8005 2853.2638,699.3005 C2851.3638,695.5005 2855.6648,691.7005 2853.1648,687.9005 C2853.1648,687.2005 2854.2638,686.8005 2853.2638,685.9005 C2850.4648,683.5005 2852.0638,680.7005 2853.9648,679.4005 C2857.5638,676.8005 2859.6648,673.3005 2861.3638,669.3005" id="Fill-16" fill="#045C89"></path>
                            <path d="M2861.3638,669.3005 C2865.2638,672.0005 2862.6648,675.9005 2863.0638,679.2005 C2863.1648,680.2005 2862.2638,681.1005 2863.3638,682.3005 C2867.7638,687.2005 2867.9648,693.7005 2863.8638,698.5005 C2861.4648,701.2005 2858.6648,703.4005 2854.5638,702.3005 C2853.9648,701.4005 2854.7638,699.8005 2853.2638,699.3005 C2851.3638,695.5005 2855.6648,691.7005 2853.1648,687.9005 C2853.1648,687.2005 2854.2638,686.8005 2853.2638,685.9005 C2850.4648,683.5005 2852.0638,680.7005 2853.9648,679.4005 C2857.5638,676.8005 2859.6648,673.3005 2861.3638,669.3005 Z" id="Stroke-18" stroke="#045C89"></path>
                            <path d="M3022.064,692.3005 C3023.364,691.5005 3024.564,690.8005 3025.864,690.1005 C3027.364,689.3005 3028.764,689.7005 3028.964,691.3005 C3029.264,694.9005 3031.665,697.3005 3033.165,700.2005 C3035.264,704.2005 3031.564,707.2005 3031.464,710.9005 C3031.464,711.7005 3029.764,711.1005 3028.764,710.9005 C3025.364,710.1005 3021.764,711.1005 3019.264,713.5005 C3016.165,709.8005 3014.864,706.2005 3018.464,701.9005 C3020.665,699.1005 3019.364,694.9005 3022.064,692.3005" id="Fill-20" fill="#045C89"></path>
                            <path d="M3022.064,692.3005 C3023.364,691.5005 3024.564,690.8005 3025.864,690.1005 C3027.364,689.3005 3028.764,689.7005 3028.964,691.3005 C3029.264,694.9005 3031.665,697.3005 3033.165,700.2005 C3035.264,704.2005 3031.564,707.2005 3031.464,710.9005 C3031.464,711.7005 3029.764,711.1005 3028.764,710.9005 C3025.364,710.1005 3021.764,711.1005 3019.264,713.5005 C3016.165,709.8005 3014.864,706.2005 3018.464,701.9005 C3020.665,699.1005 3019.364,694.9005 3022.064,692.3005 Z" id="Stroke-22" stroke="#045C89"></path>
                            <path d="M3238.1646,563.1008 C3241.2646,565.7008 3240.5636,569.2008 3240.0636,572.3008 C3238.9646,579.3008 3235.7646,585.4998 3232.3636,591.6008 C3230.1646,595.5008 3226.3636,595.7008 3221.2646,592.3008 C3226.4646,582.3008 3232.0636,572.6008 3238.1646,563.1008" id="Fill-24" fill="#045C89"></path>
                            <path d="M3238.1646,563.1008 C3241.2646,565.7008 3240.5636,569.2008 3240.0636,572.3008 C3238.9646,579.3008 3235.7646,585.4998 3232.3636,591.6008 C3230.1646,595.5008 3226.3636,595.7008 3221.2646,592.3008 C3226.4646,582.3008 3232.0636,572.6008 3238.1646,563.1008 Z" id="Stroke-26" stroke="#045C89"></path>
                            <path d="M3576.2642,741.3005 C3575.5642,744.2005 3574.4642,746.9005 3576.7642,749.8005 C3578.3642,751.8005 3575.2642,753.2005 3575.2642,755.2005 C3575.3642,760.2005 3574.5642,765.4005 3575.5642,770.2005 C3577.0642,777.1005 3574.9642,784.2005 3577.0642,791.0005 C3577.6642,793.0005 3575.6642,793.4005 3574.2642,793.8005 C3572.0642,794.5005 3572.1642,792.8005 3572.1642,791.5005 C3571.8642,782.8005 3572.1642,774.1005 3572.8642,765.4005 C3573.1642,762.1005 3574.2642,758.5005 3571.9642,755.3005 C3572.0642,751.7005 3572.3642,748.1005 3572.1642,744.6005 C3572.2642,741.4005 3573.2642,740.2005 3576.2642,741.3005" id="Fill-28" fill="#045C89"></path>
                            <path d="M3576.2642,741.3005 C3575.5642,744.2005 3574.4642,746.9005 3576.7642,749.8005 C3578.3642,751.8005 3575.2642,753.2005 3575.2642,755.2005 C3575.3642,760.2005 3574.5642,765.4005 3575.5642,770.2005 C3577.0642,777.1005 3574.9642,784.2005 3577.0642,791.0005 C3577.6642,793.0005 3575.6642,793.4005 3574.2642,793.8005 C3572.0642,794.5005 3572.1642,792.8005 3572.1642,791.5005 C3571.8642,782.8005 3572.1642,774.1005 3572.8642,765.4005 C3573.1642,762.1005 3574.2642,758.5005 3571.9642,755.3005 C3572.0642,751.7005 3572.3642,748.1005 3572.1642,744.6005 C3572.2642,741.4005 3573.2642,740.2005 3576.2642,741.3005 Z" id="Stroke-30" stroke="#045C89"></path>
                            <path d="M3598.7642,718.3005 C3603.5642,718.5005 3601.4642,714.0005 3602.6642,711.9005 C3604.4642,712.2005 3604.2642,713.4005 3604.1642,714.3005 C3603.7642,723.2005 3605.1642,732.1005 3603.4642,740.9005 C3603.0642,742.7005 3603.3642,745.7005 3601.0642,745.7005 C3599.0642,745.8005 3597.4642,743.6005 3597.1642,741.2005 C3599.4642,739.4005 3598.2642,736.9005 3598.3642,734.7005 C3598.7642,729.3005 3598.7642,723.8005 3598.7642,718.3005" id="Fill-32" fill="#045C89"></path>
                            <path d="M3598.7642,718.3005 C3603.5642,718.5005 3601.4642,714.0005 3602.6642,711.9005 C3604.4642,712.2005 3604.2642,713.4005 3604.1642,714.3005 C3603.7642,723.2005 3605.1642,732.1005 3603.4642,740.9005 C3603.0642,742.7005 3603.3642,745.7005 3601.0642,745.7005 C3599.0642,745.8005 3597.4642,743.6005 3597.1642,741.2005 C3599.4642,739.4005 3598.2642,736.9005 3598.3642,734.7005 C3598.7642,729.3005 3598.7642,723.8005 3598.7642,718.3005 Z" id="Stroke-34" stroke="#045C89"></path>
                            <path d="M3600.2642,670.5007 C3600.2642,671.7007 3600.4642,673.1007 3598.6642,673.4007 C3598.5642,672.0007 3597.6642,670.3007 3600.2642,670.5007" id="Fill-36" fill="#045C89"></path>
                            <path d="M3600.2642,670.5007 C3600.2642,671.7007 3600.4642,673.1007 3598.6642,673.4007 C3598.5642,672.0007 3597.6642,670.3007 3600.2642,670.5007 Z" id="Stroke-38" stroke="#045C89"></path>
                            <path d="M3642.1646,773.3005 L3641.2646,772.5005 C3641.9646,772.4005 3642.2646,772.6005 3642.1646,773.3005" id="Fill-40" fill="#045C89"></path>
                            <path d="M3642.1646,773.3005 L3641.2646,772.5005 C3641.9646,772.4005 3642.2646,772.6005 3642.1646,773.3005 Z" id="Stroke-42" stroke="#045C89"></path>
                            <path d="M3604.4644,753.9006 C3603.3634,753.9006 3602.3634,753.0006 3602.3634,751.9006 C3602.2644,750.9006 3602.2644,749.8006 3603.5644,749.6006 C3604.8634,749.4006 3605.1644,750.4006 3605.1644,751.5006 C3605.3634,752.4006 3605.1644,753.3006 3604.4644,753.9006" id="Fill-44" fill="#045C89"></path>
                            <path d="M3604.4644,753.9006 C3603.3634,753.9006 3602.3634,753.0006 3602.3634,751.9006 C3602.2644,750.9006 3602.2644,749.8006 3603.5644,749.6006 C3604.8634,749.4006 3605.1644,750.4006 3605.1644,751.5006 C3605.3634,752.4006 3605.1644,753.3006 3604.4644,753.9006 Z" id="Stroke-46" stroke="#045C89"></path>
                            <path d="M2706.3638,605.1008 C2705.9648,604.6008 2705.5638,604.3008 2705.4648,604.0008 C2705.3638,603.7008 2705.6648,602.9008 2705.9648,602.8008 C2706.6648,602.5008 2707.1648,603.1008 2707.0638,603.7008 C2707.0638,604.2008 2706.6648,604.6008 2706.3638,605.1008" id="Fill-48" fill="#045681"></path>
                            <path d="M2706.3638,605.1008 C2705.9648,604.6008 2705.5638,604.3008 2705.4648,604.0008 C2705.3638,603.7008 2705.6648,602.9008 2705.9648,602.8008 C2706.6648,602.5008 2707.1648,603.1008 2707.0638,603.7008 C2707.0638,604.2008 2706.6648,604.6008 2706.3638,605.1008 Z" id="Stroke-50" stroke="#045C89"></path>
                        </g>
                        <g id="Group-55" transform="translate(1220.000000, 191.000000)">
                            <mask id="mask-6" fill="white">
                                <use xlink:href="#path-5"></use>
                            </mask>
                            <g id="Clip-54"></g>
                            <path d="M321.464,5.101 C303.464,14.5 281.865,14.5 260.964,21.5 C257.965,22.301 255.165,23.101 252.365,23.9 C244.564,26.4 236.865,29.2 229.164,32.201 C210.564,39.7 191.764,46.001 173.265,53.8 C151.664,62.901 129.965,71.901 109.265,83.601 C94.465,92.101 79.365,100.401 65.965,111.701 C52.965,122.7 41.365,135.4 31.364,149.8 C18.865,168.1 9.764,189.001 4.865,211.3 C0.064,231.301 -0.936,252.301 2.064,272.701 C5.964,299.3 15.164,324.401 29.063,346.301 C42.365,367.5 59.365,384.901 77.764,400.5 C102.464,421.401 127.764,441.601 153.364,461.301 C178.764,480.901 204.264,500.001 231.664,516.2 C251.464,527.701 271.665,538.301 292.164,547.701 C318.964,559.9 346.565,569.101 374.264,577.8 C394.864,584.301 415.464,591.001 436.364,596.201 C453.164,600.401 470.365,600.601 487.265,603.001 C500.464,601.501 513.564,599.3 526.564,595.201 C541.264,590.1 554.063,579.101 562.064,564.301 C568.564,553.001 571.464,539.7 570.364,526.4 C568.964,505.4 560.164,486.4 557.064,465.701 C554.664,449.8 556.865,435.901 564.164,422.3 C573.164,405.401 585.864,392.301 597.764,378.301 C607.764,366.5 618.164,355.101 627.264,342.301 C637.765,327.7 646.964,311.3 648.764,292.9 C651.065,269.001 650.164,244.7 646.464,220.9 C644.564,208.501 641.464,196.701 637.365,185.601 C636.064,181.9 634.565,178.201 633.064,174.7 C631.964,171.7 630.864,168.8 629.564,166 C628.265,163.001 626.865,160.1 625.264,157.2 C617.464,145.701 610.265,132.2 601.664,120.601 C599.564,117.701 597.064,114.7 593.264,110.901 C579.686,99.305 566.601,84.763 550.014,79.248 C553.555,80.292 558.062,78.99 560.365,76.4 C561.564,73.701 557.965,73.701 556.764,73.701 L559.164,73.701 C560.365,72.301 560.365,72.301 561.564,71.001 C556.764,71.001 551.965,76.3 547.164,72.301 C523.064,44.101 491.865,23.9 461.064,8.001 C458.365,7.1 455.764,6.3 453.064,5.7 C445.264,4.001 437.164,3.401 428.764,3.9 C422.364,4.101 416.264,4.701 410.265,5.101 C399.294,5.577 388.003,4.086 376.802,2.596 C367.048,1.298 357.364,-7.10586104e-15 348.017,0.001 C338.744,0.001 329.803,1.279 321.464,5.101 Z M559.164,73.701 L563.965,73.701 L559.164,73.701 Z" id="Fill-53" fill="url(#radialGradient-7)" mask="url(#mask-6)"></path>
                        </g>
                    </g>
                </g>
            </g>
        </g>
    </g>
</svg>