<?xml version="1.0" encoding="UTF-8"?>
<svg width="1920px" height="798px" viewBox="0 0 1920 798" version="1.1" xmlns="http://www.w3.org/2000/svg" xmlns:xlink="http://www.w3.org/1999/xlink">
    <!-- Generator: Sketch 50 (54983) - http://www.bohemiancoding.com/sketch -->
    <title>layer8</title>
    <desc>Created with Sketch.</desc>
    <defs>
        <rect id="path-1" x="0" y="0" width="1920" height="1000"></rect>
        <polygon id="path-3" points="0.000168906327 0.676515264 3443.83109 0.676515264 3443.83109 913 0.000168906327 913"></polygon>
    </defs>
    <g id="Page-1" stroke="none" stroke-width="1" fill="none" fill-rule="evenodd">
        <g id="Artboard" transform="translate(-576.000000, -637.000000)">
            <g id="layer8" transform="translate(576.000000, 438.000000)">
                <mask id="mask-2" fill="white">
                    <use xlink:href="#path-1"></use>
                </mask>
                <g id="Mask"></g>
                <g id="layer9" mask="url(#mask-2)">
                    <g transform="translate(-1499.000000, 88.000000)">
                        <g id="Group-5" stroke-width="1" fill="none">
                            <mask id="mask-4" fill="white">
                                <use xlink:href="#path-3"></use>
                            </mask>
                            <g id="Clip-4"></g>
                            <path d="M3099.1779,415.030628 C3099.26236,416.719805 3097.82581,417.142099 3096.55901,417.142099 L3081.52719,417.142099 C3080.76627,413.172533 3084.56666,410.723227 3084.82002,407.091497 C3084.82002,406.246909 3086.17212,406.415827 3087.01665,406.415827 L3098.84009,406.415827 C3099.93714,409.202968 3099.009,412.159027 3099.1779,415.030628 Z M3069.11173,417.648852 C3064.04454,415.790757 3058.47148,415.706299 3053.31899,417.395475 C3051.88413,412.66578 3053.31899,408.35838 3053.91016,403.966521 C3056.44376,403.375309 3056.86602,405.48678 3058.04921,406.16245 C3061.76431,402.277344 3065.5647,406.753662 3069.11173,405.571238 L3069.11173,417.648852 Z M2766.93916,652.022117 C2767.10806,651.684282 2767.19167,651.430905 2767.27697,651.09307 L2767.36142,651.768741 C2767.19167,651.8532 2767.02277,651.937658 2766.93916,652.022117 Z M2763.64464,662.66393 C2763.64464,659.707871 2761.11105,658.694365 2760.85769,656.245059 C2762.88541,656.245059 2764.32111,655.569388 2765.419,654.386965 C2764.99674,656.836271 2766.17824,660.130165 2763.64464,662.66393 Z M2758.99972,655.484929 C2747.34518,653.035623 2730.96211,638.424245 2730.70791,628.880397 C2731.29908,628.964855 2731.9747,628.880397 2732.31336,629.133773 C2737.2961,633.187797 2742.36329,637.241821 2747.26157,641.380304 C2748.1061,642.140434 2749.20399,643.069481 2748.52837,644.58974 L2749.3729,645.603246 C2753.42665,644.082987 2756.80478,646.363375 2760.52072,647.292422 C2760.77408,650.501858 2756.72033,652.275494 2758.99972,655.484929 Z M2753.2569,672.967908 C2751.31532,673.812496 2749.96407,672.207779 2748.69728,670.603061 C2747.68384,669.251719 2746.33174,668.238213 2744.81159,667.562543 C2741.09649,665.788907 2740.84229,664.606484 2742.70026,660.636918 C2746.83931,664.606484 2752.24346,665.957825 2757.47956,667.984837 C2757.81822,671.025355 2755.19932,672.12332 2753.2569,672.967908 Z M2742.19438,675.75505 C2741.01119,674.657085 2740.33641,672.967908 2738.5629,672.630073 C2735.43813,672.12332 2734.7625,670.011849 2734.5083,666.633496 C2739.40743,670.68752 2743.46118,674.910461 2749.2876,677.782062 C2745.23385,680.315827 2743.71454,677.19085 2742.19438,675.75505 Z M2734.17133,708.187242 C2736.87383,703.119712 2740.42002,701.514994 2744.47462,703.626465 C2742.44774,708.440619 2738.22508,708.35616 2734.17133,708.187242 Z M2727.07642,681.329333 C2730.6243,682.342839 2732.14361,685.383357 2734.08603,687.748204 C2731.13017,686.481322 2726.40164,687.32591 2727.07642,681.329333 Z M2725.38736,702.612959 C2724.20586,697.967723 2724.29031,693.82924 2724.62812,688.592793 C2725.21845,693.744781 2726.65416,697.798805 2725.38736,702.612959 Z M2718.12523,702.612959 C2717.02734,702.021747 2716.43617,700.079194 2714.91601,701.177159 C2713.81727,702.021747 2714.7471,702.866336 2715.33828,703.626465 L2715.42273,704.302136 C2714.66181,704.133218 2715.42273,703.795383 2715.33828,703.626465 C2712.63577,703.879842 2710.35554,702.190665 2708.07446,701.177159 C2706.13288,700.33257 2705.37196,698.305558 2707.22993,695.941556 C2710.35554,692.140908 2713.81727,688.592793 2717.53406,685.384201 C2716.35087,691.633311 2719.39203,696.954217 2718.12523,702.612959 Z M2700.13671,693.660323 C2699.46024,694.927205 2698.02538,695.687335 2696.58967,695.518417 C2689.91703,694.58937 2683.24607,693.491405 2675.55999,692.224522 C2678.43224,690.281969 2680.12131,689.184004 2681.81037,687.917122 C2682.40154,687.579286 2683.24607,686.734698 2683.49943,686.903616 C2689.24225,690.113052 2692.19811,684.961063 2694.98422,682.25838 C2697.77117,679.555697 2701.06569,677.106391 2703.59929,674.065873 C2705.45726,671.616567 2708.66648,670.518602 2711.70595,671.194273 C2716.18281,678.542191 2709.51101,681.751627 2706.55515,686.312404 C2704.78163,689.099546 2701.65686,690.704263 2700.13671,693.660323 Z M2661.71052,673.728038 C2664.15881,677.106391 2665.67897,681.920545 2671.59069,680.315827 C2672.01296,678.711109 2672.94279,676.937473 2671.25372,675.332756 C2674.04068,672.714532 2678.60115,673.981414 2680.45827,670.434143 C2681.89398,667.73146 2684.00531,667.478084 2687.891,667.647002 C2680.62718,674.319249 2674.04068,680.315827 2668.63483,687.663745 C2664.07521,684.116474 2660.35842,676.599638 2661.71052,673.728038 Z M2656.72778,685.805651 C2660.61178,686.481322 2659.76725,690.281969 2661.79497,691.886687 C2658.50045,691.379934 2657.23365,689.184004 2656.72778,685.805651 Z M2680.37467,638.677621 C2682.6549,637.072904 2684.59732,635.637103 2684.68093,632.849962 C2684.76623,630.06282 2687.38343,628.795938 2687.8057,625.670961 C2688.90359,629.133773 2683.58304,638.08641 2680.37467,638.677621 Z M2651.23832,612.073089 C2650.98497,610.721747 2651.23832,609.285947 2651.8295,608.019064 C2654.19419,613.677806 2652.92739,619.758842 2655.46098,625.417584 C2657.48786,629.893903 2660.78069,633.779009 2662.13278,638.677621 C2662.80841,640.95801 2665.1731,639.52221 2666.18653,638.339786 C2675.98226,626.937843 2684.68093,614.522395 2692.11366,601.346817 C2692.45062,600.671146 2691.77584,599.488722 2693.46491,599.319805 C2694.39305,602.275864 2692.70398,604.640711 2691.60609,606.9211 C2688.56662,613.508889 2685.1885,619.92776 2681.81037,626.346632 C2678.93812,631.751997 2676.32091,637.241821 2672.94279,642.224892 C2670.40919,645.941081 2669.39575,649.910646 2668.72013,654.218047 C2668.21257,657.511941 2670.74616,658.440989 2673.19615,659.876789 L2669.0571,664.85986 C2664.66638,662.410554 2664.66638,657.174106 2663.98991,653.626835 C2662.89202,647.883634 2660.35842,643.069481 2657.57231,638.508704 C2654.61645,633.610091 2653.85553,628.289185 2652.92739,623.137196 C2652.33537,619.505466 2651.66059,615.789277 2651.23832,612.073089 Z M2662.13278,605.316382 C2658.83911,609.623782 2663.65294,611.397418 2665.00335,614.437936 C2666.35544,617.478454 2667.62224,621.279101 2672.43522,619.505466 C2672.52052,622.377066 2669.98693,623.390572 2669.1424,625.417584 C2667.7903,625.670961 2668.21257,623.812867 2667.53694,623.812867 C2664.15881,623.897325 2663.23067,622.461525 2664.32857,619.336548 C2664.58108,618.745336 2664.24411,618.238583 2663.65294,617.647372 C2659.68364,613.508889 2659.51389,608.103523 2658.41684,602.613699 C2660.44372,603.204911 2661.20295,604.387335 2662.13278,605.316382 Z M2671.25372,596.02591 C2673.70202,601.177899 2679.36038,604.978546 2678.34695,611.650794 C2675.64529,609.454865 2672.01296,608.863653 2670.4928,605.231923 C2669.64827,603.28937 2669.90163,601.515734 2669.56466,599.742099 C2668.21257,593.238768 2665.76427,587.157732 2665.342,580.401026 C2668.29786,585.215179 2668.80374,590.873921 2671.25372,596.02591 Z M2677.08015,585.13072 C2678.26334,587.411109 2680.03601,589.52258 2682.06373,591.127298 C2683.9217,592.647557 2686.11664,594.505651 2688.56662,591.634051 C2688.39772,593.998898 2686.45529,598.052922 2682.73851,603.796123 C2681.97928,597.208334 2676.15201,592.816474 2677.08015,585.13072 Z M2683.24607,550.333681 C2688.81998,552.614069 2691.01492,557.174846 2689.91703,563.593718 C2683.9217,561.144411 2680.96584,555.485669 2683.24607,550.333681 Z M2690.50905,588.593533 C2689.83342,581.921285 2681.30281,577.444966 2687.72209,569.759212 C2692.70398,570.857177 2694.90061,582.934791 2690.50905,588.593533 Z M2688.90359,624.741914 C2692.02836,621.954772 2690.00233,616.127113 2696.16741,613.762265 C2693.46491,618.238583 2692.11366,622.039231 2688.90359,624.741914 Z M2698.95436,650.501858 C2698.95436,648.728223 2700.72703,647.292422 2701.06569,645.687705 C2702.16274,640.282339 2706.89296,636.735068 2708.15976,630.316197 C2709.67991,634.792515 2708.75008,638.339786 2707.31523,641.380304 C2703.34593,649.995105 2697.34891,657.343024 2690.42459,664.184189 C2692.11366,660.214624 2696.92664,657.511941 2696.16741,652.022117 C2696.75858,651.515364 2699.03797,653.373459 2698.95436,650.501858 Z M2586.3783,660.214624 C2587.13753,656.329518 2595.75175,649.066058 2599.8055,648.390387 C2596.59628,653.626835 2591.10683,655.991682 2586.3783,660.214624 Z M2564.50408,669.842931 C2562.39275,670.265225 2562.05578,667.478084 2560.36672,668.407131 C2558.67766,669.337023 2559.60664,670.940896 2559.52219,672.207779 C2559.43689,674.150332 2559.52219,676.092885 2559.52219,678.119897 C2556.39742,678.457732 2554.28609,676.599638 2552.00586,675.586132 C2551.33023,675.248297 2550.4004,674.065873 2550.56931,673.728038 C2552.51173,669.674014 2549.47226,665.873366 2550.14704,661.735728 C2550.73906,657.765318 2549.47226,653.626835 2549.05,649.150517 C2554.62306,647.207964 2552.34367,641.211386 2554.3697,635.721562 C2556.39742,641.971516 2561.21125,645.180952 2562.81502,649.995105 C2563.49064,652.106576 2562.90032,656.1606 2561.37931,658.694365 C2560.45117,660.383542 2560.70369,661.650424 2560.45117,663.677436 C2561.46461,662.410554 2563.06838,662.917307 2563.74485,661.650424 C2561.54822,658.018694 2564.92635,655.907224 2566.5318,653.880212 C2569.2343,650.586317 2571.59899,655.569388 2575.06073,654.640341 C2571.6826,660.636918 2566.5318,664.437566 2564.50408,669.842931 Z M2547.44454,624.404078 C2552.59703,625.75542 2553.61047,630.569573 2549.81008,638.08641 C2549.97814,633.018879 2545.33321,629.38715 2547.44454,624.404078 Z M2557.57892,592.140804 C2553.1029,590.536086 2551.16133,586.144226 2546.68531,582.934791 C2551.6672,583.103708 2556.81969,588.002321 2557.57892,592.140804 Z M2552.59703,575.249037 C2550.90797,575.249037 2549.89453,573.55986 2548.28907,574.31999 C2547.69875,572.292978 2547.7832,570.097048 2548.54328,568.154495 C2549.81008,570.519342 2552.68064,571.870683 2552.59703,575.249037 Z M2566.02424,545.603986 C2556.9033,542.816844 2551.83611,535.468926 2547.27648,527.698713 C2556.05877,530.908149 2558.76211,540.789832 2566.02424,545.603986 Z M2570.5011,641.971516 C2567.45994,645.941081 2564.33518,645.941081 2562.30914,642.055975 C2561.21125,639.775586 2559.18438,637.917492 2558.67766,634.370221 L2570.5011,641.971516 Z M2571.09143,605.823135 C2572.78049,608.272441 2574.38595,610.046077 2577.76407,610.55283 C2582.66151,611.2285 2584.85814,615.789277 2587.30644,619.674384 C2578.43885,614.86023 2568.47422,611.481877 2563.06838,600.502228 C2566.70071,601.938028 2569.40237,603.373829 2571.09143,605.823135 Z M2581.98673,599.573181 C2579.45314,598.306299 2576.83509,597.884004 2576.49728,593.914439 C2579.45314,595.012404 2582.07034,595.603616 2581.98673,599.573181 Z M2599.55214,629.218232 C2594.73831,634.708056 2589.41776,636.735068 2586.4619,634.623597 C2588.32072,626.346632 2594.90722,631.329703 2599.55214,629.218232 Z M2535.19883,670.265225 C2530.13164,669.92739 2528.35897,664.606484 2523.79766,665.788907 C2526.50016,656.245059 2528.61149,647.207964 2534.77657,639.353292 C2535.95976,649.826188 2534.60851,659.961248 2535.19883,670.265225 Z M2529.62577,608.779194 C2529.03375,620.603431 2526.24764,631.920915 2522.3628,642.985022 C2523.46069,631.329703 2527.17578,620.181137 2529.62577,608.779194 Z M2509.69482,660.721377 C2507.83685,659.876789 2506.65366,658.694365 2507.66795,656.498435 C2508.68139,654.302506 2508.25912,651.599823 2509.01835,649.995105 C2511.12968,645.518787 2510.03179,640.620175 2512.39648,636.397233 C2513.1574,634.876974 2514.25445,634.45468 2516.11326,634.876974 C2514.84647,638.930998 2513.83218,643.069481 2512.22842,647.039046 C2510.96162,650.417399 2511.63725,654.049129 2516.87334,654.978176 C2515.52125,661.22813 2513.91748,662.495013 2509.69482,660.721377 Z M2439.68315,536.566891 C2435.5441,534.962173 2434.86848,530.485854 2433.01051,526.685207 C2438.16299,526.938583 2438.83862,530.908149 2440.61129,533.948667 C2442.55456,537.580397 2443.73606,541.718879 2446.86167,545.688445 C2442.13229,543.914809 2443.82136,538.171608 2439.68315,536.566891 Z M2423.04503,558.019435 C2428.95675,561.566706 2436.13527,563.255882 2440.18903,570.68826 C2431.99791,568.576789 2426.00089,565.367353 2423.04503,558.019435 Z M2422.37025,579.471978 C2422.2005,577.951719 2421.35597,576.684837 2422.37025,575.080119 C2424.14292,576.347002 2424.7341,578.62739 2427.68996,578.120637 C2425.57863,580.401026 2423.97486,578.880767 2422.37025,579.471978 Z M2436.13527,371.703246 C2435.71301,369.25394 2436.72729,367.902598 2438.66887,367.142469 C2438.2466,368.831645 2437.99409,370.520822 2436.13527,371.703246 Z M2439.00753,499.996215 C2440.27432,501.85431 2442.80792,503.205651 2441.96339,505.992793 C2441.45582,503.796863 2438.2466,502.783357 2439.00753,499.996215 Z M2446.77722,570.603801 C2446.52301,570.434883 2446.26965,570.350424 2446.10075,570.181507 C2446.26965,570.097048 2446.35495,569.92813 2446.4394,569.92813 C2446.69192,570.012589 2446.86167,570.181507 2447.03058,570.265965 C2446.94528,570.350424 2446.86167,570.519342 2446.77722,570.603801 Z M2450.49231,573.390942 L2449.31081,573.053107 C2449.98644,572.546354 2450.3234,572.715272 2450.49231,573.390942 Z M2452.9423,575.840249 C2452.01247,575.249037 2450.66206,574.99566 2450.57761,573.55986 C2451.92886,573.813237 2453.19566,574.066613 2452.9423,575.840249 Z M2460.37418,561.482247 L2454.378,557.766058 C2457.75613,557.259305 2459.19099,558.441729 2460.37418,561.482247 Z M2461.21871,561.735623 C2461.38761,561.904541 2461.55652,562.157917 2461.64097,562.326835 C2461.64097,562.411294 2461.55652,562.495753 2461.47122,562.580212 L2461.04896,562.073459 L2461.21871,561.735623 Z M2390.44696,562.918047 L2395.42885,558.526188 C2394.75322,560.806576 2392.81165,562.580212 2390.44696,562.918047 Z M2389.26377,585.553015 C2389.51713,581.752367 2389.51713,581.752367 2394.75322,579.725355 C2396.10532,585.299638 2395.17549,586.482062 2389.26377,585.553015 Z M2376.84915,530.316937 C2378.62351,526.854125 2379.97392,524.573736 2383.5218,522.631183 C2381.66298,526.093995 2381.15711,528.965595 2376.84915,530.316937 Z M2366.29335,593.82998 C2363.92782,594.083357 2363.25304,591.971886 2361.98624,590.789462 C2360.63499,589.438121 2359.5371,587.917862 2357.84804,586.819897 C2357.17157,586.397603 2356.58124,585.721932 2356.24343,584.961803 C2355.31444,582.850332 2356.24343,580.401026 2358.35475,579.388364 C2362.57741,577.360508 2366.71562,575.417954 2370.26181,572.377436 C2372.03617,570.942481 2373.72523,573.306484 2375.41429,572.292978 C2377.61008,570.942481 2380.31258,571.870683 2383.09953,569.759212 C2379.55165,580.06319 2369.16476,584.370591 2366.29335,593.82998 Z M2381.57937,508.273181 C2380.9882,510.469111 2379.63695,510.55357 2378.79242,511.398158 C2378.45461,509.371146 2380.39619,509.624522 2381.57937,508.273181 Z M2382.67727,495.519897 L2382.92978,495.773274 L2382.76087,496.02665 L2382.42391,495.773274 L2382.67727,495.519897 Z M2238.51487,514.945429 C2239.52915,512.496123 2239.95142,512.073829 2244.34298,510.722487 C2242.90728,512.66504 2240.8804,514.185299 2238.51487,514.945429 Z M2236.57329,570.857177 C2235.22204,569.843671 2235.39095,567.7322 2233.11071,567.309906 C2234.54642,565.452657 2235.64431,564.100471 2236.99556,565.452657 C2238.60017,567.05653 2237.75564,568.999083 2236.57329,570.857177 Z M2222.97633,521.533218 L2230.99938,513.087335 C2231.08384,516.29677 2227.11369,520.435253 2222.97633,521.533218 Z M2224.32758,546.279657 C2220.61165,545.941821 2219.68266,548.982339 2217.23352,550.418139 C2216.47344,548.22221 2214.1932,545.688445 2216.7268,543.999268 C2219.59821,542.225632 2219.51291,536.060138 2225.17212,538.002691 C2224.6654,540.95875 2222.0465,542.985762 2224.32758,546.279657 Z M2199.4139,552.022857 C2203.72101,553.120822 2205.57814,556.16134 2206.42267,560.215364 C2198.99164,559.117399 2198.99164,559.117399 2199.4139,552.022857 Z M2181.00311,548.22221 C2180.15858,553.036363 2177.45608,549.404633 2174.92248,549.066798 C2176.94936,542.563468 2180.91866,537.32702 2182.69217,531.077066 C2183.11444,536.989185 2182.01655,542.563468 2181.00311,548.22221 Z M1342.97437,39.6955677 C1341.36976,38.513144 1341.79203,37.0773438 1342.29875,35.472626 C1344.66344,34.965873 1345.0857,37.1618027 1346.77476,37.3307204 C1345.84493,39.3577324 1343.90336,38.6820617 1342.97437,39.6955677 Z M2031.43656,354.389185 L2032.02689,354.980397 L2031.26765,354.72702 L2031.43656,354.389185 Z M2270.86128,559.370776 C2275.16839,565.62073 2281.08011,568.999083 2287.49771,571.786225 C2280.99566,571.110554 2274.82973,569.421377 2269.34028,565.958565 C2269.08776,565.789647 2268.6655,565.705188 2268.6655,565.536271 C2268.24323,563.4248 2266.72223,562.242376 2264.52645,560.975494 L2270.86128,559.370776 Z M2287.16074,557.174846 C2291.21449,560.722117 2294.84598,564.438306 2295.69051,570.350424 C2290.0313,568.576789 2285.64058,565.113977 2279.98222,561.566706 C2284.03597,561.397788 2285.72503,559.370776 2287.16074,557.174846 Z M2280.57339,575.164578 C2284.37378,574.488907 2287.4141,575.417954 2290.53886,576.093625 C2287.4141,575.75579 2284.11958,578.965225 2280.57339,575.164578 Z M2283.86706,444.929055 C2286.40066,448.89862 2285.04941,453.628315 2287.66746,457.175586 C2282.43052,453.712774 2281.67128,451.09455 2283.86706,444.929055 Z M3397.46563,362.412774 L3304.31379,385.807871 L3255.07844,392.057825 L3192.41335,399.067908 L3171.55342,401.601673 L3146.13386,402.023967 L3154.24052,400.250332 L3200.60615,392.986872 L3248.4911,378.713329 L3311.57761,350.081784 L3348.4828,329.980582 L3425.92635,282.092422 L3443.83126,269.845891 L3443.83126,268.072256 L3420.69025,284.034976 L3390.79468,305.065225 L3337.16692,333.950147 L3290.12651,359.118879 L3204.65906,390.200575 L3170.79419,396.280767 L3126.20292,401.686132 L3113.44964,400.757929 L3115.39207,402.361803 L3106.10222,399.068753 L3084.48305,403.882062 L3083.55322,396.280767 L3067.76048,403.797603 L3051.37657,398.307779 L3047.82954,412.919157 L3055.34671,422.209629 L3066.15587,435.469666 L3061.00423,482.513237 L3054.75469,539.776326 L3045.29594,605.738676 L3040.81992,634.370221 L3039.63842,659.707871 L3026.63264,775.500933 L2986.60099,750.754495 L2953.4962,738.085669 L2950.8773,734.791775 L2947.41557,722.79862 L2943.86854,711.481137 L2939.13916,701.768371 L2929.84931,693.575864 L2927.06151,685.974569 L2912.87338,675.839509 L2895.98275,664.775401 L2894.63234,663.847199 L2874.95475,665.536375 L2864.65147,666.971331 L2862.70905,667.309166 L2853.08139,673.221285 L2844.63607,678.880027 L2834.50169,684.623227 L2829.94037,686.651084 L2825.80301,689.775216 L2822.25598,690.704263 L2809.67161,699.150147 L2802.91536,705.906854 L2797.93347,709.03183 L2792.69737,701.0927 L2790.50159,687.748204 L2791.51418,680.231368 L2791.34612,674.234791 L2800.55067,682.427298 L2788.81253,649.995105 L2794.97761,652.866706 L2797.84817,656.582894 L2795.48348,647.292422 L2791.09192,626.008796 L2790.66965,620.265595 L2789.40286,603.96504 L2793.28855,609.708241 L2797.42591,614.269018 L2796.75028,611.566336 L2790.66965,586.482062 L2788.64362,574.99566 L2785.94112,580.992237 L2784.67432,589.52258 L2774.96221,609.539323 L2776.65127,617.05616 L2770.31729,635.89048 L2767.19167,641.295845 L2761.78752,641.802598 L2760.77408,638.08641 L2760.01315,635.383727 L2753.3422,628.62702 L2733.07344,609.117029 L2737.2961,605.148309 L2734.93057,601.684652 L2730.96211,600.333311 L2723.52939,593.82998 L2727.58398,589.015827 L2728.68188,580.824164 L2714.7471,566.466163 L2712.12906,561.482247 L2704.35936,550.756819 L2701.82577,542.310936 L2699.37663,539.945244 L2696.58967,537.6657 L2692.62037,518.070406 L2696.25186,513.932768 L2699.9678,511.821297 L2698.61655,507.767273 L2694.14053,495.013989 L2696.33631,490.114532 L2700.13671,473.983739 L2701.74132,465.96015 L2697.94092,468.747291 L2691.60694,478.882351 L2676.91209,490.368753 L2682.73935,493.070591 L2670.49365,501.178639 L2666.94661,506.16171 L2671.08482,508.273181 L2659.00802,518.746921 L2658.07903,523.307698 L2662.30169,523.307698 L2667.70669,522.46311 L2662.72396,527.023887 L2647.35348,533.69529 L2642.20184,536.314359 L2640.93504,539.607409 L2643.72199,541.044053 L2654.78536,543.83035 L2645.83332,546.701951 L2635.69894,552.108161 L2633.41871,557.429067 L2641.69512,557.26015 L2639.9216,558.780409 L2618.4705,573.560705 L2617.11925,574.320834 L2610.02518,579.557282 L2610.70165,583.189012 L2613.82557,583.189012 L2619.73729,579.303905 L2635.86785,570.942481 L2638.31699,570.604645 L2630.54814,578.543776 L2604.19791,593.999743 L2598.79291,602.107791 L2607.99831,602.107791 L2618.21714,595.857837 L2621.08855,596.195672 L2620.83603,598.813896 L2614.75456,604.30372 L2596.17486,618.323887 L2596.25932,609.286792 L2590.5165,603.290214 L2596.42822,599.99632 L2593.72572,595.60446 L2581.31195,587.158577 L2568.81204,576.09447 L2561.46546,564.101315 L2562.64696,561.229715 L2578.60945,575.080964 L2576.24476,567.564127 L2588.57408,570.182351 L2592.20556,569.506681 L2591.7833,564.945904 L2588.23627,564.016856 L2585.87158,564.439151 L2568.30532,553.62842 L2567.71415,551.094655 L2573.45696,551.685867 L2573.2889,544.084571 L2579.95986,533.442758 L2551.58444,510.554414 L2560.28227,513.510473 L2553.86467,503.290954 L2559.86,503.62879 L2559.35413,498.56126 L2551.83695,489.524164 L2547.02312,484.456634 L2537.81857,470.014174 L2530.30139,455.318336 L2537.39631,458.69669 L2520.67373,426.517874 L2518.81661,428.882721 L2519.9145,432.429992 L2519.9145,459.118984 L2521.51911,466.466903 L2521.60356,468.07162 L2513.49606,488.510658 L2514.76286,500.081519 L2524.05271,486.821482 L2522.4481,492.902518 L2516.45192,511.905756 L2508.0066,529.304275 L2501.25035,537.074488 L2500.82809,540.5373 L2504.20621,541.128512 L2511.21582,535.976523 L2519.06997,531.246829 L2512.48262,538.42583 L2503.19277,547.969678 L2496.77433,554.810843 L2496.52013,559.202703 L2501.75707,560.722962 L2507.7524,557.513526 L2499.89826,569.253304 L2492.63613,576.178928 L2500.32052,576.516764 L2500.99615,580.907779 L2506.14863,579.388364 L2511.63809,575.249881 L2485.37231,608.188827 L2486.63911,611.144886 L2498.20919,603.036838 L2511.80615,593.915284 L2503.8684,607.428697 L2489.34161,628.796782 L2489.51136,632.089832 L2492.88949,632.005373 L2502.77051,630.063665 L2503.27638,630.485959 L2505.1352,644.083831 L2503.27638,645.688549 L2478.3627,642.479114 L2469.07285,629.641371 L2465.10355,620.350899 L2459.69939,605.232768 L2461.47207,604.050344 L2467.63715,596.026755 L2458.09394,593.324072 L2453.70238,590.620545 L2450.32425,581.584294 L2447.70705,580.824164 L2441.20331,578.205941 L2443.82136,574.151072 L2464.93465,589.185589 L2461.97879,584.79373 L2453.36541,576.263387 L2464.25902,581.753212 L2465.10355,583.104553 L2476.50473,590.790307 L2467.46909,581.077541 L2466.28674,574.405293 L2466.37035,569.92813 L2466.62455,566.381704 L2485.20425,578.881611 L2464.51323,557.429067 L2466.28674,551.854784 L2478.61606,549.658854 L2475.49214,543.408901 L2475.32323,543.746736 L2466.87791,545.689289 L2445.93353,524.067828 L2441.54196,514.777356 L2448.55158,514.017226 L2468.82034,527.699558 L2441.71087,485.723517 L2448.88939,487.581611 L2455.30783,500.588272 L2460.29057,501.010566 L2460.29057,496.449789 L2456.32127,489.017411 L2455.05447,485.976893 L2443.56884,462.32842 L2443.48439,462.243961 L2444.24447,460.048031 L2453.87128,466.129067 L2451.16963,453.966995 L2456.23682,453.206866 L2454.4633,449.151997 L2449.31166,442.142758 L2448.80494,441.382629 L2449.90283,441.550702 L2454.04188,442.311676 L2448.63603,431.922395 L2453.87213,431.754322 L2456.32127,434.541463 L2456.40572,434.625922 L2458.17924,434.541463 L2458.4326,432.766983 L2452.09861,417.902228 L2460.03721,421.02805 L2452.18306,405.403165 L2451.9297,405.233403 L2451.59189,403.038318 L2453.1965,404.643036 L2455.56119,401.010461 L2453.87213,395.352564 L2456.40572,390.622869 L2452.94314,378.207421 L2452.94314,360.302148 L2452.43642,357.008253 L2447.70789,357.430547 L2431.57649,368.156819 L2429.97273,369.508161 L2429.55046,372.548679 L2432.25212,372.970973 L2436.72898,371.957467 L2436.13696,373.477726 L2423.13118,384.879669 L2420.09086,389.86274 L2425.15805,391.720834 L2419.92196,396.957282 L2407.00062,405.994377 L2406.57836,410.385392 L2400.07546,413.173378 L2397.62632,418.408981 L2402.69351,418.240908 L2410.97076,417.734155 L2400.83638,427.362462 L2387.32388,434.457004 L2384.87389,438.595487 L2389.34991,439.10224 L2398.72506,437.750899 L2390.36335,444.592064 L2387.23858,447.8015 L2383.10122,453.882536 L2383.01592,454.980501 L2385.12725,456.331842 L2392.05241,454.135913 L2401.51117,452.531195 L2394.58601,457.683184 L2376.93529,468.662832 L2372.71264,472.632398 L2372.37482,475.75653 L2374.82397,477.023412 L2386.81632,478.374754 L2392.30577,478.037763 L2392.64358,477.784386 L2394.92466,478.460057 L2390.78561,483.442284 L2360.38247,508.189567 L2359.11568,512.665885 L2364.43623,513.257097 L2371.61475,506.415931 L2382.17139,498.223424 L2380.98989,501.179484 L2370.34795,510.216579 L2368.82779,513.932768 L2373.72607,514.439521 L2378.62436,511.56792 L2376.85084,513.510473 L2356.83544,528.206311 L2354.13294,533.104923 L2358.10224,535.976523 L2353.45732,539.523794 L2351.17708,545.942666 L2356.75099,545.60483 L2357.42661,545.858207 L2356.41318,548.476431 L2340.36708,562.665515 L2337.91878,569.337763 L2343.8305,569.422222 L2361.98793,559.202703 L2373.30381,553.712879 L2373.98028,554.810843 L2337.58012,579.219447 L2330.31799,578.96607 L2318.07228,582.851176 L2278.294,590.705848 L2266.63946,591.212601 L2263.5147,591.465978 L2255.91391,580.232953 L2260.30548,580.993082 L2268.58189,582.175506 L2286.06369,582.175506 L2296.19807,578.037023 L2299.15393,578.712694 L2297.54932,571.955987 L2300.67409,565.874951 L2303.03878,567.564127 L2306.16354,568.408716 L2307.51564,564.945904 L2302.19425,557.597985 L2292.9044,548.983184 L2281.92549,533.949511 L2280.91289,530.740076 L2282.68556,533.189382 L2290.28635,530.824534 L2300.42073,541.635265 L2302.44845,537.412323 L2296.02916,525.841463 L2286.99268,514.439521 L2285.81033,510.638873 L2280.15197,498.983554 L2286.48596,498.307883 L2289.94854,498.307883 L2293.74893,497.547754 L2295.6069,489.439706 L2295.94471,485.976893 L2293.1586,481.669493 L2290.20274,480.571528 L2284.71329,464.186514 L2293.66448,465.875691 L2296.70479,467.987162 L2300.92745,467.480409 L2300.25182,463.76422 L2297.29596,460.216949 L2290.2019,443.747476 L2298.22495,441.804923 L2294.67791,439.693452 L2292.39768,437.750899 L2290.11744,427.784756 L2289.61072,416.298355 L2294.17119,418.747661 L2293.1586,414.524719 L2292.39768,406.670048 L2291.72205,404.136283 L2290.3708,400.420094 L2290.62501,392.480964 L2289.61072,389.947199 L2287.16158,391.045163 L2276.60494,400.166718 L2273.48101,404.896412 L2277.95703,406.247754 L2274.07134,410.639613 L2269.59617,412.835543 L2265.28906,416.044978 L2268.9197,420.352379 L2253.97233,436.399558 L2248.73624,447.041371 L2252.19882,452.700113 L2244.00686,458.527772 L2240.37537,463.173008 L2236.99725,471.787809 L2236.32162,475.250621 L2240.12201,475.926292 L2245.35727,472.294562 L2250.00219,468.747291 L2246.2871,473.139151 L2231.25443,487.328235 L2226.27085,491.128882 L2226.01834,495.858577 L2233.19686,496.703165 L2235.39179,502.108531 L2215.88396,522.378651 L2206.50881,525.250251 L2194.09504,495.689659 L2198.14879,496.787624 L2202.4559,493.240353 L2197.97904,480.233693 L2194.60092,459.37236 L2197.38871,462.835173 L2202.54036,461.906126 L2202.62397,459.034525 L2197.30426,450.926477 L2192.57404,440.791417 L2189.11146,417.480779 L2188.35138,407.852472 L2184.21402,406.332212 L2179.82161,416.720649 L2178.04894,433.527957 L2170.19395,452.108901 L2170.19395,458.865607 L2176.02122,456.162925 L2174.33216,473.392527 L2170.61622,485.047846 L2169.51833,490.115376 L2175.43005,492.057929 L2170.95403,504.895672 L2170.53176,510.469955 L2175.85231,511.399002 L2164.28223,529.219817 L2166.2255,536.736653 L2171.71495,534.202888 L2179.99136,518.493545 L2182.10269,515.621944 L2167.49229,547.040631 L2158.11799,541.128512 L2157.10371,540.368383 L2135.65345,527.277263 L2124.92706,524.490122 L2116.39813,554.388549 L2097.81843,546.280501 L2052.80405,525.33471 L2031.86051,508.274026 L2029.07272,483.527587 L2039.03903,460.301408 L2042.50161,443.916394 L2035.06889,442.396135 L2023.92192,439.355617 L2018.77027,436.484016 L2008.12918,428.882721 L2005.68003,424.913156 L2005.17331,414.102425 L2006.1023,407.26126 L2011.33755,395.943776 L2024.76645,366.805478 L2027.63786,364.018336 L2057.11201,349.491417 L2059.73006,344.592805 L2054.57842,344.254969 L2032.19833,354.980397 L2037.60333,342.481334 L2040.05247,327.531275 L2042.33271,313.680027 L2034.81637,318.157189 L2017.50348,356.839336 L2004.15988,382.937115 L1996.39019,398.730917 L1995.12339,400.335635 L1984.8201,419.592249 L1954.1636,395.521482 L1949.09641,393.916764 L1945.71829,394.254599 L1934.99274,385.301963 L1924.94281,383.866163 L1914.47062,379.389844 L1912.95046,378.798632 L1893.01951,380.40335 L1883.3074,390.369493 L1877.22677,400.251176 L1871.48396,436.399558 L1867.09239,473.139151 L1865.91005,467.818244 L1861.8563,424.828697 L1870.72388,339.694192 L1874.77763,305.319447 L1887.10779,282.515561 L1897.15772,272.380501 L1879.42255,258.191417 L1876.80451,255.573193 L1870.30161,252.954969 L1866.33231,246.36718 L1866.24786,230.995672 L1866.07895,229.390954 L1862.86973,216.130917 L1858.22481,205.235728 L1855.69122,196.283091 L1849.44168,193.411491 L1844.62701,191.637855 L1838.20941,189.273008 L1814.81588,186.063572 L1802.73908,181.249419 L1793.11058,179.222407 L1777.8254,180.40483 L1767.69102,188.343961 L1764.3965,189.948679 L1747.1689,188.259502 L1740.07483,188.681796 L1729.68625,185.556819 L1728.5892,185.725737 L1715.41451,186.316949 L1713.89435,185.725737 L1706.37802,186.316949 L1700.21294,185.979114 L1696.41255,184.458854 L1692.94997,181.840631 L1684.67356,174.492712 L1698.35497,159.121204 L1700.55075,155.405015 L1696.07474,154.644886 L1687.29161,162.246181 L1683.23786,167.904923 L1682.05551,168.665052 L1682.39332,166.975876 L1686.27817,150.506403 L1682.56223,149.070603 L1681.21098,152.364497 L1679.85973,168.411676 L1671.66777,159.796875 L1664.82707,152.364497 L1653.17253,147.634803 L1640.58901,146.452379 L1632.90377,143.918614 L1617.11103,142.229437 L1594.89985,140.371343 L1565.93241,136.148401 L1542.45443,130.489659 L1537.4717,130.151824 L1520.1588,127.618059 L1510.19332,125.844423 L1499.55223,125.506588 L1499.55223,111.486422 L1497.01863,112.162092 L1493.04933,114.864775 L1493.13379,117.905293 L1483.92839,123.817411 L1477.34104,121.114729 L1475.56753,119.087717 L1461.63276,116.469493 L1458.59244,119.847846 L1448.62697,113.513434 L1446.09337,104.138503 L1459.09916,88.0913244 L1463.65963,74.9157463 L1452.08955,80.4900293 L1446.34673,78.4630173 L1446.17783,61.3178739 L1443.22197,63.1759683 L1441.78626,78.2096408 L1437.81696,103.462832 L1436.46571,105.405385 L1427.26032,98.8175964 L1426.92251,81.8413707 L1420.41961,75.8447934 L1419.65953,84.6285122 L1418.6461,93.6656075 L1416.95703,97.8885492 L1412.73437,93.918984 L1413.91672,75.0002051 L1412.73437,72.2130636 L1409.4407,73.1421107 L1406.40039,78.631935 L1399.22187,92.6521015 L1393.31015,87.0778184 L1392.63452,84.4595945 L1394.99921,64.7806861 L1393.64796,58.2773559 L1390.60765,80.0677352 L1386.80725,83.0237944 L1378.69975,71.7063105 L1384.27366,40.878836 L1383.34467,39.2741181 L1377.77076,71.2840164 L1373.63256,66.4698628 L1366.11623,56.2503438 L1362.65365,52.4496963 L1356.40411,42.2301773 L1350.07013,34.3755057 L1349.98567,30.0681052 L1347.9588,26.605293 L1346.01637,23.2269396 L1354.96841,4.13924302 L1354.6306,0.676430805 L1351.33692,1.09872498 L1343.9895,10.9804086 L1338.33114,23.8181514 L1334.53074,5.91287854 L1334.44629,21.8755982 L1318.90522,5.15190444 L1327.43499,18.7497768 L1331.57319,33.6989905 L1329.88413,28.2936251 L1328.10977,25.8443189 L1321.77578,25.6754012 L1322.11444,30.7429313 L1320.08672,36.4016732 L1316.37163,33.3611551 L1310.96662,21.8747537 L1303.02803,26.8578249 L1302.35156,29.3071311 L1300.66249,41.1313679 L1287.742,42.4827093 L1262.40605,46.7901098 L1255.6498,45.1009331 L1240.27848,44.5941801 L1226.09119,38.3442264 L1208.60854,39.2732735 L1190.62087,40.6246149 L1172.46344,41.4692032 L1154.55852,40.7935326 L1137.41537,37.5840969 L1121.45372,30.9118489 L1107.09669,19.7632828 L1099.58036,18.4119414 L1092.73965,23.9862245 L1086.82793,24.8308129 L1052.6244,13.0910349 L1047.05049,14.6957527 L1043.84127,16.5538471 L1040.80095,17.6518119 L1043.16564,19.678824 L1039.27995,20.2700358 L1042.99674,25.6754012 L1037.50728,19.4254475 L1035.73376,15.7937176 L1040.7165,16.8916824 L1030.24431,11.486317 L1018.42087,9.29038733 L1006.76548,23.6483892 L985.315225,20.5234123 L973.238423,43.8340506 L974.843033,35.8104613 L972.139687,42.3137916 L972.309438,35.979379 L970.113656,36.8239673 L967.917029,37.0773438 L960.908261,38.9354382 L945.453332,43.4962153 L930.251763,48.4792865 L915.2191,53.7157342 L900.186437,59.1210996 L885.06932,64.6109239 L880.002131,66.7223947 L875.103847,67.5669831 L870.543376,69.6784539 L866.489625,67.9892772 L859.226652,66.9757712 L851.794774,63.4285002 L844.278443,63.0906648 L836.677658,60.979194 L821.476088,60.8947352 L806.358972,63.4285002 L791.664122,68.8338656 L777.72935,77.3642079 L770.044112,79.8979729 L759.149654,80.3202671 L748.08629,80.5736436 L731.195657,80.3202671 L714.557539,79.3912199 L698.089172,77.786502 L649.360542,69.4250774 L633.229987,65.8778064 L617.099433,62.0771588 L600.968035,58.1075936 L588.807624,55.0670756 L576.646368,52.0265575 L568.116599,50.6752162 L559.502376,48.5637453 L550.8037,45.9455215 L542.020571,43.0739211 L534.757599,40.2023207 L530.197128,36.8239673 L520.231655,34.7124965 L522.426593,25.6754012 L495.149065,13.7667056 L461.705613,28.1247074 L454.611547,46.8745686 L456.216157,57.0940876 L455.456079,55.5738286 L454.864062,59.6278526 L446.504043,56.2494993 L434.342788,56.2494993 L422.857158,56.2494993 L406.050978,53.0400636 L389.329252,50.5062985 L372.691979,48.6482042 L356.139159,47.212404 L339.585494,46.1144391 L323.033519,45.2698508 L306.480699,44.5097213 L289.927879,43.6651329 L273.375059,42.6516269 L264.254117,41.7225797 L255.217628,40.2867796 L246.265593,38.2597675 L237.482464,35.7260025 L222.365348,30.2361783 L208.599482,22.5504243 L0.000168906327,97.0431163 L0.000168906327,913.00076 L3119.61472,902.8657 L3100.78167,787.071793 L3080.51291,791.717029 L3054.67109,797.966983 L3050.19507,797.292157 L3038.79389,786.142746 L3049.26524,663.592978 L3055.17696,624.657455 L3055.09251,616.802783 L3062.52523,575.333496 L3071.22306,503.96578 L3076.03774,452.699268 L3074.77094,446.702691 L3079.83813,426.179194 L3081.10493,423.307594 L3092.58971,421.449499 L3105.08962,417.226558 L3105.67995,416.550887 L3303.46926,470.773459 L3245.28188,472.800471 L3176.19834,457.344504 L3079.92174,426.263653 L3197.7339,466.466058 L3219.0161,470.857917 L3245.44994,474.743024 L3282.77824,474.827483 L3316.13724,471.955882 L3337.92615,469.675494 L3420.60664,461.145151 L3325.08927,467.732941 L3318.24856,468.49307 L3234.38742,453.037103 L3107.36902,415.537381 L3108.46691,414.18604 L3107.53792,409.79418 L3111.42277,404.811109 L3127.38442,403.797603 L3171.04755,403.29085 L3227.54587,397.125355 L3302.28692,388.172719 L3359.1239,376.939694 L3410.89453,359.879009 L3443.74596,350.081784 L3443.74596,347.548019 L3442.22581,348.308149 L3397.46563,362.412774 Z" id="Fill-3" fill="#013D6B" mask="url(#mask-4)"></path>
                        </g>
                        <path d="M2797.9333,656.582894 C2797.848,656.582894 2797.848,656.667353 2797.9333,656.582894" id="Fill-1" fill="#013D6B"></path>
                    </g>
                </g>
            </g>
        </g>
    </g>
</svg>