<?xml version="1.0" encoding="UTF-8"?>
<svg width="1917px" height="543px" viewBox="0 0 1917 543" version="1.1" xmlns="http://www.w3.org/2000/svg" xmlns:xlink="http://www.w3.org/1999/xlink">
    <!-- Generator: Sketch 50 (54983) - http://www.bohemiancoding.com/sketch -->
    <title>layer4</title>
    <desc>Created with Sketch.</desc>
    <defs>
        <rect id="path-1" x="0" y="0" width="1920" height="1000"></rect>
        <polygon id="path-3" points="1112.2 2.799 1090 6.9 1051.799 15.9 1027.7 25.2 994.4 42.9 969.099 62.4 948.4 85.4 939.7 89.8 929.8 91.199 923.2 95.5 913 100 895 104.1 892.1 105.2 876.299 108.299 871 108.6 867 108.8 856.599 110.4 854.5 110.5 832.3 113.5 829 104.699 829 27.199 821.7 17.9 791.1 12.1 743.3 10.5 705.901 15.9 691.099 18.4 683.7 19.7 658.1 25.2 634.3 29 611.401 29.799 606.901 30.4 602.9 30.9 587.8 29.899 543.4 23.6 510.9 16.5 475.5 11 456.799 10.199 411.701 7.9 362.201 7 313.3 6.1 297.2 7.9 280.7 10.199 248.2 16.9 201 33.3 179.8 39.799 155.8 47.5 121.8 57 88.9 68.9 60 84.699 44.2 96.699 35.5 104.5 16.5 129.1 0.9 286.6 524.5 368.4 1487.5 400.699 1760 387.7 1733 175.799 1732.099 173.6 1732.099 112.699 1731.7 89 1712.299 85.699 1683.8 79.6 1669.2 75.3 1643.6 67.6 1610.3 55.7 1578.6 45.5 1559.599 40.2 1528.3 32.9 1504.5 29.3 1485.1 27.299 1442.4 25.6 1368.401 24.699 1347.799 22.9 1335.2 21.9 1313.1 19.4 1294.7 16.2 1277.3 13.4 1253.1 8.7 1241.599 7.2 1233.599 6.2 1209.8 3.5 1193.9 1.199 1191.901 1 1141.9 0.199"></polygon>
        <linearGradient x1="49.9999972%" y1="74.5371628%" x2="49.9999972%" y2="24.0625973%" id="linearGradient-5">
            <stop stop-color="#0797CD" offset="0%"></stop>
            <stop stop-color="#0890C3" offset="100%"></stop>
        </linearGradient>
        <polygon id="path-6" points="0 0.8 2922.9998 0.8 2922.9998 606.6997 0 606.6997"></polygon>
    </defs>
    <g id="Page-1" stroke="none" stroke-width="1" fill="none" fill-rule="evenodd">
        <g id="Artboard" transform="translate(-710.000000, -830.000000)">
            <g id="layer4" transform="translate(707.000000, 373.000000)">
                <mask id="mask-2" fill="white">
                    <use xlink:href="#path-1"></use>
                </mask>
                <g id="Mask"></g>
                <g id="layer5" mask="url(#mask-2)">
                    <g transform="translate(3.000000, 457.000000)">
                        <g id="Group-3" transform="translate(270.000000, 206.000000)">
                            <mask id="mask-4" fill="white">
                                <use xlink:href="#path-3"></use>
                            </mask>
                            <g id="Clip-2"></g>
                            <polygon id="Fill-1" fill="url(#linearGradient-5)" mask="url(#mask-4)" points="1112.2 2.799 1090 6.9 1051.799 15.9 1027.7 25.2 994.4 42.9 969.099 62.4 948.4 85.4 939.7 89.8 929.8 91.199 923.2 95.5 913 100 895 104.1 892.1 105.2 876.299 108.299 871 108.6 867 108.8 856.599 110.4 854.5 110.5 832.3 113.5 829 104.699 829 27.199 821.7 17.9 791.1 12.1 743.3 10.5 705.901 15.9 691.099 18.4 683.7 19.7 658.1 25.2 634.3 29 611.401 29.799 606.901 30.4 602.9 30.9 587.8 29.899 543.4 23.6 510.9 16.5 475.5 11 456.799 10.199 411.701 7.9 362.201 7 313.3 6.1 297.2 7.9 280.7 10.199 248.2 16.9 201 33.3 179.8 39.799 155.8 47.5 121.8 57 88.9 68.9 60 84.699 44.2 96.699 35.5 104.5 16.5 129.1 0.9 286.6 524.5 368.4 1487.5 400.699 1760 387.7 1733 175.799 1732.099 173.6 1732.099 112.699 1731.7 89 1712.299 85.699 1683.8 79.6 1669.2 75.3 1643.6 67.6 1610.3 55.7 1578.6 45.5 1559.599 40.2 1528.3 32.9 1504.5 29.3 1485.1 27.299 1442.4 25.6 1368.401 24.699 1347.799 22.9 1335.2 21.9 1313.1 19.4 1294.7 16.2 1277.3 13.4 1253.1 8.7 1241.599 7.2 1233.599 6.2 1209.8 3.5 1193.9 1.199 1191.901 1 1141.9 0.199"></polygon>
                        </g>
                        <g id="Group-9">
                            <path d="M1767.0996,606.6996 C1733.0996,605.5996 1699.0996,604.3996 1665.2006,603.2996 C1584.9996,600.5996 1504.7006,597.8996 1424.4996,595.1996 C1329.2006,591.9996 1233.8006,588.7996 1138.4996,585.5996 C1058.8006,582.8996 979.2006,580.1996 899.4996,577.5996 C875.9006,576.7996 852.2006,575.9996 828.6006,575.1996 C821.1006,574.8996 810.6006,574.9996 804.2996,574.3996 C786.7006,572.5996 769.1006,568.8996 751.7006,566.1996 C712.9996,560.1996 674.3006,554.0996 635.7006,548.0996 C545.5996,533.9996 455.4996,519.9996 365.4996,505.8996 C339.9006,501.8996 314.4006,497.8996 288.8006,493.8996 C287.3006,493.6996 283.4006,493.8006 282.2006,492.8996 C280.5996,491.8006 281.9006,493.3006 281.3006,490.6996 C280.2006,485.8996 282.4996,478.3006 282.9996,473.3996 C283.9996,463.5996 284.9006,453.6996 285.9006,443.8996 C288.2006,420.4996 290.4996,397.0996 292.8006,373.6996 C293.7006,364.8996 294.4996,356.0996 295.4006,347.3006 C295.7006,343.8006 295.3006,338.5996 296.5996,335.1996 C297.3006,333.3006 299.4006,331.3996 300.5996,329.8996 C304.0996,325.3996 307.5996,320.8006 311.0996,316.3006 C315.2006,310.9996 319.5996,306.4996 324.9006,302.1996 C338.0996,291.3996 352.9006,282.3996 368.4006,275.1996 C396.8006,261.8996 428.9006,255.5996 458.7006,246.1996 C472.9996,241.6996 487.2006,237.1996 501.4006,232.1996 C517.9006,226.3996 533.2006,221.8006 550.3006,218.3006 C564.4996,215.3996 578.9006,213.6996 593.3006,211.9996 C587.0996,211.9996 580.9006,211.9996 574.7006,212.0996 C605.5996,212.6996 636.4996,213.3006 667.4996,213.8996 C673.2006,213.9996 673.5996,214.0996 680.0996,214.3996 C690.2006,214.8996 700.2996,215.3996 710.4006,215.8996 C723.4996,216.5996 736.1006,217.0996 748.9996,219.0996 C764.9006,221.5996 780.3006,224.4996 795.9996,227.9996 C810.4996,231.1996 825.3006,232.6996 839.9006,234.8006 C854.7006,236.8996 870.1006,237.9996 884.9996,236.5996 C899.7006,235.1996 914.2006,234.9996 928.8006,232.5996 C943.7006,230.1996 958.3006,226.4996 973.1006,223.8996 C989.8006,221.0996 1006.4996,218.8006 1023.3006,216.3996 L1003.7006,216.3996 C1016.8006,216.8006 1029.9006,217.3006 1042.9996,217.6996 C1054.1006,218.0996 1064.7006,220.5996 1075.9006,222.6996 C1082.1006,223.8996 1083.4996,225.2996 1087.3006,230.8996 C1089.4006,233.9996 1089.1006,235.3006 1089.1006,239.1996 L1089.1006,284.6996 L1089.1006,306.7996 C1089.1006,311.4996 1090.7006,314.8996 1092.4006,319.3996 C1092.8006,320.4996 1110.4996,319.6996 1112.4006,319.3996 C1133.2006,316.5996 1154.9006,315.6996 1175.1006,309.9996 C1186.2006,306.8996 1196.7006,305.7996 1206.4996,299.2996 C1211.1006,296.2996 1215.8006,296.9996 1220.8006,295.0996 C1225.9006,293.1996 1228.8006,290.8996 1232.3006,286.9996 C1240.1006,278.3006 1247.2006,269.6996 1256.4996,262.5996 C1265.3006,255.8996 1273.4006,249.3996 1283.1006,244.1996 C1303.6006,233.1996 1323.2006,223.7996 1345.9006,218.3996 C1359.3006,215.2996 1372.4996,212.2996 1385.9996,209.7996 C1397.8006,207.5996 1409.9006,207.0996 1421.9006,206.0996 C1415.7006,206.0996 1409.4996,206.0996 1403.3006,206.1996 C1422.2006,206.4996 1442.3006,205.4996 1460.2006,208.0996 C1478.2006,210.6996 1496.4006,211.8996 1514.3006,214.9996 C1552.3006,221.4996 1589.8006,228.5996 1628.4006,230.6996 C1649.2016,231.7996 1670.2016,231.2996 1691.1006,231.4996 C1695.2016,231.5996 1699.4006,231.5996 1703.4996,231.6996 C1704.6006,231.6996 1707.7006,231.8996 1702.8006,231.6996 C1704.4996,231.7996 1706.2006,231.7996 1707.8006,231.8996 C1719.8006,232.3996 1731.9006,232.6996 1743.9996,233.3996 C1779.9996,235.5996 1815.8006,244.3996 1850.3006,255.3996 C1887.6006,267.3006 1923.9006,281.4996 1962.2006,289.6996 C1965.8006,290.4996 1969.4006,291.3006 1972.9996,291.9996 C1975.7006,292.4996 1978.4006,292.8996 1981.1006,293.3996 C1983.1006,293.6996 1989.4996,293.6996 1990.9006,295.0996 C1992.7016,296.8996 1991.8006,303.3006 1991.8006,306.1996 C1991.9006,310.4996 1991.9996,314.8006 1991.9996,319.0996 C1992.1006,329.1996 1991.9996,339.1996 1991.9996,349.3006 C1991.9996,358.9996 1990.6006,369.9996 1991.9996,379.6996 C1997.6006,417.5996 2002.3006,455.8996 2007.2006,493.9996 C2010.4006,518.9996 2013.6006,544.0996 2016.8006,569.0996 C2017.7006,576.1996 2018.6006,583.3006 2019.4996,590.3006 C2019.9996,593.8996 2020.7006,592.9996 2018.4996,593.8996 C2014.4006,595.4996 2007.1006,594.3996 2002.8006,594.6996 C1993.2006,595.1996 1983.6006,595.5996 1973.9996,596.0996 C1947.8006,597.3996 1921.6006,598.5996 1895.4006,599.8996 C1848.9006,602.0996 1802.3006,604.3996 1755.8006,606.5996 C1753.1006,606.6996 1750.4006,606.8996 1747.7006,606.9996 C1752.5996,606.4996 1761.0996,606.9996 1767.0996,606.6996 C1846.7996,602.8996 1926.4996,599.0996 2006.2006,595.2996 C2017.4006,594.7996 2028.4996,594.1996 2039.7006,593.6996 L2040.0996,593.6996 C2033.9996,545.5996 2027.7996,497.5996 2021.7006,449.4996 C2018.9006,427.8996 2016.9996,405.9996 2013.4006,384.4996 C2010.2006,365.1996 2012.0996,344.3006 2012.0996,324.5996 L2012.0996,316.4996 C2012.0996,312.9996 2011.9996,309.4996 2011.9006,306.0996 C2011.9006,303.8996 2012.7996,297.9996 2011.7006,296.0996 C2010.2006,293.2996 2000.7006,293.2996 1997.0996,292.6996 C1992.7006,291.8996 1988.2996,290.9996 1983.9006,290.0996 C1962.7996,285.5996 1941.7996,280.0996 1921.2996,272.9996 C1878.2996,257.9996 1835.7996,243.2996 1790.5996,236.3996 C1745.9006,229.5996 1699.5996,231.3996 1654.4996,230.8996 C1651.4996,230.8996 1648.4996,230.8006 1645.4006,230.8006 C1646.4006,230.8006 1647.4006,230.8006 1648.2996,230.8996 C1629.5996,229.3006 1610.6996,228.1996 1592.0996,225.4996 C1572.4996,222.5996 1552.9996,218.3996 1533.4996,215.0996 C1514.7996,211.8996 1495.6996,210.4996 1476.8996,207.8996 C1458.4996,205.3996 1439.1996,206.5996 1420.6996,206.3996 C1399.4996,206.0996 1378.4996,207.7996 1357.6996,211.6996 C1339.8996,214.9996 1321.2996,218.3996 1304.3996,224.8996 C1287.0996,231.5996 1269.5996,239.2996 1253.8996,249.4996 C1245.4996,254.9996 1236.3996,261.7996 1228.9996,268.5996 C1221.6996,275.2996 1216.4996,284.5996 1208.8996,290.8996 C1205.9996,293.2996 1201.8996,295.1996 1198.1996,296.1996 C1195.4996,296.8996 1192.1996,296.4996 1189.4996,297.4996 C1187.0996,298.3996 1185.1996,300.5996 1182.8996,301.8006 C1173.3996,306.8996 1162.7996,308.3996 1152.4996,311.0996 C1142.6996,313.6996 1132.8996,313.9996 1122.9996,315.5996 C1112.6996,317.1996 1102.2996,318.3996 1091.9996,319.8006 L1111.9996,319.8006 C1110.6996,316.3006 1109.0996,312.9996 1108.6996,309.3006 C1108.1996,304.1996 1108.6996,298.8006 1108.6996,293.6996 L1108.6996,247.3006 C1108.6996,243.4996 1109.6996,237.9996 1108.6996,234.3006 C1107.9996,231.5996 1103.8996,225.8996 1101.4996,224.3996 C1097.5996,222.0996 1090.4996,222.0996 1085.9996,221.1996 C1080.8996,220.1996 1075.6996,218.7996 1070.4996,218.1996 C1058.4996,216.8996 1045.9996,217.3996 1033.8996,216.9996 C1023.0996,216.6996 1012.0996,215.6996 1001.3996,216.8996 C979.7006,219.1996 957.5996,222.8006 936.2006,227.3996 C922.8996,230.1996 909.7006,232.9996 896.2006,234.8006 C885.2996,236.3006 873.7006,235.8996 862.5996,236.9996 L882.2006,236.9996 C862.7006,235.8006 843.0996,233.1996 823.7006,229.8996 C806.2996,226.8996 789.3996,222.4996 771.8996,219.8006 C735.3996,214.1996 697.7006,214.1996 660.7996,213.4996 C641.8996,213.0996 622.9996,212.8006 604.0996,212.3996 C583.8996,211.9996 564.4996,212.9996 544.4996,215.8006 C507.9996,220.8006 474.1996,235.0996 439.2996,245.9996 C405.0996,256.6996 368.4996,263.9996 336.8996,281.3006 C321.4996,289.6996 305.4996,298.5996 293.8996,312.0996 C289.9996,316.5996 286.4996,321.5996 282.8996,326.3006 C280.8996,328.8996 277.1996,332.1996 275.9996,335.1996 C274.4996,339.0006 274.9996,345.3006 274.5996,349.3996 C269.9996,395.5996 265.4996,441.8006 260.8996,487.9996 C260.6996,490.0996 259.9996,491.8006 261.1996,492.8006 C262.3996,493.8006 267.0996,493.6996 268.5996,493.9996 C280.6996,495.8996 292.6996,497.8006 304.7996,499.6996 C404.0996,515.1996 503.3996,530.6996 602.6996,546.1996 C647.2996,553.1996 691.8996,560.0996 736.4996,567.0996 C752.4996,569.5996 768.7996,573.1996 784.9006,574.5996 C799.2996,575.8006 813.9006,575.5996 828.2996,576.0996 C862.2996,577.1996 896.2996,578.3996 930.2996,579.4996 C1031.5996,582.8996 1132.9996,586.3006 1234.2996,589.6996 C1340.2006,593.3006 1446.0996,596.8006 1551.9006,600.3996 C1614.0996,602.4996 1676.4006,604.5996 1738.5996,606.6996 C1741.4996,606.8006 1744.4006,606.8996 1747.2996,606.9996 C1753.7996,606.8996 1762.4006,606.4996 1767.0996,606.6996" id="Fill-4" fill="#0191C5"></path>
                            <g id="Group-8">
                                <mask id="mask-7" fill="white">
                                    <use xlink:href="#path-6"></use>
                                </mask>
                                <g id="Clip-7"></g>
                                <polygon id="Fill-6" fill="#0891C4" mask="url(#mask-7)" points="2922.7998 236.7997 2922.6998 193.1997 2922.4998 193.0997 2922.1998 191.0997 2921.6998 188.1997 2920.9998 186.0997 2920.5998 185.0997 2913.4998 185.3997 2907.9008 185.3997 2906.4008 187.0997 2900.2998 193.3997 2896.4008 193.7997 2887.1998 194.0997 2884.5998 174.2997 2878.2998 168.2997 2850.4008 169.3997 2826.4008 169.3997 2817.5998 171.3997 2817.5998 186.8997 2816.7998 192.1997 2812.5998 195.3997 2795.5998 195.3997 2791.5998 191.9997 2790.6998 176.1997 2789.2998 160.9997 2780.2998 161.4997 2755.2998 161.3997 2747.4008 154.0997 2746.1998 129.7997 2744.7998 109.4997 2743.9008 108.3997 2738.1998 108.3997 2733.0998 105.3997 2730.0998 98.2997 2720.5998 98.2997 2715.4998 103.5997 2710.4998 108.2997 2692.4008 109.8997 2692.9008 150.0997 2670.6998 148.7997 2670.1998 151.4997 2664.2998 157.2997 2636.2998 157.2997 2631.7998 158.0997 2631.1998 160.7997 2624.9008 165.2997 2616.1998 165.2997 2613.7998 174.5997 2612.0998 180.6997 2606.9008 188.5997 2602.7998 189.7997 2597.2998 165.8997 2590.9998 166.3997 2587.4008 163.4997 2585.9998 151.1997 2578.4008 144.3997 2573.2998 139.3997 2573.2998 112.3997 2570.6998 100.3997 2563.9008 100.3997 2559.6998 98.1997 2552.4998 94.3997 2547.9998 94.1997 2541.5998 97.9997 2537.1998 101.3997 2526.7998 100.5997 2525.7998 108.0997 2518.9998 110.7997 2518.4008 111.4997 2518.9008 187.5997 2505.1998 185.6997 2505.1998 138.9997 2504.9008 137.4997 2504.5998 137.0997 2504.1998 136.7997 2430.2998 137.2997 2430.9008 149.0997 2428.9998 152.2997 2421.1998 153.4997 2415.5998 157.5997 2410.0998 173.8997 2404.9008 178.6997 2394.5998 179.5997 2389.4008 175.0997 2388.2998 116.2997 2387.1998 113.6997 2378.6998 111.1997 2378.6998 98.8997 2377.6998 72.3997 2371.1998 70.3997 2365.7998 66.5997 2359.2998 50.3997 2345.1998 50.3997 2340.0998 54.6997 2335.9998 68.2997 2331.4008 72.5997 2320.2998 73.7997 2320.2998 78.7997 2320.2998 104.7997 2314.9998 110.1997 2287.6998 109.3997 2248.4008 108.1997 2244.1998 105.0997 2239.6998 89.9997 2226.2998 63.7997 2219.5998 58.7997 2211.9998 59.3997 2203.9998 68.1997 2193.4008 95.2997 2185.5998 128.6997 2182.2998 132.3997 2173.1998 133.7997 2172.6998 135.4997 2171.4998 176.2997 2171.5998 182.7997 2170.2998 192.5997 2167.9998 194.8997 2162.9998 195.2997 2153.9008 195.9997 2141.9008 198.6997 2133.0998 191.6997 2133.0998 190.6997 2134.0998 180.0997 2125.0998 178.2997 2098.5998 178.2997 2093.9998 177.2997 2091.7998 171.5997 2089.7998 163.2997 2088.4998 174.7997 2087.4998 178.0997 2086.1998 183.2997 2082.6998 195.7997 2077.4998 189.4997 2081.0998 187.7997 2074.5998 174.0997 2068.2998 160.3997 2066.9998 178.5997 2061.4008 179.2997 2054.1998 174.4997 2053.5998 168.0997 2052.7998 165.8997 2051.4998 162.4997 2050.2998 160.0997 2047.2998 167.0997 2041.9008 182.7997 2041.6998 185.6997 2044.2998 185.8997 2038.5998 197.2997 2041.9008 199.2997 2040.6998 203.2997 2043.4998 203.4997 2041.9008 208.4997 2041.0998 208.6997 2038.0998 206.1997 2033.7998 198.7997 2032.2998 192.6997 2027.7998 184.0997 2022.4008 181.4997 2018.9998 181.9997 2000.4008 182.5997 1977.2998 182.7997 1973.5998 180.5997 1973.4998 143.5997 1973.2998 143.4997 1972.9998 141.4997 1972.4998 138.5997 1971.7998 136.4997 1971.4008 135.4997 1964.2998 135.7997 1958.6998 135.7997 1957.1998 137.4997 1951.0998 143.7997 1947.1998 144.1997 1937.9998 144.4997 1935.4008 124.6997 1929.0998 118.6997 1901.1998 119.7997 1877.1998 119.7997 1868.4008 121.7997 1868.4008 137.2997 1867.5998 142.5997 1863.4008 145.7997 1846.4008 145.7997 1842.4008 142.3997 1841.4998 126.5997 1840.0998 111.3997 1831.0998 111.8997 1806.0998 111.7997 1798.1998 104.4997 1796.9998 80.1997 1795.5998 59.8997 1794.6998 58.7997 1788.9998 58.7997 1783.9008 55.7997 1780.9008 48.6997 1771.4008 48.6997 1766.2998 53.9997 1761.2998 58.6997 1743.1998 60.2997 1743.6998 100.4997 1721.4998 99.1997 1720.9998 101.8997 1715.0998 107.6997 1687.0998 107.6997 1682.5998 108.4997 1681.9998 111.1997 1675.6998 115.6997 1666.9998 115.6997 1664.5998 124.9997 1662.9008 131.0997 1657.6998 138.9997 1653.5998 140.1997 1648.0998 116.2997 1641.7998 116.7997 1638.1998 113.8997 1636.7998 101.5997 1629.1998 94.7997 1624.0998 89.7997 1624.0998 62.7997 1621.4998 50.7997 1614.6998 50.7997 1610.4998 48.5997 1603.2998 44.7997 1598.7998 44.5997 1592.4008 48.3997 1587.9998 51.7997 1577.5998 50.9997 1576.5998 58.4997 1569.7998 61.1997 1569.1998 61.8997 1569.6998 137.9997 1555.9998 136.0997 1555.9998 89.3997 1555.6998 87.8997 1555.4008 87.4997 1554.9998 87.1997 1481.0998 87.6997 1481.6998 99.4997 1479.7998 102.6997 1471.9998 103.8997 1466.4008 107.9997 1460.9008 124.2997 1455.6998 129.0997 1445.4008 129.9997 1440.1998 125.4997 1439.0998 66.6997 1437.9998 64.0997 1429.4998 61.5997 1429.4998 49.2997 1428.4998 22.7997 1421.9998 20.7997 1416.5998 16.9997 1410.0998 0.7997 1395.9998 0.7997 1390.9008 5.0997 1386.7998 18.6997 1382.1998 22.9997 1371.0998 24.1997 1371.0998 29.1997 1371.0998 55.1997 1365.7998 60.5997 1338.4998 59.7997 1299.1998 58.5997 1294.9998 55.4997 1290.4998 40.3997 1277.0998 14.1997 1270.4008 9.1997 1262.7998 9.7997 1254.7998 18.5997 1244.1998 45.6997 1236.4008 79.0997 1233.0998 82.7997 1223.9998 84.1997 1223.4998 85.8997 1222.2998 126.6997 1222.4008 133.1997 1221.0998 142.9997 1218.7998 145.2997 1213.7998 145.6997 1204.6998 146.3997 1192.6998 149.0997 1183.9008 142.0997 1183.9008 141.0997 1184.9008 130.4997 1175.9008 128.6997 1149.4008 128.6997 1144.7998 127.6997 1142.5998 121.9997 1140.5998 113.6997 1139.2998 125.1997 1138.2998 128.4997 1136.9998 133.6997 1133.4998 146.1997 1128.2998 139.8997 1131.9008 138.1997 1125.4008 124.4997 1119.0998 110.7997 1117.7998 128.9997 1112.1998 129.6997 1104.9998 124.8997 1104.4008 118.4997 1103.5998 116.2997 1102.2998 112.8997 1101.0998 110.4997 1098.0998 117.4997 1092.6998 133.1997 1092.4998 136.0997 1095.0998 136.2997 1089.4008 147.6997 1092.6998 149.6997 1091.4998 153.6997 1094.2998 153.8997 1092.6998 158.8997 1091.9008 159.0997 1088.9008 156.5997 1084.5998 149.1997 1083.0998 143.0997 1078.5998 134.4997 1073.1998 131.8997 1069.7998 132.3997 1051.1998 132.9997 1028.0998 133.1997 1023.9008 130.6997 1020.1998 126.8997 1014.6998 123.3997 1008.6998 123.3997 1006.4998 126.6997 1003.9998 129.6997 993.7998 131.0997 987.4998 129.6997 978.9008 132.1997 966.4998 134.3997 962.7998 132.7997 956.2998 135.5997 943.5998 148.1997 937.7998 149.3997 916.5998 157.2997 914.2998 159.8997 911.4008 164.2997 902.0998 162.9997 898.7998 163.2997 891.4008 162.2997 884.4008 160.2997 875.7998 161.1997 870.6998 163.3997 866.9998 164.2997 852.6998 164.3997 850.4008 164.9997 844.4008 165.8997 828.9998 166.0997 828.4998 169.9997 828.0998 181.3997 820.6998 184.9997 820.1998 191.1997 815.1998 195.2997 811.4998 197.1997 808.5998 194.1997 806.4998 187.1997 808.2998 181.8997 810.6998 182.4997 806.6998 170.6997 805.1998 158.2997 803.6998 160.1997 801.2998 164.4997 800.6998 165.6997 796.0998 182.7997 791.6998 204.4997 789.2998 207.3997 784.5998 198.1997 785.2998 187.8997 786.4008 191.6997 788.6998 194.0997 788.9008 190.8997 786.6998 180.7997 786.6998 170.6997 785.4998 170.3997 775.4008 190.9997 775.4998 198.2997 774.5998 200.5997 770.6998 203.8997 768.9008 196.9997 769.9008 189.3997 769.9008 181.1997 765.4998 171.2997 761.2998 162.9997 760.5998 160.1997 758.2998 154.2997 757.5998 153.8997 757.9998 153.3997 758.4008 154.0997 762.1998 152.9997 759.4998 150.0997 756.9008 138.5997 756.6998 137.4997 757.4998 138.0997 760.2998 143.0997 764.5998 146.1997 759.0998 132.4997 758.4008 130.4997 759.9008 131.6997 761.6998 132.7997 762.4008 132.1997 757.4008 111.5997 763.1998 116.9997 757.4998 99.9997 752.0998 108.3997 746.6998 115.7997 751.4008 114.1997 749.7998 119.0997 745.9008 123.4997 746.4998 124.1997 747.2998 125.5997 743.4998 133.8997 742.9008 135.9997 742.6998 140.5997 743.5998 141.3997 745.7998 138.7997 746.9998 137.3997 747.2998 137.8997 746.4998 139.3997 743.2998 144.2997 742.4008 145.1997 740.4998 150.4997 732.7998 158.4997 722.7998 157.8997 715.7998 163.0997 706.4998 167.0997 701.5998 166.6997 687.9998 163.1997 686.3998 160.7997 686.2998 142.8997 686.3998 139.8997 681.7998 139.7997 667.3998 153.2997 663.2998 160.4997 660.7998 163.8997 651.1998 177.6997 647.3998 185.1997 645.4998 186.3997 643.6998 184.3997 645.1998 175.7997 648.2998 165.2997 644.8998 166.1997 641.6998 169.9997 638.1998 173.4997 633.2998 177.1997 630.3998 179.8997 627.5998 178.8997 624.1998 168.2997 617.9998 154.3997 604.4998 178.5997 602.7998 177.7997 597.2998 170.7997 601.5998 170.0997 602.0998 168.8997 598.4998 166.9997 596.5998 154.5997 584.6998 168.8997 589.0998 169.0997 589.9998 168.4997 589.5998 169.5997 582.5998 180.3997 584.0998 183.6997 579.1998 189.4997 582.1998 191.2997 577.4998 193.4997 576.2998 182.7997 578.2998 182.0997 578.2998 168.7997 581.9998 172.7997 580.5998 155.2997 582.7998 159.1997 581.9998 142.9997 581.1998 144.1997 569.8998 163.4997 570.1998 167.6997 562.3998 175.4997 563.8998 179.0997 555.9998 186.7997 553.8998 171.9997 557.7998 170.5997 550.8998 157.9997 554.3998 158.2997 554.4998 155.4997 549.8998 144.3997 548.7998 136.9997 546.0998 135.4997 539.5998 159.7997 542.7998 167.3997 533.6998 184.9997 531.3998 187.5997 528.1998 188.0997 527.0998 185.4997 529.8998 175.3997 531.3998 172.3997 534.5998 172.7997 534.0998 168.6997 533.4998 162.3997 535.9998 147.9997 534.8998 147.5997 533.0998 150.9997 529.8998 155.0997 525.2998 158.8997 519.3998 159.0997 517.7998 157.1997 508.6998 153.8997 502.4998 155.1997 496.7998 151.1997 487.5998 147.0997 479.6998 145.7997 473.8998 146.1997 463.9998 150.5997 461.8998 153.1997 460.8998 153.0997 443.0998 143.8997 441.6998 143.2997 431.8998 138.3997 425.5998 136.8997 419.3998 136.4997 413.7998 134.3997 403.8998 142.3997 396.5998 142.1997 393.3998 141.0997 378.7998 138.9997 378.0998 138.3997 370.0998 141.1997 363.9998 144.5997 361.5998 143.8997 354.9998 141.4997 354.9998 138.0997 349.2998 136.8997 336.1998 136.8997 329.4998 136.9997 323.8998 134.9997 321.0998 134.5997 313.6998 135.2997 301.1998 135.7997 296.8998 139.0997 288.2998 152.3997 295.2998 160.3997 290.8998 163.9997 289.3998 165.0997 280.4998 174.3997 264.1998 175.4997 242.5998 176.9997 234.0998 180.6997 220.7998 171.2997 211.0998 168.3997 200.2998 169.8997 196.4998 169.3997 179.3998 164.2997 174.3998 162.3997 155.5998 162.6997 144.4998 171.0997 138.5998 172.8997 132.5998 172.9997 121.4998 175.0997 110.0998 177.9997 89.3998 180.7997 85.0998 187.8997 85.9998 192.2997 81.0998 202.0997 66.7998 213.5997 64.2998 221.0997 63.6998 225.8997 62.1998 230.5997 57.9998 238.5997 54.6998 241.6997 51.2998 254.0997 50.2998 261.5997 48.8998 267.2997 52.0998 277.0997 52.8998 285.8997 51.7998 293.0997 61.5998 305.1997 -0.0002 497.3997 301.4998 497.3997 287.6998 378.8997 302.8998 342.5997 321.4998 318.7997 329.9998 311.1997 345.3998 299.5997 373.6998 284.2997 405.7998 272.7997 438.9998 263.5997 462.4998 256.1997 483.1998 249.8997 529.2998 233.9997 561.0998 227.4997 577.1998 225.2997 592.8998 223.4997 640.6998 224.3997 688.9998 225.2997 733.0998 227.4997 751.4008 228.2997 785.9998 233.5997 817.6998 240.4997 861.0998 246.5997 875.9008 247.4997 879.7998 247.0997 884.1998 246.4997 906.4998 245.6997 929.7998 241.9997 954.7998 236.6997 961.9998 235.3997 976.4998 232.9997 1012.9998 227.7997 1059.6998 229.2997 1089.5998 234.9997 1096.7998 243.9997 1096.7998 318.9997 1099.9998 327.4997 1121.6998 324.5997 1123.6998 324.4997 1133.9008 322.8997 1137.7998 322.6997 1142.9998 322.3997 1158.4008 319.3997 1161.1998 318.3997 1178.7998 314.3997 1188.7998 310.0997 1195.1998 305.8997 1204.9008 304.4997 1213.4008 300.2997 1233.5998 277.9997 1258.4008 259.1997 1290.9008 241.9997 1314.4008 232.9997 1351.7998 224.2997 1373.4998 220.2997 1402.4998 217.7997 1451.2998 218.5997 1453.2998 218.7997 1468.7998 220.9997 1492.0998 223.5997 1499.9008 224.5997 1511.0998 226.0997 1534.7998 230.5997 1551.7998 233.2997 1569.6998 236.3997 1591.2998 238.7997 1603.5998 239.7997 1623.7998 241.4997 1696.0998 242.3997 1737.7998 244.0997 1756.6998 245.9997 1779.9998 249.4997 1810.5998 256.4997 1829.0998 261.6997 1860.0998 271.4997 1892.6998 283.0997 1917.6998 290.4997 1931.9008 294.6997 1942.4008 296.8997 1940.4008 597.9997 2922.9998 606.6997 2922.9998 249.1997 2922.9998 247.0997 2922.9998 242.1997"></polygon>
                            </g>
                        </g>
                    </g>
                </g>
            </g>
        </g>
    </g>
</svg>