<?xml version="1.0" encoding="UTF-8"?>
<svg width="1920px" height="1000px" viewBox="0 0 1920 1000" version="1.1" xmlns="http://www.w3.org/2000/svg" xmlns:xlink="http://www.w3.org/1999/xlink">
    <!-- Generator: Sketch 50 (54983) - http://www.bohemiancoding.com/sketch -->
    <title>layer10</title>
    <desc>Created with Sketch.</desc>
    <defs>
        <rect id="path-1" x="0" y="0" width="1920" height="1000"></rect>
        <polygon id="path-3" points="0 0.31673 3015.96582 0.31673 3015.96582 1026 0 1026"></polygon>
    </defs>
    <g id="Page-1" stroke="none" stroke-width="1" fill="none" fill-rule="evenodd">
        <g id="Artboard" transform="translate(-533.000000, -421.000000)">
            <g id="layer10" transform="translate(533.000000, 421.000000)">
                <mask id="mask-2" fill="white">
                    <use xlink:href="#path-1"></use>
                </mask>
                <g id="Mask"></g>
                <g mask="url(#mask-2)">
                    <g transform="translate(-952.000000, -20.000000)">
                        <path d="M1416.7182,472.023967 C1416.58232,472.023967 1416.51437,472.0873 1416.37849,472.0873 L1416.65026,472.150633 C1416.65026,472.0873 1416.7182,472.0873 1416.7182,472.023967" id="Fill-1" fill="#031A42"></path>
                        <polygon id="Fill-3" fill="#031A42" points="1432.54884 451.06057 1432.54884 450.997237 1432.4809 450.997237"></polygon>
                        <g id="Group-7" stroke-width="1" fill="none">
                            <mask id="mask-4" fill="white">
                                <use xlink:href="#path-3"></use>
                            </mask>
                            <g id="Clip-6"></g>
                            <path d="M3007.81264,451.50403 L3014.26724,451.50403 L3013.85958,457.330697 L3001.35803,458.72403 L3000.88243,458.15403 L3007.81264,451.50403 Z M2996.94172,446.94403 L2994.83548,449.160697 L2979.27648,449.160697 L2978.46116,380.82403 L2980.70397,378.290697 L2993.1369,377.277363 L2997.01034,380.760697 L2996.94172,446.94403 Z M2996.46612,458.850697 L2987.36172,458.977363 L2979.61688,460.81403 L2978.80156,452.327363 L2996.60268,451.757363 L2996.46612,458.850697 Z M2975.064,447.070697 L2974.04485,449.79403 L2957.67053,449.667363 L2958.68968,379.240697 L2975.67549,378.92403 L2977.03435,380.697363 L2975.064,447.070697 Z M2973.97691,458.977363 L2967.92996,459.67403 L2966.63904,459.610697 L2963.03873,459.86403 L2960.25238,459.737363 L2957.05904,458.53403 L2957.33082,454.607363 L2960.52415,452.707363 L2970.44386,452.45403 L2974.92879,456.760697 L2973.97691,458.977363 Z M2953.18696,449.857363 L2935.72487,450.427363 L2936.88058,380.380697 L2955.76812,379.367363 L2953.18696,449.857363 Z M2951.28387,461.00403 L2948.15848,459.167363 L2946.79962,460.81403 L2938.98614,460.43403 L2935.24927,457.20403 L2935.58898,453.467363 L2952.84724,452.707363 L2951.28387,461.00403 Z M2931.17267,449.03403 L2929.60998,450.680697 L2914.93424,450.680697 L2913.44017,381.077363 L2932.53154,380.44403 L2933.21097,382.597363 L2931.17267,449.03403 Z M2915.13875,459.990697 L2914.66247,454.35403 L2930.28941,453.720697 L2930.96884,459.167363 L2915.13875,459.990697 Z M2908.47963,459.420697 L2897.60872,460.117363 L2896.58957,460.117363 L2891.22205,459.800697 L2891.22205,454.987363 L2909.8385,454.35403 L2910.44999,457.520697 L2908.47963,459.420697 Z M2891.0189,381.96403 L2909.43084,381.520697 L2910.3141,447.767363 L2909.63467,451.187363 L2893.87184,451.757363 L2890.74645,448.84403 L2891.0189,381.96403 Z M2886.80574,451.757363 L2871.1788,452.45403 L2869.00462,382.53403 L2886.46603,381.77403 L2887.75695,385.130697 L2886.80574,451.757363 Z M2881.84657,460.43403 L2873.2171,461.00403 L2870.7032,458.91403 L2871.04291,455.49403 L2885.65071,454.227363 L2886.66986,456.82403 L2886.87369,459.420697 L2881.84657,460.43403 Z M2864.38448,452.517363 L2847.26278,452.517363 L2845.36037,386.270697 L2849.30108,383.48403 L2865.20048,382.91403 L2867.03426,449.730697 L2864.38448,452.517363 Z M2863.22944,461.637363 L2857.387,460.940697 L2852.49441,461.76403 L2847.73839,461.510697 L2847.05895,456.25403 L2865.33568,455.557363 L2866.42277,458.470697 L2863.22944,461.637363 Z M2824.63769,461.890697 L2824.29797,457.330697 L2841.42034,456.317363 L2842.71059,461.130697 L2824.63769,461.890697 Z M2824.09482,384.180697 L2841.14789,384.24403 L2842.09978,452.960697 L2824.43454,452.897363 L2823.21088,386.650697 L2824.09482,384.180697 Z M2799.29554,453.97403 L2800.78961,385.637363 L2819.9496,384.687363 L2821.03738,452.897363 L2799.29554,453.97403 Z M2799.36281,463.537363 L2799.36281,457.520697 L2820.35794,457.20403 L2820.42521,461.76403 L2799.36281,463.537363 Z M2792.22877,464.550697 L2784.95884,463.980697 L2778.70806,463.727363 L2778.36835,460.877363 L2781.6303,458.027363 L2792.36465,457.900697 L2795.21895,460.307363 L2795.28621,461.257363 L2792.22877,464.550697 Z M2777.28126,388.930697 L2778.91257,386.967363 L2794.60678,386.397363 L2794.9465,454.037363 L2777.68892,454.987363 L2777.28126,388.930697 Z M2770.75939,463.85403 L2768.78835,463.917363 L2768.78835,458.34403 L2768.44864,459.167363 L2756.83102,459.737363 L2756.42268,457.01403 L2771.43882,457.837363 L2776.19484,459.800697 L2770.75939,463.85403 Z M2721.0922,471.010697 L2717.49121,471.26403 L2714.70622,471.137363 L2711.51221,469.93403 L2711.78398,466.007363 L2714.97731,464.107363 L2724.8977,463.85403 L2729.38128,468.160697 L2728.43007,470.377363 L2722.38313,471.07403 L2721.0922,471.010697 Z M2707.63944,461.257363 L2690.17803,461.827363 L2691.33307,391.780697 L2710.22129,390.767363 L2707.63944,461.257363 Z M2705.73703,472.40403 L2702.61165,470.567363 L2701.25278,472.21403 L2693.43931,471.83403 L2689.70243,468.60403 L2690.04215,464.867363 L2707.29973,464.107363 L2705.73703,472.40403 Z M2713.14285,390.640697 L2730.12865,390.32403 L2730.33316,390.577363 L2729.65373,452.960697 L2729.51716,458.470697 L2728.49802,461.19403 L2712.1237,461.067363 L2713.14285,390.640697 Z M2732.91433,392.22403 L2735.15645,389.690697 L2743.10581,389.057363 L2747.72595,388.80403 L2751.46283,392.160697 L2751.39556,458.34403 L2749.28865,460.560697 L2733.86553,460.560697 L2733.52582,439.53403 L2732.91433,392.22403 Z M2734.00142,471.770697 L2733.86553,463.727363 L2751.05585,463.157363 L2751.05585,463.220697 L2748.47333,465.817363 L2746.77475,465.880697 L2745.00822,466.32403 L2745.07616,470.31403 L2741.81489,470.377363 L2734.00142,471.770697 Z M2768.65247,463.980697 L2760.77105,464.360697 L2762.26648,462.90403 L2768.72109,462.90403 L2768.65247,463.980697 Z M2773.20466,389.247363 L2774.63147,453.150697 L2771.77853,455.557363 L2758.32509,456.25403 L2756.21885,453.78403 L2755.60737,388.42403 L2768.44864,387.980697 L2770.41967,388.297363 L2770.41967,386.840697 L2770.82665,386.840697 L2773.20466,389.247363 Z M2685.62584,460.43403 L2684.06314,462.080697 L2669.38741,462.080697 L2667.89265,392.477363 L2686.9847,391.84403 L2687.66413,393.997363 L2685.62584,460.43403 Z M2669.59124,471.390697 L2669.11563,465.75403 L2684.74258,465.120697 L2685.42201,470.567363 L2669.59124,471.390697 Z M2662.9328,470.820697 L2652.06188,471.517363 L2651.04273,471.517363 L2645.67522,471.200697 L2645.67522,466.387363 L2664.29166,465.75403 L2664.90315,468.920697 L2662.9328,470.820697 Z M2645.47139,393.36403 L2663.884,392.920697 L2664.76795,459.167363 L2664.08851,462.587363 L2648.325,463.157363 L2645.19962,460.24403 L2645.47139,393.36403 Z M2641.25891,463.157363 L2625.63197,463.85403 L2623.45778,393.93403 L2640.91919,393.17403 L2642.21011,396.530697 L2641.25891,463.157363 Z M2636.29905,471.83403 L2627.67026,472.40403 L2625.15636,470.31403 L2625.49608,466.89403 L2640.10387,465.627363 L2641.12302,468.22403 L2641.32753,470.820697 L2636.29905,471.83403 Z M2618.83764,463.917363 L2601.71595,463.917363 L2599.81354,397.670697 L2603.75425,394.88403 L2619.65296,394.31403 L2621.48743,461.130697 L2618.83764,463.917363 Z M2617.68261,473.037363 L2611.83949,472.340697 L2606.94758,473.16403 L2602.19155,472.910697 L2601.51212,467.65403 L2619.78885,466.957363 L2620.87594,469.870697 L2617.68261,473.037363 Z M2579.09085,473.290697 L2578.75114,468.730697 L2595.87283,467.717363 L2597.16443,472.530697 L2579.09085,473.290697 Z M2578.54731,395.580697 L2595.60106,395.64403 L2596.55226,464.360697 L2578.88702,464.297363 L2577.66404,398.050697 L2578.54731,395.580697 Z M2553.74803,465.37403 L2555.24278,397.037363 L2574.40345,396.087363 L2575.48986,464.297363 L2553.74803,465.37403 Z M2553.81597,474.937363 L2553.81597,468.920697 L2574.81043,468.60403 L2574.87837,473.16403 L2553.81597,474.937363 Z M2546.68193,475.950697 L2539.41269,475.380697 L2533.16123,475.127363 L2532.82151,472.277363 L2536.08279,469.427363 L2546.8185,469.300697 L2549.67143,471.707363 L2549.74006,472.657363 L2546.68193,475.950697 Z M2531.73442,400.330697 L2533.36506,398.367363 L2549.05994,397.797363 L2549.39966,465.437363 L2532.14208,466.387363 L2531.73442,400.330697 Z M2525.21187,475.25403 L2514.47684,475.760697 L2512.03088,476.837363 L2510.87653,468.477363 L2525.8913,469.300697 L2530.64733,471.26403 L2525.21187,475.25403 Z M2510.06053,399.507363 L2512.8462,398.557363 L2525.27981,398.240697 L2527.65783,400.647363 L2529.08464,464.550697 L2526.23102,466.957363 L2512.77826,467.65403 L2510.67202,465.18403 L2510.06053,399.507363 Z M2506.46022,473.607363 L2502.92649,477.217363 L2501.22791,477.280697 L2499.46139,477.72403 L2499.52933,484.37403 L2499.52933,502.297363 L2499.46139,505.970697 L2488.86224,506.41403 L2487.70721,499.510697 L2485.87274,412.870697 L2487.23161,410.400697 L2497.08337,402.230697 L2501.56763,400.520697 L2505.98394,400.01403 L2506.46022,469.237363 L2506.46022,473.607363 Z M2481.04877,507.490697 L2463.1797,509.64403 L2462.09261,504.070697 L2462.97655,488.997363 L2462.36438,432.630697 L2464.53857,429.08403 L2481.79615,414.517363 L2483.69924,414.327363 L2484.03895,490.517363 L2484.17416,502.360697 L2484.2421,503.310697 L2481.04877,507.490697 Z M2460.32609,503.057363 L2460.05431,502.80403 L2460.32609,502.42403 C2460.39403,502.487363 2460.52992,502.550697 2460.52992,502.61403 C2460.46197,502.80403 2460.39403,502.930697 2460.32609,503.057363 Z M2459.17105,493.30403 L2459.03516,510.087363 L2454.00737,512.367363 L2453.87148,514.140697 L2454.89063,522.247363 L2454.48365,531.30403 L2454.2112,537.57403 L2452.03769,539.727363 L2439.80791,539.727363 L2439.33231,536.497363 L2439.94312,524.65403 L2439.87585,510.847363 L2438.99191,452.26403 L2441.30198,447.13403 L2459.51077,433.26403 L2459.17105,493.30403 Z M2435.93447,539.85403 L2426.42241,540.487363 L2417.31802,540.740697 L2414.12469,543.717363 L2413.71771,561.640697 L2412.76582,566.137363 L2411.20313,563.540697 L2411.40696,550.620697 L2412.96965,470.820697 L2415.34767,467.590697 L2435.93447,451.757363 L2436.6139,523.70403 L2436.68184,536.877363 L2435.93447,539.85403 Z M2406.71888,546.630697 L2406.4471,562.717363 L2406.4471,566.200697 L2400.33221,566.960697 L2389.59786,568.35403 L2386.40385,565.820697 L2386.26796,492.670697 L2388.17038,488.93403 L2410.25193,472.467363 L2406.71888,546.630697 Z M1933.76605,600.527363 L1933.56222,600.147363 L1933.76605,599.957363 C1933.83399,600.08403 1933.90194,600.210697 1933.96988,600.337363 C1933.96988,600.400697 1933.83399,600.46403 1933.76605,600.527363 Z M1393.48148,483.930697 C1393.41354,483.23403 1393.27765,482.600697 1393.00588,481.967363 C1393.8212,481.460697 1394.63652,481.207363 1395.11212,481.650697 C1398.03368,485.13403 1402.04233,487.60403 1405.50743,490.580697 C1405.03183,490.960697 1404.3524,491.087363 1403.80885,490.83403 C1401.22701,489.820697 1398.71311,488.74403 1396.19921,487.667363 C1394.50063,486.970697 1393.27765,485.957363 1393.48148,483.930697 Z M1391.98673,493.30403 C1388.18191,490.517363 1383.29,489.947363 1379.55312,487.350697 C1377.58277,488.617363 1378.19425,490.010697 1379.55312,490.45403 C1382.67851,491.530697 1384.2412,494.25403 1386.89099,495.837363 C1383.83354,495.710697 1381.11581,494.507363 1378.33014,493.49403 C1372.69085,491.467363 1368.34249,487.540697 1363.04291,485.007363 C1365.55681,485.387363 1368.07071,486.400697 1370.17695,484.817363 C1371.26404,483.99403 1372.14731,484.057363 1373.2344,484.18403 C1373.98177,484.247363 1374.72915,484.437363 1375.40858,484.880697 C1377.65071,486.337363 1380.30049,486.65403 1382.95028,487.160697 C1386.68716,487.79403 1390.15226,489.50403 1392.39439,492.670697 C1392.46233,492.73403 1392.19056,492.987363 1391.98673,493.30403 Z M1384.92063,499.320697 C1382.67851,502.61403 1382.67851,506.03403 1383.83354,509.580697 C1384.17326,510.530697 1384.58092,511.73403 1383.83354,512.557363 C1383.01822,513.570697 1383.08617,514.520697 1383.15411,515.72403 C1383.29,517.497363 1382.2029,518.067363 1380.57227,517.180697 C1379.2134,516.420697 1377.99042,515.53403 1376.2239,515.597363 C1375.13681,515.977363 1375.20475,517.43403 1374.11766,517.750697 C1373.2344,518.067363 1372.7588,517.370697 1372.14731,517.307363 C1369.70135,517.117363 1368.00277,514.710697 1365.42093,515.34403 C1363.04291,515.850697 1360.80079,514.457363 1358.42277,515.280697 C1357.26774,515.660697 1355.77299,515.407363 1354.48207,515.15403 C1352.78349,514.77403 1351.22079,514.710697 1349.59015,515.407363 C1348.84278,515.72403 1348.02746,515.787363 1347.28008,515.470697 C1346.39682,515.217363 1345.51356,515.217363 1344.6303,515.470697 C1341.91257,516.167363 1339.26278,516.86403 1336.74888,514.96403 C1336.13739,514.647363 1335.39002,514.647363 1334.77853,514.900697 C1333.41967,515.597363 1332.19669,515.027363 1330.90577,514.96403 C1329.88662,514.900697 1328.86747,514.710697 1328.39187,515.91403 C1328.05215,516.67403 1327.30477,516.67403 1326.62534,516.610697 C1324.65499,516.420697 1322.68464,515.787363 1321.054,514.647363 C1318.5401,512.747363 1318.5401,512.11403 1320.91811,508.567363 C1322.88846,510.720697 1325.19853,509.26403 1327.23683,508.88403 C1329.88662,508.377363 1332.46846,507.680697 1335.18619,508.12403 C1336.00151,508.250697 1336.81683,508.060697 1337.42832,507.55403 C1341.09725,504.51403 1345.5815,504.007363 1350.20164,503.817363 C1352.23994,503.75403 1354.34618,502.42403 1356.18065,504.070697 C1358.76249,502.297363 1361.75199,502.61403 1364.40178,502.360697 C1366.71185,502.170697 1367.79894,501.537363 1368.75015,499.130697 C1367.52717,497.86403 1366.1683,496.91403 1364.13001,497.420697 C1363.6544,497.547363 1363.1788,497.48403 1362.83908,497.167363 C1361.07256,495.267363 1358.6266,494.950697 1356.18065,494.507363 C1355.29739,494.317363 1354.34618,494.127363 1354.21029,493.050697 C1354.07441,491.657363 1352.6476,491.40403 1351.96817,490.707363 C1353.46292,489.567363 1355.36533,489.060697 1357.33568,488.617363 C1359.03426,488.17403 1358.42277,486.400697 1359.57781,485.387363 C1363.38263,488.047363 1367.45922,490.45403 1371.73965,492.480697 C1376.02007,494.507363 1380.23255,496.91403 1385.19241,497.610697 C1385.05652,498.560697 1385.12446,499.00403 1384.92063,499.320697 Z M1324.11144,491.150697 L1323.70378,494.380697 C1320.10279,495.01403 1320.10279,495.01403 1318.33627,490.137363 L1324.11144,491.150697 Z M1311.40606,421.230697 C1309.97925,421.29403 1308.89216,420.597363 1307.80507,419.77403 C1309.70748,418.697363 1311.474,418.380697 1313.37641,419.58403 C1314.12379,419.96403 1314.93911,420.090697 1315.68648,419.900697 C1317.38506,419.710697 1319.08364,419.01403 1320.78222,420.280697 C1321.80137,421.040697 1322.14109,419.58403 1322.82052,419.20403 C1327.23683,423.19403 1333.41967,423.447363 1338.92307,425.47403 C1336.06945,426.740697 1331.24548,426.740697 1329.00336,425.347363 C1327.98421,424.650697 1326.89712,424.777363 1325.81002,424.587363 C1324.65499,424.33403 1323.5679,423.95403 1322.48081,423.57403 C1321.73343,422.81403 1322.68464,421.990697 1322.0052,421.420697 C1321.73343,421.230697 1321.32577,421.230697 1321.12194,421.48403 C1319.69513,422.940697 1318.47215,423.76403 1316.23003,422.307363 C1314.73528,421.48403 1313.10464,421.10403 1311.40606,421.230697 Z M1301.55429,411.350697 C1298.56479,410.400697 1295.37146,409.89403 1291.97429,409.007363 C1295.23557,407.99403 1298.15713,409.387363 1301.07869,409.387363 C1304.00025,409.387363 1306.92181,410.147363 1309.91131,410.46403 C1313.0367,410.780697 1316.0262,411.41403 1319.15159,411.477363 C1316.63769,413.187363 1313.71613,412.110697 1311.13429,412.997363 C1308.41656,410.400697 1304.74762,412.36403 1301.55429,411.350697 Z M1277.3665,406.347363 C1274.71671,405.397363 1271.59133,405.33403 1268.66977,405.397363 C1266.3597,405.460697 1264.52523,405.080697 1262.96254,403.62403 C1259.97303,404.890697 1257.18736,404.38403 1254.46963,403.307363 C1252.36339,402.48403 1250.39304,401.407363 1248.01502,402.357363 C1247.47148,402.48403 1246.85999,402.357363 1246.38439,402.10403 C1243.05517,400.710697 1239.38623,400.77403 1235.85319,400.20403 C1235.58141,400.140697 1235.30964,400.01403 1235.03787,399.82403 C1234.83404,398.430697 1235.85319,398.30403 1236.73645,398.49403 C1241.15276,399.570697 1245.7729,399.570697 1250.25715,399.697363 C1253.99403,399.82403 1257.52708,400.647363 1261.19601,401.027363 C1265.88409,401.53403 1270.64012,401.787363 1275.3282,402.737363 C1276.82295,403.05403 1279.33685,402.420697 1279.8804,403.497363 C1280.76366,405.33403 1282.3943,404.76403 1283.54933,405.397363 C1284.09288,405.650697 1284.9082,405.460697 1285.58763,405.52403 C1288.64508,405.840697 1288.64508,405.840697 1290.4116,408.56403 C1286.06323,407.677363 1281.64692,407.867363 1277.3665,406.347363 Z M1277.57033,447.577363 C1274.78466,445.930697 1271.45544,446.310697 1268.60182,445.170697 C1268.46594,445.107363 1268.33005,445.04403 1268.26211,445.04403 C1263.70991,445.23403 1259.56537,443.71403 1255.21701,442.827363 C1251.68396,442.130697 1248.2868,441.24403 1245.36524,439.217363 C1245.16141,439.090697 1244.95758,438.837363 1244.82169,438.837363 C1241.49247,438.837363 1241.35659,436.177363 1239.86184,433.83403 C1243.19106,434.78403 1245.90878,435.54403 1248.69446,436.367363 C1256.71176,438.710697 1264.59317,441.307363 1272.67842,443.397363 C1275.73586,444.220697 1277.97799,445.867363 1280.69572,447.70403 C1279.4048,447.89403 1278.24976,448.147363 1277.57033,447.577363 Z M1239.45418,433.64403 C1239.38623,433.580697 1239.25035,433.45403 1239.11446,433.390697 C1238.84269,433.26403 1238.84269,433.137363 1239.04652,433.137363 C1239.25035,433.137363 1239.38623,433.26403 1239.52212,433.390697 L1239.45418,433.64403 Z M1236.26085,422.307363 C1239.11446,424.840697 1242.91928,424.460697 1246.11261,425.727363 C1247.19971,426.170697 1248.62651,426.61403 1250.05332,425.917363 C1251.34424,425.28403 1252.77105,426.04403 1253.85814,426.677363 C1255.42084,427.500697 1256.98353,427.690697 1258.68211,427.94403 C1260.58452,428.13403 1262.48693,428.577363 1264.25346,429.27403 C1266.63147,430.350697 1269.28126,430.730697 1271.8631,430.41403 C1270.43629,431.36403 1268.33005,431.680697 1268.73771,433.83403 C1267.58268,433.897363 1266.8353,434.150697 1266.22381,433.897363 C1262.21516,432.187363 1257.39119,433.64403 1253.72226,430.920697 C1249.37389,431.237363 1245.97673,428.13403 1241.76425,428.070697 C1239.92978,428.007363 1238.29914,427.18403 1236.80439,426.04403 C1236.53262,424.90403 1236.80439,423.637363 1236.26085,422.307363 Z M1253.85814,299.187363 C1252.70311,301.087363 1253.17871,302.35403 1254.06197,303.620697 C1254.94523,304.887363 1256.16821,305.077363 1257.59502,305.520697 C1259.70126,306.15403 1261.8075,306.027363 1263.8458,306.407363 C1265.00083,306.660697 1266.22381,306.217363 1267.03913,307.547363 C1267.58268,308.497363 1268.73771,307.230697 1269.68892,307.927363 C1267.24296,308.81403 1264.66112,308.750697 1262.07927,309.447363 C1258.818,310.460697 1254.06197,308.307363 1252.90694,304.82403 C1252.15956,302.607363 1250.73275,301.02403 1249.37389,299.250697 C1250.86864,298.74403 1252.02368,299.88403 1253.85814,299.187363 Z M1247.8112,276.577363 C1251.14041,274.99403 1254.2658,276.13403 1256.84764,274.80403 C1257.45913,276.13403 1257.32325,277.020697 1257.2553,278.160697 L1247.8112,276.577363 Z M1255.28495,283.860697 C1258.47828,284.87403 1261.73956,285.63403 1265.06878,286.077363 C1264.93289,286.647363 1265.00083,287.280697 1264.72906,287.34403 C1263.70991,287.850697 1262.48693,288.29403 1261.53573,287.850697 C1258.47828,286.457363 1255.28495,287.027363 1252.22751,286.96403 C1249.44183,286.900697 1246.99588,286.837363 1245.22935,284.430697 C1244.95758,284.050697 1244.27815,283.860697 1243.80254,283.607363 C1244.00637,283.35403 1244.14226,283.100697 1244.27815,283.100697 C1248.01502,282.910697 1251.61602,282.78403 1255.28495,283.860697 Z M1230.28184,269.357363 C1231.1651,267.01403 1233.61106,266.950697 1235.10581,265.810697 C1237.14411,264.227363 1237.27999,264.35403 1235.10581,262.580697 C1236.66851,261.31403 1239.04652,261.31403 1240.67716,262.517363 C1242.91928,263.910697 1245.50113,264.54403 1247.8112,266.06403 C1250.12126,267.58403 1252.43133,266.127363 1252.90694,263.02403 C1256.43999,264.54403 1260.24481,265.430697 1264.11757,265.557363 C1261.67161,261.69403 1257.59502,259.98403 1253.3146,258.46403 C1268.8736,255.99403 1284.50054,253.71403 1300.53514,253.967363 C1300.26337,255.297363 1299.17628,255.930697 1297.9533,256.310697 C1296.11883,256.817363 1294.35231,257.640697 1292.85756,258.717363 C1291.56664,259.667363 1289.73217,259.03403 1288.3733,259.98403 C1286.9465,260.93403 1285.17997,261.50403 1283.41345,261.630697 C1281.78281,261.757363 1280.15217,262.83403 1278.58948,263.59403 C1275.39615,265.050697 1271.93104,266.000697 1268.39799,266.44403 C1267.17502,266.570697 1266.29175,265.937363 1265.13672,265.810697 C1264.45729,266.570697 1264.04963,267.710697 1262.75871,267.710697 C1257.73091,267.647363 1252.90694,269.610697 1247.94708,269.230697 C1244.14226,268.91403 1240.54127,270.24403 1236.80439,269.800697 C1234.69815,269.547363 1232.65985,268.72403 1230.28184,269.357363 Z M1229.46652,233.38403 C1232.93163,232.687363 1236.26085,231.800697 1239.59006,231.420697 C1241.56042,231.167363 1243.259,230.217363 1245.36524,230.280697 C1247.13176,230.407363 1248.69446,229.710697 1250.66481,230.53403 C1252.43133,231.29403 1254.53757,229.96403 1256.50793,229.58403 C1258.20651,229.267363 1259.63332,229.20403 1260.78835,231.357363 C1257.45913,230.850697 1255.21701,232.370697 1252.97488,234.017363 C1250.59687,235.917363 1247.87914,236.99403 1244.68581,235.85403 C1244.48198,235.790697 1244.2102,235.727363 1244.00637,235.790697 C1240.7451,236.550697 1237.34794,236.867363 1234.49432,238.387363 C1233.13546,239.147363 1231.64071,239.400697 1230.14596,239.27403 C1231.91248,235.790697 1231.91248,235.790697 1229.46652,233.38403 Z M1232.18425,227.557363 C1236.12496,226.92403 1240.06567,226.35403 1244.07432,225.910697 C1245.84084,225.720697 1247.53942,224.897363 1249.44183,226.16403 C1250.52892,226.860697 1252.49928,225.340697 1253.7902,226.73403 L1229.39858,231.420697 C1228.92298,228.697363 1230.34978,227.810697 1232.18425,227.557363 Z M1224.84638,186.327363 C1223.75929,185.250697 1224.77844,184.427363 1224.77844,183.540697 C1225.1861,183.41403 1225.52582,183.22403 1225.79759,183.350697 C1226.68085,183.730697 1227.56411,183.477363 1228.44737,183.41403 C1231.98042,183.160697 1231.98042,183.160697 1233.88283,186.580697 C1232.04837,186.707363 1230.6895,185.440697 1228.92298,186.07403 C1227.63206,186.517363 1226.1373,185.820697 1224.84638,186.327363 Z M1246.52027,219.387363 C1244.2102,221.920697 1242.03602,222.55403 1239.38623,222.427363 C1236.94028,222.36403 1234.42638,222.17403 1232.04837,222.93403 C1231.36893,223.187363 1230.55361,222.870697 1229.87418,222.807363 C1228.85503,221.097363 1230.6895,220.27403 1230.89333,218.690697 C1236.05702,219.32403 1241.28865,219.51403 1246.52027,219.387363 Z M1244.54992,249.470697 C1246.7241,247.06403 1255.76055,247.63403 1261.26395,251.307363 C1257.79885,252.257363 1254.67346,253.71403 1250.93658,253.207363 C1249.37389,252.95403 1247.60737,254.030697 1245.90878,254.410697 C1243.66666,254.980697 1241.49247,255.04403 1239.31829,252.827363 C1240.81304,252.067363 1241.2207,250.800697 1241.90013,249.15403 C1243.259,250.990697 1244.95758,250.610697 1246.65616,250.420697 C1246.31644,249.34403 1244.88964,250.357363 1244.54992,249.470697 Z M1297.34181,335.920697 L1297.34181,338.707363 C1296.3906,339.720697 1294.75997,339.40403 1294.08054,340.797363 C1294.89585,342.507363 1295.77912,343.58403 1298.4289,343.20403 C1300.9428,342.82403 1303.59259,344.34403 1306.31032,343.520697 C1312.56109,346.117363 1319.28747,344.72403 1325.74208,345.48403 C1327.78038,345.737363 1329.75073,346.687363 1331.85697,346.497363 C1330.0225,347.320697 1327.98421,347.510697 1326.0818,346.940697 C1323.02435,346.370697 1319.96691,346.940697 1316.90946,346.560697 C1312.42521,346.05403 1307.94095,345.737363 1303.52464,344.850697 C1300.4672,344.217363 1297.40975,343.330697 1294.14848,343.647363 C1291.77047,343.900697 1289.52834,343.20403 1287.4221,342.317363 C1287.76181,341.430697 1288.57713,340.797363 1288.57713,339.910697 C1291.70252,338.707363 1295.57529,339.40403 1297.34181,335.920697 Z M1360.25724,464.61403 C1361.81994,464.867363 1362.83908,466.260697 1364.60561,466.260697 L1364.60561,468.730697 C1363.85823,469.237363 1363.45057,469.110697 1360.39313,467.907363 C1359.84958,467.337363 1360.05341,466.70403 1360.05341,466.070697 C1360.05341,465.627363 1359.78164,465.057363 1360.25724,464.61403 Z M1367.66305,454.54403 C1369.97312,453.657363 1372.21525,452.707363 1374.93298,452.45403 C1378.80574,452.137363 1382.67851,451.757363 1386.34744,450.300697 C1386.48333,450.237363 1386.55127,450.17403 1386.61921,450.17403 C1387.16276,449.98403 1387.77425,450.300697 1387.97808,450.807363 C1386.07567,452.137363 1383.83354,452.960697 1381.45553,453.21403 C1379.48518,453.340697 1377.65071,453.59403 1376.02007,454.607363 C1375.68035,454.797363 1375.34064,455.050697 1375.06887,454.987363 C1372.07936,454.227363 1369.56546,455.87403 1366.71185,456.507363 C1366.44008,455.30403 1366.77979,454.860697 1367.66305,454.54403 Z M1378.87369,460.370697 C1382.95028,458.977363 1387.16276,457.837363 1391.44318,457.077363 C1387.57042,458.977363 1383.62971,461.00403 1378.87369,460.370697 Z M1222.33248,139.650697 C1219.54681,142.310697 1221.38128,145.79403 1220.49802,148.770697 C1220.22624,150.100697 1219.75064,151.367363 1219.07121,152.507363 C1218.39178,152.190697 1218.39178,150.860697 1217.23674,151.30403 C1216.21759,151.68403 1216.28554,152.63403 1216.21759,153.457363 C1216.08171,155.10403 1217.37263,156.687363 1216.21759,158.397363 C1215.87788,158.650697 1215.40227,158.71403 1214.99461,158.52403 C1212.00511,156.497363 1208.54001,156.497363 1205.14285,156.81403 C1202.35717,157.067363 1200.72654,155.927363 1199.29973,154.027363 C1198.48441,152.887363 1197.5332,151.810697 1196.1064,151.430697 C1194.95136,151.620697 1194.74753,152.950697 1193.72838,153.01403 C1192.77718,152.950697 1192.23363,152.127363 1191.69009,151.937363 C1192.77718,148.45403 1196.1064,147.757363 1198.89207,146.300697 C1201.94951,144.717363 1204.73519,142.75403 1207.5888,140.917363 C1210.30653,139.207363 1213.22809,137.750697 1216.28554,136.610697 C1218.39178,135.787363 1220.29419,134.520697 1221.85688,132.937363 C1222.06071,135.15403 1222.1966,137.117363 1222.40043,139.017363 C1222.40043,139.270697 1222.46837,139.52403 1222.33248,139.650697 Z M1208.40412,165.427363 L1212.54866,167.64403 C1213.29603,171.63403 1214.1793,175.43403 1214.24724,179.42403 C1211.6654,175.05403 1209.35533,170.747363 1208.40412,165.427363 Z M1201.33803,184.300697 C1201.67774,181.830697 1205.61845,183.350697 1205.75434,180.75403 L1208.33618,186.580697 C1205.89022,185.440697 1203.58015,184.93403 1201.33803,184.300697 Z M1210.85008,222.237363 C1208.06441,222.997363 1205.82228,221.540697 1204.25958,220.27403 C1202.35717,218.75403 1199.84327,218.18403 1198.28058,216.347363 C1197.94086,215.90403 1197.46526,215.587363 1196.92172,215.460697 C1194.5437,215.397363 1192.64129,214.00403 1190.53505,213.307363 C1185.91491,211.787363 1181.83832,209.06403 1177.15024,207.860697 C1180.34357,207.73403 1182.99335,209.507363 1186.0508,209.697363 C1186.5264,209.697363 1186.93406,209.82403 1187.27378,210.140697 C1188.90441,212.167363 1191.48626,211.850697 1193.66044,212.547363 C1196.78583,213.497363 1200.25093,213.43403 1202.76483,215.90403 C1203.78398,216.917363 1205.48256,216.85403 1206.90937,216.47403 C1208.33618,216.030697 1209.89887,216.030697 1211.39362,216.410697 C1211.93717,217.297363 1211.93717,218.500697 1212.75249,219.260697 L1210.85008,222.237363 Z M1207.5888,250.610697 C1205.75434,249.15403 1203.91987,249.280697 1201.94951,250.10403 C1200.79448,250.547363 1199.43562,251.43403 1198.21264,249.72403 C1199.29973,248.900697 1201.06625,248.837363 1201.74568,247.44403 C1202.0854,247.127363 1202.561,247.000697 1202.96866,247.127363 C1204.66724,247.887363 1206.50171,247.82403 1208.74384,247.127363 C1207.5888,248.39403 1207.79263,249.53403 1207.5888,250.610697 Z M1207.18114,275.247363 C1208.06441,276.260697 1207.31703,277.08403 1206.70554,277.780697 C1206.09405,278.477363 1205.27873,278.160697 1204.53136,277.84403 C1204.05575,277.65403 1203.51221,277.400697 1203.03661,277.147363 C1201.67774,276.387363 1200.38682,276.197363 1199.0959,277.400697 C1198.21264,278.41403 1196.64994,278.60403 1195.49491,277.907363 C1193.86427,277.08403 1191.82597,277.717363 1190.46711,278.60403 C1188.15704,280.060697 1186.0508,279.680697 1183.94456,278.79403 C1182.31392,278.160697 1180.5474,277.780697 1178.78087,277.780697 C1175.044,277.65403 1174.77222,277.717363 1172.93776,274.550697 C1174.97605,274.297363 1176.81052,273.410697 1178.23733,272.080697 C1179.46031,270.940697 1180.61534,270.62403 1182.44981,271.00403 C1184.62399,271.447363 1186.86612,271.510697 1189.0403,271.19403 C1192.50541,270.497363 1196.17434,270.497363 1199.63944,271.257363 C1200.99831,271.57403 1202.561,270.940697 1203.98781,270.750697 C1205.14285,270.62403 1206.36582,270.370697 1207.38497,270.24403 C1208.06441,271.067363 1207.5888,271.57403 1207.18114,272.080697 C1206.43377,273.157363 1206.29788,274.23403 1207.18114,275.247363 Z M1205.48256,315.970697 C1205.55051,316.477363 1204.32753,317.17403 1203.58015,316.540697 C1202.01746,315.210697 1199.63944,315.970697 1198.00881,314.767363 C1197.73703,314.577363 1197.39732,314.51403 1197.0576,314.577363 C1193.93221,315.780697 1190.87477,314.830697 1187.74938,314.89403 C1185.5752,314.957363 1183.74073,314.640697 1182.17803,313.37403 C1180.00385,314.260697 1174.36456,314.32403 1171.78272,313.37403 C1175.38371,312.80403 1178.57704,311.157363 1182.11009,312.42403 C1182.78952,312.677363 1183.5369,312.550697 1184.08044,312.107363 C1185.84697,310.207363 1188.36087,311.347363 1190.39917,310.650697 C1191.0786,310.52403 1191.82597,310.587363 1192.36952,310.967363 C1194.47576,312.297363 1196.24228,311.727363 1197.87292,310.33403 C1198.82413,309.510697 1199.91122,309.637363 1200.99831,309.510697 C1202.69689,309.320697 1204.39547,310.017363 1205.34668,311.410697 C1206.36582,312.677363 1205.41462,314.450697 1205.48256,315.970697 Z M1198.75618,434.087363 C1195.63079,434.97403 1192.77718,437.000697 1189.17619,436.49403 C1187.81732,436.30403 1186.5264,436.30403 1185.50725,437.507363 C1184.82782,438.267363 1183.74073,438.58403 1182.72158,438.20403 C1180.41151,437.44403 1178.30527,437.887363 1175.92726,439.34403 C1176.53875,435.16403 1179.32442,433.327363 1182.78952,434.467363 C1183.80867,434.910697 1185.03165,434.847363 1185.98286,434.340697 C1187.61349,433.517363 1189.65179,433.327363 1191.41831,433.960697 C1192.77718,434.40403 1194.00016,434.530697 1195.29108,433.580697 C1196.582,432.630697 1198.00881,433.07403 1199.36767,432.947363 C1199.50356,433.390697 1199.23179,433.897363 1198.75618,434.087363 Z M1185.98286,465.75403 C1183.33307,466.070697 1180.61534,466.13403 1178.30527,465.120697 C1176.74258,464.360697 1174.84017,464.297363 1173.20953,464.930697 C1171.51095,465.56403 1169.88031,466.32403 1168.11379,465.120697 C1167.43435,464.677363 1166.55109,464.99403 1165.80372,465.057363 C1164.92045,465.120697 1163.96925,465.310697 1163.15393,464.80403 C1160.97975,463.537363 1158.73762,463.537363 1156.29166,463.85403 C1154.72897,464.107363 1153.16628,463.727363 1151.9433,462.840697 C1149.29351,460.940697 1145.96429,462.080697 1142.63507,461.890697 L1140.52883,458.34403 C1142.43124,459.48403 1144.12983,459.040697 1145.62458,459.86403 C1146.57578,460.43403 1147.59493,459.927363 1148.47819,459.48403 C1150.51649,458.470697 1152.35096,459.040697 1153.91365,460.43403 C1155.74812,462.080697 1157.51464,462.90403 1159.9606,461.637363 C1161.25152,460.940697 1162.40655,461.827363 1163.4257,462.33403 C1164.9884,463.030697 1166.61903,462.840697 1168.24967,463.09403 C1171.64683,463.600697 1174.97605,462.207363 1178.30527,463.410697 C1179.25648,463.790697 1180.27562,463.85403 1181.29477,463.600697 C1183.46896,462.840697 1184.89576,463.727363 1186.25463,465.310697 C1186.11874,465.56403 1185.98286,465.690697 1185.98286,465.75403 Z M1129.25026,340.92403 C1127.00813,341.810697 1125.03778,343.20403 1122.99948,344.407363 C1122.59182,344.597363 1122.25211,344.850697 1121.23296,344.407363 C1127.68756,339.720697 1134.54983,336.110697 1141.61593,332.120697 C1142.22742,334.46403 1141.00444,335.287363 1139.8494,335.730697 C1136.11252,337.12403 1132.91919,339.467363 1129.25026,340.92403 Z M1138.01493,377.59403 L1138.01493,377.467363 L1138.01493,377.59403 Z M1135.77281,380.380697 C1132.85125,381.20403 1130.54118,383.10403 1127.95934,384.43403 C1125.51338,385.637363 1122.99948,386.777363 1120.75735,388.297363 C1118.3114,390.007363 1115.45778,390.260697 1112.46828,389.310697 C1116.00133,387.09403 1119.73821,385.130697 1123.61097,383.547363 C1126.60047,382.407363 1129.52203,381.140697 1132.51153,379.937363 C1134.27806,379.177363 1135.90869,377.910697 1137.94699,377.78403 C1138.21876,379.30403 1136.79196,380.127363 1135.77281,380.380697 Z M1118.92289,463.600697 C1118.85494,463.600697 1118.787,463.47403 1118.71906,463.410697 C1118.51523,463.09403 1118.58317,462.71403 1118.92289,462.52403 C1122.93154,461.00403 1126.73636,459.040697 1131.22061,458.53403 C1128.09522,462.270697 1123.61097,463.157363 1118.92289,463.600697 Z M1105.60601,270.62403 C1105.60601,269.040697 1105.87779,267.457363 1106.28545,265.937363 C1106.42133,265.240697 1107.37254,265.557363 1108.05197,265.68403 C1111.10942,266.25403 1114.2348,266.570697 1116.68076,269.040697 C1115.7975,270.05403 1114.57452,270.62403 1113.21566,270.687363 C1111.2453,270.940697 1109.20701,271.067363 1107.23665,271.257363 C1106.55722,271.320697 1105.60601,271.320697 1105.60601,270.62403 Z M1107.57637,163.337363 C1108.05197,162.197363 1108.93523,161.18403 1110.09027,160.550697 C1112.67211,159.09403 1113.01183,162.51403 1115.05012,162.387363 L1114.57452,165.870697 C1112.60417,164.477363 1110.49793,163.907363 1108.32374,164.477363 C1107.7802,164.097363 1107.44048,163.717363 1107.57637,163.337363 Z M1112.67211,111.340697 C1114.64246,109.757363 1116.06927,107.667363 1116.81665,105.387363 C1117.08842,104.56403 1117.42814,103.550697 1118.85494,104.057363 C1118.51523,103.61403 1118.787,103.360697 1119.12672,103.04403 C1119.53438,103.487363 1119.60232,103.867363 1118.85494,104.057363 C1118.24345,108.237363 1117.29225,112.227363 1112.40034,114.380697 C1111.7209,113.050697 1111.65296,112.227363 1112.67211,111.340697 Z M1107.64431,179.170697 C1108.05197,177.397363 1107.50842,175.560697 1109.00318,174.10403 C1111.92473,176.38403 1114.71041,178.66403 1118.10757,180.247363 C1114.2348,181.640697 1111.04147,180.437363 1107.64431,179.170697 Z M1146.50784,277.400697 C1142.8389,277.08403 1139.50969,276.767363 1136.18047,276.640697 C1133.19097,276.51403 1128.23111,277.210697 1126.8043,276.767363 C1128.02728,275.56403 1129.7938,276.13403 1131.22061,275.690697 C1135.36515,274.487363 1139.57763,273.600697 1143.72217,272.587363 C1145.62458,272.14403 1146.71167,272.840697 1146.84755,274.80403 C1146.77961,275.690697 1146.71167,276.577363 1146.50784,277.400697 Z M1138.08288,317.680697 C1135.70486,318.31403 1133.46274,319.327363 1131.01678,319.960697 C1130.33735,320.150697 1129.58997,320.087363 1129.04643,319.707363 C1131.28855,317.55403 1133.53068,316.03403 1136.72401,316.097363 C1138.01493,316.097363 1139.30586,315.907363 1140.325,314.767363 C1141.07238,313.94403 1142.29536,313.437363 1143.51834,312.677363 C1142.97479,315.907363 1140.25706,317.110697 1138.08288,317.680697 Z M1142.02359,435.16403 C1141.8877,434.59403 1142.97479,434.467363 1143.926,433.770697 C1143.72217,437.000697 1143.72217,437.000697 1146.71167,440.29403 C1145.21692,441.43403 1143.45039,440.990697 1141.81976,441.24403 C1140.93649,439.090697 1142.56713,437.190697 1142.02359,435.16403 Z M1123.06742,226.480697 C1123.88274,226.797363 1124.83395,226.860697 1125.71721,226.73403 C1127.68756,226.290697 1129.45409,226.480697 1130.94884,227.937363 C1131.3565,228.25403 1131.96799,228.507363 1132.51153,228.507363 C1136.24841,228.63403 1139.71352,229.837363 1143.38245,230.34403 C1144.74131,230.53403 1145.76046,230.027363 1146.98344,229.900697 C1148.88585,229.647363 1149.08968,229.77403 1149.15762,232.687363 C1146.64372,231.29403 1144.33366,232.62403 1142.02359,232.117363 C1141.34415,231.990697 1140.73266,231.86403 1140.12117,231.610697 C1137.26756,230.027363 1134.00628,230.34403 1131.01678,229.457363 C1127.89139,228.507363 1124.69806,228.697363 1121.57267,228.44403 C1120.00998,228.380697 1118.85494,226.73403 1117.02048,227.050697 C1115.3219,225.02403 1112.67211,225.59403 1110.49793,225.02403 C1109.41083,224.707363 1108.39169,224.45403 1107.7802,223.440697 C1108.59552,223.250697 1109.34289,222.997363 1110.09027,223.31403 C1114.2348,224.897363 1118.787,225.21403 1123.06742,226.480697 Z M1126.46459,146.36403 C1127.21196,145.857363 1128.16317,145.22403 1127.95934,144.337363 C1127.41579,141.740697 1129.65792,141.297363 1131.3565,140.030697 L1141.68387,156.940697 C1133.93834,155.29403 1126.26076,156.370697 1119.87409,151.937363 C1122.25211,150.100697 1124.08657,147.947363 1126.46459,146.36403 Z M1123.40714,89.17403 L1123.3392,89.3006967 L1123.20331,89.17403 L1123.40714,89.17403 Z M1124.83395,77.4573633 C1124.90189,78.2173633 1124.63012,78.6606967 1123.47508,78.53403 C1123.61097,77.7106967 1123.95069,77.3306967 1124.83395,77.4573633 Z M1126.05693,114.950697 L1126.12487,114.887363 L1126.05693,115.140697 L1126.05693,114.950697 Z M1133.46274,100.95403 C1135.22926,99.3706967 1136.3843,97.2806967 1137.94699,95.5073633 C1140.52883,92.6573633 1143.24656,89.8706967 1146.10018,86.8306967 C1147.52699,90.31403 1149.97294,93.2906967 1153.23422,95.3806967 C1154.38925,96.0773633 1156.29166,97.34403 1155.4084,99.7506967 C1154.66103,98.48403 1154.18542,97.34403 1152.48684,97.34403 C1150.78826,97.34403 1149.76911,98.1673633 1148.88585,99.3706967 C1147.8667,100.76403 1146.71167,102.030697 1145.55663,103.487363 C1143.17862,103.23403 1141.20827,101.71403 1138.69437,101.967363 C1137.26756,103.550697 1138.76231,104.500697 1139.44174,105.577363 L1137.47139,106.210697 C1138.42259,107.287363 1137.53933,108.490697 1137.53933,109.630697 C1132.78331,107.287363 1132.57948,107.287363 1129.86175,111.78403 C1128.97849,113.177363 1128.02728,114.25403 1126.39664,114.63403 C1127.14402,112.35403 1128.29905,110.07403 1128.97849,107.730697 C1129.7938,105.13403 1131.3565,102.790697 1133.46274,100.95403 Z M1159.75677,104.057363 C1159.34911,106.46403 1159.28117,108.74403 1158.66968,111.150697 C1156.9711,110.64403 1155.06869,110.517363 1153.91365,108.427363 C1156.56344,107.667363 1158.12613,105.89403 1159.75677,104.057363 Z M1159.9606,118.81403 C1159.89265,119.510697 1160.16443,120.587363 1158.87351,120.840697 C1157.78641,121.030697 1157.51464,120.397363 1157.10698,119.76403 C1156.42755,118.940697 1155.54429,118.307363 1154.4572,117.990697 C1152.69067,117.29403 1151.26386,116.090697 1150.3806,114.507363 C1150.04089,113.810697 1150.3806,113.30403 1151.19592,112.92403 C1152.28301,113.49403 1153.3701,114.190697 1154.4572,114.82403 C1155.00074,115.20403 1155.61223,115.457363 1156.29166,115.457363 C1159.07734,115.520697 1160.02854,116.34403 1159.9606,118.81403 Z M1167.16258,304.06403 C1166.21138,304.507363 1165.12428,304.570697 1164.17308,304.25403 C1163.62953,304.06403 1163.08599,304.06403 1162.54244,304.25403 C1160.57209,305.710697 1158.12613,304.950697 1155.61223,305.77403 C1156.08783,304.697363 1156.56344,303.937363 1156.69932,303.11403 C1156.76727,301.40403 1157.85436,299.31403 1155.13663,298.300697 C1154.32131,297.857363 1153.98159,296.907363 1154.38925,296.147363 C1157.31081,296.590697 1160.36826,295.957363 1163.01804,298.237363 C1164.37691,299.440697 1166.61903,298.490697 1168.52145,298.617363 C1169.81237,298.74403 1171.23917,298.110697 1172.32627,299.250697 C1172.46215,299.377363 1172.80187,299.567363 1172.93776,299.50403 C1176.40286,298.680697 1179.52825,300.07403 1182.65364,300.770697 C1181.83832,302.290697 1180.27562,301.21403 1179.05265,301.340697 C1177.55789,301.530697 1176.94641,302.290697 1176.53875,303.557363 C1173.34541,303.177363 1170.22003,303.11403 1167.16258,304.06403 Z M1166.95875,334.65403 C1166.07549,333.640697 1166.55109,332.437363 1165.39606,331.80403 C1165.9396,331.42403 1166.34726,331.04403 1166.41521,331.107363 C1167.84201,331.99403 1169.13293,332.880697 1171.03534,331.867363 C1171.51095,331.61403 1172.19038,332.56403 1172.46215,333.450697 C1170.76357,335.60403 1168.65733,334.020697 1166.95875,334.65403 Z M1141.75181,120.71403 C1141.81976,119.510697 1143.24656,119.637363 1143.72217,118.877363 C1146.57578,119.890697 1148.61408,122.107363 1151.39975,123.120697 C1153.16628,123.75403 1153.03039,125.46403 1153.64188,127.17403 C1157.31081,125.780697 1158.05819,128.50403 1159.75677,130.087363 C1157.24287,131.92403 1155.27252,131.290697 1153.3701,129.580697 C1151.19592,127.490697 1148.88585,125.527363 1146.71167,123.437363 C1144.4016,121.28403 1144.4016,121.28403 1141.75181,120.71403 Z M1140.73266,125.020697 C1141.07238,125.08403 1141.48004,125.27403 1141.81976,125.46403 C1144.4016,127.427363 1145.96429,130.340697 1148.61408,132.30403 C1146.57578,132.177363 1144.80926,131.417363 1142.8389,132.050697 C1142.15947,132.240697 1141.61593,131.670697 1141.14032,131.227363 C1140.18912,130.277363 1139.8494,129.07403 1139.23791,127.870697 C1139.71352,126.920697 1140.86855,126.22403 1140.73266,125.020697 Z M1139.98529,124.51403 C1139.23791,124.32403 1138.49054,124.387363 1137.81111,124.70403 L1138.76231,122.867363 C1139.44174,123.310697 1139.57763,124.007363 1139.98529,124.51403 Z M1149.56528,221.350697 C1148.00259,219.957363 1145.76046,219.387363 1143.65422,219.89403 C1143.24656,220.020697 1142.77096,219.89403 1142.3633,219.70403 C1139.16997,217.550697 1135.22926,218.37403 1131.76416,217.297363 C1129.7938,216.727363 1127.95934,216.537363 1126.73636,214.76403 C1126.19281,214.19403 1125.58132,213.750697 1124.90189,213.370697 C1128.91054,215.397363 1134.00628,214.827363 1138.01493,217.487363 C1138.55848,217.80403 1139.23791,217.99403 1139.91735,217.930697 C1145.42075,217.740697 1145.42075,217.740697 1149.56528,221.350697 Z M1147.18727,175.62403 C1146.16812,174.230697 1145.69252,172.39403 1144.12983,171.25403 C1143.04273,172.520697 1142.8389,172.96403 1142.49919,174.800697 C1139.64557,173.407363 1139.16997,170.810697 1138.15082,168.150697 C1141.61593,168.78403 1144.67337,167.580697 1148.13848,167.897363 C1147.93465,169.92403 1149.83706,170.430697 1151.26386,171.127363 C1151.26386,172.647363 1149.63323,171.63403 1149.29351,172.837363 C1151.06003,174.10403 1153.84571,175.180697 1152.35096,178.347363 C1150.24472,178.347363 1148.27436,177.33403 1147.18727,175.62403 Z M1161.04769,386.207363 C1158.05819,386.90403 1155.54429,388.80403 1152.35096,388.04403 C1153.57393,383.800697 1156.83521,383.990697 1161.04769,386.207363 Z M1150.04089,370.94403 C1152.28301,370.75403 1152.35096,368.537363 1154.18542,367.777363 C1156.76727,367.967363 1159.75677,369.170697 1162.67833,367.33403 C1163.90131,366.510697 1165.19223,367.080697 1166.48315,368.47403 C1160.84386,369.550697 1155.54429,370.56403 1150.04089,370.94403 Z M1173.14158,354.60403 C1172.46215,354.477363 1171.78272,354.160697 1171.17123,354.477363 C1169.26882,355.55403 1167.16258,355.237363 1164.71662,355.17403 C1168.18173,353.527363 1171.64683,353.147363 1175.17988,353.210697 C1178.64499,353.210697 1182.04215,352.51403 1185.16754,351.18403 C1187.20583,350.360697 1189.31207,350.107363 1191.28243,349.47403 C1191.82597,349.28403 1192.36952,349.28403 1192.91306,349.47403 C1193.72838,349.980697 1194.47576,349.980697 1195.22313,349.85403 C1194.81548,350.170697 1194.47576,350.61403 1194.13604,350.99403 C1193.11689,352.197363 1191.48626,352.70403 1189.92356,352.32403 C1187.40966,351.880697 1184.82782,351.627363 1182.65364,353.527363 C1182.11009,353.970697 1181.43066,353.84403 1180.75123,353.84403 C1178.91676,353.717363 1177.15024,353.780697 1175.45165,354.540697 C1174.70428,354.79403 1173.88896,354.857363 1173.14158,354.60403 Z M1174.70428,259.540697 C1171.443,262.707363 1167.29847,262.200697 1163.62953,263.150697 C1162.13478,263.530697 1160.57209,263.59403 1159.07734,263.340697 C1158.26202,263.21403 1157.51464,262.707363 1157.10698,262.010697 C1159.34911,261.060697 1160.4362,259.22403 1161.25152,257.007363 C1165.73577,257.767363 1169.88031,259.60403 1174.70428,259.540697 Z M1186.25463,222.74403 C1186.0508,223.69403 1186.11874,224.45403 1185.09959,224.327363 C1182.44981,224.010697 1179.66413,224.390697 1177.55789,221.98403 C1176.19903,220.400697 1173.82102,220.970697 1171.64683,221.03403 L1170.69563,217.107363 C1176.06314,219.197363 1181.09094,221.287363 1186.25463,222.74403 Z M1166.48315,175.750697 C1170.42386,175.750697 1174.29662,174.990697 1178.16938,174.48403 C1179.86796,174.167363 1181.63449,174.48403 1183.0613,175.43403 C1181.36272,175.307363 1180.07179,176.320697 1178.78087,177.017363 C1174.97605,179.04403 1174.90811,183.730697 1178.64499,185.947363 C1180.68328,187.087363 1182.51775,188.607363 1184.89576,189.240697 C1185.5752,189.49403 1186.11874,189.87403 1186.5264,190.44403 C1181.90626,191.837363 1177.89761,189.050697 1173.4813,188.290697 C1171.98655,188.037363 1170.69563,187.277363 1169.33676,188.35403 C1167.02669,183.350697 1167.02669,183.350697 1162.40655,181.70403 C1163.22187,180.057363 1162.33861,178.537363 1161.79507,176.95403 C1163.15393,176.067363 1164.85251,175.687363 1166.48315,175.750697 Z M1192.43746,155.547363 L1199.0959,158.967363 C1190.19534,163.717363 1180.20768,166.31403 1169.94825,166.630697 C1170.28797,165.047363 1171.51095,164.79403 1172.32627,164.60403 C1175.92726,163.527363 1178.57704,160.930697 1181.90626,159.600697 C1183.74073,158.840697 1184.14839,156.940697 1185.84697,155.927363 C1188.22498,154.53403 1190.12739,154.34403 1192.43746,155.547363 Z M1175.31577,128.187363 C1176.67463,127.870697 1178.0335,127.36403 1179.25648,126.667363 C1183.33307,124.32403 1188.15704,124.260697 1192.30158,121.980697 C1194.5437,120.777363 1195.35902,118.877363 1197.39732,116.850697 C1193.52455,116.470697 1190.603,114.127363 1187.06995,116.34403 C1186.11874,116.977363 1184.69193,117.10403 1184.42016,115.20403 C1190.80682,112.92403 1197.0576,113.050697 1203.71604,114.82403 C1203.17249,115.647363 1202.62895,116.280697 1203.10455,117.10403 C1203.51221,117.67403 1204.1237,117.990697 1204.80313,117.990697 C1206.02611,118.117363 1207.18114,118.370697 1208.40412,118.62403 C1209.55916,118.877363 1210.91802,118.877363 1211.46157,120.207363 C1208.20029,121.030697 1204.87107,121.28403 1201.54186,120.967363 C1200.45476,120.90403 1198.96001,120.650697 1198.34852,122.61403 C1204.05575,124.640697 1209.96682,124.32403 1215.80993,124.197363 C1216.55731,124.89403 1216.6932,125.717363 1216.96497,126.60403 C1213.0922,127.74403 1209.49121,129.45403 1205.95817,131.16403 C1205.27873,131.54403 1205.00696,132.30403 1205.21079,133.000697 C1206.6376,134.647363 1209.35533,131.73403 1210.71419,134.140697 C1206.90937,136.800697 1202.561,138.637363 1198.41647,140.85403 C1195.69874,142.310697 1192.57335,143.197363 1189.85562,144.907363 C1188.5647,145.730697 1186.79817,145.097363 1185.16754,145.03403 C1186.0508,141.487363 1189.71973,141.550697 1192.30158,140.410697 C1194.13604,139.587363 1195.76668,138.510697 1197.19349,137.180697 C1198.21264,136.420697 1198.48441,135.027363 1197.73703,134.01403 C1197.0576,132.87403 1195.90257,132.937363 1194.74753,133.25403 C1193.5925,133.44403 1192.50541,133.760697 1191.48626,134.140697 C1186.93406,136.357363 1181.77038,136.67403 1176.87846,137.687363 C1174.43251,138.19403 1172.19038,138.890697 1169.67648,139.650697 C1170.69563,138.38403 1170.76357,136.67403 1169.94825,135.217363 C1169.26882,133.950697 1167.63818,133.127363 1167.70613,131.227363 C1170.0162,129.83403 1172.59804,128.820697 1175.31577,128.187363 Z M1210.1027,71.1873633 C1212.00511,72.64403 1214.6549,72.1373633 1216.48937,73.78403 C1218.05206,75.11403 1220.43007,75.3673633 1222.26454,76.8873633 C1219.54681,77.39403 1214.04341,74.7973633 1210.1027,71.1873633 Z M1070.00376,426.107363 C1071.49851,425.85403 1072.85738,426.360697 1074.28418,426.61403 C1075.43922,428.640697 1076.6622,430.667363 1079.85553,429.84403 C1080.6029,429.65403 1080.67085,429.84403 1081.41822,431.74403 C1075.64305,431.17403 1075.64305,431.17403 1070.00376,426.107363 Z M1067.5578,424.460697 C1067.42192,423.637363 1067.96546,424.207363 1068.16929,424.33403 C1068.37312,424.460697 1068.57695,424.650697 1068.84873,424.840697 C1068.23724,425.030697 1067.5578,424.840697 1067.5578,424.460697 Z M1064.02476,398.810697 C1063.20944,398.620697 1062.46206,398.30403 1061.71469,397.987363 C1060.89937,397.607363 1060.15199,397.16403 1059.33667,396.657363 C1053.5615,392.730697 1047.44661,389.56403 1042.01115,385.76403 C1050.16434,387.030697 1056.27923,391.46403 1063.20944,395.707363 C1063.88887,395.897363 1064.50036,396.02403 1064.90802,396.59403 C1065.31568,397.480697 1063.82093,397.92403 1064.02476,398.810697 Z M1037.86661,468.98403 C1042.69058,463.66403 1050.84377,475.06403 1055.32802,478.10403 C1055.87157,478.547363 1056.34717,478.990697 1056.89072,479.370697 C1058.52136,480.57403 1060.35582,481.52403 1062.32618,482.157363 C1063.54915,482.600697 1064.84008,483.170697 1064.77213,485.070697 C1061.17114,483.99403 1057.63809,482.85403 1054.30887,481.33403 C1053.62944,481.017363 1052.95001,480.700697 1052.33852,480.38403 C1048.80547,477.53403 1041.33172,476.900697 1040.38051,471.83403 C1040.24463,471.390697 1039.70108,470.820697 1039.08959,470.250697 C1038.68193,469.870697 1038.20633,469.427363 1037.86661,468.98403 Z M1027.74307,446.247363 C1032.4991,449.097363 1037.93456,445.297363 1043.37001,445.930697 C1045.40831,445.930697 1046.76718,447.197363 1047.99015,448.020697 C1048.73753,448.46403 1049.48491,448.970697 1050.23228,449.60403 C1050.91171,450.17403 1051.59115,450.870697 1052.20263,451.630697 C1052.47441,452.580697 1053.15384,453.340697 1054.10505,453.78403 C1056.61894,455.177363 1057.57015,457.77403 1059.26873,459.800697 C1056.68689,458.470697 1054.17299,457.077363 1051.93086,455.30403 C1051.38732,454.860697 1050.84377,454.35403 1050.36817,453.847363 C1049.89256,453.340697 1049.41696,452.770697 1048.94136,452.200697 C1043.37001,447.197363 1035.89626,448.46403 1029.37371,447.577363 C1028.89811,447.13403 1028.4225,446.817363 1027.74307,446.247363 Z M1057.77398,418.06403 C1058.18164,418.25403 1058.38547,418.507363 1058.18164,418.950697 C1058.1137,419.01403 1057.97781,419.077363 1057.90987,419.077363 C1057.63809,418.760697 1057.36632,418.44403 1057.77398,418.06403 C1055.66774,417.49403 1054.44476,415.657363 1052.27058,415.150697 C1051.25143,414.960697 1051.31937,413.187363 1050.77583,412.17403 C1054.71653,412.300697 1055.93951,413.31403 1057.77398,418.06403 Z M1084.61156,129.580697 C1083.32063,127.617363 1081.82588,125.970697 1081.21439,124.070697 C1080.46702,121.85403 1078.76844,119.827363 1079.04021,117.29403 C1079.1761,116.090697 1078.22489,114.950697 1076.93397,114.82403 C1075.57511,114.63403 1075.43922,114.127363 1075.0995,113.11403 C1074.48801,111.087363 1073.40092,109.250697 1073.19709,106.970697 C1074.6239,106.717363 1075.98277,106.337363 1077.27369,105.767363 C1079.44787,106.907363 1080.05936,108.680697 1080.26319,110.580697 C1080.39908,111.97403 1080.53496,113.11403 1082.23354,113.49403 C1083.18475,113.68403 1083.1168,114.570697 1083.25269,115.267363 C1083.79624,117.86403 1083.72829,120.460697 1083.93212,123.057363 C1084.06801,125.08403 1085.35893,127.047363 1084.61156,129.580697 Z M1082.70915,188.860697 C1081.62205,188.037363 1080.94262,186.770697 1079.1761,186.707363 C1078.56461,186.707363 1078.02106,186.07403 1077.68135,185.50403 C1075.71099,182.46403 1072.72149,180.310697 1069.93582,177.967363 C1068.98461,177.14403 1068.16929,176.130697 1067.42192,175.117363 C1066.53866,173.91403 1065.85922,172.58403 1064.22859,172.077363 C1064.02476,172.01403 1063.82093,171.887363 1063.68504,171.697363 C1061.51086,167.770697 1057.29838,164.920697 1057.23043,159.980697 C1057.16249,158.397363 1054.85242,157.637363 1055.5998,155.547363 C1060.15199,157.19403 1065.17979,157.637363 1069.05256,160.867363 C1070.75114,162.13403 1072.51766,163.210697 1074.42007,164.097363 C1076.25454,165.047363 1077.81723,166.187363 1077.34163,168.467363 C1077.06986,169.73403 1078.42872,170.810697 1077.88518,172.077363 C1072.78943,168.97403 1069.25639,164.287363 1064.5683,160.80403 C1063.48121,161.500697 1063.75298,162.070697 1064.22859,162.577363 C1067.01426,165.300697 1069.86787,167.960697 1072.65355,170.68403 C1074.75979,172.837363 1076.86603,174.990697 1078.90432,177.207363 C1080.26319,178.66403 1080.87468,180.437363 1081.48617,182.27403 C1082.1656,184.490697 1083.04886,186.580697 1082.70915,188.860697 Z M1073.53681,190.82403 C1071.77029,188.92403 1069.18844,187.910697 1067.15015,186.390697 C1066.06305,185.567363 1064.84008,184.55403 1065.51951,182.907363 C1066.06305,181.51403 1063.68504,180.690697 1064.97596,178.600697 C1068.50901,183.160697 1071.83823,187.40403 1075.98277,191.01403 C1075.23539,191.457363 1074.21624,191.39403 1073.53681,190.82403 Z M1068.10135,122.360697 C1073.19709,128.630697 1076.18659,135.850697 1079.1761,143.767363 C1077.68135,143.070697 1076.59425,141.867363 1076.11865,140.410697 C1073.80858,134.267363 1069.05256,129.07403 1068.10135,122.360697 Z M1044.04945,145.857363 L1044.04945,145.60403 L1044.38916,145.730697 L1044.04945,145.857363 Z M1228.78709,146.36403 C1239.45418,143.70403 1250.12126,143.13403 1260.72041,141.42403 C1260.38069,142.500697 1259.36154,142.437363 1258.54623,142.75403 C1257.59502,143.197363 1256.71176,143.51403 1255.76055,143.830697 C1249.84949,145.41403 1244.14226,147.567363 1238.02737,148.26403 C1236.46468,148.45403 1235.92113,149.720697 1235.10581,149.97403 C1233.2034,150.54403 1231.30099,151.810697 1229.05886,151.240697 C1227.63206,149.59403 1229.19475,148.010697 1228.78709,146.36403 Z M1275.05643,167.897363 C1278.24976,168.150697 1281.30721,167.580697 1284.29671,166.88403 C1286.13118,166.440697 1287.4221,167.327363 1288.71302,168.40403 C1283.54933,169.227363 1278.45359,168.78403 1272.95019,168.720697 C1273.42579,168.087363 1274.24111,167.770697 1275.05643,167.897363 Z M1313.17258,333.197363 C1315.68648,332.817363 1318.26833,332.500697 1320.85017,332.18403 C1325.19853,331.677363 1329.61484,331.360697 1333.96321,330.410697 C1335.59385,330.157363 1337.15654,329.967363 1338.78718,329.90403 C1337.83598,330.790697 1337.15654,330.85403 1336.88477,331.487363 C1336.13739,333.387363 1334.50676,333.957363 1332.46846,333.89403 C1328.66364,333.830697 1324.85882,334.147363 1321.12194,334.780697 C1317.86067,335.350697 1314.32762,334.907363 1310.65868,334.907363 C1310.93046,333.260697 1312.22138,333.260697 1313.17258,333.197363 Z M1382.54262,319.64403 C1381.31964,320.847363 1378.60191,320.21403 1379.00957,322.557363 C1379.28135,322.620697 1379.55312,322.747363 1379.41723,323.000697 C1379.28135,323.25403 1378.94163,323.06403 1378.66986,322.87403 C1376.6995,322.557363 1375.00092,321.480697 1372.89468,320.910697 C1376.15596,320.720697 1378.94163,318.757363 1382.54262,319.64403 Z M1342.32023,391.527363 C1344.35853,390.450697 1346.80448,390.450697 1348.84278,389.247363 C1349.45427,388.99403 1350.20164,389.057363 1350.81313,389.310697 C1352.78349,389.94403 1354.95767,389.437363 1357.06391,389.75403 C1356.58831,391.147363 1355.36533,390.32403 1354.41412,390.830697 C1353.46292,391.337363 1352.57966,391.717363 1352.44377,392.730697 C1352.30788,393.74403 1353.25909,394.187363 1354.00646,394.567363 C1354.82178,394.88403 1355.6371,395.390697 1356.24859,396.02403 C1353.05526,395.770697 1349.79398,395.580697 1346.60065,395.200697 C1345.78533,395.07403 1345.03796,395.07403 1344.29058,395.200697 C1342.79583,395.64403 1341.09725,395.327363 1339.87427,394.31403 C1339.26278,393.93403 1338.58335,393.55403 1337.83598,393.300697 C1338.78718,391.590697 1340.89342,392.287363 1342.32023,391.527363 Z M1349.72604,374.427363 C1352.30788,376.200697 1355.50122,375.50403 1358.28689,376.327363 C1358.76249,376.45403 1359.23809,376.45403 1359.64575,376.517363 C1360.1893,376.64403 1360.6649,376.960697 1360.52901,377.59403 C1360.39313,378.227363 1360.12136,378.92403 1359.23809,378.54403 C1357.94717,377.97403 1356.92802,378.480697 1355.77299,378.92403 C1353.66675,379.68403 1353.46292,379.620697 1349.31838,377.97403 C1349.86193,376.770697 1348.91072,375.69403 1349.72604,374.427363 Z M3015.96582,376.897363 L3015.96582,373.097363 L2745.41588,385.19403 L2744.1929,385.637363 L2499.86905,396.530697 L2494.09387,398.747363 L2387.35506,483.360697 L2369.96159,490.64403 L2370.77691,493.810697 L2382.19137,494.190697 L2382.53109,556.447363 L2380.42553,569.49403 L2380.22102,570.697363 L2380.28896,575.067363 L2379.06666,587.037363 L2376.14442,595.587363 L2371.66017,598.057363 L2362.96344,598.310697 L2347.94798,598.56403 L2340.20245,599.577363 L2335.7182,600.08403 L2332.45693,599.640697 L2325.52672,600.337363 L2316.21917,601.03403 L2310.91892,600.780697 L2303.03751,600.970697 L2302.01836,601.03403 L2290.6039,602.680697 L2286.66319,603.187363 L2274.50135,604.390697 L2265.60079,605.847363 L2259.68973,606.607363 L2254.05044,606.670697 L2248.54704,606.227363 L2238.35555,606.670697 L2223.74776,608.507363 L2222.52478,608.887363 L2217.70081,609.837363 L2213.69216,611.10403 L2203.63588,613.700697 L2199.62791,613.637363 L2195.6872,613.57403 L2187.26224,612.307363 L2185.29121,612.497363 L2178.36168,612.687363 L2172.65445,612.560697 L2167.0831,612.62403 L2159.60935,612.307363 L2149.07815,613.700697 L2144.79772,614.14403 L2138.27517,614.967363 L2132.0244,614.017363 L2120.81376,613.76403 L2107.29306,614.017363 L2093.09293,615.600697 L2088.54073,614.967363 L2076.92176,616.297363 L2075.02003,616.80403 L2067.88599,619.46403 L2059.86869,616.04403 L2052.12248,613.890697 L2048.45422,614.017363 L2044.98844,614.017363 L2042.47522,614.14403 L2039.8927,614.270697 L2034.72969,613.510697 L2033.167,613.19403 L2026.30405,612.370697 L2021.14104,610.217363 L2016.5209,607.557363 L2008.97853,603.31403 L2008.23183,602.74403 L2001.64134,599.197363 L1998.65183,598.817363 L1991.24602,599.197363 L1985.74262,596.47403 L1980.78209,603.060697 L1977.65738,603.440697 L1969.70802,603.060697 L1968.34915,603.060697 L1960.12802,603.757363 L1958.49739,603.88403 L1947.96618,604.200697 L1942.93839,602.807363 L1943.34605,601.540697 L1948.84877,586.40403 L1948.57767,585.897363 L1950.20763,581.210697 L1952.92536,576.33403 L1950.68391,572.72403 L1947.08292,573.10403 L1946.81047,574.940697 L1945.04463,578.867363 L1941.0353,586.847363 L1940.96803,588.367363 L1941.17186,591.597363 L1939.40534,596.157363 L1938.18236,595.587363 L1938.31757,589.190697 L1938.38619,587.797363 L1936.82282,583.237363 L1932.74622,565.250697 L1930.57272,560.37403 L1928.53442,553.850697 L1926.15641,549.16403 L1922.75925,543.907363 L1921.80804,542.32403 L1917.05202,536.560697 L1914.06183,536.877363 L1915.01372,539.157363 L1921.33176,548.530697 L1921.60421,549.417363 L1926.4275,560.37403 L1928.4658,567.40403 L1930.77655,578.107363 L1931.25215,580.007363 L1929.21385,580.89403 L1922.55474,583.93403 L1930.64066,594.38403 L1933.01867,598.310697 L1932.88211,599.89403 L1932.2713,599.450697 L1929.62151,597.80403 L1920.04152,588.430697 L1909.85003,580.387363 L1899.65855,571.58403 L1897.21191,569.430697 L1888.1082,562.717363 L1880.29473,558.85403 L1876.82894,559.99403 L1879.41147,561.70403 L1884.71104,563.730697 L1891.23359,568.480697 L1896.1255,572.91403 L1901.08536,577.220697 L1911.88833,586.467363 L1919.97289,593.750697 L1925.34109,598.310697 L1930.09712,603.947363 L1928.39853,604.960697 L1919.56591,604.45403 L1910.25769,604.83403 L1908.01557,604.897363 L1902.24039,602.490697 L1895.78578,599.70403 L1889.80678,596.917363 L1879.20764,604.26403 L1875.87842,603.37673 L1866.50225,602.047363 L1862.69743,601.350697 L1856.92226,600.337363 L1856.10694,599.89403 L1850.46765,596.980697 L1844.28482,595.90403 L1835.52014,593.117363 L1830.76411,592.10403 L1827.70667,591.597363 L1822.95064,587.670697 L1817.3793,584.88403 L1809.56582,582.920697 L1805.01363,581.84403 L1800.05377,580.32403 L1798.21931,579.75403 L1791.35704,577.980697 L1790.40583,577.790697 L1783.7474,576.33403 L1779.73875,573.040697 L1776.61336,568.480697 L1771.24584,565.757363 L1765.33478,563.287363 L1761.5979,559.297363 L1751.88202,557.77673 L1747.126,555.117363 L1741.41876,551.950697 L1733.53735,549.100697 L1730.54785,547.960063 L1727.35452,546.757363 L1722.87026,544.097363 L1713.9697,536.497363 L1709.68928,532.82403 L1703.09878,530.037363 L1697.66332,529.40403 L1691.61638,526.680697 L1683.39525,524.147363 L1677.14447,522.247363 L1672.52433,520.72673 L1667.7683,519.587363 L1664.37114,518.700697 L1656.48973,516.800697 L1654.04377,516.547363 L1651.19015,516.48403 L1646.43413,513.443397 L1651.2581,505.843397 L1653.43228,502.550697 L1665.32235,494.380697 L1671.43724,489.250697 L1677.55213,484.690063 L1677.28035,481.650697 L1671.50518,482.980697 L1669.87454,483.993397 L1662.33284,488.490063 L1651.59781,497.610063 L1649.83129,499.447363 L1646.63796,500.397363 L1647.45328,497.86403 L1648.2686,496.217363 L1650.78249,489.060063 L1659.61511,479.940063 L1659.751,479.687363 L1668.58362,468.287363 L1674.08702,464.10673 L1675.10617,463.347363 L1683.73496,455.367363 L1684.21056,454.670697 L1686.79241,452.073397 L1692.15992,448.46403 L1692.22787,443.71403 L1687.47184,444.030697 L1686.24886,445.487363 L1684.34645,447.13403 L1676.8727,452.200697 L1668.58362,460.180697 L1661.72136,467.020697 L1651.93753,478.737363 L1649.76335,482.09403 L1642.1537,492.290697 L1639.77569,496.470697 L1637.26179,499.320697 L1633.04931,505.147363 L1632.91343,499.95403 L1634.27229,490.45403 L1635.15555,486.907363 L1636.31059,477.850697 L1637.12591,471.07403 L1637.94122,464.360697 L1638.6886,459.800697 L1639.09626,455.11403 L1639.23215,449.160697 L1639.1642,448.65403 L1637.60151,448.020697 L1635.29144,458.850697 L1634.20435,464.993397 L1634.00052,466.450697 L1634.00052,468.60403 L1632.57371,474.810697 L1632.30194,481.777363 L1631.28279,483.61403 L1630.60336,484.880697 L1629.85598,488.36403 L1629.17655,489.69403 L1628.36123,498.180697 L1625.57556,502.107363 L1624.82818,504.007363 L1624.28464,511.35403 L1623.87698,512.430697 L1616.26733,513.06403 L1614.6367,512.050697 L1606.55145,511.16403 L1603.22223,510.973397 L1598.94181,510.530697 L1596.42791,510.150697 L1591.33217,507.870697 L1582.22778,507.36403 L1581.88806,507.36403 L1577.67558,506.793397 L1572.44395,506.350697 L1567.34821,506.98403 L1557.56438,502.61403 L1551.51744,501.85403 L1543.2963,502.930697 L1538.47234,502.740063 L1530.52298,503.62673 L1524.81575,503.310063 L1519.38029,504.387363 L1515.64341,505.337363 L1511.56682,505.970697 L1506.26724,506.85673 L1501.57916,509.010063 L1499.06526,508.75673 L1495.87193,505.08403 L1492.54271,499.700697 L1479.02201,486.52673 L1479.22584,483.61403 L1486.49576,488.55403 L1486.97137,484.500697 L1483.16655,477.53403 L1481.73974,473.543397 L1480.38087,470.31403 L1474.26598,464.043397 L1470.46116,457.330697 L1476.50811,456.950697 L1479.90527,457.20403 L1480.92442,454.417363 L1479.83733,451.88403 L1475.89662,446.500697 L1471.41237,441.940063 L1467.60755,438.96403 L1466.38457,437.25403 L1464.41421,431.300697 L1463.05535,425.85403 L1461.35677,411.79403 L1459.86202,407.867363 L1455.30982,411.097363 L1455.17393,411.98403 L1454.22273,422.877363 L1453.13564,427.880697 L1447.90401,436.050697 L1439.88671,443.207363 L1432.9565,449.540697 L1432.54884,450.93403 L1439.00345,453.277363 L1438.86756,455.810697 L1432.9565,461.57403 L1432.07324,465.437363 L1436.08189,465.56403 L1438.66373,463.917363 L1438.12018,467.46403 L1428.54019,470.50403 L1426.97749,471.137363 L1426.09423,474.87403 L1429.28756,476.520697 L1433.36416,475.190697 L1434.24742,479.370697 L1424.12388,481.840697 L1421.74587,486.337363 L1425.27891,486.84403 L1427.4531,486.717363 L1430.30671,487.60403 L1428.81196,487.857363 L1421.88175,492.35403 L1412.23381,496.15403 L1409.78786,501.030697 L1408.90459,501.790697 L1410.39935,503.120697 L1419.02814,500.71403 L1419.9114,504.387363 L1418.21282,505.907363 L1418.14487,505.970697 L1418.21282,507.807363 L1415.56303,506.98403 L1410.12757,504.260063 L1406.93424,506.85673 L1406.32275,500.967363 L1404.62417,497.230697 L1403.06148,494.50673 L1407.8175,494.633397 L1406.45864,490.390063 L1399.8002,484.880697 L1407.00218,483.360063 L1409.78786,481.080697 L1411.75821,476.837363 L1418.48459,472.40403 L1416.65012,472.087363 C1414.47594,474.68403 1411.75821,475.443397 1409.44814,474.050697 C1411.21466,471.770697 1413.79651,472.530697 1416.37835,472.023397 L1412.77736,471.390063 L1408.97254,471.26403 L1412.3697,468.03403 L1382.95028,465.75403 L1391.71496,463.220697 L1390.69581,461.19403 L1394.22886,458.977363 L1399.39254,457.20403 L1404.14857,455.177363 L1406.3907,452.960697 L1398.849,452.960697 L1412.91325,445.867363 L1409.99169,444.66403 L1403.74091,444.157363 L1404.96389,440.230697 L1410.3314,439.090697 L1403.80885,436.620697 L1406.73041,434.277363 L1402.72176,432.757363 L1403.40119,430.41403 L1407.40984,428.70403 L1406.05098,426.23403 L1399.66432,425.727363 L1397.7619,425.220697 L1382.61056,423.827363 L1384.85269,423.257363 L1385.60007,420.470697 L1385.46418,420.217363 L1383.15411,419.520697 L1371.39993,421.990697 L1359.7137,422.687363 L1350.81313,422.687363 L1343.40732,422.877363 L1340.0781,422.940697 L1332.19669,421.29403 L1326.48946,419.457363 L1324.72293,417.30403 L1330.76988,416.54403 L1334.03115,413.757363 L1336.95271,413.250697 L1334.84647,412.237363 L1342.32023,413.12403 L1348.16335,414.327363 L1368.27454,416.100697 L1372.14731,413.88403 L1381.31964,415.21403 L1387.57042,415.40403 L1394.7724,417.557363 L1399.25666,414.707363 L1390.89964,410.717363 L1392.93794,408.057363 L1394.84035,403.62403 L1398.57722,401.280697 L1400.47963,399.887363 L1401.02318,397.290697 L1400.41169,392.920697 L1389.94843,393.870697 L1373.37029,395.327363 L1359.37398,393.93403 L1356.65625,393.237363 L1368.6822,391.400697 L1385.39624,392.79403 L1388.72546,390.830697 L1389.33694,390.197363 L1393.88914,383.990697 L1395.92744,380.950697 L1405.71126,385.00403 L1413.18502,388.107363 L1417.12573,389.690697 L1424.53154,392.287363 L1431.93735,393.870697 L1441.31352,395.897363 L1443.14798,394.50403 L1438.39196,389.37403 L1444.37096,388.99403 L1447.49635,387.600697 L1449.4667,385.700697 L1451.30117,383.547363 L1447.63224,379.050697 L1440.76997,377.720697 L1437.84841,376.517363 L1438.12018,375.31403 L1441.51735,374.36403 L1432.54884,370.37403 L1442.94415,363.72403 L1441.04174,361.000697 L1439.54699,359.987363 L1435.87806,360.240697 L1426.63778,362.457363 L1425.68657,362.330697 L1423.24062,362.58403 L1419.70757,362.710697 L1416.31041,363.280697 L1413.52473,363.597363 L1411.07878,363.597363 L1400.95524,363.407363 L1394.22886,361.887363 L1375.06887,359.35403 L1371.60376,356.630697 L1388.58957,357.26403 L1389.269,357.390697 L1399.93609,357.770697 L1403.60502,354.287363 L1412.64147,353.337363 L1411.69027,351.18403 L1419.9114,348.270697 L1420.79466,345.040697 L1422.9009,342.507363 L1417.3975,342.697363 L1422.96884,338.390697 L1422.83296,333.450697 L1404.89594,339.657363 L1397.49013,341.240697 L1390.69581,343.140697 L1378.19425,344.660697 L1376.83539,343.900697 L1377.71865,341.937363 L1375.00092,340.417363 L1365.14915,341.430697 L1352.98732,341.68403 L1351.42462,342.06403 L1344.6303,342.507363 L1334.0991,342.25403 L1325.74208,342.82403 L1308.34861,341.68403 L1300.19543,340.860697 L1301.14663,339.78403 L1310.04719,338.390697 L1327.64449,336.490697 L1332.26463,335.79403 L1343.40732,335.857363 L1346.6686,334.08403 L1345.64945,331.360697 L1351.42462,331.867363 L1353.5988,329.71403 L1354.75384,335.477363 L1356.99597,337.060697 L1358.28689,333.450697 L1355.97682,328.38403 L1362.2276,327.497363 L1365.89653,327.560697 L1371.39993,329.52403 L1385.05652,334.527363 L1388.38574,334.527363 L1387.2307,331.99403 L1375.61241,326.29403 L1375.2727,325.280697 L1376.08801,325.090697 L1387.97808,330.157363 L1392.93794,332.37403 L1395.51978,331.487363 L1394.70446,329.33403 L1390.96758,326.800697 L1395.45183,326.86403 L1397.62602,326.10403 L1396.74276,324.267363 L1394.50063,322.493397 L1394.97623,318.187363 L1392.19056,316.47673 L1391.23935,314.767363 L1400.13992,316.287363 L1405.57538,316.920697 L1406.52658,314.577363 L1411.07878,313.37403 L1415.97069,313.120697 L1414.06828,310.270697 L1411.41849,308.370697 L1424.25976,309.320697 L1424.9392,306.53403 L1420.18317,303.050697 L1430.98614,297.03403 L1431.32586,296.907363 L1431.73352,295.577363 L1429.83111,295.007363 L1422.08558,297.160697 L1419.97934,297.98403 L1415.56303,300.327363 L1398.03368,306.280697 L1396.74276,302.860697 L1392.93794,303.30403 L1381.52347,304.127363 L1377.65071,304.570697 L1368.34249,308.24403 L1366.03242,311.09403 L1359.37398,313.057363 L1352.57966,312.99403 L1350.20164,313.690697 L1342.93172,314.450697 L1334.77853,313.56403 L1331.92491,312.930697 L1339.05895,311.473397 L1340.75753,308.750697 L1339.73839,306.97673 L1347.07625,305.07673 L1355.50122,304.12673 L1352.78349,301.340063 L1358.08306,301.340063 L1363.38263,300.26403 L1359.23809,297.223397 L1365.89653,298.42673 L1370.31284,299.37673 L1371.53582,296.970697 L1368.75015,293.613397 L1382.40673,297.540063 L1377.85454,293.233397 L1381.93113,292.600063 L1374.25355,288.800063 L1381.04787,288.040063 L1386.95893,291.01673 L1384.58092,291.713397 L1388.72546,295.260063 L1385.8039,296.463397 L1394.84035,297.09673 L1393.07382,293.487363 L1387.91014,289.687363 L1393.20971,287.913397 L1390.08432,285.760063 L1393.20971,285.950063 L1398.50928,287.533397 L1401.22701,286.710063 L1394.7724,283.22673 L1399.05283,283.03673 L1402.3141,282.530063 L1405.09977,281.770063 L1408.42899,281.390063 L1418.07693,279.870063 L1419.02814,279.04673 L1411.28261,277.083397 L1412.30176,276.640063 L1422.35735,271.953397 L1427.79281,268.343397 L1429.83111,267.330063 L1430.03494,267.26673 L1430.71437,265.873397 L1428.8799,264.79673 L1424.46359,266.633397 L1422.56118,267.900063 L1410.05895,272.523397 L1400.47963,276.070697 L1386.95825,279.61673 L1379.07752,281.70673 L1367.05156,284.050063 L1358.6266,285.50673 L1342.93172,287.660063 L1333.69144,287.597363 L1330.49811,285.950697 L1338.37884,283.860063 L1351.08491,282.973397 L1358.76181,281.51673 L1361.07256,281.32673 L1363.04291,281.137363 L1362.7032,279.110063 L1365.6927,277.970697 L1372.48702,274.170697 L1368.07071,272.460063 L1375.34064,268.343397 L1381.86251,263.65673 L1383.62971,262.263397 L1385.19241,260.173397 L1381.59142,260.680063 L1379.68901,261.883397 L1368.47837,267.393397 L1362.56731,269.92673 L1351.08491,275.05673 L1348.97867,274.80403 L1351.08491,271.510063 L1344.83345,273.537363 L1332.67229,277.020697 L1320.98605,279.933397 L1320.17074,280.440063 L1314.87116,279.870697 L1313.71613,278.47673 L1319.01502,276.70403 L1325.80934,273.283397 L1326.01385,271.320697 L1307.26152,277.71673 L1305.35911,273.980063 L1308.68833,271.383397 L1307.39741,270.05403 L1302.02921,270.370697 L1294.35231,269.293397 L1297.74947,268.15403 L1300.87486,266.380063 L1303.32081,263.910063 L1301.82606,260.870063 L1308.62039,257.070063 L1308.28067,254.34673 L1315.27814,253.58673 L1329.34307,248.583397 L1329.68279,247.443397 L1327.10095,245.290063 L1336.06945,242.883397 L1349.79398,237.120063 L1350.20164,236.360063 L1348.50306,235.283397 L1343.95087,237.690063 L1342.04846,237.183397 L1339.19484,236.613397 L1330.36222,239.463397 L1323.36407,241.173397 L1304.00025,246.873397 L1290.07188,249.533397 L1274.85192,250.483397 L1269.68892,245.480063 L1273.9014,243.390063 L1281.64624,239.590063 L1286.06255,238.450063 L1289.05274,238.703397 L1292.24607,239.400063 L1302.16578,240.28673 L1294.28436,237.500063 L1304.61174,236.48673 L1307.26152,236.423397 L1320.17074,235.91673 L1319.55925,234.01673 L1314.66733,233.510063 L1305.63088,233.763397 L1314.59939,231.673397 L1311.60989,229.583397 L1301.21457,229.013397 L1294.69202,228.000063 L1297.13798,226.41673 L1301.96195,225.65673 L1304.33996,222.870063 L1300.73897,222.743397 L1296.32266,224.51673 L1292.04224,223.37673 L1294.62408,221.223397 L1297.07004,218.690063 L1298.76862,214.763397 L1308.4845,211.97673 L1312.22138,213.813397 L1326.5574,213.623397 L1333.89527,212.103397 L1335.32208,209.443397 L1333.96321,206.783397 L1338.58335,205.263397 L1344.90207,202.730063 L1349.52221,200.703397 L1356.45242,197.15673 L1365.96447,192.280063 L1364.67355,191.140063 L1373.16646,186.13673 L1366.1683,188.03673 L1351.56051,190.443397 L1344.42647,191.64673 L1341.43697,192.850063 L1334.43881,194.49673 L1329.34307,196.523397 L1311.33812,200.323397 L1308.14478,200.133397 L1313.0367,193.73673 L1317.58889,185.250063 L1317.72478,184.99673 L1316.5018,182.590063 L1312.62904,182.33673 L1305.0194,185.56673 L1290.75132,190.69673 L1284.36465,192.660063 L1283.07373,192.78673 L1278.72536,193.040063 L1276.4153,193.230063 L1284.02494,187.973397 L1290.47954,181.893397 L1291.22692,180.500063 L1292.51784,175.87673 L1281.17132,177.270063 L1273.56168,180.500063 L1271.99899,180.626097 L1265.34055,180.880063 L1251.7519,184.680063 L1241.28865,185.376097 L1234.01872,182.272763 L1230.55361,180.753397 L1227.36028,180.43673 L1228.71915,177.58673 L1225.38993,175.876097 L1226.34113,174.926097 L1240.7451,172.456097 L1246.11261,172.013397 L1260.65247,172.076097 L1270.50423,174.16673 L1272.3387,172.583397 L1261.39984,170.113397 L1269.62097,169.98673 L1276.55118,170.493397 L1285.04409,170.493397 L1291.02309,168.65673 L1293.53699,168.08673 L1302.5055,166.94673 L1314.87116,163.71673 L1325.26648,161.690063 L1325.06265,159.853397 L1328.45981,159.853397 L1338.92307,159.220063 L1340.21399,158.39673 L1339.26278,156.940063 L1337.97186,156.750063 L1327.30477,157.510063 L1311.74577,158.523397 L1325.13059,154.02673 L1337.49626,146.61673 L1333.41967,147.060063 L1323.09229,152.380063 L1306.71798,158.523397 L1302.64138,159.91673 L1294.48819,160.86673 L1281.51104,164.603397 L1279.8804,164.793397 L1268.26211,165.99673 L1242.98723,169.290063 L1229.67035,170.55673 L1225.6617,170.303397 L1226.47702,159.34673 L1228.24354,156.053397 L1236.94028,154.280063 L1250.18921,149.340063 L1254.67346,148.32673 L1262.2831,146.80673 L1282.8699,144.52673 L1301.48635,142.24673 L1303.86436,140.790063 L1297.4777,139.58673 L1279.47274,141.043397 L1277.91005,141.550063 L1269.55303,142.183397 L1269.41714,141.423397 L1272.20281,140.53673 L1286.19912,135.723397 L1295.23557,131.98673 L1304.54379,127.743397 L1309.43571,122.67673 L1307.39741,123.183397 L1303.18493,126.160063 L1290.4116,128.503397 L1288.44125,128.820063 L1281.9187,130.403397 L1269.55303,133.760063 L1264.797,134.900063 L1249.84949,136.54673 L1239.92978,137.623397 L1230.41773,135.40673 L1230.28184,134.83673 L1232.59191,133.69673 L1234.49432,132.810063 L1244.75375,131.670063 L1249.98538,130.65673 L1257.32325,132.17673 L1256.71176,129.200063 L1262.55488,128.250063 L1265.95204,132.050063 L1268.26211,130.27673 L1271.65927,129.643397 L1268.60182,126.603397 L1274.98849,125.463397 L1275.59998,125.90673 L1278.52154,126.47673 L1280.62778,125.780063 L1283.27756,125.653397 L1284.4326,123.120063 L1292.31401,125.083397 L1292.78961,123.81673 L1284.29671,120.96673 L1295.37146,115.583397 L1293.46905,113.74673 L1293.33316,113.493397 L1291.83841,113.113397 L1285.79146,115.83673 L1279.20097,119.320063 L1263.70991,123.43673 L1250.46098,124.703397 L1246.11261,124.893397 L1242.10396,125.020063 L1234.96992,124.513397 L1234.49432,121.980063 L1231.77659,121.600063 L1234.29049,119.25673 L1241.83219,118.243397 L1247.13176,117.610063 L1251.61602,117.103397 L1254.06197,116.21673 L1264.3214,113.303397 L1266.69941,111.720063 L1270.02863,109.503397 L1279.81246,105.830063 L1281.03543,105.57673 L1284.29671,105.57673 L1291.15898,105.703397 L1293.53699,104.24673 L1288.10153,102.093397 L1291.70252,99.68673 L1298.63273,94.4300633 L1300.12748,90.6300633 L1293.87671,93.2900633 L1288.10153,97.59673 L1275.80381,103.233397 L1266.08792,104.563397 L1247.47148,104.43673 L1246.38439,101.77673 L1247.74325,101.650063 L1255.28495,102.220063 L1260.92424,102.220063 L1262.35105,101.080063 L1261.60367,99.49673 L1258.47828,98.4200633 L1240.81304,94.93673 L1242.44368,91.9600633 L1250.59687,90.0600633 L1258.61417,88.1600633 L1261.39984,85.6900633 L1257.52708,84.9933967 L1252.49928,86.76673 L1249.57772,87.33673 L1247.94708,85.1833967 L1237.27999,85.5000633 L1239.65801,84.6133967 L1248.01502,81.7633967 L1256.71176,78.59673 L1258.41034,77.7100633 L1261.87544,75.0500633 L1269.75686,70.23673 L1264.38934,69.2233967 L1261.87544,71.2500633 L1252.83899,75.2400633 L1245.22935,77.5833967 L1239.11446,77.3933967 L1238.29914,73.46673 L1235.92113,72.2000633 L1242.10396,69.3500633 L1248.01502,71.94673 L1248.89829,69.1600633 L1251.68396,66.62673 L1246.85999,66.1833967 L1255.08112,60.54673 L1261.46778,53.9600633 L1261.3319,51.9333967 L1261.12807,51.80673 L1259.02183,52.4400633 L1258.41034,53.89673 L1254.53757,57.50673 L1250.52892,56.8100633 L1241.76425,59.4700633 L1239.86184,60.1033967 L1236.53262,60.6100633 L1234.29049,55.4800633 L1238.09531,54.9100633 L1245.63701,52.94673 L1258.13857,47.1833967 L1259.15771,43.82673 L1247.67531,48.5133967 L1245.70495,46.9300633 L1242.03602,48.19673 L1233.47517,51.61673 L1232.99957,47.3100633 L1233.47517,43.3200633 L1241.96808,38.4433967 L1245.02552,33.5033967 L1241.35659,34.0733967 L1235.7173,36.3533967 L1234.08666,33.6933967 L1234.76609,25.4600633 L1237.89148,24.3833967 L1246.58822,21.1533967 L1248.62651,19.50673 L1248.7624,17.79673 L1246.65616,17.41673 L1242.23985,19.50673 L1235.10581,21.02673 L1234.22255,15.8333967 L1238.43503,13.1100633 L1233.61106,12.47673 L1232.65985,9.05673 L1242.98723,0.31673 L1233.679,4.68673 L1232.7278,0.950063333 L1229.26269,4.30673 L1223.96312,0.443396667 L1226.20525,5.25673 L1229.80624,8.93006333 L1228.78709,12.47673 L1226.00142,15.2633967 L1229.80624,16.3400633 L1228.92298,20.64673 L1223.69135,17.7333967 L1218.18795,17.22673 L1219.54681,19.2533967 L1227.97177,26.2200633 L1228.37943,28.24673 L1227.7,31.28673 L1225.59376,35.9733967 L1223.07986,34.3900633 L1216.42142,31.09673 L1217.50851,34.4533967 L1226.81674,40.6600633 L1226.47702,49.8433967 L1223.82723,48.6400633 L1216.76114,46.29673 L1213.97547,48.0700633 L1214.79079,50.5400633 L1220.6339,53.5800633 L1224.64255,56.6200633 L1221.24539,62.5733967 L1217.23674,62.3200633 L1214.11135,59.02673 L1215.47022,58.1400633 L1209.49121,52.94673 L1216.62525,65.86673 L1197.73703,54.0233967 L1197.32937,56.93673 L1210.37448,66.3733967 L1223.07986,72.0733967 L1221.92482,73.65673 L1215.06256,70.80673 L1214.31518,70.1733967 L1211.39362,68.14673 L1195.56285,60.0406967 L1189.92356,56.5573633 L1189.38002,56.1773633 L1187.81732,56.30403 L1187.47761,57.6973633 L1188.83647,59.4073633 L1197.5332,64.4106967 L1204.73519,67.8306967 L1206.90937,69.6673633 L1203.85193,70.4273633 L1204.93902,73.8473633 L1205.21079,74.0373633 L1208.54001,75.87403 L1208.60795,78.5973633 L1212.54866,82.90403 L1213.63575,86.1973633 L1214.38313,87.5273633 L1216.42142,89.4906967 L1207.86058,89.4273633 L1207.31703,92.4673633 L1213.63575,94.5573633 L1216.89703,95.1906967 L1218.86738,97.8506967 L1213.29603,94.9373633 L1213.22809,94.9373633 L1210.17065,96.01403 L1211.6654,99.1806967 L1213.90752,100.57403 L1216.42142,103.550697 L1219.27504,105.32403 L1220.22624,106.27403 L1217.6444,106.527363 L1209.08355,103.867363 L1205.0749,104.56403 L1209.76299,108.617363 L1203.24044,108.427363 L1196.37817,107.667363 L1192.30158,106.020697 L1189.38002,104.247363 L1184.82782,107.097363 L1188.0891,111.530697 L1176.26697,115.267363 L1169.40471,115.01403 L1169.06499,116.91403 L1168.38556,114.950697 L1168.04584,114.63403 L1168.38556,113.050697 L1172.73393,108.74403 L1181.43066,100.57403 L1183.60484,95.63403 L1182.24598,92.9106967 L1187.81732,86.4506967 L1189.17619,80.5606967 L1183.40101,83.9173633 L1179.32442,92.02403 L1178.37321,92.9106967 L1172.12244,99.6873633 L1167.84201,104.817363 L1165.59989,97.5973633 L1165.39606,92.40403 L1165.9396,90.0606967 L1169.74442,86.8306967 L1171.78272,89.0473633 L1173.34541,91.45403 L1175.38371,92.0873633 L1175.92726,90.12403 L1175.31577,89.0473633 L1171.64683,84.7406967 L1176.33492,79.48403 L1171.98655,80.4973633 L1174.56839,74.2906967 L1170.76357,75.7473633 L1167.70613,78.8506967 L1167.5023,74.4173633 L1171.57889,70.2373633 L1176.60669,64.6006967 L1175.11194,61.6873633 L1169.67648,65.2973633 L1165.53194,70.2373633 L1167.9779,49.3373633 L1164.92045,53.3273633 L1162.74627,71.12403 L1161.65918,72.45403 L1156.42755,57.06403 L1153.3701,56.4306967 L1154.86486,62.57403 L1156.29166,68.7173633 L1155.13663,68.65403 L1151.53564,69.60403 L1152.8945,72.7706967 L1154.72897,73.59403 L1157.17493,76.06403 L1158.66968,82.7773633 L1158.80556,90.2506967 L1159.28117,93.92403 L1156.63138,91.7706967 L1153.30216,87.1473633 L1150.24472,82.52403 L1149.49734,81.19403 L1150.78826,79.3573633 L1150.44855,76.7606967 L1147.59493,76.6973633 L1146.10018,77.96403 L1140.05323,84.61403 L1136.72401,88.2873633 L1129.38614,96.9006967 L1124.63012,97.72403 L1125.71721,93.9873633 L1126.12487,90.2506967 L1123.8148,88.41403 L1127.82345,78.91403 L1128.16317,76.8873633 L1125.71721,76.7606967 L1124.766,77.01403 L1125.78515,73.0873633 L1127.75551,70.93403 L1132.71536,59.72403 L1131.3565,52.88403 L1129.99763,53.45403 L1125.51338,59.6606967 L1122.32005,65.4873633 L1119.67026,71.12403 L1118.787,72.7073633 L1114.77835,75.4306967 L1116.47693,69.6673633 L1121.3009,59.34403 L1124.83395,50.9206967 L1124.96983,46.6773633 L1120.62147,46.80403 L1120.07792,46.99403 L1117.97168,38.1273633 L1115.86544,39.4573633 L1114.43863,42.9406967 L1114.2348,40.9773633 L1115.93338,27.5506967 L1114.37069,24.7006967 L1111.2453,26.47403 L1109.88644,32.4906967 L1106.69311,51.0473633 L1105.7419,48.4506967 L1104.24715,34.7706967 L1103.16006,30.2106967 L1100.57821,28.94403 L1099.42318,32.8073633 L1100.91793,51.74403 L1101.66531,56.68403 L1101.52942,57.8873633 L1101.80119,60.4206967 L1101.86914,62.76403 L1098.33609,64.9806967 L1096.84134,61.1173633 L1093.30829,50.6673633 L1090.1829,47.1206967 L1085.97042,48.51403 L1085.97042,52.50403 L1089.09581,60.6106967 L1094.39538,70.1106967 L1094.7351,70.9973633 L1096.22985,75.87403 L1096.63751,81.38403 L1095.89013,86.32403 L1095.07481,92.6573633 L1094.05566,89.9973633 L1092.2212,88.8573633 L1090.79439,90.4406967 L1090.72645,92.6573633 L1090.93028,96.96403 L1088.68815,94.4306967 L1085.6307,93.2273633 L1085.22304,96.2673633 L1087.1934,99.8773633 L1086.78574,101.90403 L1082.84503,98.86403 L1086.17425,86.7673633 L1087.1934,80.7506967 L1088.41638,72.83403 L1085.90248,69.9206967 L1082.91297,72.26403 L1081.89383,76.1906967 L1080.39908,79.9273633 L1077.95312,87.5906967 L1076.32248,80.1806967 L1079.24404,67.0073633 L1078.02106,62.4473633 L1074.48801,62.2573633 L1072.31383,66.37403 L1072.04206,72.83403 L1069.93582,69.4773633 L1067.82958,62.6373633 L1065.85922,55.9873633 L1064.63625,51.2373633 L1064.63625,50.98403 L1063.27738,49.7173633 L1062.93767,49.7173633 L1061.5788,51.2373633 L1061.5788,54.0873633 L1063.07355,62.1306967 L1062.93767,72.64403 L1060.6276,69.41403 L1058.5893,65.1073633 L1055.87157,63.71403 L1054.92036,66.4373633 L1055.12419,67.32403 L1059.47256,76.82403 L1061.44291,82.7773633 L1061.44291,82.90403 L1060.49171,83.85403 L1057.16249,80.43403 L1053.90122,81.00403 L1053.83327,83.47403 L1058.31753,90.3773633 L1058.65724,90.88403 L1065.04391,97.2806967 L1067.48986,101.967363 L1066.26688,104.18403 L1066.40277,106.27403 L1072.78943,121.09403 L1074.55596,126.98403 L1069.05256,119.57403 L1064.29653,117.167363 L1063.27738,111.720697 L1059.40462,117.67403 L1060.21994,119.76403 L1063.6171,129.26403 L1061.1032,127.997363 L1057.97781,118.877363 L1057.57015,119.067363 L1056.48306,122.487363 L1060.49171,130.277363 L1057.90987,134.837363 L1062.66589,143.830697 L1069.39227,151.937363 L1066.67454,151.87403 L1062.53001,150.54403 L1056.68689,148.517363 L1053.62944,147.440697 L1048.87342,144.27403 L1047.31072,141.487363 L1044.11739,136.357363 L1039.90491,131.54403 L1036.10009,130.97403 L1039.63314,138.700697 L1043.91356,145.477363 L1037.79867,148.960697 L1039.22548,150.987363 L1044.72888,153.837363 L1049.55285,155.040697 L1054.85242,167.137363 L1058.38547,179.487363 L1053.22178,182.020697 L1051.5232,174.86403 L1049.0093,178.600697 L1044.86477,172.77403 L1042.82647,171.507363 L1041.12789,173.217363 L1041.33172,175.05403 L1042.01115,178.220697 L1039.29342,181.89403 L1043.09824,189.810697 L1051.18349,197.790697 L1057.29838,205.580697 L1057.63809,206.467363 L1060.28788,213.81403 L1061.03525,216.220697 L1065.85922,228.000697 L1067.42192,231.737363 L1071.1588,238.260697 L1071.56646,242.060697 L1065.85922,237.120697 L1064.77213,235.600697 L1060.08405,229.710697 L1059.0649,228.127363 L1056.34717,224.770697 L1052.54235,216.790697 L1049.28108,208.747363 L1048.19398,205.45403 L1046.76718,201.337363 L1044.66094,199.437363 L1043.91356,199.690697 L1043.43796,201.84403 L1045.81597,210.330697 L1044.86477,218.880697 L1044.66094,219.577363 L1045.5442,221.160697 L1045.81597,223.31403 L1047.65044,228.760697 L1057.63809,242.250697 L1058.72518,245.860697 L1055.12419,242.50403 L1053.15384,240.22403 L1049.62079,238.577363 L1041.33172,229.710697 L1037.66278,231.167363 L1037.05129,234.397363 L1038.41016,239.590697 L1043.70973,243.517363 L1045.61214,246.747363 L1042.07909,247.380697 L1040.58434,249.217363 C1040.58434,249.217363 1040.58434,249.660697 1040.5164,250.357363 C1039.90491,251.560697 1039.22548,252.637363 1038.4781,253.650697 C1037.73073,254.66403 1036.71158,255.487363 1035.42066,256.247363 C1036.37186,256.56403 1037.25512,256.817363 1038.07044,257.007363 C1038.88576,257.197363 1039.63314,257.387363 1040.38051,257.577363 C1044.93271,258.590697 1049.34902,259.857363 1053.35767,261.947363 C1053.90122,262.200697 1054.44476,262.390697 1054.98831,262.64403 C1058.99696,264.35403 1063.82093,266.380697 1063.82093,266.380697 L1076.52631,273.47403 L1077.6134,274.107363 L1080.87468,275.817363 L1082.50532,276.89403 L1085.90248,278.667363 L1084.40773,279.55403 L1078.22489,279.047363 L1068.71284,276.260697 L1066.81043,276.260697 L1058.65724,275.437363 L1058.18164,274.99403 C1058.18164,274.99403 1054.92036,273.410697 1053.22178,272.650697 C1052.61029,272.33403 1052.27058,272.14403 1052.27058,272.14403 C1051.59115,271.637363 1050.91171,271.19403 1050.16434,270.750697 C1049.48491,270.307363 1048.73753,269.86403 1048.0581,269.357363 C1037.86661,261.630697 1024.9574,257.830697 1014.08648,251.497363 C1018.43485,256.057363 1025.84066,259.41403 1027.53924,265.11403 C1027.74307,265.810697 1027.87896,266.63403 1027.4713,267.647363 C1025.56889,273.030697 1020.13343,273.66403 1015.3774,275.56403 C1022.17173,281.26403 1030.32491,272.397363 1038.4781,274.930697 C1042.5547,276.197363 1044.59299,278.730697 1047.31072,280.947363 C1047.85427,281.580697 1048.39781,282.150697 1048.87342,282.78403 C1049.34902,283.417363 1049.75668,283.92403 1050.16434,284.367363 C1050.70788,285.697363 1052.06675,286.96403 1052.74618,288.230697 C1046.63129,283.797363 1041.87526,276.830697 1033.72208,274.297363 C1033.72208,277.46403 1038.4781,279.36403 1035.76037,283.16403 C1033.04264,285.697363 1039.15753,290.130697 1041.87526,293.677363 C1043.30207,294.880697 1044.45711,295.767363 1044.45711,295.767363 L1047.85427,298.617363 L1048.32987,299.060697 L1053.83327,303.30403 L1059.74433,307.29403 L1064.36447,310.777363 L1063.48121,316.03403 L1064.36447,318.440697 L1065.24773,320.150697 L1070.0717,323.887363 L1076.05071,326.230697 L1078.70049,329.397363 L1078.63255,329.52403 L1077.88518,329.650697 L1067.48986,324.457363 L1058.45341,320.150697 C1058.45341,320.150697 1056.61894,319.07403 1054.5127,317.74403 C1053.76533,317.300697 1053.01795,316.857363 1052.20263,316.41403 C1049.21313,315.020697 1046.22363,312.80403 1043.16618,310.587363 C1041.67143,309.447363 1040.10874,308.307363 1038.54605,307.29403 C1031.14023,302.16403 1021.62818,298.36403 1012.11613,298.997363 C1017.55159,302.16403 1022.98705,305.330697 1027.06364,309.76403 C1025.02534,308.497363 1022.30761,307.230697 1019.58988,307.230697 C1022.30761,308.497363 1024.34591,310.397363 1026.24832,312.297363 C1027.40336,313.310697 1028.35456,314.450697 1029.37371,315.590697 C1031.34406,317.870697 1033.17853,320.277363 1035.89626,321.860697 C1039.97285,323.760697 1040.65229,329.460697 1043.30207,333.450697 C1043.30207,333.450697 1043.64179,334.210697 1044.04945,334.970697 C1044.38916,335.730697 1044.72888,336.490697 1044.72888,336.490697 L1046.15569,339.910697 C1046.15569,339.910697 1047.44661,343.20403 1048.12604,344.850697 C1048.32987,345.420697 1048.46576,345.800697 1048.46576,345.800697 C1048.46576,345.800697 1047.85427,345.230697 1046.83512,344.217363 C1046.35952,343.710697 1045.74803,343.140697 1045.0686,342.507363 C1043.09824,340.607363 1040.5164,338.137363 1038.20633,335.98403 C1036.71158,334.527363 1035.28477,333.007363 1034.19768,331.107363 C1033.11059,329.207363 1032.43115,327.877363 1032.43115,327.877363 L1032.22732,333.450697 C1032.22732,333.450697 1033.65413,335.160697 1035.14888,336.870697 C1036.57569,338.517363 1038.0025,340.227363 1038.0025,340.227363 C1038.0025,340.227363 1038.68193,341.050697 1039.42931,341.937363 C1044.04945,345.357363 1044.72888,351.690697 1050.572,354.477363 C1051.38732,354.857363 1052.13469,355.490697 1052.74618,356.187363 C1054.64859,358.21403 1056.0754,359.670697 1056.0754,359.670697 L1057.29838,361.190697 L1051.72703,359.670697 L1050.50405,359.290697 L1047.17484,358.02403 C1047.17484,358.02403 1046.76718,357.770697 1046.08774,357.580697 C1041.33172,358.02403 1037.25512,362.457363 1033.17853,360.557363 C1032.4991,359.92403 1031.81967,357.390697 1031.81967,354.857363 C1031.81967,356.757363 1030.4608,358.02403 1029.78137,359.92403 C1030.4608,359.290697 1030.4608,359.290697 1030.9364,358.657363 C1031.00435,358.78403 1031.07229,359.227363 1031.07229,359.797363 L1031.07229,362.900697 C1031.27612,363.597363 1031.34406,364.167363 1031.54789,364.800697 C1032.4991,369.487363 1034.53739,372.65403 1039.29342,373.920697 C1037.93456,373.920697 1036.64363,373.79403 1035.55654,373.79403 C1034.46945,373.79403 1033.4503,373.920697 1032.70293,374.427363 C1029.10194,376.45403 1025.02534,375.820697 1021.62818,377.720697 C1024.34591,380.887363 1027.06364,383.420697 1030.25697,386.207363 C1030.66463,386.777363 1030.86846,387.220697 1031.07229,387.727363 C1029.10194,392.920697 1024.34591,390.387363 1020.94875,391.65403 C1029.10194,397.987363 1040.65229,399.887363 1046.69923,408.94403 C1047.78632,410.084663 1048.66959,410.907363 1048.66959,410.907363 L1044.59299,409.387363 C1044.59299,409.387363 1043.64179,408.56403 1042.41881,407.42403 C1037.25512,401.597363 1031.14023,398.430697 1023.66648,395.897363 C1025.02534,398.430697 1028.4225,399.697363 1029.16988,402.610697 C1029.64548,403.43403 1029.9852,404.257363 1031.20818,405.90403 L1031.20818,408.690697 L1035.76037,413.187363 C1035.76037,413.187363 1036.57569,413.820697 1036.77952,414.45403 C1029.16988,422.497363 1018.97839,411.730697 1010.14577,412.997363 C1017.61953,416.16403 1023.73442,421.230697 1028.96605,426.297363 C1029.64548,427.120697 1029.9852,427.627363 1030.25697,428.197363 C1031.34406,430.477363 1031.68378,433.26403 1031.54789,436.367363 C1031.00435,436.87403 1030.66463,437.44403 1030.12108,438.20403 C1029.84931,439.090697 1029.30577,439.72403 1028.55839,440.230697 C1027.74307,440.67403 1026.72392,440.990697 1025.56889,441.180697 C1021.62818,442.00403 1017.55159,440.10403 1013.47499,442.637363 C1019.58988,445.80403 1027.06364,447.070697 1031.54789,452.010697 C1032.0235,452.770697 1032.22732,453.40403 1032.43115,454.037363 C1032.63498,454.670697 1032.77087,455.30403 1032.77087,455.747363 C1031.14023,455.937363 1029.78137,454.670697 1029.10194,454.037363 C1030.4608,456.127363 1030.9364,458.53403 1031.27612,461.00403 C1031.47995,462.270697 1031.61584,463.537363 1031.68378,464.80403 C1030.05314,466.70403 1028.89811,468.41403 1027.67513,469.93403 C1027.26747,470.440697 1026.85981,470.88403 1026.38421,471.327363 C1022.37556,473.607363 1018.97839,476.77403 1014.9018,478.040697 C1021.01669,482.47403 1027.13158,479.307363 1033.24647,479.940697 C1035.28477,479.940697 1038.68193,481.207363 1038.9537,484.120697 C1039.08959,484.94403 1039.08959,485.70403 1039.02165,486.527363 C1038.88576,488.110697 1038.4781,489.69403 1037.59484,491.150697 C1036.91541,490.83403 1036.23598,490.770697 1035.28477,490.137363 C1033.17853,488.807363 1031.14023,488.17403 1029.10194,487.540697 C1028.76222,490.390697 1029.23782,493.11403 1029.84931,495.77403 C1030.4608,499.38403 1031.07229,497.86403 1031.07229,503.880697 C1031.07229,507.490697 1029.30577,500.967363 1025.97655,503.880697 C1022.64733,505.907363 1017.75542,503.37403 1011.64053,503.500697 C1010.89315,501.347363 1010.14577,508.060697 1009.3984,503.56403 C1003.75911,506.097363 997.84805,506.350697 991.869046,507.680697 C985.890042,501.537363 979.775151,506.79403 973.728203,505.400697 C967.681256,505.210697 961.634308,501.917363 955.723247,502.867363 C952.258143,502.107363 948.725095,502.297363 945.25999,502.487363 C941.794885,502.677363 938.261837,500.397363 934.728789,502.107363 C931.195741,496.91403 927.730636,497.86403 924.197588,500.777363 C920.66454,498.687363 917.199436,499.19403 913.666388,501.28403 C910.13334,505.020697 906.600292,496.850697 903.135187,500.017363 C899.602139,499.57403 896.069091,498.24403 892.603986,500.397363 C885.53789,503.120697 878.539738,500.14403 871.473642,499.510697 C864.407546,499.130697 857.34145,495.900697 850.343297,498.62403 C843.277201,499.067363 836.279048,499.257363 829.212952,497.800697 C825.679904,495.837363 822.146856,495.710697 818.681752,496.027363 C815.148704,496.090697 811.683599,492.92403 808.150551,497.040697 C802.511263,490.64403 796.939918,499.76403 791.368573,496.53403 C785.797228,497.29403 780.15794,494.82403 774.586595,496.15403 C769.01525,497.48403 763.443905,499.257363 757.87256,495.900697 C752.301215,498.81403 746.797814,500.460697 741.294412,495.77403 C738.50874,496.15403 735.79101,495.58403 733.005338,495.20403 C730.287609,492.607363 727.501936,492.417363 724.784207,495.837363 C721.794705,498.307363 718.805203,494.697363 715.747757,495.710697 C712.690312,497.800697 709.632867,496.660697 706.507478,495.39403 C703.382089,489.630697 700.256701,492.607363 697.131312,492.860697 C694.005924,492.037363 690.812592,498.370697 687.61926,494.25403 C683.338836,497.86403 679.126356,495.39403 674.845933,493.240697 C670.565509,494.06403 666.285086,494.127363 662.072605,492.100697 C657.792182,490.707363 653.579702,493.557363 649.367221,490.897363 C648.619846,489.50403 647.87247,492.290697 647.125095,490.83403 C646.921265,494.887363 645.902117,491.78403 644.135593,490.45403 C642.369069,494.44403 639.855169,487.477363 636.661837,490.137363 C633.468505,488.997363 629.595741,488.490697 625.111488,489.88403 C620.627235,488.680697 615.463549,484.880697 609.824261,489.69403 C604.11703,486.717363 597.866253,495.647363 591.07193,489.567363 C584.277606,488.427363 577.007681,488.110697 569.262153,489.440697 C561.516624,482.347363 553.295493,490.580697 544.734646,489.377363 C536.105856,493.050697 527.13735,482.85403 517.829127,489.377363 L488.817368,489.377363 C479.780918,489.377363 470.540639,492.797363 461.09653,489.440697 C451.652421,486.970697 442.004482,486.46403 432.220657,489.50403 C422.436832,484.500697 412.51712,492.16403 402.461522,489.630697 C392.405924,492.860697 382.282382,490.26403 372.090898,489.757363 C361.899413,489.69403 351.639985,489.820697 341.380558,489.88403 C330.441697,489.947363 319.434894,489.947363 308.428091,490.010697 C297.489231,491.910697 286.550371,493.050697 275.679454,490.137363 C264.808537,488.617363 254.073506,488.997363 243.406419,490.26403 C232.740012,494.000697 222.276075,488.490063 211.88076,490.390063 C201.553389,491.720697 191.361905,491.150697 181.442193,490.517363 C171.522481,490.580697 161.8066,490.580697 152.430434,490.643397 C140.336539,490.70673 128.718246,490.643397 117.711443,490.770697 C106.705319,495.64673 96.2413821,490.70673 86.4575569,490.833397 C76.6737317,490.51673 67.6379615,491.213397 59.348208,490.89673 C51.0591339,496.21673 43.5853785,491.40403 36.9948852,490.89673 C30.4043918,490.263397 24.7651037,495.140063 20.0770208,490.833397 C15.4568811,488.933397 11.7879467,489.37673 9.27404713,490.70673 C6.7601476,490.643397 5.40128299,490.580697 5.26539653,490.45403 C1.93617824,485.640063 0.169654246,487.85673 0.169654246,490.45403 L0.169654246,504.830063 L0.169654246,524.337363 L0.169654246,716.300063 L0.169654246,722.12673 C0.169654246,725.10403 -0.509778058,730.170697 0.849086551,730.80403 C23.2703526,739.037363 675.185649,742.837363 699.645212,746.00403 C728.860801,749.170697 757.396958,746.637363 786.612547,749.80403 C813.518066,752.65403 839.880039,758.60673 866.649672,761.20403 C869.639174,761.520697 872.628677,761.773397 875.618179,761.963397 C957.150055,775.70673 1035.9642,793.440063 1116.13721,816.873397 C1133.12302,821.940063 1150.78826,821.940063 1168.4535,823.840063 C1184.75988,826.373397 1198.34852,833.973397 1213.97547,837.773397 C1233.679,843.473397 1252.70311,846.00673 1271.59133,850.820697 C1274.03728,851.137363 1277.29856,851.51673 1280.62778,851.960063 C1287.28621,852.783397 1293.87671,853.607363 1293.87671,853.607363 C1293.87671,853.607363 1297.81741,854.17673 1303.18493,855.000063 C1328.12009,858.040697 1350.54136,866.27403 1376.35979,871.340697 C1385.53212,873.240697 1394.50063,874.697363 1403.40119,876.090697 C1406.3907,876.533397 1409.31225,876.97673 1412.30176,877.483397 C1440.15848,881.537363 1465.97691,891.037363 1493.83363,894.20403 C1533.92014,899.270697 1570.60948,911.30403 1610.01656,915.10403 C1631.75839,917.00403 1653.50022,913.20403 1674.22291,919.473397 C1676.26121,919.91673 1678.23156,920.29673 1680.13397,920.740063 C1687.67567,922.323397 1693.31496,923.52673 1693.31496,923.52673 L1724.0253,929.923397 L1750.93082,937.523397 L1780.35024,946.073397 L1799.91789,951.07673 L1857.73757,967.923397 L1889.80678,977.043397 L1912.9761,989.710063 L1941.78335,1008.5834 L1963.11753,1019.60403 L1981.59876,1025.43006 L1982.2782,1026.00006 L1989.75195,1026.00006 L1996.20656,1024.9234 L2060.81989,1012.44673 L2080.93109,1008.0134 L2107.49689,1000.60403 L2141.46851,988.887363 L2201.87004,962.540063 L2233.66815,950.950063 L2262.951,942.083397 L2298.68914,933.59673 L2350.25805,916.05403 L2397.13888,894.963397 L2455.09446,873.74673 L2480.57317,865.260063 L2507.20691,854.240063 L2547.22616,840.940063 L2637.93037,817.633397 L2687.86864,799.900063 L2701.38867,795.84673 L2720.34415,790.020697 L2726.18795,788.183397 L2752.75443,782.610063 L2792.77231,769.310063 L2883.47653,746.00403 L2933.4148,728.270697 L2946.93482,724.21673 L2965.89166,718.390063 L2983.14924,712.943397 L2999.1159,705.59673 L3015.96582,693.373397 L3014.33519,446.880063 L3013.99547,447.703397 L3001.56186,448.33673 L3000.06711,376.960063 L3013.99547,376.453397 L3015.96582,376.897363 Z" id="Fill-5" fill="#031A42" mask="url(#mask-4)"></path>
                        </g>
                    </g>
                </g>
            </g>
        </g>
    </g>
</svg>