<?xml version="1.0" encoding="UTF-8"?>
<svg width="198px" height="34px" viewBox="0 0 198 34" version="1.1" xmlns="http://www.w3.org/2000/svg" xmlns:xlink="http://www.w3.org/1999/xlink">
    <!-- Generator: Sketch 50.2 (55047) - http://www.bohemiancoding.com/sketch -->
    <title>logo</title>
    <desc>Created with Sketch.</desc>
    <defs>
        <ellipse id="path-1" cx="16.9957082" cy="17" rx="16.9957082" ry="17"></ellipse>
    </defs>
    <g id="Tau-home" stroke="none" stroke-width="1" fill="none" fill-rule="evenodd">
        <g id="About-us-Copy" transform="translate(-150.000000, -13.000000)">
            <g id="header">
                <g id="logo" transform="translate(150.000000, 13.000000)">
                    <g id="Group-6">
                        <g id="Group-5">
                            <g id="Group-4">
                                <mask id="mask-2" fill="white">
                                    <use xlink:href="#path-1"></use>
                                </mask>
                                <g id="Mask" opacity="0.382477679"></g>
                                <g mask="url(#mask-2)" fill="#FFFFFF">
                                    <g transform="translate(-6.069896, -1.214286)">
                                        <path d="M42.4892704,17 L36.4193746,17 L36.4193746,19.4285714 L42.4892704,19.4285714 L42.4892704,21.8571429 L33.9914163,21.8571429 L33.9914163,14.5714286 L42.4892704,14.5714286 L42.4892704,17 Z" id="Combined-Shape"></path>
                                        <path d="M43.7032495,12.1428571 L31.563458,12.1428571 L31.563458,24.2857143 L43.7032495,24.2857143 L43.7032495,26.7142857 L29.1354997,26.7142857 L29.1354997,9.71428571 L43.7032495,9.71428571 L43.7032495,12.1428571 Z" id="Combined-Shape"></path>
                                        <path d="M24.2795831,4.85714286 L46.1312078,4.85714286 L46.1312078,30.3571429 L24.2795831,30.3571429 L24.2795831,4.85714286 Z M26.7075414,7.28571429 L26.7075414,27.9285714 L44.9172287,27.9285714 L44.9172287,7.28571429 L26.7075414,7.28571429 Z" id="Combined-Shape"></path>
                                        <path d="M12.1397915,15.7857143 L6.06989577,15.7857143 L6.06989577,18.2142857 L12.1397915,18.2142857 L12.1397915,20.6428571 L3.64193746,20.6428571 L3.64193746,13.3571429 L12.1397915,13.3571429 L12.1397915,15.7857143 Z" id="Combined-Shape-Copy" transform="translate(7.890865, 17.000000) rotate(-180.000000) translate(-7.890865, -17.000000) "></path>
                                        <path d="M16.9957082,10.9285714 L4.85591662,10.9285714 L4.85591662,23.0714286 L16.9957082,23.0714286 L16.9957082,25.5 L2.42795831,25.5 L2.42795831,8.5 L16.9957082,8.5 L16.9957082,10.9285714 Z" id="Combined-Shape-Copy-2" transform="translate(9.711833, 17.000000) rotate(-180.000000) translate(-9.711833, -17.000000) "></path>
                                        <path d="M0,4.85714286 L21.8516248,4.85714286 L21.8516248,30.3571429 L0,30.3571429 L0,4.85714286 Z M2.42795831,7.28571429 L2.42795831,27.9285714 L20.6376456,27.9285714 L20.6376456,7.28571429 L2.42795831,7.28571429 Z" id="Combined-Shape-Copy-3" transform="translate(10.925812, 17.607143) rotate(-180.000000) translate(-10.925812, -17.607143) "></path>
                                        <rect id="Rectangle-4" x="13.3537707" y="0" width="23.0656039" height="3.64285714"></rect>
                                        <rect id="Rectangle-4-Copy" x="13.3537707" y="32.7857143" width="23.0656039" height="3.64285714"></rect>
                                    </g>
                                </g>
                            </g>
                            <path d="M41.4379644,26.7142857 L41.4379644,8.01428571 L44.722992,8.01428571 L44.722992,26.7142857 L41.4379644,26.7142857 Z M49.7173023,26.7142857 L49.7173023,8.01428571 L56.6879706,8.01428571 C62.5636297,8.01428571 66.623176,12.0481429 66.623176,17.3108571 L66.623176,17.3642857 C66.623176,22.627 62.5636297,26.7142857 56.6879706,26.7142857 L49.7173023,26.7142857 Z M56.6879706,11.0062857 L53.0023299,11.0062857 L53.0023299,23.7222857 L56.6879706,23.7222857 C60.6139792,23.7222857 63.1779031,21.0775714 63.1779031,17.4177143 L63.1779031,17.3642857 C63.1779031,13.7044286 60.6139792,11.0062857 56.6879706,11.0062857 Z M70.6025996,26.7142857 L70.6025996,8.01428571 L73.6472594,8.01428571 L83.6625874,20.944 L83.6625874,8.01428571 L86.8941999,8.01428571 L86.8941999,26.7142857 L84.1433231,26.7142857 L73.8342121,13.4105714 L73.8342121,26.7142857 L70.6025996,26.7142857 Z M91.8885101,26.7142857 L91.8885101,8.01428571 L95.1735377,8.01428571 L95.1735377,26.7142857 L91.8885101,26.7142857 Z" id="IDNI" fill="#FFFFFF"></path>
                        </g>
                        <text id="Intelligent-Decentra" opacity="0.900000036" font-family="Roboto-Light, Roboto" font-size="10" font-weight="300" fill="#FFFFFF">
                            <tspan x="104.523605" y="15.85">Intelligent Decentralized</tspan>
                            <tspan x="104.523605" y="26.85">Networks Initiatives</tspan>
                        </text>
                    </g>
                </g>
            </g>
        </g>
    </g>
</svg>