<?xml version="1.0" encoding="UTF-8"?>
<svg width="140px" height="140px" viewBox="0 0 140 140" version="1.1" xmlns="http://www.w3.org/2000/svg" xmlns:xlink="http://www.w3.org/1999/xlink">
    <!-- Generator: Sketch 50.2 (55047) - http://www.bohemiancoding.com/sketch -->
    <title>logo</title>
    <desc>Created with Sketch.</desc>
    <defs></defs>
    <g id="Page-1" stroke="none" stroke-width="1" fill="none" fill-rule="evenodd">
        <g id="landing" transform="translate(-890.000000, -217.000000)" fill="#FFFFFF">
            <g id="logo" transform="translate(739.000000, 217.000000)">
                <g transform="translate(151.000000, 0.000000)">
                    <path d="M89.1752181,47.3629688 L78.7317643,47.3629688 C78.4507983,49.4198521 78.1035667,51.9949321 77.8981434,53.4951846 C77.1625956,58.910407 76.5396993,63.3979114 76.0268037,66.9683003 C75.5139082,70.533388 75.1308932,73.3311204 74.8605297,75.3575215 C74.5954674,77.3852479 74.380767,78.913332 74.2257055,79.9457495 C74.0719694,80.9834684 73.9831736,81.6633531 73.9619686,81.994681 C73.9420889,82.3220329 73.9261852,82.5764927 73.9261852,82.7540844 C73.9261852,85.880494 74.538479,88.1494271 75.7630668,89.5555825 C76.9850039,90.9657138 78.9981519,91.6694542 81.8011855,91.6694542 C83.4008364,91.6694542 84.931571,91.3394517 86.4026667,90.6820972 C87.3476137,90.2540216 88.2408736,89.6920896 89.0771451,89.000277 L87.191227,102.559538 C86.8135132,102.8246 86.4265223,103.081711 86.0355554,103.326893 C84.4571096,104.315576 82.7209516,105.086907 80.8297323,105.639562 C78.9411635,106.188241 76.8630752,106.46258 74.5954674,106.46258 C68.8581944,106.46258 64.532378,104.835098 61.6206688,101.574832 C58.7089597,98.3185415 57.2537678,93.8482661 57.2537678,88.1706321 C57.2537678,87.553037 57.2723221,86.9460444 57.318708,86.3549555 C57.3624433,85.7585653 57.4605163,84.8441005 57.6169031,83.6128862 C57.7746151,82.3763707 58.0091953,80.6521405 58.3219688,78.428268 C58.629441,76.2030702 59.054866,73.1760589 59.5863158,69.3472343 C60.1204163,65.515759 60.787048,60.706204 61.587536,54.9185691 C61.8380199,53.0896393 62.6106764,47.3550169 62.6053752,47.3550169 C60.6956015,47.3550169 59.0442635,47.3881497 57.6685902,47.4517646 C56.2915917,47.5193555 55.0868836,47.6174286 54.0677192,47.7499597 C53.0406028,47.8798402 52.1420417,48.057432 51.3667345,48.278759 C50.5861261,48.4974353 49.8200961,48.7638229 49.0646686,49.0712952 L49.0646686,37.7107259 C50.8419112,36.434451 53.373256,35.4404674 56.6706307,34.7393777 C59.957403,34.0356374 64.3375572,33.6804539 69.805792,33.6804539 L91.0796906,33.6804539 L89.1752181,47.3629688 Z M70.0735049,6 C34.6850399,6 6,34.6850399 6,70.0708543 C6,105.455343 34.6850399,134.143034 70.0735049,134.143034 C105.460645,134.143034 134.144359,105.455343 134.144359,70.0708543 C134.144359,34.6850399 105.460645,6 70.0735049,6 Z" id="Fill-1"></path>
                    <path d="M69.8306577,136.691292 C32.9631451,136.691292 2.96604691,106.696845 2.96604691,69.8293323 C2.96604691,32.9604945 32.9631451,2.96737222 69.8306577,2.96737222 C106.700821,2.96737222 136.693943,32.9604945 136.693943,69.8293323 C136.693943,106.696845 106.700821,136.691292 69.8306577,136.691292 M69.8306577,0 C31.2627706,0 0,31.2640959 0,69.8293323 C0,108.397219 31.2627706,139.661315 69.8306577,139.661315 C108.398545,139.661315 139.65999,108.397219 139.65999,69.8293323 C139.65999,31.2640959 108.398545,0 69.8306577,0" id="Fill-3"></path>
                </g>
            </g>
        </g>
    </g>
</svg>