<?xml version="1.0" encoding="UTF-8"?>
<svg width="441px" height="32px" viewBox="0 0 441 32" version="1.1" xmlns="http://www.w3.org/2000/svg" xmlns:xlink="http://www.w3.org/1999/xlink">
    <!-- Generator: Sketch 50.2 (55047) - http://www.bohemiancoding.com/sketch -->
    <title>Tau, Understanding E</title>
    <desc>Created with Sketch.</desc>
    <defs></defs>
    <g id="Tau-home" stroke="none" stroke-width="1" fill="none" fill-rule="evenodd">
        <g id="TAU_home" transform="translate(-500.000000, -288.000000)" fill="#0796CF">
            <g id="header">
                <g id="Parallax" transform="translate(0.000000, 2.000000)">
                    <g id="Group">
                        <g id="logo" transform="translate(500.250000, 162.750000)">
                            <path d="M18.125,128.4375 L11.03125,128.4375 L11.03125,148 L7.109375,148 L7.109375,128.4375 L0.078125,128.4375 L0.078125,125.25 L18.125,125.25 L18.125,128.4375 Z M28.21875,148 C28.0520825,147.677082 27.9062506,147.151045 27.78125,146.421875 C26.5729106,147.682298 25.0937587,148.3125 23.34375,148.3125 C21.6458248,148.3125 20.260422,147.82813 19.1875,146.859375 C18.114578,145.89062 17.578125,144.692715 17.578125,143.265625 C17.578125,141.463533 18.2473891,140.080734 19.5859375,139.117188 C20.9244859,138.153641 22.8385292,137.671875 25.328125,137.671875 L27.65625,137.671875 L27.65625,136.5625 C27.65625,135.687496 27.4114608,134.986982 26.921875,134.460938 C26.4322892,133.934893 25.687505,133.671875 24.6875,133.671875 C23.8229123,133.671875 23.1145861,133.888019 22.5625,134.320312 C22.0104139,134.752606 21.734375,135.30208 21.734375,135.96875 L17.9375,135.96875 C17.9375,135.041662 18.2447886,134.174483 18.859375,133.367188 C19.4739614,132.559892 20.3098905,131.927086 21.3671875,131.46875 C22.4244845,131.010414 23.6041602,130.78125 24.90625,130.78125 C26.8854266,130.78125 28.4635358,131.278641 29.640625,132.273438 C30.8177142,133.268234 31.4218748,134.666658 31.453125,136.46875 L31.453125,144.09375 C31.453125,145.614591 31.6666645,146.82812 32.09375,147.734375 L32.09375,148 L28.21875,148 Z M24.046875,145.265625 C24.7968788,145.265625 25.5026009,145.083335 26.1640625,144.71875 C26.8255241,144.354165 27.322915,143.864586 27.65625,143.25 L27.65625,140.0625 L25.609375,140.0625 C24.203118,140.0625 23.1458369,140.307289 22.4375,140.796875 C21.7291631,141.286461 21.375,141.979162 21.375,142.875 C21.375,143.60417 21.6171851,144.184894 22.1015625,144.617188 C22.5859399,145.049481 23.2343709,145.265625 24.046875,145.265625 Z M45.671875,146.34375 C44.5572861,147.656257 42.9739686,148.3125 40.921875,148.3125 C39.0885325,148.3125 37.7005255,147.776047 36.7578125,146.703125 C35.8150995,145.630203 35.34375,144.078135 35.34375,142.046875 L35.34375,131.09375 L39.140625,131.09375 L39.140625,142 C39.140625,144.145844 40.0312411,145.21875 41.8125,145.21875 C43.6562592,145.21875 44.9010384,144.557298 45.546875,143.234375 L45.546875,131.09375 L49.34375,131.09375 L49.34375,148 L45.765625,148 L45.671875,146.34375 Z M53.75,153.125 L51.703125,151.90625 C52.3072947,150.958329 52.721353,150.132816 52.9453125,149.429688 C53.169272,148.726559 53.2864583,148.01042 53.296875,147.28125 L53.296875,144.328125 L56.71875,144.328125 L56.703125,147.0625 C56.6927083,148.166672 56.4140652,149.273432 55.8671875,150.382812 C55.3203098,151.492193 54.6145877,152.406246 53.75,153.125 Z M85.21875,125.25 L85.21875,140.453125 C85.21875,142.869804 84.4453202,144.783847 82.8984375,146.195312 C81.3515548,147.606778 79.2916795,148.3125 76.71875,148.3125 C74.1145703,148.3125 72.0468827,147.617194 70.515625,146.226562 C68.9843673,144.835931 68.21875,142.906262 68.21875,140.4375 L68.21875,125.25 L72.15625,125.25 L72.15625,140.46875 C72.15625,141.989591 72.5416628,143.151038 73.3125,143.953125 C74.0833372,144.755212 75.2187425,145.15625 76.71875,145.15625 C79.7604319,145.15625 81.28125,143.552099 81.28125,140.34375 L81.28125,125.25 L85.21875,125.25 Z M92.59375,131.09375 L92.703125,133.046875 C93.9531312,131.536451 95.5937398,130.78125 97.625,130.78125 C101.145851,130.78125 102.9375,132.796855 103,136.828125 L103,148 L99.203125,148 L99.203125,137.046875 C99.203125,135.973953 98.9713565,135.17969 98.5078125,134.664062 C98.0442685,134.148435 97.2864636,133.890625 96.234375,133.890625 C94.7031173,133.890625 93.5625038,134.583326 92.8125,135.96875 L92.8125,148 L89.015625,148 L89.015625,131.09375 L92.59375,131.09375 Z M106.15625,139.421875 C106.15625,136.817695 106.760411,134.72657 107.96875,133.148438 C109.177089,131.570305 110.796865,130.78125 112.828125,130.78125 C114.619801,130.78125 116.067703,131.406244 117.171875,132.65625 L117.171875,124 L120.96875,124 L120.96875,148 L117.53125,148 L117.34375,146.25 C116.208328,147.625007 114.692718,148.3125 112.796875,148.3125 C110.817698,148.3125 109.216152,147.515633 107.992188,145.921875 C106.768223,144.328117 106.15625,142.161472 106.15625,139.421875 Z M109.953125,139.75 C109.953125,141.468759 110.283851,142.809891 110.945312,143.773438 C111.606774,144.736984 112.546869,145.21875 113.765625,145.21875 C115.317716,145.21875 116.453121,144.526049 117.171875,143.140625 L117.171875,135.921875 C116.473955,134.567702 115.348966,133.890625 113.796875,133.890625 C112.567702,133.890625 111.619795,134.377599 110.953125,135.351562 C110.286455,136.325526 109.953125,137.791657 109.953125,139.75 Z M132.375,148.3125 C129.968738,148.3125 128.018237,147.554695 126.523438,146.039062 C125.028638,144.52343 124.28125,142.505221 124.28125,139.984375 L124.28125,139.515625 C124.28125,137.828117 124.606768,136.320319 125.257812,134.992188 C125.908857,133.664056 126.822911,132.630212 128,131.890625 C129.177089,131.151038 130.489576,130.78125 131.9375,130.78125 C134.239595,130.78125 136.018223,131.515618 137.273438,132.984375 C138.528652,134.453132 139.15625,136.531237 139.15625,139.21875 L139.15625,140.75 L128.109375,140.75 C128.223959,142.14584 128.6901,143.249996 129.507812,144.0625 C130.325525,144.875004 131.35416,145.28125 132.59375,145.28125 C134.333342,145.28125 135.749995,144.578132 136.84375,143.171875 L138.890625,145.125 C138.213538,146.135422 137.309901,146.919268 136.179688,147.476562 C135.049474,148.033857 133.781257,148.3125 132.375,148.3125 Z M131.921875,133.828125 C130.880203,133.828125 130.039066,134.192705 129.398438,134.921875 C128.757809,135.651045 128.348959,136.66666 128.171875,137.96875 L135.40625,137.96875 L135.40625,137.6875 C135.322916,136.41666 134.984378,135.455732 134.390625,134.804688 C133.796872,134.153643 132.973964,133.828125 131.921875,133.828125 Z M150.953125,134.5625 C150.453123,134.479166 149.937503,134.4375 149.40625,134.4375 C147.666658,134.4375 146.494795,135.10416 145.890625,136.4375 L145.890625,148 L142.09375,148 L142.09375,131.09375 L145.71875,131.09375 L145.8125,132.984375 C146.729171,131.515618 147.999992,130.78125 149.625,130.78125 C150.166669,130.78125 150.614582,130.854166 150.96875,131 L150.953125,134.5625 Z M162.828125,143.40625 C162.828125,142.729163 162.549482,142.213543 161.992188,141.859375 C161.434893,141.505207 160.510423,141.19271 159.21875,140.921875 C157.927077,140.65104 156.848963,140.307294 155.984375,139.890625 C154.088532,138.973954 153.140625,137.645842 153.140625,135.90625 C153.140625,134.447909 153.755202,133.229172 154.984375,132.25 C156.213548,131.270828 157.776032,130.78125 159.671875,130.78125 C161.692718,130.78125 163.325515,131.281245 164.570312,132.28125 C165.81511,133.281255 166.4375,134.578117 166.4375,136.171875 L162.640625,136.171875 C162.640625,135.442705 162.369794,134.83594 161.828125,134.351562 C161.286456,133.867185 160.567713,133.625 159.671875,133.625 C158.838538,133.625 158.158857,133.817706 157.632812,134.203125 C157.106768,134.588544 156.84375,135.104163 156.84375,135.75 C156.84375,136.333336 157.088539,136.786457 157.578125,137.109375 C158.067711,137.432293 159.057284,137.757811 160.546875,138.085938 C162.036466,138.414064 163.205725,138.804685 164.054688,139.257812 C164.90365,139.71094 165.533852,140.255205 165.945312,140.890625 C166.356773,141.526045 166.5625,142.29687 166.5625,143.203125 C166.5625,144.723966 165.932298,145.955724 164.671875,146.898438 C163.411452,147.841151 161.760427,148.3125 159.71875,148.3125 C158.333326,148.3125 157.098964,148.062502 156.015625,147.5625 C154.932286,147.062498 154.088545,146.375004 153.484375,145.5 C152.880205,144.624996 152.578125,143.682297 152.578125,142.671875 L156.265625,142.671875 C156.317709,143.567713 156.656247,144.25781 157.28125,144.742188 C157.906253,145.226565 158.73437,145.46875 159.765625,145.46875 C160.76563,145.46875 161.526039,145.278648 162.046875,144.898438 C162.567711,144.518227 162.828125,144.020836 162.828125,143.40625 Z M174.625,126.984375 L174.625,131.09375 L177.609375,131.09375 L177.609375,133.90625 L174.625,133.90625 L174.625,143.34375 C174.625,143.989587 174.752603,144.455728 175.007812,144.742188 C175.263022,145.028647 175.718747,145.171875 176.375,145.171875 C176.812502,145.171875 177.255206,145.119792 177.703125,145.015625 L177.703125,147.953125 C176.838537,148.19271 176.005212,148.3125 175.203125,148.3125 C172.286444,148.3125 170.828125,146.703141 170.828125,143.484375 L170.828125,133.90625 L168.046875,133.90625 L168.046875,131.09375 L170.828125,131.09375 L170.828125,126.984375 L174.625,126.984375 Z M190.609375,148 C190.442707,147.677082 190.296876,147.151045 190.171875,146.421875 C188.963536,147.682298 187.484384,148.3125 185.734375,148.3125 C184.03645,148.3125 182.651047,147.82813 181.578125,146.859375 C180.505203,145.89062 179.96875,144.692715 179.96875,143.265625 C179.96875,141.463533 180.638014,140.080734 181.976562,139.117188 C183.315111,138.153641 185.229154,137.671875 187.71875,137.671875 L190.046875,137.671875 L190.046875,136.5625 C190.046875,135.687496 189.802086,134.986982 189.3125,134.460938 C188.822914,133.934893 188.07813,133.671875 187.078125,133.671875 C186.213537,133.671875 185.505211,133.888019 184.953125,134.320312 C184.401039,134.752606 184.125,135.30208 184.125,135.96875 L180.328125,135.96875 C180.328125,135.041662 180.635414,134.174483 181.25,133.367188 C181.864586,132.559892 182.700516,131.927086 183.757812,131.46875 C184.815109,131.010414 185.994785,130.78125 187.296875,130.78125 C189.276052,130.78125 190.854161,131.278641 192.03125,132.273438 C193.208339,133.268234 193.8125,134.666658 193.84375,136.46875 L193.84375,144.09375 C193.84375,145.614591 194.05729,146.82812 194.484375,147.734375 L194.484375,148 L190.609375,148 Z M186.4375,145.265625 C187.187504,145.265625 187.893226,145.083335 188.554688,144.71875 C189.216149,144.354165 189.71354,143.864586 190.046875,143.25 L190.046875,140.0625 L188,140.0625 C186.593743,140.0625 185.536462,140.307289 184.828125,140.796875 C184.119788,141.286461 183.765625,141.979162 183.765625,142.875 C183.765625,143.60417 184.00781,144.184894 184.492188,144.617188 C184.976565,145.049481 185.624996,145.265625 186.4375,145.265625 Z M201.34375,131.09375 L201.453125,133.046875 C202.703131,131.536451 204.34374,130.78125 206.375,130.78125 C209.895851,130.78125 211.6875,132.796855 211.75,136.828125 L211.75,148 L207.953125,148 L207.953125,137.046875 C207.953125,135.973953 207.721356,135.17969 207.257812,134.664062 C206.794269,134.148435 206.036464,133.890625 204.984375,133.890625 C203.453117,133.890625 202.312504,134.583326 201.5625,135.96875 L201.5625,148 L197.765625,148 L197.765625,131.09375 L201.34375,131.09375 Z M214.90625,139.421875 C214.90625,136.817695 215.510411,134.72657 216.71875,133.148438 C217.927089,131.570305 219.546865,130.78125 221.578125,130.78125 C223.369801,130.78125 224.817703,131.406244 225.921875,132.65625 L225.921875,124 L229.71875,124 L229.71875,148 L226.28125,148 L226.09375,146.25 C224.958328,147.625007 223.442718,148.3125 221.546875,148.3125 C219.567698,148.3125 217.966152,147.515633 216.742188,145.921875 C215.518223,144.328117 214.90625,142.161472 214.90625,139.421875 Z M218.703125,139.75 C218.703125,141.468759 219.033851,142.809891 219.695312,143.773438 C220.356774,144.736984 221.296869,145.21875 222.515625,145.21875 C224.067716,145.21875 225.203121,144.526049 225.921875,143.140625 L225.921875,135.921875 C225.223955,134.567702 224.098966,133.890625 222.546875,133.890625 C221.317702,133.890625 220.369795,134.377599 219.703125,135.351562 C219.036455,136.325526 218.703125,137.791657 218.703125,139.75 Z M237.71875,148 L233.921875,148 L233.921875,131.09375 L237.71875,131.09375 L237.71875,148 Z M233.6875,126.703125 C233.6875,126.119789 233.872394,125.635419 234.242188,125.25 C234.611981,124.864581 235.140622,124.671875 235.828125,124.671875 C236.515628,124.671875 237.046873,124.864581 237.421875,125.25 C237.796877,125.635419 237.984375,126.119789 237.984375,126.703125 C237.984375,127.276045 237.796877,127.752602 237.421875,128.132812 C237.046873,128.513023 236.515628,128.703125 235.828125,128.703125 C235.140622,128.703125 234.611981,128.513023 234.242188,128.132812 C233.872394,127.752602 233.6875,127.276045 233.6875,126.703125 Z M245.375,131.09375 L245.484375,133.046875 C246.734381,131.536451 248.37499,130.78125 250.40625,130.78125 C253.927101,130.78125 255.71875,132.796855 255.78125,136.828125 L255.78125,148 L251.984375,148 L251.984375,137.046875 C251.984375,135.973953 251.752606,135.17969 251.289062,134.664062 C250.825519,134.148435 250.067714,133.890625 249.015625,133.890625 C247.484367,133.890625 246.343754,134.583326 245.59375,135.96875 L245.59375,148 L241.796875,148 L241.796875,131.09375 L245.375,131.09375 Z M258.984375,139.421875 C258.984375,136.796862 259.601556,134.700529 260.835938,133.132812 C262.070319,131.565096 263.708323,130.78125 265.75,130.78125 C267.677093,130.78125 269.192703,131.453118 270.296875,132.796875 L270.46875,131.09375 L273.890625,131.09375 L273.890625,147.484375 C273.890625,149.703136 273.200528,151.453119 271.820312,152.734375 C270.440097,154.015631 268.578137,154.65625 266.234375,154.65625 C264.994785,154.65625 263.78386,154.39844 262.601562,153.882812 C261.419265,153.367185 260.520836,152.692712 259.90625,151.859375 L261.703125,149.578125 C262.869798,150.963549 264.307283,151.65625 266.015625,151.65625 C267.276048,151.65625 268.27083,151.315108 269,150.632812 C269.72917,149.950517 270.09375,148.947923 270.09375,147.625 L270.09375,146.484375 C268.999995,147.703131 267.541676,148.3125 265.71875,148.3125 C263.739573,148.3125 262.122402,147.52605 260.867188,145.953125 C259.611973,144.3802 258.984375,142.203139 258.984375,139.421875 Z M262.765625,139.75 C262.765625,141.447925 263.111976,142.783849 263.804688,143.757812 C264.497399,144.731776 265.458327,145.21875 266.6875,145.21875 C268.218758,145.21875 269.354163,144.562507 270.09375,143.25 L270.09375,135.8125 C269.374996,134.531244 268.250008,133.890625 266.71875,133.890625 C265.468744,133.890625 264.497399,134.385412 263.804688,135.375 C263.111976,136.364588 262.765625,137.822907 262.765625,139.75 Z M299.421875,137.84375 L290.078125,137.84375 L290.078125,144.84375 L301,144.84375 L301,148 L286.125,148 L286.125,125.25 L300.890625,125.25 L300.890625,128.4375 L290.078125,128.4375 L290.078125,134.71875 L299.421875,134.71875 L299.421875,137.84375 Z M313.953125,148 C313.786457,147.677082 313.640626,147.151045 313.515625,146.421875 C312.307286,147.682298 310.828134,148.3125 309.078125,148.3125 C307.3802,148.3125 305.994797,147.82813 304.921875,146.859375 C303.848953,145.89062 303.3125,144.692715 303.3125,143.265625 C303.3125,141.463533 303.981764,140.080734 305.320312,139.117188 C306.658861,138.153641 308.572904,137.671875 311.0625,137.671875 L313.390625,137.671875 L313.390625,136.5625 C313.390625,135.687496 313.145836,134.986982 312.65625,134.460938 C312.166664,133.934893 311.42188,133.671875 310.421875,133.671875 C309.557287,133.671875 308.848961,133.888019 308.296875,134.320312 C307.744789,134.752606 307.46875,135.30208 307.46875,135.96875 L303.671875,135.96875 C303.671875,135.041662 303.979164,134.174483 304.59375,133.367188 C305.208336,132.559892 306.044266,131.927086 307.101562,131.46875 C308.158859,131.010414 309.338535,130.78125 310.640625,130.78125 C312.619802,130.78125 314.197911,131.278641 315.375,132.273438 C316.552089,133.268234 317.15625,134.666658 317.1875,136.46875 L317.1875,144.09375 C317.1875,145.614591 317.40104,146.82812 317.828125,147.734375 L317.828125,148 L313.953125,148 Z M309.78125,145.265625 C310.531254,145.265625 311.236976,145.083335 311.898438,144.71875 C312.559899,144.354165 313.05729,143.864586 313.390625,143.25 L313.390625,140.0625 L311.34375,140.0625 C309.937493,140.0625 308.880212,140.307289 308.171875,140.796875 C307.463538,141.286461 307.109375,141.979162 307.109375,142.875 C307.109375,143.60417 307.35156,144.184894 307.835938,144.617188 C308.320315,145.049481 308.968746,145.265625 309.78125,145.265625 Z M328.109375,145.28125 C329.057296,145.28125 329.843747,145.005211 330.46875,144.453125 C331.093753,143.901039 331.427083,143.218754 331.46875,142.40625 L335.046875,142.40625 C335.005208,143.458339 334.677086,144.4401 334.0625,145.351562 C333.447914,146.263025 332.614589,146.984372 331.5625,147.515625 C330.510411,148.046878 329.375006,148.3125 328.15625,148.3125 C325.791655,148.3125 323.916674,147.546883 322.53125,146.015625 C321.145826,144.484367 320.453125,142.369805 320.453125,139.671875 L320.453125,139.28125 C320.453125,136.70832 321.140618,134.648445 322.515625,133.101562 C323.890632,131.55468 325.765613,130.78125 328.140625,130.78125 C330.151052,130.78125 331.789056,131.367182 333.054688,132.539062 C334.320319,133.710943 334.984375,135.24999 335.046875,137.15625 L331.46875,137.15625 C331.427083,136.187495 331.096357,135.390628 330.476562,134.765625 C329.856768,134.140622 329.067713,133.828125 328.109375,133.828125 C326.880202,133.828125 325.932295,134.273433 325.265625,135.164062 C324.598955,136.054692 324.260417,137.406241 324.25,139.21875 L324.25,139.828125 C324.25,141.661468 324.580726,143.028641 325.242188,143.929688 C325.903649,144.830734 326.859369,145.28125 328.109375,145.28125 Z M341.65625,132.9375 C342.89584,131.499993 344.463532,130.78125 346.359375,130.78125 C349.96356,130.78125 351.791666,132.838521 351.84375,136.953125 L351.84375,148 L348.046875,148 L348.046875,137.09375 C348.046875,135.927077 347.794273,135.101565 347.289062,134.617188 C346.783852,134.13281 346.041672,133.890625 345.0625,133.890625 C343.541659,133.890625 342.406254,134.567702 341.65625,135.921875 L341.65625,148 L337.859375,148 L337.859375,124 L341.65625,124 L341.65625,132.9375 Z M382.171875,137.21875 C382.171875,139.447928 381.786462,141.403637 381.015625,143.085938 C380.244788,144.768238 379.143236,146.059891 377.710938,146.960938 C376.278639,147.861984 374.630218,148.3125 372.765625,148.3125 C370.921866,148.3125 369.278653,147.861984 367.835938,146.960938 C366.393222,146.059891 365.27865,144.77605 364.492188,143.109375 C363.705725,141.4427 363.307292,139.520844 363.296875,137.34375 L363.296875,136.0625 C363.296875,133.843739 363.6901,131.885425 364.476562,130.1875 C365.263025,128.489575 366.372389,127.190109 367.804688,126.289062 C369.236986,125.388016 370.880199,124.9375 372.734375,124.9375 C374.588551,124.9375 376.231764,125.382808 377.664062,126.273438 C379.096361,127.164067 380.203121,128.445304 380.984375,130.117188 C381.765629,131.789071 382.161458,133.734364 382.171875,135.953125 L382.171875,137.21875 Z M378.21875,136.03125 C378.21875,133.510404 377.742192,131.578132 376.789062,130.234375 C375.835933,128.890618 374.484384,128.21875 372.734375,128.21875 C371.026033,128.21875 369.690109,128.888014 368.726562,130.226562 C367.763016,131.565111 367.270833,133.458321 367.25,135.90625 L367.25,137.21875 C367.25,139.718762 367.736974,141.651035 368.710938,143.015625 C369.684901,144.380215 371.03645,145.0625 372.765625,145.0625 C374.515634,145.0625 375.861974,144.39584 376.804688,143.0625 C377.747401,141.72916 378.21875,139.781263 378.21875,137.21875 L378.21875,136.03125 Z M390.5,126.984375 L390.5,131.09375 L393.484375,131.09375 L393.484375,133.90625 L390.5,133.90625 L390.5,143.34375 C390.5,143.989587 390.627603,144.455728 390.882812,144.742188 C391.138022,145.028647 391.593747,145.171875 392.25,145.171875 C392.687502,145.171875 393.130206,145.119792 393.578125,145.015625 L393.578125,147.953125 C392.713537,148.19271 391.880212,148.3125 391.078125,148.3125 C388.161444,148.3125 386.703125,146.703141 386.703125,143.484375 L386.703125,133.90625 L383.921875,133.90625 L383.921875,131.09375 L386.703125,131.09375 L386.703125,126.984375 L390.5,126.984375 Z M400.125,132.9375 C401.36459,131.499993 402.932282,130.78125 404.828125,130.78125 C408.43231,130.78125 410.260416,132.838521 410.3125,136.953125 L410.3125,148 L406.515625,148 L406.515625,137.09375 C406.515625,135.927077 406.263023,135.101565 405.757812,134.617188 C405.252602,134.13281 404.510422,133.890625 403.53125,133.890625 C402.010409,133.890625 400.875004,134.567702 400.125,135.921875 L400.125,148 L396.328125,148 L396.328125,124 L400.125,124 L400.125,132.9375 Z M421.59375,148.3125 C419.187488,148.3125 417.236987,147.554695 415.742188,146.039062 C414.247388,144.52343 413.5,142.505221 413.5,139.984375 L413.5,139.515625 C413.5,137.828117 413.825518,136.320319 414.476562,134.992188 C415.127607,133.664056 416.041661,132.630212 417.21875,131.890625 C418.395839,131.151038 419.708326,130.78125 421.15625,130.78125 C423.458345,130.78125 425.236973,131.515618 426.492188,132.984375 C427.747402,134.453132 428.375,136.531237 428.375,139.21875 L428.375,140.75 L417.328125,140.75 C417.442709,142.14584 417.90885,143.249996 418.726562,144.0625 C419.544275,144.875004 420.57291,145.28125 421.8125,145.28125 C423.552092,145.28125 424.968745,144.578132 426.0625,143.171875 L428.109375,145.125 C427.432288,146.135422 426.528651,146.919268 425.398438,147.476562 C424.268224,148.033857 423.000007,148.3125 421.59375,148.3125 Z M421.140625,133.828125 C420.098953,133.828125 419.257816,134.192705 418.617188,134.921875 C417.976559,135.651045 417.567709,136.66666 417.390625,137.96875 L424.625,137.96875 L424.625,137.6875 C424.541666,136.41666 424.203128,135.455732 423.609375,134.804688 C423.015622,134.153643 422.192714,133.828125 421.140625,133.828125 Z M440.171875,134.5625 C439.671873,134.479166 439.156253,134.4375 438.625,134.4375 C436.885408,134.4375 435.713545,135.10416 435.109375,136.4375 L435.109375,148 L431.3125,148 L431.3125,131.09375 L434.9375,131.09375 L435.03125,132.984375 C435.947921,131.515618 437.218742,130.78125 438.84375,130.78125 C439.385419,130.78125 439.833332,130.854166 440.1875,131 L440.171875,134.5625 Z" id="Tau,-Understanding-E"></path>
                        </g>
                    </g>
                </g>
            </g>
        </g>
    </g>
</svg>