<?xml version="1.0" encoding="UTF-8"?>
<svg width="112px" height="112px" viewBox="0 0 112 112" version="1.1" xmlns="http://www.w3.org/2000/svg" xmlns:xlink="http://www.w3.org/1999/xlink">
    <!-- Generator: Sketch 50.2 (55047) - http://www.bohemiancoding.com/sketch -->
    <title>icon</title>
    <desc>Created with Sketch.</desc>
    <defs></defs>
    <g id="Tau-home" stroke="none" stroke-width="1" fill="none" fill-rule="evenodd">
        <g id="Agoras_home-Copy" transform="translate(-944.000000, -1927.000000)">
            <g id="Features" transform="translate(0.000000, 1283.000000)">
                <g id="1-copy-3" transform="translate(722.000000, 642.000000)">
                    <g id="icon" transform="translate(219.000000, 0.000000)">
                        <path d="M52.960396,17.6972381 L66.2277228,17.6972381 C85.7030271,17.6972381 101.490881,33.4850917 101.490881,52.960396 L101.490881,66.2277228 C101.490881,85.7030271 85.7030271,101.490881 66.2277228,101.490881 L52.960396,101.490881 C33.4850917,101.490881 17.6972381,85.7030271 17.6972381,66.2277228 L17.6972381,52.960396 C17.6972381,33.4850917 33.4850917,17.6972381 52.960396,17.6972381 Z" id="Rectangle-6" fill="#1088FE" transform="translate(59.594059, 59.594059) rotate(-315.000000) translate(-59.594059, -59.594059) "></path>
                        <circle id="Oval-4" stroke="#F8C41C" cx="59" cy="58" r="55"></circle>
                        <circle id="Oval-4-Copy" fill="#F8C41C" cx="58.5247525" cy="58.5247525" r="47.5247525"></circle>
                        <g id="computer" transform="translate(35.000000, 35.000000)" fill="#FFFFFF" fill-rule="nonzero">
                            <path d="M43.2248205,11.1093754 L29.9884627,11.1093754 L26.2853376,5.55468768 L39.0771352,5.55468768 L39.0771352,6.9433596 C39.0771352,7.71027681 39.6803743,8.33203152 40.4472915,8.33203152 L46.0019792,8.33203152 C46.7688964,8.33203152 47.3906511,7.71027681 47.3906511,6.9433596 L47.3906511,1.38867192 C47.3906511,0.621754708 46.7688964,0 46.0019792,0 L40.4472915,0 C39.6803743,0 39.0771352,0.621754708 39.0771352,1.38867192 L39.0771352,2.77734384 L8.32268113,2.77734384 L8.32268113,1.38867192 C8.32268113,0.621754708 7.70092642,0 6.93400921,0 L1.37932153,0 C0.612404317,0 0.00916523467,0.621754708 0.00916523467,1.38867192 L0.00916523467,6.9433596 C0.00916523467,7.71027681 0.612404317,8.33203152 1.37932153,8.33203152 L6.93400921,8.33203152 C7.70092642,8.33203152 8.32268113,7.71027681 8.32268113,6.9433596 L8.32268113,5.55468768 L21.0959632,5.55468768 L17.3928381,11.1093754 L4.15685052,11.1093754 C1.85970943,11.1093754 0.00935039093,12.97825 0.00935039093,15.2753911 L0.00935039093,37.6792981 C0.00935039093,39.9764392 1.85970943,41.8453138 4.15685052,41.8453138 L17.5609599,41.8453138 L14.3768278,45.029446 C13.5060379,45.9002359 14.1224231,47.4000015 15.358804,47.4000015 L32.022867,47.4000015 C33.2544339,47.4000015 33.8790585,45.9036612 33.0047507,45.029446 L29.8207111,41.8453138 L43.2248205,41.8453138 C45.5219616,41.8453138 47.3908363,39.9764392 47.3908363,37.6792981 L47.3908363,15.2753911 C47.3908363,12.97825 45.5219616,11.1093754 43.2248205,11.1093754 Z M41.8359635,2.77734384 L44.6318229,2.77734384 L44.6318229,5.55468768 L41.8359635,5.55468768 L41.8359635,2.77734384 Z M5.56385291,5.55468768 L2.76799345,5.55468768 L2.76799345,2.77734384 L5.56385291,2.77734384 L5.56385291,5.55468768 Z M23.6906504,19.4414069 C24.4563641,19.4414069 25.0793223,20.0643651 25.0793223,20.8300788 C25.0793223,21.5957925 24.4563641,22.2187507 23.6906504,22.2187507 C22.9249367,22.2187507 22.3019785,21.5957925 22.3019785,20.8300788 C22.3019785,20.0643651 22.9249367,19.4414069 23.6906504,19.4414069 Z M22.3204941,8.7524288 L22.3204941,16.9029146 C20.7041725,17.4761584 19.5246346,19.0197135 19.5246346,20.8300788 C19.5246346,23.1272199 21.3935093,24.9960946 23.6906504,24.9960946 C25.9877915,24.9960946 27.8566661,23.1272199 27.8566661,20.8300788 C27.8566661,19.0197135 26.6956438,17.4761584 25.0793223,16.9029146 L25.0793223,8.75252138 C25.4179731,9.26049756 32.226076,19.4726057 32.4727042,19.8426405 C29.7853463,20.8015647 27.8751818,23.3721816 27.8751818,26.3848591 L27.8751818,27.773531 L19.5246346,27.773531 L19.5246346,26.3848591 C19.5246346,23.3721816 17.5959545,20.8014722 14.9085966,19.8425479 C15.1539286,19.4745498 21.9813804,9.26123819 22.3204941,8.7524288 Z M30.6525256,30.5507822 L30.6525256,33.5132823 L16.7472908,33.5132823 L16.7472908,30.5507822 C17.1192697,30.5507822 30.2861939,30.5507822 30.6525256,30.5507822 Z M2.7681786,15.2753911 C2.7681786,14.5096774 3.39104425,13.8867192 4.15685052,13.8867192 L15.5412755,13.8867192 L11.4259,20.0598288 C10.8111812,20.9819995 11.475059,22.2187507 12.581275,22.2187507 C14.8784161,22.2187507 16.7658064,24.0876254 16.7658064,26.3847665 L16.7658064,27.7734384 L15.3586189,27.7734384 C14.5917016,27.7734384 13.9884626,28.3951931 13.9884626,29.1621103 L13.9884626,33.5132823 L2.7681786,33.5132823 L2.7681786,15.2753911 Z M18.7113358,44.6226577 L21.4886796,41.8453138 L25.8929915,41.8453138 L28.6703353,44.6226577 L18.7113358,44.6226577 Z M44.6134925,37.6792981 C44.6134925,38.4450118 43.9905342,39.06797 43.2248205,39.06797 C42.5750147,39.06797 4.80600836,39.06797 4.15685052,39.06797 C3.39113683,39.06797 2.7681786,38.4450118 2.7681786,37.6792981 L2.7681786,36.2906262 C3.16783838,36.2906262 44.0383971,36.2906262 44.6134925,36.2906262 L44.6134925,37.6792981 Z M44.6134925,33.5132823 L33.4113538,33.5132823 L33.4113538,29.1621103 C33.4113538,28.3951931 32.7895991,27.7734384 32.0226819,27.7734384 L30.63401,27.7734384 L30.63401,26.3847665 C30.63401,24.0876254 32.5028846,22.2187507 34.8000257,22.2187507 C35.9082785,22.2187507 36.5691012,20.9803331 35.9554008,20.0598288 L31.8400252,13.8867192 L43.2248205,13.8867192 C43.9905342,13.8867192 44.6134925,14.5096774 44.6134925,15.2753911 L44.6134925,33.5132823 Z" id="Shape"></path>
                        </g>
                    </g>
                </g>
            </g>
        </g>
    </g>
</svg>