<?xml version="1.0" encoding="UTF-8"?>
<svg width="112px" height="112px" viewBox="0 0 112 112" version="1.1" xmlns="http://www.w3.org/2000/svg" xmlns:xlink="http://www.w3.org/1999/xlink">
    <!-- Generator: Sketch 50.2 (55047) - http://www.bohemiancoding.com/sketch -->
    <title>icon</title>
    <desc>Created with Sketch.</desc>
    <defs></defs>
    <g id="Tau-home" stroke="none" stroke-width="1" fill="none" fill-rule="evenodd">
        <g id="Agoras_home-Copy" transform="translate(-371.000000, -1585.000000)">
            <g id="Features" transform="translate(0.000000, 1283.000000)">
                <g id="1" transform="translate(149.000000, 300.000000)">
                    <g id="icon" transform="translate(219.000000, 0.000000)">
                        <path d="M52.960396,17.6972381 L66.2277228,17.6972381 C85.7030271,17.6972381 101.490881,33.4850917 101.490881,52.960396 L101.490881,66.2277228 C101.490881,85.7030271 85.7030271,101.490881 66.2277228,101.490881 L52.960396,101.490881 C33.4850917,101.490881 17.6972381,85.7030271 17.6972381,66.2277228 L17.6972381,52.960396 C17.6972381,33.4850917 33.4850917,17.6972381 52.960396,17.6972381 Z" id="Rectangle-6" fill="#1088FE" transform="translate(59.594059, 59.594059) rotate(-315.000000) translate(-59.594059, -59.594059) "></path>
                        <circle id="Oval-4" stroke="#F8C41C" cx="59" cy="58" r="55"></circle>
                        <circle id="Oval-4-Copy" fill="#F8C41C" cx="58.5247525" cy="58.5247525" r="47.5247525"></circle>
                        <g id="chip" transform="translate(35.000000, 35.000000)" fill="#FFFFFF" fill-rule="nonzero">
                            <path d="M46.6146214,22.9609119 L35.4568643,22.9609119 L35.4568643,21.3842381 L38.4672726,21.3842381 C38.8499837,21.3842381 39.1602551,21.0739668 39.1602551,20.6912556 C39.1602551,20.3085445 38.8499837,19.9982732 38.4672726,19.9982732 L35.4568643,19.9982732 L35.4568643,18.421507 L37.5468995,18.421507 C38.3255346,18.421507 39.0576013,18.1183503 39.6081065,17.5677526 L44.1657137,13.0101454 C44.4626798,13.1580741 44.7918927,13.2367969 45.1333944,13.2367969 C45.7142061,13.2367969 46.2601839,13.0106074 46.6708916,12.5999922 C47.0815992,12.1892846 47.3077887,11.6433068 47.3077887,11.0624951 C47.3077887,10.4816834 47.0815992,9.93570558 46.6708916,9.52499797 C46.2602763,9.11429035 45.7142061,8.88810087 45.1333944,8.88810087 C44.5525827,8.88810087 44.0066049,9.11429035 43.5958973,9.52490557 C43.1851897,9.93561319 42.9590002,10.481591 42.9590002,11.0624027 C42.9590002,11.4039045 43.037723,11.7331173 43.1856517,12.0300834 L38.6280445,16.5876906 C38.3393018,16.8764333 37.9552971,17.0355421 37.5468071,17.0355421 L35.4567719,17.0355421 L35.4567719,15.5065455 C35.4567719,13.4907981 33.8168058,11.8509244 31.8011507,11.8509244 L30.2721542,11.8509244 L30.2721542,5.71618147 C31.1321916,5.4261452 31.7534735,4.61239898 31.7534735,3.65571357 C31.7534735,2.45676148 30.7780314,1.48141174 29.5791717,1.48141174 C28.380312,1.48141174 27.4048699,2.45685388 27.4048699,3.65571357 C27.4048699,4.61239898 28.0261518,5.42605281 28.8861892,5.71618147 L28.8861892,11.850832 L27.3095155,11.850832 L27.3095155,8.84042368 C27.3095155,8.45771255 26.9992441,8.1474412 26.616533,8.1474412 C26.2338219,8.1474412 25.9235505,8.45771255 25.9235505,8.84042368 L25.9235505,11.850832 L24.3467844,11.850832 L24.3467844,0.693074876 C24.3467844,0.310363753 24.0365131,9.23976638e-05 23.6538019,9.23976638e-05 C23.2710908,9.23976638e-05 22.9608195,0.310363753 22.9608195,0.693074876 L22.9608195,11.850832 L21.3841457,11.850832 L21.3841457,8.84042368 C21.3841457,8.45771255 21.0738744,8.1474412 20.6911632,8.1474412 C20.3084521,8.1474412 19.9981808,8.45771255 19.9981808,8.84042368 L19.9981808,11.850832 L18.421507,11.850832 L18.421507,9.7608892 C18.421507,8.98225409 18.1182579,8.2501874 17.5676602,7.69968212 L13.0084823,3.14050419 C13.4112437,2.32731236 13.2762507,1.31334039 12.5999922,0.636989494 C11.7521513,-0.210759071 10.3727465,-0.210666673 9.52499797,0.636989494 C8.6772494,1.48473806 8.6772494,2.86414278 9.52499797,3.71198375 C9.94891845,4.13581183 10.5057068,4.34777207 11.0624951,4.34777207 C11.3940179,4.34777207 11.7249863,4.27080482 12.0285127,4.12047382 L16.5876906,8.67974414 C16.8765257,8.96848684 17.0355421,9.35249153 17.0355421,9.7608892 L17.0355421,11.850832 L15.5065455,11.850832 C15.1974753,11.850832 14.8900683,11.889639 14.5929174,11.9660518 C14.2223104,12.0614062 13.99917,12.4392203 14.0945244,12.8099197 C14.1898788,13.1806191 14.5677853,13.4037595 14.9383923,13.3083127 C15.1227256,13.2609127 15.313804,13.2367969 15.5064531,13.2367969 L31.8011507,13.2367969 C33.0526771,13.2367969 34.0708069,14.2550192 34.0708069,15.5064531 L34.0708069,31.8012431 C34.0708069,31.9937075 34.0467836,32.1846934 33.9994759,32.368842 C33.904214,32.7395414 34.1274467,33.1172631 34.4980537,33.212525 C34.5558947,33.2274011 34.6139204,33.2345157 34.6711146,33.2345157 C34.9798152,33.2345157 35.2613508,33.0267133 35.3417368,32.7138549 C35.4180573,32.4170736 35.4567719,32.1099437 35.4567719,31.8011507 L35.4567719,30.2721542 L41.5914224,30.2721542 C41.8814587,31.1321916 42.6952049,31.7534735 43.6518903,31.7534735 C44.8508424,31.7534735 45.8261921,30.7781238 45.8261921,29.5791717 C45.8261921,28.3802196 44.85075,27.4048699 43.6518903,27.4048699 C42.6952049,27.4048699 41.8815511,28.0261518 41.5914224,28.8861892 L35.4567719,28.8861892 L35.4567719,27.3094231 L38.4671802,27.3094231 C38.8498913,27.3094231 39.1601627,26.9991517 39.1601627,26.6164406 C39.1601627,26.2337295 38.8498913,25.9234581 38.4671802,25.9234581 L35.4567719,25.9234581 L35.4567719,24.3468768 L46.6146214,24.3468768 C46.9973325,24.3468768 47.3076039,24.0366055 47.3076039,23.6538943 C47.3076039,23.2711832 46.9973325,22.9609119 46.6146214,22.9609119 Z M44.5758669,10.50506 C44.724812,10.356115 44.9227278,10.2741582 45.133302,10.2741582 C45.3438763,10.2741582 45.5417921,10.356115 45.6907371,10.50506 C45.8396822,10.654005 45.9216389,10.8519208 45.9216389,11.0624951 C45.9216389,11.2730694 45.8396822,11.4709852 45.6907371,11.6199302 C45.5417921,11.7688752 45.3438763,11.850832 45.133302,11.850832 C44.9227278,11.850832 44.724812,11.7688752 44.5758669,11.6199302 C44.4269219,11.4709852 44.3449652,11.2730694 44.3449652,11.0624951 C44.3449652,10.8519208 44.4269219,10.6539126 44.5758669,10.50506 Z M11.6198378,2.73201412 C11.3125232,3.03923636 10.8123746,3.03932875 10.5048752,2.73192173 C10.1974682,2.4245147 10.1974682,1.92436614 10.5048752,1.61705151 C10.6586249,1.4633018 10.8604214,1.38651934 11.0624027,1.38651934 C11.2642916,1.38651934 11.4661805,1.4633942 11.6198378,1.61705151 C11.9272448,1.92445854 11.9272448,2.4246071 11.6198378,2.73201412 Z M29.5791717,4.44405044 C29.1445331,4.44405044 28.7908348,4.09035218 28.7908348,3.65571357 C28.7908348,3.22107496 29.1444407,2.8673767 29.5791717,2.8673767 C30.0139027,2.8673767 30.3675086,3.22107496 30.3675086,3.65571357 C30.3675086,4.09035218 30.0138103,4.44405044 29.5791717,4.44405044 Z M43.6519827,28.7909272 C44.0867137,28.7909272 44.4403196,29.1446255 44.4403196,29.5792641 C44.4403196,30.0139951 44.0866213,30.367601 43.6519827,30.367601 C43.2173441,30.367601 42.8636458,30.0139027 42.8636458,29.5792641 C42.8635534,29.1445331 43.2172517,28.7909272 43.6519827,28.7909272 Z" id="Shape"></path>
                            <path d="M37.7826983,43.5958973 C37.1064398,42.9195464 36.0923754,42.7845534 35.2791836,43.1873148 L30.7200057,38.6280445 C30.4311706,38.3393018 30.2721542,37.9552971 30.2721542,37.5468995 L30.2721542,35.4569567 L31.8011507,35.4569567 C32.1102209,35.4569567 32.4175355,35.4181497 32.714594,35.3417368 C33.0852011,35.2463824 33.3083414,34.8685684 33.212987,34.4978689 C33.1176326,34.1272619 32.7400034,33.9041216 32.3691192,33.9994759 C32.1848782,34.0468759 31.9937999,34.0708993 31.8011507,34.0708993 L15.5064531,34.0708993 C14.2549268,34.0708993 13.2367969,33.0526771 13.2367969,31.8012431 L13.2367969,15.5065455 C13.2367969,15.3138964 13.2608203,15.122818 13.3082203,14.9386695 C13.4036671,14.5680625 13.1805267,14.1902484 12.8099197,14.0948016 C12.4392203,13.9993548 12.0614062,14.2224952 11.9660518,14.5931022 C11.8895466,14.8900683 11.850832,15.1973829 11.850832,15.5065455 L11.850832,17.0355421 L5.71608907,17.0355421 C5.42605281,16.1755046 4.61230658,15.5542227 3.65562117,15.5542227 C2.45666908,15.5542227 1.48131935,16.5295725 1.48131935,17.7285245 C1.48131935,18.9274766 2.45676148,19.9028264 3.65562117,19.9028264 C4.61230658,19.9028264 5.42596041,19.2815445 5.71608907,18.421507 L11.8507396,18.421507 L11.8507396,19.9982732 L8.84033128,19.9982732 C8.45762016,19.9982732 8.1473488,20.3085445 8.1473488,20.6912556 C8.1473488,21.0739668 8.45762016,21.3842381 8.84033128,21.3842381 L11.8507396,21.3842381 L11.8507396,22.9609119 L0.692982478,22.9609119 C0.310271355,22.9609119 0,23.2711832 0,23.6538943 C0,24.0366055 0.310271355,24.3468768 0.692982478,24.3468768 L11.8507396,24.3468768 L11.8507396,25.9235505 L8.84033128,25.9235505 C8.45762016,25.9235505 8.1473488,26.2338219 8.1473488,26.616533 C8.1473488,26.9992441 8.45762016,27.3095155 8.84033128,27.3095155 L11.8507396,27.3095155 L11.8507396,28.8862816 L9.76070441,28.8862816 C8.98206929,28.8862816 8.2500026,29.1894384 7.69949732,29.740036 L3.14189016,34.2976432 C2.84492407,34.1497145 2.51571119,34.0709917 2.17420943,34.0709917 C1.59339771,34.0709917 1.04741992,34.2971812 0.636712301,34.7077964 C0.226189481,35.1185041 0,35.6645742 0,36.2452936 C0,36.8260129 0.226189481,37.3720831 0.636897097,37.7827907 C1.04751231,38.1934983 1.59358251,38.4195954 2.17439422,38.4195954 C2.75520594,38.4195954 3.30118373,38.1934059 3.71189135,37.7827907 C4.12259896,37.3720831 4.34878844,36.8261053 4.34878844,36.2452936 C4.34878844,35.9037918 4.27006563,35.5745789 4.12213697,35.2776128 L8.67974414,30.7200057 C8.96848684,30.431263 9.35249153,30.2721542 9.7609816,30.2721542 L11.8510168,30.2721542 L11.8510168,31.8011507 C11.8510168,33.8168982 13.4909829,35.4567719 15.5066379,35.4567719 L17.0356345,35.4567719 L17.0356345,41.5914224 C16.175597,41.8814587 15.5543151,42.6952049 15.5543151,43.6518903 C15.5543151,44.8508424 16.5297573,45.8261921 17.7286169,45.8261921 C18.9274766,45.8261921 19.9029188,44.85075 19.9029188,43.6518903 C19.9029188,42.6952049 19.2816369,41.8815511 18.4215994,41.5914224 L18.4215994,35.4567719 L19.9982732,35.4567719 L19.9982732,38.4671802 C19.9982732,38.8498913 20.3085445,39.1601627 20.6912556,39.1601627 C21.0739668,39.1601627 21.3842381,38.8498913 21.3842381,38.4671802 L21.3842381,35.4567719 L22.9608195,35.4567719 L22.9608195,46.6147138 C22.9608195,46.9974249 23.2710908,47.3076963 23.6538019,47.3076963 C24.0365131,47.3076963 24.3467844,46.9974249 24.3467844,46.6147138 L24.3467844,35.4569567 L25.9234581,35.4569567 L25.9234581,38.467365 C25.9234581,38.8500761 26.2337295,39.1603475 26.6164406,39.1603475 C26.9991517,39.1603475 27.3094231,38.8500761 27.3094231,38.467365 L27.3094231,35.4569567 L28.8860968,35.4569567 L28.8860968,37.5468995 C28.8860968,38.3255346 29.189346,39.0576013 29.7399436,39.6081065 L34.2991216,44.1672845 C33.8963602,44.9804763 34.0313531,45.9944483 34.707704,46.6707992 C35.1315321,47.0947196 35.6884128,47.3065875 36.2452012,47.3065875 C36.8019895,47.3065875 37.3588702,47.0947196 37.7826983,46.6707992 C38.6304469,45.8230506 38.6304469,44.4436459 37.7826983,43.5958973 Z M3.65562117,18.5168614 C3.22089016,18.5168614 2.8672843,18.1631632 2.8672843,17.7285245 C2.8672843,17.2937935 3.22098256,16.9401877 3.65562117,16.9401877 C4.09025978,16.9401877 4.44395804,17.2938859 4.44395804,17.7285245 C4.44405044,18.1632556 4.09035218,18.5168614 3.65562117,18.5168614 Z M2.73173693,36.8027287 C2.5827919,36.9516737 2.3848761,37.0336304 2.17430182,37.0336304 C1.96372755,37.0336304 1.76581175,36.9516737 1.61686672,36.8027287 C1.46792168,36.6537836 1.38596496,36.4558678 1.38596496,36.2452936 C1.38596496,36.0347193 1.46792168,35.8368035 1.61686672,35.6878585 C1.76581175,35.5389134 1.96372755,35.4569567 2.17430182,35.4569567 C2.3848761,35.4569567 2.5827919,35.5389134 2.73173693,35.6878585 C2.88068196,35.8368035 2.96263869,36.0347193 2.96263869,36.2452936 C2.96263869,36.4558678 2.88068196,36.653876 2.73173693,36.8027287 Z M18.516769,43.6520751 C18.516769,44.0867137 18.1631632,44.440412 17.7284321,44.440412 C17.2937011,44.440412 16.9400953,44.0867137 16.9400953,43.6520751 C16.9400953,43.2174365 17.2937935,42.8637382 17.7284321,42.8637382 C18.1630708,42.8637382 18.516769,43.2174365 18.516769,43.6520751 Z M36.8027287,45.6908295 C36.4953216,45.9982366 35.9951731,45.9981442 35.6877661,45.6908295 C35.380359,45.3834225 35.380359,44.883274 35.6877661,44.5759593 C35.8415158,44.422302 36.0434047,44.3454272 36.2452936,44.3454272 C36.4471825,44.3454272 36.6490714,44.422302 36.8027287,44.5759593 C37.1100433,44.883274 37.1100433,45.3834225 36.8027287,45.6908295 Z" id="Shape"></path>
                            <path d="M31.0128139,21.8023375 C31.0128139,20.320279 29.9288045,19.064872 28.4448056,18.6569363 C28.4886945,18.4757445 28.5130875,18.2893784 28.5130875,18.0989468 C28.5130875,16.6957959 27.2676594,15.5542227 25.7369997,15.5542227 C24.907823,15.5542227 24.1630055,15.8895338 23.6538943,16.4195268 C23.1447832,15.8895338 22.3998732,15.5542227 21.570789,15.5542227 C20.0400369,15.5542227 18.7947012,16.6957959 18.7947012,18.0989468 C18.7947012,18.2893784 18.8190942,18.4757445 18.8629831,18.6569363 C17.3789842,19.0647796 16.2949748,20.3201866 16.2949748,21.8023375 C16.2949748,22.5266428 16.5512859,23.210016 17.0248239,23.7743809 C16.5618192,24.3737645 16.2949748,25.1013961 16.2949748,25.8760581 C16.29479,27.0543132 16.9243877,28.1544921 17.9613667,28.8369413 C17.9613667,28.8374957 17.9613667,28.8380501 17.9613667,28.8386044 C17.9613667,30.4459542 19.3936228,31.7536583 21.1541679,31.7536583 C22.1659224,31.7536583 23.0685551,31.3213297 23.6538943,30.6488595 C24.2392335,31.3213297 25.1418663,31.7536583 26.1536207,31.7536583 C27.8479167,31.7536583 29.2374852,30.542325 29.339677,29.0185027 C30.3687097,28.421429 31.0128139,27.3755798 31.0128139,26.2462956 C31.0128139,25.4156406 30.6586536,24.6232382 30.0491062,24.0243166 C30.6585612,23.4253949 31.0128139,22.6329001 31.0128139,21.8023375 Z M28.5602103,24.6370979 C29.2279682,24.9895026 29.6265717,25.5911037 29.6265717,26.2462956 C29.6265717,26.734802 29.3995507,27.2007634 29.0161003,27.549195 C28.6517764,26.8745997 28.007857,26.3375845 27.1942956,26.0820125 C26.8293248,25.967347 26.4402383,26.1703447 26.3254804,26.5354079 C26.2107225,26.9005634 26.4138125,27.2895576 26.7788757,27.4042231 C27.4853483,27.6262547 27.9600874,28.2027237 27.9600874,28.8386968 C27.9600874,29.6818255 27.1495751,30.3677858 26.1532511,30.3677858 C25.1570195,30.3677858 24.3465072,29.6818255 24.3465072,28.8386968 L24.3465072,24.3946464 C24.3465072,23.5515177 25.1570195,22.8656499 26.1532511,22.8656499 C26.5359623,22.8656499 26.8462336,22.5553785 26.8462336,22.1726674 C26.8462336,21.7899563 26.5359623,21.4796849 26.1532511,21.4796849 C25.4829985,21.4796849 24.8606078,21.6696545 24.3465072,21.9931387 L24.3465072,21.1079691 C24.3465072,20.725258 24.0362359,20.4149866 23.6535247,20.4149866 C23.2708136,20.4149866 22.9605423,20.725258 22.9605423,21.1079691 L22.9605423,24.9551306 C22.7273306,24.8087727 22.4715738,24.6876394 22.1949352,24.6006932 C21.8295949,24.4859353 21.4407855,24.6890254 21.32612,25.0539961 C21.2113621,25.4191517 21.4143598,25.8081459 21.7794229,25.9229038 C22.4858955,26.1449353 22.9605423,26.7214044 22.9605423,27.3572851 L22.9605423,28.8386044 C22.9605423,29.6817331 22.15003,30.3676934 21.1537983,30.3676934 C20.1574743,30.3676934 19.346962,29.6817331 19.346962,28.8386044 C19.346962,28.4772372 19.5001574,28.1259413 19.7782743,27.8494874 C20.0497387,27.5796863 20.0510322,27.1408898 19.781231,26.8694254 C19.5114299,26.5979611 19.0727258,26.5966675 18.8012614,26.8664687 C18.6352228,27.0315833 18.4922836,27.2119436 18.3734602,27.4036687 C17.9358649,26.9897272 17.6803854,26.4451354 17.6803854,25.8758733 C17.6803854,24.8491505 18.4861854,23.9471645 19.639955,23.6824452 C20.0129644,23.596885 20.2459913,23.2250768 20.1604311,22.8520674 C20.0748708,22.4789656 19.7029702,22.2460311 19.3300533,22.3315914 C18.8655702,22.4381259 18.4379538,22.6159914 18.0587538,22.8494803 C17.8128836,22.5406873 17.6804778,22.1790428 17.6804778,21.8021527 C17.680755,20.7598147 18.6688556,19.9112346 19.886934,19.903196 C19.8931246,19.9033808 19.8993153,19.9042123 19.9054135,19.9042123 C20.0635983,19.9042123 20.2226147,19.8503445 20.352803,19.7401141 C20.6184463,19.5152182 20.6717597,19.1336158 20.4934322,18.8465363 C20.4881656,18.8380357 20.4833609,18.8293503 20.477817,18.8211269 C20.4749527,18.816969 20.471534,18.8129959 20.4685773,18.808838 C20.4578591,18.7937772 20.4468638,18.7789936 20.4349445,18.7647643 C20.4345749,18.7643024 20.4342977,18.7638404 20.4339281,18.7634708 C20.3183387,18.6268146 20.180389,18.4006252 20.180389,18.0988544 C20.180389,17.4599245 20.8040732,16.9400953 21.5705118,16.9400953 C22.3369504,16.9400953 22.9606347,17.4599245 22.9606347,18.0988544 C22.9606347,18.4815655 23.270906,18.7918369 23.6536171,18.7918369 C24.0363283,18.7918369 24.3465996,18.4815655 24.3465996,18.0988544 C24.3465996,17.4599245 24.9702838,16.9400953 25.7367225,16.9400953 C26.5031611,16.9400953 27.1268453,17.4599245 27.1268453,18.0988544 C27.1268453,18.2696053 27.0821248,18.415224 27.0228979,18.5349714 C26.6287295,18.5722076 26.2474968,18.6674696 25.8855751,18.8201105 C25.5328932,18.9687784 25.3675938,19.3752357 25.5162616,19.7279176 C25.6649295,20.0805071 26.0713868,20.2459913 26.4240687,20.0972311 C26.7236219,19.9709234 27.045905,19.9059679 27.3820477,19.9033808 C27.3887003,19.9035656 27.3952605,19.9042123 27.4019132,19.9042123 C27.4081038,19.9042123 27.4142021,19.9033808 27.4203927,19.903196 C28.6384711,19.9111422 29.6265717,20.7598147 29.6265717,21.8021527 C29.6265717,22.4573446 29.2279682,23.0588534 28.5602103,23.4113505 C28.332912,23.5312826 28.1906196,23.7671739 28.1906196,24.0242242 C28.1906196,24.2812745 28.332912,24.5171657 28.5602103,24.6370979 Z" id="Shape"></path>
                        </g>
                    </g>
                </g>
            </g>
        </g>
    </g>
</svg>