<?xml version="1.0" encoding="UTF-8"?>
<svg width="112px" height="112px" viewBox="0 0 112 112" version="1.1" xmlns="http://www.w3.org/2000/svg" xmlns:xlink="http://www.w3.org/1999/xlink">
    <!-- Generator: Sketch 50.2 (55047) - http://www.bohemiancoding.com/sketch -->
    <title>icon</title>
    <desc>Created with Sketch.</desc>
    <defs>
        <polygon id="path-1" points="0 0.0170343755 47.3999738 0.0170343755 47.3999738 38.9960429 0 38.9960429"></polygon>
    </defs>
    <g id="Tau-home" stroke="none" stroke-width="1" fill="none" fill-rule="evenodd">
        <g id="Agoras_home-Copy" transform="translate(-371.000000, -1927.000000)">
            <g id="Features" transform="translate(0.000000, 1283.000000)">
                <g id="1-copy-2" transform="translate(149.000000, 642.000000)">
                    <g id="icon" transform="translate(219.000000, 0.000000)">
                        <path d="M52.960396,17.6972381 L66.2277228,17.6972381 C85.7030271,17.6972381 101.490881,33.4850917 101.490881,52.960396 L101.490881,66.2277228 C101.490881,85.7030271 85.7030271,101.490881 66.2277228,101.490881 L52.960396,101.490881 C33.4850917,101.490881 17.6972381,85.7030271 17.6972381,66.2277228 L17.6972381,52.960396 C17.6972381,33.4850917 33.4850917,17.6972381 52.960396,17.6972381 Z" id="Rectangle-6" fill="#1088FE" transform="translate(59.594059, 59.594059) rotate(-315.000000) translate(-59.594059, -59.594059) "></path>
                        <circle id="Oval-4" stroke="#F8C41C" cx="59" cy="58" r="55"></circle>
                        <circle id="Oval-4-Copy" fill="#F8C41C" cx="58.5247525" cy="58.5247525" r="47.5247525"></circle>
                        <g id="Group-2" transform="translate(35.000000, 37.000000)">
                            <g id="Group">
                                <g id="Group-3" transform="translate(0.000000, 0.075544)">
                                    <mask id="mask-2" fill="white">
                                        <use xlink:href="#path-1"></use>
                                    </mask>
                                    <g id="Clip-2"></g>
                                    <path d="M1.71396369,36.5529 C1.62092267,37.2707508 1.65304728,37.3133367 2.2722098,37.3133367 C16.5579407,37.3137071 30.8435791,37.3136145 45.12931,37.3133367 C45.7452323,37.3133367 45.8314225,37.1894672 45.6546909,36.5529 L1.71396369,36.5529 Z M45.2773424,34.4060132 C45.1951331,34.2793663 45.1444928,34.1903988 45.0835764,34.1091152 C44.0763264,32.7636772 43.0612998,31.4239791 42.0652517,30.0703017 C41.8818544,29.8209889 41.6926247,29.7235967 41.3808216,29.7237818 C29.5803505,29.7326693 17.779972,29.7332248 5.97959351,29.7266517 C5.70306264,29.7264666 5.53086733,29.8059912 5.36681888,30.0283639 C4.36882666,31.3806526 3.35592937,32.7219245 2.34941996,34.0679179 C2.27924574,34.1617921 2.22027347,34.2639058 2.12751019,34.4060132 L45.2773424,34.4060132 Z M41.3869729,28.0386747 C41.3869318,27.7856587 41.3870243,27.586338 41.3869318,27.3870173 C41.3860986,19.4881588 41.3855431,11.5893004 41.3839693,3.69044192 C41.3836915,2.33926414 40.7267571,1.68825474 39.358545,1.68816216 C28.9142509,1.6871438 18.4698642,1.68705123 8.02557014,1.68825474 C6.66633807,1.6884399 6.01505094,2.34472625 6.01495836,3.70580988 C6.01440289,11.6509574 6.01468062,19.5961049 6.01468062,27.5412524 L6.01461119,28.0386747 L41.3869729,28.0386747 Z M47.3999738,34.5316417 L47.3999738,37.4941418 C46.9869827,38.6201696 46.1682218,38.9977958 44.9925721,38.9960368 C30.7975677,38.9743735 16.6024708,38.9743735 2.40737387,38.9960368 C1.2318168,38.9977958 0.413055834,38.620077 -2.77734384e-05,37.4941418 L-2.77734384e-05,34.5316417 C0.337974972,34.0406999 0.661905842,33.5393894 1.01657265,33.060853 C2.02678518,31.6982881 3.05986451,30.3523873 4.05711611,28.980472 C4.22209033,28.7533779 4.33235088,28.4282435 4.33290635,28.1481947 C4.34725596,19.9874327 4.34308994,11.8267633 4.34549698,3.66600129 C4.34614502,1.45680942 5.74861108,0.022403907 7.9423424,0.0210152351 C18.4479232,0.0142570317 28.953504,0.0168492193 39.4590848,0.023144532 C39.8102337,0.0233296883 40.1725845,0.0570281268 40.5106798,0.146828911 C42.1364443,0.578335565 43.0542638,1.85702467 43.0547267,3.66618645 C43.0564857,11.7497383 43.059726,19.8332901 43.0454689,27.9169345 C43.0445431,28.4079689 43.1717455,28.7882798 43.4641998,29.1786818 C44.7916776,30.9512752 46.0907339,32.7453468 47.3999738,34.5316417 Z" id="Fill-1" fill="#FFFFFF" mask="url(#mask-2)"></path>
                                </g>
                                <path d="M27.3939051,40.6055076 C28.7034227,40.6055076 30.013681,40.5807892 31.3216248,40.6257822 C31.5938045,40.63504 31.9475455,40.8426927 32.0965037,41.0689537 C32.21954,41.2558689 32.1996357,41.6961705 32.0558619,41.8604967 C31.8632068,42.08074 31.4953939,42.2388635 31.1935892,42.2552498 C30.2718814,42.3054271 29.3458224,42.2758947 28.4215223,42.2758021 C26.8501012,42.275617 25.2787726,42.2745986 23.7073515,42.2724693 C23.5845929,42.2722842 23.4597976,42.2723768 23.3392608,42.2523799 C22.8357284,42.1688744 22.5533651,41.8335564 22.5846565,41.3677959 C22.6140038,40.9322158 22.928862,40.6228197 23.4193409,40.6130064 C24.3433632,40.5946759 25.267941,40.6049521 26.192241,40.603656 C26.5928266,40.6031931 26.9933195,40.6035634 27.3939051,40.6035634 L27.3939051,40.6055076 Z" id="Fill-7" fill="#FFFFFF"></path>
                                <path d="M14.3502394,40.6052391 C14.9199652,40.6052391 15.4898761,40.5951481 16.0593242,40.6080164 C16.6141449,40.6207922 16.9436305,40.9164867 16.9642754,41.3883575 C16.9860312,41.8847614 16.6638594,42.251093 16.1001511,42.2623876 C14.88423,42.286643 13.6671979,42.2853469 12.4512768,42.2610915 C11.9225631,42.250445 11.5773393,41.8801325 11.5783576,41.4287215 C11.579376,40.9555547 11.9441338,40.6171817 12.5025651,40.604591 C13.1182096,40.5907969 13.7343171,40.6014434 14.3502394,40.6014434 L14.3502394,40.6052391 Z" id="Fill-9" fill="#FFFFFF"></path>
                                <path d="M19.6723986,42.2950584 C19.3978118,42.2742283 19.118411,42.2787646 18.8498419,42.2270135 C18.4371286,42.1473963 18.1677262,41.7968955 18.1783727,41.4110298 C18.1896673,41.0010939 18.499804,40.6490193 18.9349212,40.623838 C19.4398423,40.5946759 19.9488369,40.5941204 20.4539431,40.6205052 C20.8788767,40.642724 21.169572,40.9595263 21.200308,41.3595564 C21.2330806,41.7839345 20.9795092,42.1202709 20.5446697,42.2283096 C20.4851419,42.2430295 20.4249662,42.2645076 20.3647904,42.2656185 C20.134456,42.2699697 19.904029,42.2673775 19.6737872,42.2673775 L19.6723986,42.2950584 Z" id="Fill-11" fill="#FFFFFF"></path>
                                <path d="M34.6547799,40.5989067 C34.7931842,40.6054798 34.9326994,40.6031653 35.0698077,40.6201071 C35.4970557,40.6734321 35.8128397,41.0155083 35.8195979,41.4227595 C35.8260784,41.8092732 35.5511213,42.1620884 35.1340569,42.2262451 C34.8336408,42.2725341 34.5185975,42.2807736 34.216515,42.2476306 C33.7476068,42.195972 33.4323783,41.8336212 33.4389513,41.4200747 C33.4458947,40.9803286 33.7920443,40.6463993 34.2849303,40.6102013 C34.4075963,40.6012212 34.5313733,40.6089052 34.6545947,40.6089052 C34.6546873,40.6055724 34.6546873,40.6022395 34.6547799,40.5989067" id="Fill-13" fill="#FFFFFF"></path>
                                <path d="M10.459838,25.078054 C10.459838,24.3413172 10.459838,23.6512399 10.459838,22.9611625 C10.4599305,21.7731074 10.4519688,20.5850523 10.4635411,19.3970897 C10.4702067,18.715437 10.9592044,18.3129998 11.5409653,18.4978784 C12.0178353,18.6495213 12.1302251,19.031869 12.1292993,19.4842057 C12.1260591,21.16598 12.1293919,22.8476617 12.1302251,24.5293434 C12.1303177,24.6951508 12.1302251,24.8608657 12.1302251,25.0520395 L13.9944709,25.0520395 L13.9944709,24.530084 L13.9944709,16.5688279 C13.9944709,16.4608818 13.9928971,16.3528431 13.9949338,16.2448045 C14.0075244,15.5851853 14.3303443,15.181915 14.8425791,15.1845997 C15.3580541,15.1872845 15.664858,15.5772236 15.6655987,16.2546177 C15.668376,18.9854874 15.6668022,21.7164496 15.6668948,24.4473192 L15.6668948,25.0377825 L17.553637,25.0377825 C17.553637,24.1202407 17.5534519,23.2132527 17.5538222,22.3063574 C17.5540073,21.8589273 17.5426202,21.4110343 17.5594694,20.9641597 C17.5805772,20.4027659 17.8750683,20.0807792 18.3499941,20.0640226 C18.8437132,20.0467105 19.1952324,20.3705487 19.2135628,20.9435148 C19.2415214,21.8220812 19.2237464,22.7020363 19.2248574,23.5815285 C19.2254128,24.057843 19.22495,24.5343426 19.22495,25.0432446 L21.0964168,25.0432446 C21.0964168,24.8761411 21.0964168,24.7120926 21.0965094,24.5479516 C21.0974352,22.6965742 21.0953985,20.8451042 21.1013235,18.9936342 C21.1030824,18.4182612 21.3671153,18.0790549 21.8226922,18.0284147 C22.3735321,17.9672205 22.7547688,18.3298491 22.7636563,18.9673421 C22.7783762,20.0163448 22.7700442,21.0656253 22.7705997,22.1148133 C22.7711551,23.0836434 22.7707848,24.052566 22.7707848,25.0495399 L24.6321607,25.0495399 L24.6321607,24.5420266 L24.6321607,17.2288174 C24.6321607,17.1207787 24.6295685,17.01274 24.6329939,16.9047939 C24.6523427,16.2872978 24.9951595,15.8963404 25.49934,15.9147634 C25.9900967,15.932631 26.2981041,16.3045174 26.2990299,16.9122928 C26.3029182,19.4426382 26.3006963,21.9729836 26.3007889,24.5032364 L26.3007889,25.0421337 L28.1479077,25.0421337 C28.1556842,24.8784555 28.1700338,24.7151477 28.170219,24.5519325 C28.1728112,21.0033202 28.1729038,17.454708 28.1772549,13.9060958 C28.1775327,13.6916849 28.1850315,13.4716266 28.2325241,13.2641591 C28.3276944,12.8473723 28.6182971,12.6382383 29.0380464,12.6489774 C29.4576104,12.6596239 29.7315491,12.8856997 29.8130179,13.3034122 C29.848105,13.4831989 29.8496788,13.6715028 29.8497714,13.8559185 C29.8519933,17.4044381 29.8517155,20.9530503 29.8519007,24.5016625 L29.8519007,25.0607419 L31.7331808,25.0607419 L31.7331808,24.5624864 C31.7331808,22.3407039 31.7329957,20.119014 31.7335511,17.8973241 C31.7336437,17.7430889 31.7303109,17.5880205 31.7451234,17.4348963 C31.7880797,16.9907064 32.1001605,16.6773295 32.5135219,16.6522408 C32.9227172,16.6275224 33.2720145,16.9009057 33.3632039,17.3418553 C33.4002352,17.5206236 33.4036606,17.7086498 33.4038457,17.89251 C33.4064379,20.0988319 33.4055121,22.3051539 33.4055121,24.5114758 L33.4055121,25.0459294 L35.2722575,25.0459294 L35.2722575,23.6283731 C35.2722575,22.7951699 35.2701282,21.9620593 35.2729981,21.1288562 C35.2754052,20.4408155 35.5625825,20.0717065 36.0931478,20.0642077 C36.6410251,20.0564312 36.937738,20.433687 36.9395896,21.1495937 C36.9425521,22.2912672 36.941904,23.4330332 36.9428298,24.5747067 C36.9429224,24.7250536 36.9428298,24.8754004 36.9428298,25.0784243 C37.675956,25.0784243 38.3656631,25.071018 39.0550924,25.0807387 C39.5793623,25.0882376 39.9133842,25.3288481 39.9975377,25.7295263 C40.1205741,26.315731 39.7433182,26.7402017 39.0672201,26.7439048 C37.4781166,26.7525146 35.8889204,26.7495521 34.2998168,26.7494595 C25.7369881,26.7488114 17.1740667,26.7477005 8.61133047,26.746497 C8.47246328,26.746497 8.33304062,26.7510333 8.19491405,26.7407571 C7.71508162,26.7052071 7.39966793,26.3996067 7.38059684,25.9593052 C7.36161832,25.5192813 7.64462966,25.1544309 8.11548202,25.1042536 C8.54282266,25.0587977 8.97784728,25.08222 9.40944651,25.0786094 C9.74467192,25.0758321 10.0799899,25.078054 10.459838,25.078054" id="Fill-15" fill="#FFFFFF"></path>
                            </g>
                            <path d="M23.8607905,13.3659302 C23.8518104,12.878136 23.4226182,12.4619048 22.9294545,12.4626454 C22.4028701,12.4632934 21.9995998,12.885172 22.0177451,13.4162927 C22.0345943,13.9098267 22.4711002,14.3223548 22.9580611,14.3049501 C23.4484475,14.2873603 23.869678,13.8492806 23.8607905,13.3659302 M29.9731688,7.31928234 C30.4712391,7.31382024 30.8797864,6.9088835 30.8851559,6.41553466 C30.8904329,5.92070457 30.4372629,5.46549791 29.9468766,5.47318189 C29.4614895,5.4807733 29.0482207,5.90089285 29.0429437,6.39239013 C29.0372965,6.91240147 29.4513059,7.32492961 29.9731688,7.31928234 M10.9005932,12.1880587 C10.3956721,12.184263 9.99055017,12.5749427 9.97740407,13.0783825 C9.96388766,13.5929318 10.3842849,14.0362884 10.8884654,14.0391583 C11.3812588,14.0421208 11.8367432,13.5805263 11.825819,13.0893993 C11.8148948,12.6012349 11.3945901,12.1916692 10.9005932,12.1880587 M37.4241343,12.0672442 C37.4212643,11.5670446 37.0194753,11.1620153 36.5201088,11.15572 C36.0100033,11.1493321 35.5683131,11.5828755 35.5752565,12.0831677 C35.5819221,12.5667958 36.0052819,12.9919146 36.490669,13.0024685 C36.9968862,13.0133927 37.4270968,12.5824415 37.4241343,12.0672442 M17.1543383,8.78831208 C17.6533344,8.77859138 18.0551235,8.37022925 18.0555864,7.87215893 C18.0561418,7.363905 17.6123223,6.92610304 17.111382,6.94082296 C16.6253469,6.95498741 16.2082824,7.38306868 16.2065234,7.86938158 C16.2046718,8.37967222 16.6364562,8.7984031 17.1543383,8.78831208 M10.9068885,10.4540703 C11.2447986,10.5471114 11.5790983,10.6600567 11.9224705,10.7243985 C12.0763354,10.7531903 12.2927831,10.7405996 12.4050803,10.6514469 C13.0932135,10.1045879 13.768571,9.54069453 14.4247648,8.95606365 C14.5415058,8.85209841 14.6215859,8.61167301 14.5940902,8.45623433 C14.3933808,7.32113391 14.8132226,6.26537294 15.7321531,5.68333425 C16.6525648,5.1002772 17.821734,5.14295571 18.684377,5.79118776 C19.5838661,6.46691552 19.9188138,7.54276595 19.6131208,8.68119919 C19.5754415,8.82126989 19.6247856,9.04928982 19.7227333,9.15075545 C20.3008837,9.7499211 20.8982904,10.3314043 21.508658,10.898075 C21.601699,10.9843579 21.8197205,11.0255551 21.9384056,10.9798215 C22.5563646,10.7417106 23.1658064,10.7467098 23.7954303,10.9222379 C23.9235584,10.9579731 24.1341737,10.9145539 24.2273073,10.8250309 C25.2949182,9.79870977 26.352253,8.76146442 27.3951456,7.7101472 C27.4915195,7.61294017 27.5329945,7.38232805 27.4943894,7.24272023 C27.201287,6.18177489 27.3986636,5.24682837 28.2121476,4.49574202 C28.9977656,3.77039239 29.9391926,3.60930644 30.9212614,3.99776427 C31.9478602,4.40381194 32.4725931,5.22183228 32.5600794,6.31666122 C32.5721146,6.4678413 32.5745216,6.63864795 32.5173083,6.77316397 C32.2916028,7.30363664 32.5504513,7.60164564 32.9489075,7.91298588 C33.6289865,8.44419918 34.2737931,9.02151638 34.9197107,9.59485273 C35.1032932,9.75779024 35.2502147,9.80602344 35.4894365,9.70381719 C36.5347362,9.25731288 37.49903,9.44441327 38.3076073,10.2150336 C39.1091488,10.9788957 39.3095804,11.9487442 38.9330652,12.9770095 C38.5465515,14.0324927 37.7256612,14.586758 36.6092616,14.6723927 C34.9382264,14.8005209 33.5764021,13.1395767 33.9911521,11.4574321 C34.0691029,11.1414629 33.9905041,10.9890793 33.7665576,10.8020715 C33.020563,10.1792985 32.286511,9.54217578 31.5594024,8.89755427 C31.365729,8.72582184 31.2063094,8.65425895 30.9502383,8.78349802 C30.3367231,9.09317186 29.7040442,9.03336638 29.060441,8.85006169 C28.9085203,8.80682771 28.6583742,8.85265388 28.5486691,8.95726716 C27.5103128,9.94720509 26.4865839,10.9526961 25.4780378,11.9729071 C25.3740725,12.0781684 25.3246358,12.3318325 25.3716655,12.4771802 C25.8443694,13.9388037 25.1342026,15.4024639 23.7113694,15.8510049 C22.283722,16.3011197 20.8039532,15.506892 20.439936,14.0332333 C20.3341192,13.6046892 20.3957763,13.1200427 20.4555818,12.6711313 C20.4886321,12.4231145 20.5099251,12.2569368 20.3068087,12.0686329 C19.730047,11.5339016 19.1703196,10.9800993 18.6180911,10.4200016 C18.446729,10.2461399 18.3038809,10.1816129 18.058734,10.2817824 C17.3498633,10.5712742 16.6486766,10.5179492 15.9531371,10.1969809 C15.8387105,10.1441188 15.6222628,10.1694852 15.5239449,10.2477137 C14.8484023,10.7857778 14.2000776,11.3579106 13.524535,11.8956969 C13.3025327,12.072336 13.3482663,12.2326813 13.4044612,12.4571833 C13.7566284,13.8651115 12.9370342,15.2560978 11.557435,15.6190967 C10.172281,15.9834842 8.78147981,15.1758326 8.38894855,13.7791064 C7.92902041,12.1420473 9.15882826,10.5358168 10.9068885,10.4540703" id="Fill-17" fill="#FFFFFF"></path>
                        </g>
                    </g>
                </g>
            </g>
        </g>
    </g>
</svg>