<?xml version="1.0" encoding="UTF-8"?>
<svg width="112px" height="112px" viewBox="0 0 112 112" version="1.1" xmlns="http://www.w3.org/2000/svg" xmlns:xlink="http://www.w3.org/1999/xlink">
    <!-- Generator: Sketch 50.2 (55047) - http://www.bohemiancoding.com/sketch -->
    <title>icon</title>
    <desc>Created with Sketch.</desc>
    <defs></defs>
    <g id="Tau-home" stroke="none" stroke-width="1" fill="none" fill-rule="evenodd">
        <g id="TAU_home" transform="translate(-664.000000, -1781.000000)">
            <g id="Features" transform="translate(-390.000000, 747.000000)">
                <g id="Group-4-Copy" transform="translate(935.000000, 1035.000000)">
                    <g id="1">
                        <g id="icon" transform="translate(120.000000, 0.000000)">
                            <circle id="Oval-4" stroke="#1088FE" cx="55" cy="55" r="55"></circle>
                            <circle id="Oval-4-Copy" fill="#1088FE" cx="55" cy="55" r="48"></circle>
                            <g id="circuit" transform="translate(31.021053, 31.021053)" fill="#FFFFFF" fill-rule="nonzero">
                                <path d="M18.3460384,12.762184 C17.3075157,12.762184 16.4301155,13.4314011 16.099894,14.3574571 L7.82999873,14.3574571 C7.49977722,13.4314011 6.62237707,12.762184 5.58385434,12.762184 C4.26456356,12.762184 3.19094483,13.8358028 3.19094483,15.1550936 C3.19094483,16.4743843 4.26456356,17.5480031 5.58385434,17.5480031 C6.62237707,17.5480031 7.49977722,16.878786 7.82999873,15.9527301 L16.1006916,15.9527301 C16.4309131,16.878786 17.3083133,17.5480031 18.346836,17.5480031 C19.6661268,17.5480031 20.7397455,16.4743843 20.7397455,15.1550936 C20.7397455,13.8358028 19.6653292,12.762184 18.3460384,12.762184 Z M5.58385434,15.9527301 C5.14435663,15.9527301 4.78621784,15.5953889 4.78621784,15.1550936 C4.78621784,14.7147982 5.14435663,14.3574571 5.58385434,14.3574571 C6.02335205,14.3574571 6.38149084,14.7147982 6.38149084,15.1550936 C6.38149084,15.5953889 6.02335205,15.9527301 5.58385434,15.9527301 Z M18.3460384,15.9527301 C17.9065407,15.9527301 17.5484019,15.5953889 17.5484019,15.1550936 C17.5484019,14.7147982 17.9065407,14.3574571 18.3460384,14.3574571 C18.7855361,14.3574571 19.1436749,14.7147982 19.1436749,15.1550936 C19.1436749,15.5953889 18.7855361,15.9527301 18.3460384,15.9527301 Z" id="Shape"></path>
                                <path d="M24.7271304,17.6947682 L24.7271304,12.762184 C24.7271304,12.5500127 24.6433786,12.3474131 24.4934229,12.198255 L21.3028769,9.00770903 C21.1537189,8.85775336 20.9503216,8.77400153 20.7389479,8.77400153 L18.1992733,8.77400153 C17.8690518,7.84794555 16.9916516,7.17872853 15.9531289,7.17872853 C14.6338381,7.17872853 13.5602194,8.25234726 13.5602194,9.57163803 C13.5602194,10.8909288 14.6338381,11.9645475 15.9531289,11.9645475 C16.9916516,11.9645475 17.8690518,11.2953305 18.1992733,10.3692745 L20.4087264,10.3692745 L23.1318574,13.0924056 L23.1318574,17.6947682 C22.2058014,18.0249897 21.5365844,18.9023898 21.5365844,19.9409126 C21.5365844,21.2602033 22.6102031,22.3338221 23.9294939,22.3338221 C25.2487847,22.3338221 26.3224034,21.2602033 26.3224034,19.9409126 C26.3224034,18.9023898 25.6531864,18.0249897 24.7271304,17.6947682 Z M15.9531289,10.3692745 C15.5136312,10.3692745 15.1554924,10.0119334 15.1554924,9.57163803 C15.1554924,9.13134269 15.5136312,8.77400153 15.9531289,8.77400153 C16.3926266,8.77400153 16.7507654,9.13134269 16.7507654,9.57163803 C16.7507654,10.0119334 16.3926266,10.3692745 15.9531289,10.3692745 Z M23.9294939,20.7385491 C23.4899962,20.7385491 23.1318574,20.3812079 23.1318574,19.9409126 C23.1318574,19.5006172 23.4899962,19.1432761 23.9294939,19.1432761 C24.3689916,19.1432761 24.7271304,19.5006172 24.7271304,19.9409126 C24.7271304,20.3812079 24.3689916,20.7385491 23.9294939,20.7385491 Z" id="Shape"></path>
                                <path d="M39.0845875,20.7385491 C38.7160794,20.7385491 38.3715004,20.828682 38.0596246,20.9786377 L36.691678,19.6106911 L36.691678,11.9645475 C36.691678,11.7523762 36.6079261,11.5497766 36.4579705,11.4006185 L28.4752243,3.41787241 C28.62518,3.10599654 28.7153129,2.76141757 28.7153129,2.39290951 C28.7153129,1.07361873 27.6416942,0 26.3224034,0 C25.0031126,0 23.9294939,1.07361873 23.9294939,2.39290951 C23.9294939,3.71220028 25.0031126,4.78581902 26.3224034,4.78581902 C26.6909115,4.78581902 27.0354904,4.69568609 27.3473663,4.54573043 L35.0964049,12.2947691 L35.0964049,19.9409126 C35.0964049,20.1530839 35.1801568,20.3556836 35.3301124,20.5048416 L36.9317665,22.1064957 C36.7818109,22.4183716 36.691678,22.7629505 36.691678,23.1314586 C36.691678,24.4507494 37.7652967,25.5243681 39.0845875,25.5243681 C40.4038782,25.5243681 41.477497,24.4507494 41.477497,23.1314586 C41.477497,21.8121678 40.4038782,20.7385491 39.0845875,20.7385491 Z M26.3224034,3.19054601 C25.8829057,3.19054601 25.5247669,2.83320486 25.5247669,2.39290951 C25.5247669,1.95261416 25.8829057,1.59527301 26.3224034,1.59527301 C26.7619011,1.59527301 27.1200399,1.95261416 27.1200399,2.39290951 C27.1200399,2.83320486 26.7619011,3.19054601 26.3224034,3.19054601 Z M39.0845875,23.9290951 C38.6450897,23.9290951 38.286951,23.5717539 38.286951,23.1314586 C38.286951,22.6911632 38.6450897,22.3338221 39.0845875,22.3338221 C39.5240852,22.3338221 39.882224,22.6911632 39.882224,23.1314586 C39.882224,23.5717539 39.5240852,23.9290951 39.0845875,23.9290951 Z" id="Shape"></path>
                                <path d="M46.263316,11.3136762 L46.263316,7.97636503 C46.263316,7.76419372 46.1795642,7.56159405 46.0296085,7.41243602 L40.446153,1.8289805 C40.2969949,1.67902484 40.0935976,1.59527301 39.882224,1.59527301 L35.7472763,1.59527301 C35.4170548,0.669217026 34.5396547,0 33.5011319,0 C32.1818412,0 31.1082224,1.07361873 31.1082224,2.39290951 C31.1082224,3.71220028 32.1818412,4.78581902 33.5011319,4.78581902 C34.5396547,4.78581902 35.4170548,4.11660199 35.7472763,3.19054601 L39.5520025,3.19054601 L44.668043,8.30658654 L44.668043,11.3136762 C43.741987,11.6438977 43.07277,12.5212978 43.07277,13.5598205 C43.07277,14.8791113 44.1463887,15.9527301 45.4656795,15.9527301 C46.7849703,15.9527301 47.858589,14.8791113 47.858589,13.5598205 C47.858589,12.5212978 47.189372,11.6438977 46.263316,11.3136762 Z M33.5011319,3.19054601 C33.0616342,3.19054601 32.7034954,2.83320486 32.7034954,2.39290951 C32.7034954,1.95261416 33.0616342,1.59527301 33.5011319,1.59527301 C33.9406297,1.59527301 34.2987684,1.95261416 34.2987684,2.39290951 C34.2987684,2.83320486 33.9406297,3.19054601 33.5011319,3.19054601 Z M45.4656795,14.3574571 C45.0261818,14.3574571 44.668043,14.0001159 44.668043,13.5598205 C44.668043,13.1195252 45.0261818,12.762184 45.4656795,12.762184 C45.9051772,12.762184 46.263316,13.1195252 46.263316,13.5598205 C46.263316,14.0001159 45.9051772,14.3574571 45.4656795,14.3574571 Z" id="Shape"></path>
                                <path d="M35.0972026,43.2199339 L35.0972026,31.758695 C36.0224609,31.4284735 36.691678,30.5510733 36.691678,29.5125506 C36.691678,28.1932598 35.6180592,27.1196411 34.2987684,27.1196411 C33.2602457,27.1196411 32.3828456,27.7888581 32.0526241,28.7149141 L23.7827288,28.7149141 C23.4525073,27.7888581 22.5751071,27.1196411 21.5365844,27.1196411 C20.4980617,27.1196411 19.6206615,27.7888581 19.29044,28.7149141 L14.6880774,28.7149141 L11.7248578,25.7516945 C11.8748134,25.4398186 11.9649464,25.0952397 11.9649464,24.7267316 C11.9649464,23.4074408 10.8913276,22.3338221 9.57203685,22.3338221 C8.25274608,22.3338221 7.17912734,23.4074408 7.17912734,24.7267316 C7.17912734,26.0460224 8.25274608,27.1196411 9.57203685,27.1196411 C9.94054492,27.1196411 10.2851239,27.0295082 10.5969998,26.8795525 L13.7939269,30.0764796 C13.9430849,30.2264353 14.1464822,30.3101871 14.3578559,30.3101871 L19.29044,30.3101871 C19.6206615,31.2362431 20.4980617,31.9054601 21.5365844,31.9054601 C22.5751071,31.9054601 23.4525073,31.2362431 23.7827288,30.3101871 L32.0534217,30.3101871 C32.2943079,30.9857852 32.8263315,31.5178088 33.5019296,31.758695 L33.5019296,43.2199339 C32.5758736,43.5501554 31.9066566,44.4275556 31.9066566,45.4660783 C31.9066566,46.7853691 32.9802753,47.8589878 34.2995661,47.8589878 C35.6188569,47.8589878 36.6924756,46.7853691 36.6924756,45.4660783 C36.6924756,44.4275556 36.0232586,43.5501554 35.0972026,43.2199339 Z M9.57203685,25.5243681 C9.13253914,25.5243681 8.77440035,25.1670269 8.77440035,24.7267316 C8.77440035,24.2864362 9.13253914,23.9290951 9.57203685,23.9290951 C10.0115346,23.9290951 10.3696734,24.2864362 10.3696734,24.7267316 C10.3696734,25.1670269 10.0115346,25.5243681 9.57203685,25.5243681 Z M21.5365844,30.3101871 C21.0970867,30.3101871 20.7389479,29.952846 20.7389479,29.5125506 C20.7389479,29.0722553 21.0970867,28.7149141 21.5365844,28.7149141 C21.9760821,28.7149141 22.3342209,29.0722553 22.3342209,29.5125506 C22.3342209,29.952846 21.9760821,30.3101871 21.5365844,30.3101871 Z M34.2987684,46.2629172 C33.8592707,46.2629172 33.5011319,45.905576 33.5011319,45.4652807 C33.5011319,45.0249853 33.8592707,44.6676442 34.2987684,44.6676442 C34.7382662,44.6676442 35.0964049,45.0249853 35.0964049,45.4652807 C35.0964049,45.905576 34.7382662,46.2629172 34.2987684,46.2629172 Z M34.2987684,30.3101871 C33.8592707,30.3101871 33.5011319,29.952846 33.5011319,29.5125506 C33.5011319,29.0722553 33.8592707,28.7149141 34.2987684,28.7149141 C34.7382662,28.7149141 35.0964049,29.0722553 35.0964049,29.5125506 C35.0964049,29.952846 34.7382662,30.3101871 34.2987684,30.3101871 Z" id="Shape"></path>
                                <path d="M31.1082224,16.0994952 L31.1082224,13.5598205 C31.1082224,13.3476492 31.0244706,13.1450496 30.8745149,12.9958915 L21.2964958,3.41787241 C21.4464515,3.10599654 21.5365844,2.76141757 21.5365844,2.39290951 C21.5365844,1.07361873 20.4629657,0 19.1436749,0 C18.1051522,0 17.227752,0.669217026 16.8975305,1.59527301 L13.5602194,1.59527301 C13.119924,1.59527301 12.7625829,1.95181652 12.7625829,2.39290951 L12.7625829,4.45559751 L9.79936326,7.41881711 C9.48748738,7.26886145 9.14290841,7.17872853 8.77440035,7.17872853 C7.45510957,7.17872853 6.38149084,8.25234726 6.38149084,9.57163803 C6.38149084,10.8909288 7.45510957,11.9645475 8.77440035,11.9645475 C10.0936911,11.9645475 11.1673099,10.8909288 11.1673099,9.57163803 C11.1673099,9.20312997 11.0771769,8.858551 10.9272213,8.54667513 L14.1241484,5.34974802 C14.274104,5.20059 14.3578559,4.99799033 14.3578559,4.78581902 L14.3578559,3.19054601 L16.8975305,3.19054601 C17.227752,4.11660199 18.1051522,4.78581902 19.1436749,4.78581902 C19.512183,4.78581902 19.8567619,4.69568609 20.1686378,4.54573043 L29.5129494,13.8900421 L29.5129494,16.0994952 C28.5868934,16.4297167 27.9176764,17.3071168 27.9176764,18.3456396 C27.9176764,19.6649303 28.9912952,20.7385491 30.3105859,20.7385491 C31.6298767,20.7385491 32.7034954,19.6649303 32.7034954,18.3456396 C32.7034954,17.3071168 32.0342784,16.4297167 31.1082224,16.0994952 Z M8.77440035,10.3692745 C8.33490264,10.3692745 7.97676385,10.0119334 7.97676385,9.57163803 C7.97676385,9.13134269 8.33490264,8.77400153 8.77440035,8.77400153 C9.21389806,8.77400153 9.57203685,9.13134269 9.57203685,9.57163803 C9.57203685,10.0119334 9.21389806,10.3692745 8.77440035,10.3692745 Z M19.1436749,3.19054601 C18.7041772,3.19054601 18.3460384,2.83320486 18.3460384,2.39290951 C18.3460384,1.95261416 18.7041772,1.59527301 19.1436749,1.59527301 C19.5831726,1.59527301 19.9413114,1.95261416 19.9413114,2.39290951 C19.9413114,2.83320486 19.5831726,3.19054601 19.1436749,3.19054601 Z M30.3105859,19.1432761 C29.8710882,19.1432761 29.5129494,18.7859349 29.5129494,18.3456396 C29.5129494,17.9053442 29.8710882,17.5480031 30.3105859,17.5480031 C30.7500836,17.5480031 31.1082224,17.9053442 31.1082224,18.3456396 C31.1082224,18.7859349 30.7500836,19.1432761 30.3105859,19.1432761 Z" id="Shape"></path>
                                <path d="M28.7153129,22.3338221 C27.6767902,22.3338221 26.79939,23.0030391 26.4691685,23.9290951 L17.0809869,23.9290951 L12.5288754,19.3769836 C12.3797173,19.2270279 12.17632,19.1432761 11.9649464,19.1432761 L3.52116634,19.1432761 L1.59567182,17.2177816 L1.59567182,10.699496 L7.74943744,4.54573043 C8.06131332,4.69568609 8.40589229,4.78581902 8.77440035,4.78581902 C10.0936911,4.78581902 11.1673099,3.71220028 11.1673099,2.39290951 C11.1673099,1.07361873 10.0936911,0 8.77440035,0 C7.45510957,0 6.38149084,1.07361873 6.38149084,2.39290951 C6.38149084,2.76141757 6.47162377,3.10599654 6.62157943,3.41787241 L0.234106314,9.80534553 C0.0841506511,9.95450356 0.000398818251,10.1571032 0.000398818251,10.3692745 L0.000398818251,17.5480031 C0.000398818251,17.7601744 0.0841506511,17.962774 0.234106314,18.1119321 L2.62701582,20.5048416 C2.77617385,20.6547972 2.97957116,20.7385491 3.19094483,20.7385491 L11.6347248,20.7385491 L16.1868364,25.2906606 C16.3359944,25.4406163 16.5393917,25.5243681 16.7507654,25.5243681 L26.4691685,25.5243681 C26.79939,26.4504241 27.6767902,27.1196411 28.7153129,27.1196411 C30.0346037,27.1196411 31.1082224,26.0460224 31.1082224,24.7267316 C31.1082224,23.4074408 30.0346037,22.3338221 28.7153129,22.3338221 Z M8.77440035,1.59527301 C9.21389806,1.59527301 9.57203685,1.95261416 9.57203685,2.39290951 C9.57203685,2.83320486 9.21389806,3.19054601 8.77440035,3.19054601 C8.33490264,3.19054601 7.97676385,2.83320486 7.97676385,2.39290951 C7.97676385,1.95261416 8.33490264,1.59527301 8.77440035,1.59527301 Z M28.7153129,25.5243681 C28.2758152,25.5243681 27.9176764,25.1670269 27.9176764,24.7267316 C27.9176764,24.2864362 28.2758152,23.9290951 28.7153129,23.9290951 C29.1548106,23.9290951 29.5129494,24.2864362 29.5129494,24.7267316 C29.5129494,25.1670269 29.1548106,25.5243681 28.7153129,25.5243681 Z" id="Shape"></path>
                                <path d="M45.4691818,19.1432761 C45.1005266,19.1432761 44.7558101,19.233409 44.4438098,19.3833647 L41.4794073,16.420145 L41.4794073,11.8177824 C42.405833,11.4875609 43.0753171,10.6101608 43.0753171,9.57163803 C43.0753171,8.25234726 42.0012698,7.17872853 40.6814524,7.17872853 C39.361635,7.17872853 38.2875877,8.25234726 38.2875877,9.57163803 C38.2875877,10.6101608 38.9570719,11.4875609 39.8834975,11.8177824 L39.8834975,16.7503666 C39.8834975,16.9625379 39.9672828,17.1651375 40.1172983,17.3142956 L43.3155015,20.5112227 C43.165486,20.8230985 43.0753171,21.1676775 43.0753171,21.5361856 C43.0753171,22.5747083 43.7448013,23.4521085 44.6712269,23.78233 L44.6712269,24.3965101 L38.5213885,30.5438946 C38.371373,30.6930526 38.2875877,30.8956523 38.2875877,31.1078236 L38.2875877,32.0522252 C37.3611621,32.3824467 36.691678,33.2598469 36.691678,34.2983696 C36.691678,35.3368924 37.3611621,36.2142925 38.2875877,36.544514 L38.2875877,38.4341149 C37.3611621,38.7643364 36.691678,39.6417366 36.691678,40.6802593 C36.691678,41.9995501 37.7657252,43.0731688 39.0855426,43.0731688 C40.40536,43.0731688 41.4794073,41.9995501 41.4794073,40.6802593 C41.4794073,39.6417366 40.8099232,38.7643364 39.8834975,38.4341149 L39.8834975,36.544514 C40.8099232,36.2142925 41.4794073,35.3368924 41.4794073,34.2983696 C41.4794073,33.2598469 40.8099232,32.3824467 39.8834975,32.0522252 L39.8834975,31.4380451 L46.0333359,25.2906606 C46.1833514,25.1415026 46.2671367,24.9389029 46.2671367,24.7267316 L46.2671367,23.78233 C47.1935623,23.4521085 47.8630465,22.5747083 47.8630465,21.5361856 C47.8630465,20.2168948 46.7889992,19.1432761 45.4691818,19.1432761 Z M40.6814524,10.3692745 C40.2417793,10.3692745 39.8834975,10.0119334 39.8834975,9.57163803 C39.8834975,9.13134269 40.2417793,8.77400153 40.6814524,8.77400153 C41.1211256,8.77400153 41.4794073,9.13134269 41.4794073,9.57163803 C41.4794073,10.0119334 41.1211256,10.3692745 40.6814524,10.3692745 Z M39.0855426,41.4770982 C38.6458695,41.4770982 38.2875877,41.119757 38.2875877,40.6794616 C38.2875877,40.2391663 38.6458695,39.8818251 39.0855426,39.8818251 C39.5252158,39.8818251 39.8834975,40.2391663 39.8834975,40.6794616 C39.8834975,41.119757 39.5252158,41.4770982 39.0855426,41.4770982 Z M39.0855426,35.0960061 C38.6458695,35.0960061 38.2875877,34.738665 38.2875877,34.2983696 C38.2875877,33.8580743 38.6458695,33.5007331 39.0855426,33.5007331 C39.5252158,33.5007331 39.8834975,33.8580743 39.8834975,34.2983696 C39.8834975,34.738665 39.5252158,35.0960061 39.0855426,35.0960061 Z M45.4691818,22.3338221 C45.0295086,22.3338221 44.6712269,21.9764809 44.6712269,21.5361856 C44.6712269,21.0958902 45.0295086,20.7385491 45.4691818,20.7385491 C45.9088549,20.7385491 46.2671367,21.0958902 46.2671367,21.5361856 C46.2671367,21.9764809 45.9088549,22.3338221 45.4691818,22.3338221 Z" id="Shape"></path>
                            </g>
                        </g>
                    </g>
                </g>
            </g>
        </g>
    </g>
</svg>