<?xml version="1.0" encoding="UTF-8"?>
<svg width="112px" height="112px" viewBox="0 0 112 112" version="1.1" xmlns="http://www.w3.org/2000/svg" xmlns:xlink="http://www.w3.org/1999/xlink">
    <!-- Generator: Sketch 50.2 (55047) - http://www.bohemiancoding.com/sketch -->
    <title>icon</title>
    <desc>Created with Sketch.</desc>
    <defs></defs>
    <g id="Tau-home" stroke="none" stroke-width="1" fill="none" fill-rule="evenodd">
        <g id="TAU_home" transform="translate(-664.000000, -2116.000000)">
            <g id="Features" transform="translate(-390.000000, 747.000000)">
                <g id="Group-4-Copy-4" transform="translate(935.000000, 1370.000000)">
                    <g id="1">
                        <g id="icon" transform="translate(120.000000, 0.000000)">
                            <circle id="Oval-4" stroke="#1088FE" cx="55" cy="55" r="55"></circle>
                            <circle id="Oval-4-Copy" fill="#1088FE" cx="55" cy="55" r="48"></circle>
                            <g id="message" transform="translate(31.021053, 31.021053)" fill="#FFFFFF" fill-rule="nonzero">
                                <path d="M40.6840002,0.0003739407 C38.5492663,0.0003739407 36.7376171,1.40517566 36.1224846,3.33891651 C35.7594817,3.12352666 35.391711,2.91767231 35.0216032,2.72303618 C34.6314896,2.51877107 34.149667,2.66881477 33.944654,3.05892841 C33.739641,3.44904204 33.8911805,3.93245388 34.2812941,4.13671899 C34.8357547,4.42792531 35.3805863,4.75101007 35.9134518,5.08998732 C36.0714417,7.58772422 38.1479344,9.57325585 40.6839068,9.57325585 C43.3236476,9.57325585 45.4703477,7.42655578 45.4703477,4.7868149 C45.4703477,2.14707401 43.3236476,0.0003739407 40.6840002,0.0003739407 Z" id="Shape"></path>
                                <path d="M22.5050601,0.82846562 C22.4628048,0.389739694 22.073439,0.0689920591 21.6355545,0.10965811 C20.1054826,0.255681953 18.5850397,0.550814651 17.1155463,0.987203447 C16.6935542,1.11247358 16.4526429,1.55680862 16.577913,1.9788007 C16.6799989,2.32581767 16.997568,2.54999512 17.3421543,2.54999512 C17.4171295,2.54999512 17.4936938,2.53887038 17.5695103,2.51652742 C18.940003,2.10967994 20.3592014,1.83445959 21.7871874,1.69806472 C22.2258199,1.65571593 22.5473154,1.26644366 22.5050601,0.82846562 Z" id="Shape"></path>
                                <path d="M30.756903,0.989634062 C29.2882509,0.553245265 27.767808,0.257271201 26.2377362,0.110499477 C25.8013474,0.0714226736 25.4088966,0.390487576 25.3673892,0.82846562 C25.3251339,1.26644366 25.6466294,1.6565573 26.0853553,1.6988126 C27.5133414,1.83520747 28.9325398,2.11201707 30.3021911,2.51886455 C30.3780076,2.54120751 30.454572,2.55233225 30.5295471,2.55233225 C30.8733855,2.55233225 31.1908612,2.3281548 31.2937884,1.98197919 C31.4198064,1.55914575 31.1788951,1.11565208 30.756903,0.989634062 Z" id="Shape"></path>
                                <path d="M45.2446745,32.9757736 C44.8457733,32.7883359 44.371149,32.9622183 44.1844591,33.3611195 C44.0041262,33.7472133 43.8087422,34.1301286 43.6044771,34.5082761 C42.7955499,33.8820189 41.7840403,33.5055541 40.6840002,33.5055541 C38.0451007,33.5055541 35.8975593,35.6522542 35.8975593,38.2919951 C35.8975593,40.931736 38.0451007,43.078436 40.6840002,43.078436 C43.3237411,43.078436 45.4704412,40.931736 45.4704412,38.2919951 C45.4704412,37.3586391 45.1976515,36.4891335 44.7333106,35.7520029 C45.0532169,35.1903439 45.3579785,34.6184016 45.6299269,34.0360825 C45.8166168,33.6370878 45.6443236,33.1624635 45.2446745,32.9757736 Z" id="Shape"></path>
                                <path d="M47.7559668,21.6494838 C47.7144593,21.2115057 47.3260284,20.8931887 46.8864611,20.9315176 C46.4477352,20.9730251 46.1262397,21.3631387 46.1676536,21.8010232 C46.2346825,22.505434 46.2681502,23.2225588 46.2681502,23.9325787 C46.2681502,25.2009856 46.1604553,26.4734123 45.9490853,27.7147084 C45.8748581,28.1486666 46.1669058,28.5611232 46.6016118,28.635257 C46.6470456,28.6432032 46.6917315,28.6463817 46.7364174,28.6463817 C47.1177435,28.6463817 47.455225,28.3720027 47.5214125,27.982637 C47.7487684,26.6528103 47.8636617,25.2902639 47.8636617,23.9317374 C47.8636617,23.1716094 47.8277634,22.4033482 47.7559668,21.6494838 Z" id="Shape"></path>
                                <path d="M1.91373502,27.7090993 C1.70236504,26.4702338 1.595418,25.1993963 1.595418,23.9325787 C1.595418,23.2193803 1.62972705,22.5006663 1.69675592,21.7962555 C1.73901122,21.3575296 1.41676783,20.9681638 0.978789781,20.9259085 C0.543990233,20.888421 0.150698102,21.2058966 0.109284169,21.6438747 C0.0374875551,22.3985805 0.000747881399,23.1683374 0.000747881399,23.9318308 C0.000747881399,25.2887682 0.115641161,26.6489774 0.34215574,27.9763734 C0.407595363,28.3664871 0.744235478,28.6408661 1.12630939,28.6408661 C1.1709953,28.6408661 1.2164291,28.6376876 1.26111501,28.6296479 C1.69516668,28.5555141 1.98796224,28.1438989 1.91373502,27.7090993 Z" id="Shape"></path>
                                <path d="M35.0981676,20.7423971 L27.9200954,20.7423971 L27.9200954,17.5530569 C27.9200954,16.6723331 27.2037185,15.9559562 26.3229946,15.9559562 L11.9676916,15.9559562 C11.0869678,15.9559562 10.3705909,16.6723331 10.3705909,17.5530569 L10.3705909,27.1219189 C10.3705909,28.0026428 11.0869678,28.7190197 11.9676916,28.7190197 L12.7638114,28.7190197 L12.7638114,32.7077516 C12.7638114,33.029995 12.9584475,33.3212014 13.2568522,33.4448822 C13.3557595,33.4855483 13.4586867,33.5055541 13.5616139,33.5055541 C13.7690575,33.5055541 13.9732291,33.424222 14.1256099,33.2718412 L18.6790858,28.7191132 L19.1457638,28.7191132 L19.1457638,31.9084534 C19.1457638,32.7891772 19.8621407,33.5055541 20.7428646,33.5055541 L28.3876147,33.5055541 L32.9403428,38.0582821 C33.0934715,38.210663 33.2977366,38.2919951 33.5051802,38.2919951 C33.607266,38.2919951 33.7117824,38.2720827 33.8099418,38.2313232 C34.108253,38.1076423 34.3021413,37.8165295 34.3021413,37.4941926 L34.3021413,33.5054606 L35.098261,33.5054606 C35.9789849,33.5054606 36.6953618,32.7890837 36.6953618,31.9083599 L36.6953618,22.3394979 C36.6952683,21.458774 35.9788914,20.7423971 35.0981676,20.7423971 Z M27.9209367,24.7303812 C28.3612519,24.7303812 28.7186457,25.087775 28.7186457,25.5280902 C28.7186457,25.9684054 28.3612519,26.3257992 27.9209367,26.3257992 L23.1344958,26.3257992 C22.6941806,26.3257992 22.3367868,25.9684054 22.3367868,25.5280902 C22.3367868,25.087775 22.6941806,24.7303812 23.1344958,24.7303812 L27.9209367,24.7303812 Z M20.7428646,20.7416492 C19.8621407,20.7416492 19.1457638,21.4580261 19.1457638,22.33875 L19.1457638,27.1236017 L18.3480548,27.1236017 C18.1366848,27.1236017 17.9332611,27.2073644 17.7840588,27.3573146 L14.3593229,30.781957 L14.3593229,27.9212172 C14.3593229,27.480902 14.001929,27.1235082 13.5616139,27.1235082 L11.9661024,27.1220124 L11.9676916,17.5507198 L26.3254253,17.552309 L26.3254253,20.7416492 L20.7428646,20.7416492 Z M24.7299138,29.5168222 L23.1344023,29.5168222 C22.6940871,29.5168222 22.3366933,29.1594283 22.3366933,28.7191132 C22.3366933,28.278798 22.6940871,27.9214042 23.1344023,27.9214042 L24.7299138,27.9214042 C25.170229,27.9214042 25.5276228,28.278798 25.5276228,28.7191132 C25.5276228,29.1594283 25.1703224,29.5168222 24.7299138,29.5168222 Z M32.7073777,29.5168222 L27.9209367,29.5168222 C27.4806216,29.5168222 27.1232277,29.1594283 27.1232277,28.7191132 C27.1232277,28.278798 27.4806216,27.9214042 27.9209367,27.9214042 L32.7073777,27.9214042 C33.1476929,27.9214042 33.5050867,28.278798 33.5050867,28.7191132 C33.5050867,29.1594283 33.1476929,29.5168222 32.7073777,29.5168222 Z M32.7073777,26.3257992 L31.1118662,26.3257992 C30.671551,26.3257992 30.3141572,25.9684054 30.3141572,25.5280902 C30.3141572,25.087775 30.671551,24.7303812 31.1118662,24.7303812 L32.7073777,24.7303812 C33.1476929,24.7303812 33.5050867,25.087775 33.5050867,25.5280902 C33.5050867,25.9684054 33.1476929,26.3257992 32.7073777,26.3257992 Z" id="Shape"></path>
                                <path d="M16.0337358,44.8269827 C15.4688984,44.6131821 14.9097636,44.3666617 14.3593229,44.1049967 L14.3593229,43.8744623 C14.3593229,42.6857983 13.8264574,41.6296028 12.9992071,40.8989227 C11.9996636,43.1205978 9.76994866,44.673854 7.17966143,44.673854 C4.58937421,44.673854 2.35975279,43.1206913 1.36095718,40.8989227 C0.533706864,41.6304442 0,42.6866397 0,43.8745558 L0,47.0670745 C0,47.5073897 0.357393824,47.8647835 0.797708998,47.8647835 L13.5615204,47.8647835 C14.0018356,47.8647835 14.3592294,47.5073897 14.3592294,47.0670745 L14.3592294,45.8656965 C14.7270001,46.0260236 15.0971079,46.1784044 15.4688984,46.3188192 C15.5621966,46.3538761 15.6571776,46.3707034 15.7513171,46.3707034 C16.073654,46.3707034 16.3767329,46.1736367 16.4979832,45.8553197 C16.653636,45.4437044 16.4461924,44.9833834 16.0337358,44.8269827 Z" id="Shape"></path>
                                <path d="M27.4972619,46.8062509 C27.4446298,46.3698621 27.0497484,46.0571542 26.6101811,46.1097863 C24.8448071,46.3211563 23.0171719,46.3211563 21.2430102,46.1081971 C20.8042843,46.0555649 20.4085616,46.3674315 20.3559294,46.8046616 C20.3032973,47.2417983 20.6151638,47.6391103 21.0531418,47.6917424 C22.0032317,47.8066357 22.972486,47.8640356 23.9322048,47.8640356 C24.8903343,47.8640356 25.8555688,47.8066357 26.8000495,47.6933317 C27.2372797,47.6414474 27.5491462,47.2441354 27.4972619,46.8062509 Z" id="Shape"></path>
                                <path d="M7.17966143,33.5054606 C6.08036926,33.5054606 5.06885967,33.8820189 4.25909108,34.5081826 C4.05566734,34.1300351 3.86018984,33.7479612 3.67910906,33.361026 C3.49241916,32.9621248 3.01779493,32.7882424 2.61889369,32.9756801 C2.21999245,33.16237 2.04695139,33.6369943 2.2335478,34.0358955 C2.50558966,34.6182147 2.81035133,35.1902505 3.13016411,35.7518159 C2.66591673,36.4889465 2.39303351,37.3584521 2.39303351,38.2918081 C2.39303351,40.931549 4.54057495,43.0782491 7.17947446,43.0782491 C9.81921535,43.0782491 11.9659154,40.931549 11.9659154,38.2918081 C11.9661024,35.6521607 9.81940232,33.5054606 7.17966143,33.5054606 Z" id="Shape"></path>
                                <path d="M13.9190077,3.05976978 C13.7147426,2.66965614 13.2321721,2.51970592 12.8420585,2.72387754 C12.4719507,2.91776579 12.10418,3.12436803 11.7411771,3.33975787 C11.1260446,1.40601703 9.3143954,0.00121530727 7.17966143,0.00121530727 C4.54076192,0.00121530727 2.39322048,2.14791538 2.39322048,4.78765626 C2.39322048,7.42739715 4.54076192,9.57325585 7.17966143,9.57325585 C9.71647514,9.57325585 11.7929678,7.5884721 11.9509578,5.08998732 C12.4830754,4.75091659 13.027907,4.42708394 13.5823676,4.13671899 C13.9723877,3.93245388 14.1231793,3.44978993 13.9190077,3.05976978 Z" id="Shape"></path>
                                <path d="M12.9992071,7.39383597 C11.9996636,9.61551115 9.76994866,11.1687673 7.17966143,11.1687673 C4.58937421,11.1687673 2.35975279,9.61560464 1.36095718,7.39383597 C0.533706864,8.12535746 0,9.18155297 0,10.3694691 L0,13.5619878 C0,14.002303 0.357393824,14.3596968 0.797708998,14.3596968 L1.99908698,14.3596968 C1.83791854,14.7266261 1.6855377,15.0975753 1.54521646,15.4693658 C1.38881576,15.8818224 1.59625936,16.3420499 2.00871595,16.4984506 C2.10201416,16.5335076 2.1969951,16.5503349 2.29113467,16.5503349 C2.61337807,16.5503349 2.91655049,16.3532682 3.03780076,16.0349511 C3.25234924,15.4693658 3.49812176,14.9101375 3.75978677,14.3596968 L13.5616139,14.3596968 C14.001929,14.3596968 14.3593229,14.002303 14.3593229,13.5619878 L14.3593229,10.3694691 C14.3593229,9.18080509 13.8264574,8.12460958 12.9992071,7.39383597 Z" id="Shape"></path>
                                <path d="M46.5042938,7.39383597 C45.5047503,9.61551115 43.2750354,11.1687673 40.6847481,11.1687673 C38.0944609,11.1687673 35.8648395,9.61560464 34.8660439,7.39383597 C34.0387936,8.12535746 33.5050867,9.18155297 33.5050867,10.3693756 L33.5050867,13.5618943 C33.5050867,14.0022095 33.8624805,14.3596033 34.3027957,14.3596033 L44.1046228,14.3596033 C44.3662878,14.910044 44.6128082,15.4692724 44.8273567,16.0348577 C44.9478591,16.3531747 45.250938,16.5502414 45.5732749,16.5502414 C45.6674145,16.5502414 45.7631433,16.5335076 45.8556936,16.4983572 C46.2681502,16.3420499 46.4755003,15.8817289 46.3191931,15.4692724 C46.1780305,15.0974818 46.0256497,14.727374 45.8653226,14.3596033 L47.0667006,14.3596033 C47.5070157,14.3596033 47.8644096,14.0022095 47.8644096,13.5618943 L47.8644096,10.3693756 C47.8644096,9.18155297 47.3315441,8.12460958 46.5042938,7.39383597 Z" id="Shape"></path>
                                <path d="M46.5042938,40.8989227 C45.5047503,43.1205978 43.2750354,44.673854 40.6847481,44.673854 C38.0944609,44.673854 35.8648395,43.1206913 34.8660439,40.8989227 C34.0387936,41.6304442 33.5050867,42.6866397 33.5050867,43.8744623 L33.5050867,44.1049967 C32.954646,44.3666617 32.3954177,44.6131821 31.8306737,44.8269827 C31.4182171,44.9825421 31.210867,45.4428631 31.3671742,45.8552262 C31.4876766,46.1742911 31.7915969,46.37061 32.1138403,46.37061 C32.2071385,46.37061 32.3028673,46.3538761 32.396259,46.3187257 C32.7680496,46.1783109 33.1389987,46.0259301 33.5059281,45.865603 L33.5059281,47.066981 C33.5059281,47.5072962 33.8633219,47.86469 34.3036371,47.86469 L47.0674484,47.86469 C47.5077636,47.86469 47.8651574,47.5072962 47.8651574,47.066981 L47.8651574,43.8744623 C47.8644096,42.6866397 47.3315441,41.6296963 46.5042938,40.8989227 Z" id="Shape"></path>
                            </g>
                        </g>
                    </g>
                </g>
            </g>
        </g>
    </g>
</svg>