<?xml version="1.0" encoding="UTF-8"?>
<svg width="112px" height="112px" viewBox="0 0 112 112" version="1.1" xmlns="http://www.w3.org/2000/svg" xmlns:xlink="http://www.w3.org/1999/xlink">
    <!-- Generator: Sketch 50.2 (55047) - http://www.bohemiancoding.com/sketch -->
    <title>icon</title>
    <desc>Created with Sketch.</desc>
    <defs></defs>
    <g id="Tau-home" stroke="none" stroke-width="1" fill="none" fill-rule="evenodd">
        <g id="TAU_home" transform="translate(-268.000000, -2116.000000)">
            <g id="Features" transform="translate(-390.000000, 747.000000)">
                <g id="Group-4-Copy-3" transform="translate(539.000000, 1370.000000)">
                    <g id="1">
                        <g id="icon" transform="translate(120.000000, 0.000000)">
                            <circle id="Oval-4" stroke="#1088FE" cx="55" cy="55" r="55"></circle>
                            <circle id="Oval-4-Copy" fill="#1088FE" cx="55" cy="55" r="48"></circle>
                            <g id="team" transform="translate(31.021053, 31.021053)" fill="#FFFFFF" fill-rule="nonzero">
                                <path d="M38.0534655,31.9849184 C38.2945663,31.1639205 38.4198937,30.3037694 38.4198937,29.4241354 C38.4198937,27.4436243 37.7869807,25.5605275 36.617445,24.0051743 C37.8020612,22.4437327 38.4436854,20.5488339 38.4436854,18.5549282 C38.4436854,17.6753879 38.3183579,16.8152368 38.0772571,15.9942389 C38.1524723,15.9968616 38.2276875,15.999578 38.3029027,15.999578 C39.9285067,15.999578 41.5540171,15.3809024 42.7914619,14.1433639 L42.7914619,14.1432702 C45.2664452,11.6682869 45.2664452,7.64104145 42.7914619,5.16605814 C40.3164786,2.69107484 36.2890458,2.6911685 33.8142498,5.16605814 C32.5179817,6.46232632 31.9019288,8.18422081 31.9634685,9.88607039 C29.2709887,9.09560814 26.2814883,9.58202484 23.9545938,11.3418548 C22.3987722,10.1712887 20.5149262,9.53771998 18.5334783,9.53771998 C17.6549683,9.53771998 16.7957539,9.66286012 15.975599,9.90339893 C15.9782217,9.82855839 15.9810317,9.75371785 15.9810317,9.67850263 C15.9810317,7.98292878 15.3207677,6.38889079 14.1218203,5.18994342 C12.9228729,3.99099605 11.3287413,3.33073199 9.63335477,3.33073199 C7.93768725,3.33073199 6.34374293,3.99099605 5.14488923,5.18994342 C2.66990592,7.66492673 2.66981225,11.6921722 5.14479556,14.1671555 C6.38242771,15.4048813 8.00765707,16.0235569 9.63335477,16.0234632 C9.71044334,16.0234632 9.78762558,16.0207469 9.86471414,16.0179368 C9.07696826,18.7013309 9.55701554,21.6797785 11.302327,24.003301 C10.1432821,25.5544391 9.51655107,27.4291994 9.51655107,29.4003438 C9.51655107,30.2787601 9.64159753,31.1380682 9.88213635,31.9581294 C9.80729581,31.9555067 9.73245526,31.952603 9.65724005,31.952603 C7.9616662,31.952603 6.36762821,32.6128671 5.16877451,33.8118145 C2.6937912,36.2867978 2.6937912,40.3140433 5.16877451,42.7890266 C6.36762821,43.9879739 7.96175987,44.648238 9.65724005,44.648238 C11.3529076,44.648238 12.9468519,43.9879739 14.1457056,42.7890266 C15.4404751,41.4942571 16.0566216,39.7746106 15.9965806,38.074728 C16.8175785,38.3158289 17.6777296,38.4411563 18.5572699,38.4411563 C20.527665,38.4411563 22.4016759,37.8148937 23.9525331,36.6567854 C25.509385,37.8299742 27.3952917,38.4649479 29.3789876,38.4649479 C30.2574039,38.4649479 31.1167119,38.3399015 31.9367732,38.0993627 C31.9341505,38.1741095 31.9313405,38.2489501 31.9313405,38.3241653 C31.9313405,40.0197391 32.5916045,41.6137771 33.7905519,42.8127245 C35.0279967,44.050263 36.6536007,44.6690322 38.2790174,44.6690322 C39.9046215,44.6690322 41.5301318,44.050263 42.7675766,42.8127245 C45.2424663,40.3377412 45.2424663,36.3105894 42.7675766,33.8355124 C41.4730882,32.5410239 39.753348,31.9249711 38.0534655,31.9849184 Z M35.8023481,7.15415641 C36.4918365,6.46466801 37.3973228,6.11997064 38.3031837,6.11997064 C39.2084826,6.12006431 40.1143436,6.46485535 40.8037383,7.15415641 C42.1826215,8.53303956 42.1826215,10.7766635 40.8037383,12.1555466 L40.8037383,12.155453 C39.4249488,13.5342424 37.1815123,13.5345234 35.8023481,12.1555466 C34.423465,10.7766635 34.423465,8.53303956 35.8023481,7.15415641 Z M33.8077868,14.150108 C34.9844412,15.3266687 35.6323411,16.8911077 35.6323411,18.5550219 C35.6323411,19.7399191 35.3038483,20.8742357 34.6897624,21.8540942 L26.1049246,13.2692563 C28.5084394,11.7693544 31.720588,12.0629092 33.8077868,14.150108 Z M14.1285644,14.1738059 C15.3052188,12.9972451 16.8695641,12.3492516 18.533572,12.3492516 C19.7183755,12.3492516 20.8527858,12.6778381 21.8326442,13.2918303 L13.2478064,21.8767618 C11.7479045,19.472966 12.041553,16.2610047 14.1285644,14.1738059 Z M7.1327065,12.1793382 C5.75382336,10.8004551 5.75391702,8.55683117 7.13280016,7.17794803 C7.80074498,6.51000321 8.68880905,6.1421699 9.63354211,6.1421699 C10.5781815,6.1421699 11.4662456,6.51000321 12.134284,7.17794803 C12.8022289,7.84579918 13.1700622,8.73395691 13.1700622,9.67868997 C13.1700622,10.6233294 12.8022289,11.5113934 12.134284,12.1792446 C10.7551199,13.5582214 8.51168331,13.558315 7.1327065,12.1793382 Z M12.157982,40.801303 C11.4900372,41.4692478 10.6019731,41.8370811 9.65724005,41.8370811 C8.71250699,41.8369874 7.8245366,41.4691541 7.15649811,40.801303 C5.77761497,39.4224198 5.77761497,37.1787959 7.15649811,35.7999127 C7.82444293,35.1320616 8.71250699,34.7641346 9.65724005,34.7641346 C10.6018794,34.7641346 11.4899435,35.1319679 12.157982,35.7999127 C13.5368651,37.1787959 13.5368651,39.4224198 12.157982,40.801303 Z M18.5574572,35.6299994 C16.8935431,35.6299994 15.3291978,34.9820995 14.1525433,33.8054451 C12.9758889,32.6287906 12.327989,31.0643516 12.327989,29.4004375 C12.327989,28.2154466 12.6564818,27.08113 13.2705677,26.1013652 L21.8565295,34.6874207 C20.8767647,35.3015066 19.7423544,35.6299994 18.5574572,35.6299994 Z M15.1226604,23.9777297 L23.9800714,15.120225 L32.8375761,23.9777297 L23.9800714,32.8352344 L15.1226604,23.9777297 Z M33.7839951,33.829143 C31.6969837,35.9162481 28.4849288,36.2100839 26.081133,34.7099947 L34.6659708,26.1251568 C35.2800567,27.1050153 35.6085495,28.2393319 35.6085495,29.4242291 C35.6085495,31.0882369 34.9605559,32.6525822 33.7839951,33.829143 Z M40.7799467,40.8250946 C39.4010636,42.203884 37.157627,42.2039777 35.7785565,40.8250946 C35.1106117,40.1571498 34.7427784,39.268992 34.7427784,38.3243526 C34.7427784,37.3797132 35.1106117,36.4916492 35.7785565,35.823798 C36.4680449,35.1343096 37.3735312,34.7896123 38.2792984,34.7896123 C39.1847847,34.7896123 40.090552,35.1344033 40.7800404,35.8237044 C42.1588299,37.2025875 42.1588299,39.4462114 40.7799467,40.8250946 Z" id="Shape"></path>
                                <polygon id="Shape" points="23.9789474 0 19.9575093 4.02143808 21.9453266 6.00934901 23.9789474 3.97591554 26.0123808 6.00934901 28.0002918 4.02143808"></polygon>
                                <polygon id="Shape" points="6.00934901 21.9455139 4.02143808 19.957603 0 23.9789474 4.02143808 28.0003854 6.00934901 26.0124745 3.97582187 23.9789474"></polygon>
                                <polygon id="Shape" points="26.0123808 41.9486394 23.9789474 43.9819792 21.9453266 41.9486394 19.9575093 43.9365503 23.9789474 47.9578947 28.0002918 43.9365503"></polygon>
                                <polygon id="Shape" points="43.936363 19.957603 41.9485457 21.9455139 43.9820729 23.9789474 41.9485457 26.0124745 43.936363 28.0003854 47.9578947 23.9789474"></polygon>
                            </g>
                        </g>
                    </g>
                </g>
            </g>
        </g>
    </g>
</svg>