<?xml version="1.0" encoding="UTF-8"?>
<svg width="112px" height="112px" viewBox="0 0 112 112" version="1.1" xmlns="http://www.w3.org/2000/svg" xmlns:xlink="http://www.w3.org/1999/xlink">
    <!-- Generator: Sketch 50.2 (55047) - http://www.bohemiancoding.com/sketch -->
    <title>icon</title>
    <desc>Created with Sketch.</desc>
    <defs></defs>
    <g id="Tau-home" stroke="none" stroke-width="1" fill="none" fill-rule="evenodd">
        <g id="TAU_home" transform="translate(-1059.000000, -2116.000000)">
            <g id="Features" transform="translate(-390.000000, 747.000000)">
                <g id="Group-4-Copy-5" transform="translate(1330.000000, 1370.000000)">
                    <g id="1">
                        <g id="icon" transform="translate(120.000000, 0.000000)">
                            <circle id="Oval-4" stroke="#1088FE" cx="55" cy="55" r="55"></circle>
                            <circle id="Oval-4-Copy" fill="#1088FE" cx="55" cy="55" r="48"></circle>
                            <g id="business-affiliate-network" transform="translate(31.021053, 31.021053)" fill="#FFFFFF" fill-rule="nonzero">
                                <path d="M17.9250284,16.2628282 L15.0077599,13.5057595 C15.3475467,12.8884291 15.5577451,12.1894683 15.5577451,11.4354069 C15.5577451,9.04567525 13.6220829,7.11001299 11.2313308,7.11001299 C8.84057872,7.11001299 6.90185532,9.04465487 6.90185532,11.4354069 C6.90185532,13.826159 8.84057872,15.7628417 11.2313308,15.7628417 C12.0741653,15.7628417 12.8537362,15.511828 13.5190244,15.0955127 L16.4322114,17.8495203 C16.8730159,17.2668829 17.3699413,16.7332237 17.9250284,16.2628282 Z" id="Shape"></path>
                                <path d="M30.2644927,15.9179395 L34.1409191,9.39464546 C34.5225415,9.5038262 34.9184493,9.58239552 35.3337442,9.58239552 C37.7285778,9.58239552 39.6642401,7.64571288 39.6642401,5.25496081 C39.6642401,2.86522912 37.7285778,0.929566853 35.3337442,0.929566853 C32.9429922,0.929566853 31.0083503,2.86420873 31.0083503,5.25496081 C31.0083503,6.44166361 31.4869088,7.51408376 32.2603574,8.29671579 L28.3961756,14.801643 C29.0604434,15.1026553 29.6869572,15.4781554 30.2644927,15.9179395 Z" id="Shape"></path>
                                <path d="M43.6335212,21.3790172 C41.7723467,21.3790172 40.1958585,22.5616385 39.5846504,24.2105738 L34.1990809,23.6789554 C34.1990809,23.7197707 34.2052031,23.7585451 34.2052031,23.79834 C34.2052031,24.5003619 34.1276542,25.1860578 33.987862,25.8482849 L39.3713908,26.3799032 C39.6968923,28.4451539 41.4754159,30.0287848 43.6335212,30.0287848 C46.0232529,30.0287848 47.9578947,28.0941429 47.9578947,25.7044112 C47.9578947,23.3156999 46.0232529,21.3790172 43.6335212,21.3790172 Z" id="Shape"></path>
                                <path d="M28.7716757,38.3908049 L27.5676264,33.1297218 C26.8880529,33.3664502 26.180929,33.5358334 25.4431937,33.620525 L26.6492838,38.8826284 C25.2666679,39.6060784 24.3126119,41.0356318 24.3126119,42.7049747 C24.3126119,45.0947064 26.2472538,47.0283279 28.6420873,47.0283279 C31.031819,47.0283279 32.9664609,45.093686 32.9664609,42.7049747 C32.9695221,40.3591194 31.1001845,38.4601908 28.7716757,38.3908049 Z" id="Shape"></path>
                                <path d="M14.6496063,25.8870594 L7.94570482,28.1329174 C7.17225622,26.9513165 5.84065935,26.1676641 4.32539395,26.1676641 C1.93464188,26.1676641 0,28.1033263 0,30.493058 C0,32.8858508 1.93464188,34.8215131 4.32539395,34.8215131 C6.71410526,34.8215131 8.65384905,32.8858508 8.65384905,30.493058 C8.65384905,30.3930607 8.63242105,30.3012264 8.62425801,30.2032699 L15.3495875,27.9512896 C15.0465344,27.2972255 14.8057245,26.6084685 14.6496063,25.8870594 Z" id="Shape"></path>
                                <ellipse id="Oval" cx="24.3158534" cy="23.79834" rx="7.41936874" ry="7.41918835"></ellipse>
                            </g>
                        </g>
                    </g>
                </g>
            </g>
        </g>
    </g>
</svg>