<?xml version="1.0" encoding="UTF-8"?>
<svg width="112px" height="112px" viewBox="0 0 112 112" version="1.1" xmlns="http://www.w3.org/2000/svg" xmlns:xlink="http://www.w3.org/1999/xlink">
    <!-- Generator: Sketch 50.2 (55047) - http://www.bohemiancoding.com/sketch -->
    <title>icon</title>
    <desc>Created with Sketch.</desc>
    <defs></defs>
    <g id="Tau-home" stroke="none" stroke-width="1" fill="none" fill-rule="evenodd">
        <g id="TAU_home" transform="translate(-268.000000, -1779.000000)">
            <g id="Features" transform="translate(-390.000000, 747.000000)">
                <g id="Group-4" transform="translate(539.000000, 1030.000000)">
                    <g id="1">
                        <g id="icon" transform="translate(116.000000, 0.000000)">
                            <path d="M52.960396,17.6972381 L66.2277228,17.6972381 C85.7030271,17.6972381 101.490881,33.4850917 101.490881,52.960396 L101.490881,66.2277228 C101.490881,85.7030271 85.7030271,101.490881 66.2277228,101.490881 L52.960396,101.490881 C33.4850917,101.490881 17.6972381,85.7030271 17.6972381,66.2277228 L17.6972381,52.960396 C17.6972381,33.4850917 33.4850917,17.6972381 52.960396,17.6972381 Z" id="Rectangle-6" fill="#1088FE" transform="translate(59.594059, 59.594059) rotate(-315.000000) translate(-59.594059, -59.594059) "></path>
                            <circle id="Oval-4" stroke="#1088FE" cx="59" cy="58" r="55"></circle>
                            <circle id="Oval-4-Copy" fill="#1088FE" cx="58.4059406" cy="58.4059406" r="47.5247525"></circle>
                            <g id="algorithm" transform="translate(35.852527, 35.852527)" fill="#FFFFFF" fill-rule="nonzero">
                                <path d="M47.4830641,23.741532 C47.4830641,21.3927031 45.7681341,19.4435234 43.5261421,19.0644502 L43.5261421,9.42538822 C45.7681341,9.04631509 47.4830641,7.09634393 47.4830641,4.74830641 C47.4830641,2.12961542 45.3534487,0 42.7347577,0 C40.3867202,0 38.436749,1.71493 38.0576759,3.95692201 L28.4186139,3.95692201 C28.0395407,1.71493 26.0895696,0 23.741532,0 C21.3934945,0 19.4435234,1.71493 19.0644502,3.95692201 L9.42538822,3.95692201 C9.04631509,1.71493 7.09634393,0 4.74830641,0 C2.12961542,0 0,2.12961542 0,4.74830641 C0,7.09634393 1.71493,9.04631509 3.95692201,9.42538822 L3.95692201,19.0644502 C1.71493,19.4435234 0,21.3934945 0,23.741532 C0,26.0895696 1.71493,28.0395407 3.95692201,28.4186139 L3.95692201,38.0576759 C1.71493,38.436749 0,40.3867202 0,42.7347577 C0,45.3534487 2.12961542,47.4830641 4.74830641,47.4830641 C7.09634393,47.4830641 9.04631509,45.7681341 9.42538822,43.5261421 L19.0644502,43.5261421 C19.442732,45.7681341 21.3927031,47.4830641 23.741532,47.4830641 C26.090361,47.4830641 28.0395407,45.7681341 28.4186139,43.5261421 L38.0576759,43.5261421 C38.4359576,45.7681341 40.3859288,47.4830641 42.7347577,47.4830641 C45.3534487,47.4830641 47.4830641,45.3534487 47.4830641,42.7347577 C47.4830641,40.3867202 45.7681341,38.436749 43.5261421,38.0576759 L43.5261421,28.4186139 C45.7681341,28.0403321 47.4830641,26.090361 47.4830641,23.741532 Z M42.7347577,1.5827688 C44.4805517,1.5827688 45.9002953,3.00251242 45.9002953,4.74830641 C45.9002953,6.4941004 44.4805517,7.91384402 42.7347577,7.91384402 C40.9889637,7.91384402 39.5692201,6.4941004 39.5692201,4.74830641 C39.5692201,3.00251242 40.9889637,1.5827688 42.7347577,1.5827688 Z M39.9878624,8.61342783 C40.559242,9.02178218 41.2240049,9.30351503 41.9433733,9.42538822 L41.9433733,19.0644502 C39.9593726,19.3999972 38.3932229,20.966147 38.0576759,22.9501476 L34.0295293,22.9501476 L34.0295293,22.1587632 C34.0295293,21.7219191 33.6757804,21.3673788 33.2381449,21.3673788 L31.2865909,21.3673788 C31.1473073,20.9257863 30.9700372,20.4976474 30.7539892,20.0861275 L32.134955,18.7043703 C32.4443863,18.394939 32.4443863,17.8947841 32.134955,17.5853528 L31.5754462,17.025844 L39.9878624,8.61342783 Z M29.2076241,28.0878152 L30.4572201,29.3382025 L29.3382025,30.4572201 L28.0886066,29.2076241 C27.8266583,28.9464673 27.4190954,28.900567 27.1072899,29.0976217 C26.5010895,29.479069 25.8426576,29.752888 25.1494049,29.9103735 C24.7885336,29.9918861 24.5329164,30.3123967 24.5329164,30.6819732 L24.5329164,32.4467605 L22.9501476,32.4467605 L22.9501476,30.6819732 C22.9501476,30.3123967 22.6945305,29.9918861 22.3344506,29.9103735 C21.6411978,29.752888 20.982766,29.479069 20.3765656,29.0976217 C20.0639687,28.900567 19.6564058,28.9472586 19.3952489,29.2076241 L18.1456529,30.4572201 L17.0266354,29.3382025 L18.2762314,28.0878152 C18.5373882,27.8266583 18.5832885,27.4190954 18.3862338,27.1064985 C18.0055779,26.5010895 17.7317589,25.8426576 17.573482,25.1486135 C17.491178,24.7885336 17.1706674,24.5329164 16.8010908,24.5329164 L15.0363036,24.5329164 L15.0363036,22.9501476 L16.8010908,22.9501476 C17.1706674,22.9501476 17.4903867,22.6945305 17.5726906,22.3344506 C17.7309675,21.6411978 18.0047865,20.9819746 18.3854424,20.3765656 C18.5824971,20.0639687 18.5365968,19.6564058 18.27544,19.3952489 L17.025844,18.1448616 L18.1448616,17.025844 L19.3944575,18.27544 C19.6556144,18.5365968 20.0639687,18.5824971 20.3757742,18.3854424 C20.9819746,18.0039951 21.6404065,17.7301761 22.3336592,17.5726906 C22.6945305,17.491178 22.9501476,17.1706674 22.9501476,16.8010908 L22.9501476,15.0363036 L24.5329164,15.0363036 L24.5329164,16.8010908 C24.5329164,17.1706674 24.7885336,17.491178 25.1486135,17.5726906 C25.8418662,17.7301761 26.5002981,18.0039951 27.1064985,18.3854424 C27.4190954,18.5824971 27.8258669,18.5365968 28.0878152,18.27544 L29.3374112,17.025844 L30.4564287,18.1448616 L29.2068327,19.3952489 C28.9456759,19.6564058 28.8997756,20.0639687 29.0968303,20.3765656 C29.4774862,20.9819746 29.7513052,21.6404065 29.9095821,22.3344506 C29.9918861,22.6945305 30.3123967,22.9501476 30.6819732,22.9501476 L32.4467605,22.9501476 L32.4467605,24.5329164 L30.6819732,24.5329164 C30.3123967,24.5329164 29.9926774,24.7885336 29.9103735,25.1486135 C29.7520966,25.8418662 29.4782776,26.5010895 29.0976217,27.1064985 C28.900567,27.4190954 28.9464673,27.8266583 29.2076241,28.0878152 Z M28.4186139,5.53969081 L38.0576759,5.53969081 C38.1795491,6.25905923 38.4612819,6.92382213 38.8688449,7.49520167 L30.4564287,15.9076179 L29.8969199,15.3481091 C29.5874886,15.0386778 29.0873337,15.0386778 28.7779024,15.3481091 L27.3969366,16.7290749 C26.9854167,16.5138183 26.5564864,16.3357568 26.1156853,16.1972645 L26.1156853,14.2449192 C26.1156853,13.808075 25.7619364,13.4535348 25.3243009,13.4535348 L24.5329164,13.4535348 L24.5329164,9.42538822 C26.5169171,9.08984124 28.0830669,7.52369151 28.4186139,5.53969081 Z M23.741532,1.5827688 C25.487326,1.5827688 26.9070697,3.00251242 26.9070697,4.74830641 C26.9070697,6.4941004 25.487326,7.91384402 23.741532,7.91384402 C21.9957381,7.91384402 20.5759944,6.4941004 20.5759944,4.74830641 C20.5759944,3.00251242 21.9957381,1.5827688 23.741532,1.5827688 Z M9.42538822,5.53969081 L19.0644502,5.53969081 C19.3999972,7.52369151 20.966147,9.08984124 22.9501476,9.42538822 L22.9501476,13.4535348 L22.1587632,13.4535348 C21.7211277,13.4535348 21.3673788,13.808075 21.3673788,14.2449192 L21.3673788,16.1964732 C20.9257863,16.3357568 20.496856,16.5130269 20.0861275,16.7282835 L18.7051617,15.3473177 C18.3957304,15.0378864 17.8955755,15.0378864 17.5861442,15.3473177 L17.0266354,15.9068265 L8.61421921,7.49441028 C9.02178218,6.92382213 9.30351503,6.25905923 9.42538822,5.53969081 Z M15.9076179,17.0266354 L15.3481091,17.5861442 C15.0386778,17.8955755 15.0386778,18.3957304 15.3481091,18.7051617 L16.7290749,20.0869189 C16.5138183,20.4984388 16.3357568,20.9265777 16.1964732,21.3681702 L14.2449192,21.3681702 C13.8072837,21.3681702 13.4535348,21.7227104 13.4535348,22.1595546 L13.4535348,22.950939 L9.42538822,22.950939 C9.09063262,20.9669383 7.52369151,19.4007886 5.53969081,19.0652416 L5.53969081,9.42538822 C6.25905923,9.30351503 6.92382213,9.02178218 7.49520167,8.61421921 L15.9076179,17.0266354 Z M1.5827688,4.74830641 C1.5827688,3.00251242 3.00251242,1.5827688 4.74830641,1.5827688 C6.4941004,1.5827688 7.91384402,3.00251242 7.91384402,4.74830641 C7.91384402,6.4941004 6.4941004,7.91384402 4.74830641,7.91384402 C3.00251242,7.91384402 1.5827688,6.4941004 1.5827688,4.74830641 Z M1.5827688,23.741532 C1.5827688,21.9957381 3.00251242,20.5759944 4.74830641,20.5759944 C6.4941004,20.5759944 7.91384402,21.9957381 7.91384402,23.741532 C7.91384402,25.487326 6.4941004,26.9070697 4.74830641,26.9070697 C3.00251242,26.9070697 1.5827688,25.487326 1.5827688,23.741532 Z M4.74830641,45.9002953 C3.00251242,45.9002953 1.5827688,44.4805517 1.5827688,42.7347577 C1.5827688,40.9889637 3.00251242,39.5692201 4.74830641,39.5692201 C6.4941004,39.5692201 7.91384402,40.9889637 7.91384402,42.7347577 C7.91384402,44.4805517 6.4941004,45.9002953 4.74830641,45.9002953 Z M7.49520167,38.8688449 C6.92382213,38.4612819 6.25905923,38.1795491 5.53969081,38.0576759 L5.53969081,28.4186139 C7.52369151,28.0838583 9.08984124,26.5169171 9.42538822,24.5329164 L13.4535348,24.5329164 L13.4535348,25.3243009 C13.4535348,25.761145 13.8072837,26.1156853 14.2449192,26.1156853 L16.1964732,26.1156853 C16.3357568,26.5572777 16.5130269,26.9854167 16.7290749,27.3969366 L15.3481091,28.7786938 C15.0386778,29.0881251 15.0386778,29.58828 15.3481091,29.8977113 L15.9076179,30.4572201 L7.49520167,38.8688449 Z M19.0644502,41.9433733 L9.42538822,41.9433733 C9.30351503,41.2240049 9.02178218,40.559242 8.61421921,39.9878624 L17.0266354,31.5754462 L17.5861442,32.134955 C17.8955755,32.4443863 18.3957304,32.4443863 18.7051617,32.134955 L20.0861275,30.7539892 C20.4976474,30.9692458 20.9265777,31.1473073 21.3673788,31.2857995 L21.3673788,33.2381449 C21.3673788,33.6749891 21.7211277,34.0295293 22.1587632,34.0295293 L22.9501476,34.0295293 L22.9501476,38.0576759 C20.966147,38.3932229 19.3999972,39.9593726 19.0644502,41.9433733 Z M23.741532,45.9002953 C21.9957381,45.9002953 20.5759944,44.4805517 20.5759944,42.7347577 C20.5759944,40.9889637 21.9957381,39.5692201 23.741532,39.5692201 C25.487326,39.5692201 26.9070697,40.9889637 26.9070697,42.7347577 C26.9070697,44.4805517 25.487326,45.9002953 23.741532,45.9002953 Z M38.0576759,41.9433733 L28.4186139,41.9433733 C28.0830669,39.9593726 26.5169171,38.3932229 24.5329164,38.0576759 L24.5329164,34.0295293 L25.3243009,34.0295293 C25.7619364,34.0295293 26.1156853,33.6749891 26.1156853,33.2381449 L26.1156853,31.2865909 C26.5572777,31.1473073 26.9862081,30.9700372 27.3969366,30.7547806 L28.7779024,32.1357464 C29.0873337,32.4451777 29.5874886,32.4451777 29.8969199,32.1357464 L30.4564287,31.5762376 L38.8688449,39.9886538 C38.4612819,40.559242 38.1795491,41.2240049 38.0576759,41.9433733 Z M31.5754462,30.4564287 L32.134955,29.8969199 C32.4443863,29.5874886 32.4443863,29.0873337 32.134955,28.7779024 L30.7539892,27.3961452 C30.9692458,26.9846253 31.1473073,26.5564864 31.2865909,26.1148939 L33.2381449,26.1148939 C33.6757804,26.1148939 34.0295293,25.7603537 34.0295293,25.3235095 L34.0295293,24.5321251 L38.0576759,24.5321251 C38.3924315,26.5161258 39.9593726,28.0822755 41.9433733,28.4178225 L41.9433733,38.0576759 C41.2240049,38.1795491 40.559242,38.4612819 39.9878624,38.8688449 L31.5754462,30.4564287 Z M45.9002953,42.7347577 C45.9002953,44.4805517 44.4805517,45.9002953 42.7347577,45.9002953 C40.9889637,45.9002953 39.5692201,44.4805517 39.5692201,42.7347577 C39.5692201,40.9889637 40.9889637,39.5692201 42.7347577,39.5692201 C44.4805517,39.5692201 45.9002953,40.9889637 45.9002953,42.7347577 Z M42.7347577,26.9070697 C40.9889637,26.9070697 39.5692201,25.487326 39.5692201,23.741532 C39.5692201,21.9957381 40.9889637,20.5759944 42.7347577,20.5759944 C44.4805517,20.5759944 45.9002953,21.9957381 45.9002953,23.741532 C45.9002953,25.487326 44.4805517,26.9070697 42.7347577,26.9070697 Z" id="Shape"></path>
                                <path d="M23.741532,19.78461 C21.5596853,19.78461 19.78461,21.5596853 19.78461,23.741532 C19.78461,25.9233788 21.5596853,27.6984541 23.741532,27.6984541 C25.9233788,27.6984541 27.6984541,25.9233788 27.6984541,23.741532 C27.6984541,21.5596853 25.9233788,19.78461 23.741532,19.78461 Z M23.741532,26.1156853 C22.4325822,26.1156853 21.3673788,25.0504818 21.3673788,23.741532 C21.3673788,22.4325822 22.4325822,21.3673788 23.741532,21.3673788 C25.0504818,21.3673788 26.1156853,22.4325822 26.1156853,23.741532 C26.1156853,25.0504818 25.0504818,26.1156853 23.741532,26.1156853 Z" id="Shape"></path>
                            </g>
                        </g>
                    </g>
                </g>
            </g>
        </g>
    </g>
</svg>