<?xml version="1.0" encoding="UTF-8"?>
<svg width="209px" height="34px" viewBox="0 0 209 34" version="1.1" xmlns="http://www.w3.org/2000/svg" xmlns:xlink="http://www.w3.org/1999/xlink">
    <!-- Generator: Sketch 50.2 (55047) - http://www.bohemiancoding.com/sketch -->
    <title>Group 11</title>
    <desc>Created with Sketch.</desc>
    <defs>
        <circle id="path-1" cx="17" cy="17" r="17"></circle>
    </defs>
    <g id="Tau-home" stroke="none" stroke-width="1" fill="none" fill-rule="evenodd">
        <g id="About-us-Copy" transform="translate(-177.000000, -12.000000)">
            <g id="header">
                <g id="Group-10" transform="translate(177.000000, 12.000000)">
                    <g id="Group-11">
                        <g id="Group-5">
                            <g id="Group-4">
                                <mask id="mask-2" fill="white">
                                    <use xlink:href="#path-1"></use>
                                </mask>
                                <g id="Mask" opacity="0.382477679"></g>
                                <g mask="url(#mask-2)" fill="#FFFFFF">
                                    <g transform="translate(-6.071429, -1.214286)">
                                        <path d="M42.5,17 L36.4285714,17 L36.4285714,19.4285714 L42.5,19.4285714 L42.5,21.8571429 L34,21.8571429 L34,14.5714286 L42.5,14.5714286 L42.5,17 Z" id="Combined-Shape"></path>
                                        <path d="M43.7142857,12.1428571 L31.5714286,12.1428571 L31.5714286,24.2857143 L43.7142857,24.2857143 L43.7142857,26.7142857 L29.1428571,26.7142857 L29.1428571,9.71428571 L43.7142857,9.71428571 L43.7142857,12.1428571 Z" id="Combined-Shape"></path>
                                        <path d="M24.2857143,4.85714286 L46.1428571,4.85714286 L46.1428571,30.3571429 L24.2857143,30.3571429 L24.2857143,4.85714286 Z M26.7142857,7.28571429 L26.7142857,27.9285714 L44.9285714,27.9285714 L44.9285714,7.28571429 L26.7142857,7.28571429 Z" id="Combined-Shape"></path>
                                        <path d="M12.1428571,15.7857143 L6.07142857,15.7857143 L6.07142857,18.2142857 L12.1428571,18.2142857 L12.1428571,20.6428571 L3.64285714,20.6428571 L3.64285714,13.3571429 L12.1428571,13.3571429 L12.1428571,15.7857143 Z" id="Combined-Shape-Copy" transform="translate(7.892857, 17.000000) rotate(-180.000000) translate(-7.892857, -17.000000) "></path>
                                        <path d="M17,10.9285714 L4.85714286,10.9285714 L4.85714286,23.0714286 L17,23.0714286 L17,25.5 L2.42857143,25.5 L2.42857143,8.5 L17,8.5 L17,10.9285714 Z" id="Combined-Shape-Copy-2" transform="translate(9.714286, 17.000000) rotate(-180.000000) translate(-9.714286, -17.000000) "></path>
                                        <path d="M0,4.85714286 L21.8571429,4.85714286 L21.8571429,30.3571429 L0,30.3571429 L0,4.85714286 Z M2.42857143,7.28571429 L2.42857143,27.9285714 L20.6428571,27.9285714 L20.6428571,7.28571429 L2.42857143,7.28571429 Z" id="Combined-Shape-Copy-3" transform="translate(10.928571, 17.607143) rotate(-180.000000) translate(-10.928571, -17.607143) "></path>
                                        <rect id="Rectangle-4" x="13.3571429" y="0" width="23.0714286" height="3.64285714"></rect>
                                        <rect id="Rectangle-4-Copy" x="13.3571429" y="32.7857143" width="23.0714286" height="3.64285714"></rect>
                                    </g>
                                </g>
                            </g>
                            <path d="M41.4484286,26.7142857 L41.4484286,8.01428571 L44.7342857,8.01428571 L44.7342857,26.7142857 L41.4484286,26.7142857 Z M49.7298571,26.7142857 L49.7298571,8.01428571 L56.7022857,8.01428571 C62.5794286,8.01428571 66.64,12.0481429 66.64,17.3108571 L66.64,17.3642857 C66.64,22.627 62.5794286,26.7142857 56.7022857,26.7142857 L49.7298571,26.7142857 Z M56.7022857,11.0062857 L53.0157143,11.0062857 L53.0157143,23.7222857 L56.7022857,23.7222857 C60.6292857,23.7222857 63.1938571,21.0775714 63.1938571,17.4177143 L63.1938571,17.3642857 C63.1938571,13.7044286 60.6292857,11.0062857 56.7022857,11.0062857 Z M70.6204286,26.7142857 L70.6204286,8.01428571 L73.6658571,8.01428571 L83.6837143,20.944 L83.6837143,8.01428571 L86.9161429,8.01428571 L86.9161429,26.7142857 L84.1645714,26.7142857 L73.8528571,13.4105714 L73.8528571,26.7142857 L70.6204286,26.7142857 Z M91.9117143,26.7142857 L91.9117143,8.01428571 L95.1975714,8.01428571 L95.1975714,26.7142857 L91.9117143,26.7142857 Z" id="IDNI" fill="#FFFFFF"></path>
                        </g>
                        <text id="Intelligent-Decentra" opacity="0.900000036" font-family="Roboto-Light, Roboto" font-size="10" font-weight="300" fill="#FFFFFF">
                            <tspan x="105" y="15">Intelligent Decentralized</tspan>
                            <tspan x="105" y="26">Networks Initiatives</tspan>
                        </text>
                    </g>
                </g>
            </g>
        </g>
    </g>
</svg>