<?xml version="1.0" encoding="UTF-8"?>
<svg width="209px" height="34px" viewBox="0 0 209 34" version="1.1" xmlns="http://www.w3.org/2000/svg" xmlns:xlink="http://www.w3.org/1999/xlink">
    <!-- Generator: Sketch 50.2 (55047) - http://www.bohemiancoding.com/sketch -->
    <title>logo_header</title>
    <desc>Created with Sketch.</desc>
    <defs>
        <circle id="path-1" cx="17" cy="17" r="17"></circle>
        <path d="M106.630859,15 L106.030273,15 L106.030273,7.890625 L106.630859,7.890625 L106.630859,15 Z M108.979492,9.71679688 L108.999023,10.6201172 C109.197592,10.2945947 109.444985,10.0463876 109.741211,9.87548828 C110.037436,9.70458899 110.364582,9.61914062 110.722656,9.61914062 C111.289065,9.61914062 111.710611,9.77864424 111.987305,10.0976562 C112.263999,10.4166683 112.403971,10.8951791 112.407227,11.5332031 L112.407227,15 L111.826172,15 L111.826172,11.5283203 C111.822917,11.0563127 111.72282,10.7047538 111.525879,10.4736328 C111.328938,10.2425119 111.014,10.1269531 110.581055,10.1269531 C110.219725,10.1269531 109.899904,10.2400705 109.621582,10.4663086 C109.34326,10.6925467 109.13737,10.9977194 109.003906,11.3818359 L109.003906,15 L108.422852,15 L108.422852,9.71679688 L108.979492,9.71679688 Z M114.824219,8.36425781 L114.824219,9.71679688 L115.917969,9.71679688 L115.917969,10.1953125 L114.824219,10.1953125 L114.824219,13.7158203 C114.824219,14.0087905 114.877115,14.2268873 114.98291,14.3701172 C115.088705,14.5133471 115.265298,14.5849609 115.512695,14.5849609 C115.610352,14.5849609 115.768228,14.5686851 115.986328,14.5361328 L116.010742,15.0146484 C115.857747,15.0699873 115.649415,15.0976562 115.385742,15.0976562 C114.98535,15.0976562 114.694011,14.9812837 114.511719,14.7485352 C114.329426,14.5157866 114.238281,14.1731793 114.238281,13.7207031 L114.238281,10.1953125 L113.266602,10.1953125 L113.266602,9.71679688 L114.238281,9.71679688 L114.238281,8.36425781 L114.824219,8.36425781 Z M119.174805,15.0976562 C118.725584,15.0976562 118.319501,14.9869803 117.956543,14.765625 C117.593585,14.5442697 117.311199,14.2358418 117.109375,13.840332 C116.907551,13.4448222 116.806641,13.0013045 116.806641,12.5097656 L116.806641,12.2998047 C116.806641,11.7919896 116.90511,11.3346375 117.102051,10.9277344 C117.298992,10.5208313 117.57324,10.2010103 117.924805,9.96826172 C118.276369,9.73551316 118.657225,9.61914062 119.067383,9.61914062 C119.708662,9.61914062 120.217283,9.8380512 120.593262,10.2758789 C120.96924,10.7137066 121.157227,11.3118452 121.157227,12.0703125 L121.157227,12.3974609 L117.387695,12.3974609 L117.387695,12.5097656 C117.387695,13.108727 117.559406,13.6075826 117.902832,14.0063477 C118.246258,14.4051127 118.678383,14.6044922 119.199219,14.6044922 C119.51172,14.6044922 119.787596,14.5475266 120.026855,14.4335938 C120.266114,14.3196609 120.483397,14.137371 120.678711,13.8867188 L121.044922,14.1650391 C120.615232,14.786787 119.991866,15.0976562 119.174805,15.0976562 Z M119.067383,10.1171875 C118.627927,10.1171875 118.257651,10.2783187 117.956543,10.6005859 C117.655435,10.9228532 117.472331,11.3557916 117.407227,11.8994141 L120.576172,11.8994141 L120.576172,11.8359375 C120.559896,11.3281225 120.41504,10.9147151 120.141602,10.5957031 C119.868163,10.2766911 119.510093,10.1171875 119.067383,10.1171875 Z M122.949219,15 L122.363281,15 L122.363281,7.5 L122.949219,7.5 L122.949219,15 Z M125.19043,15 L124.604492,15 L124.604492,7.5 L125.19043,7.5 L125.19043,15 Z M127.431641,15 L126.845703,15 L126.845703,9.71679688 L127.431641,9.71679688 L127.431641,15 Z M126.743164,8.18847656 C126.743164,8.07779893 126.778971,7.98421262 126.850586,7.90771484 C126.922201,7.83121707 127.019856,7.79296875 127.143555,7.79296875 C127.267253,7.79296875 127.365722,7.83121707 127.438965,7.90771484 C127.512207,7.98421262 127.548828,8.07779893 127.548828,8.18847656 C127.548828,8.2991542 127.512207,8.39192671 127.438965,8.46679688 C127.365722,8.54166704 127.267253,8.57910156 127.143555,8.57910156 C127.019856,8.57910156 126.922201,8.54166704 126.850586,8.46679688 C126.778971,8.39192671 126.743164,8.2991542 126.743164,8.18847656 Z M128.78418,12.3095703 C128.78418,11.4827433 128.967283,10.8276391 129.333496,10.3442383 C129.699709,9.86083743 130.196937,9.61914062 130.825195,9.61914062 C131.5446,9.61914062 132.091469,9.90559609 132.46582,10.4785156 L132.495117,9.71679688 L133.041992,9.71679688 L133.041992,14.8925781 C133.041992,15.5729201 132.851564,16.1116517 132.470703,16.5087891 C132.089842,16.9059265 131.573896,17.1044922 130.922852,17.1044922 C130.555011,17.1044922 130.204266,17.022299 129.870605,16.8579102 C129.536945,16.6935213 129.27409,16.4746107 129.082031,16.2011719 L129.40918,15.8496094 C129.822593,16.3574244 130.314125,16.6113281 130.883789,16.6113281 C131.372073,16.6113281 131.752928,16.4672866 132.026367,16.1791992 C132.299806,15.8911118 132.441406,15.491539 132.451172,14.9804688 L132.451172,14.3164062 C132.076821,14.8372422 131.531579,15.0976562 130.81543,15.0976562 C130.203447,15.0976562 129.711916,14.8535181 129.34082,14.3652344 C128.969725,13.8769507 128.78418,13.2177776 128.78418,12.3876953 L128.78418,12.3095703 Z M129.375,12.4121094 C129.375,13.0859409 129.51009,13.6173483 129.780273,14.0063477 C130.050457,14.395347 130.431313,14.5898438 130.922852,14.5898438 C131.642256,14.5898438 132.151691,14.2675813 132.451172,13.6230469 L132.451172,11.1669922 C132.314452,10.8284488 132.117514,10.5704761 131.860352,10.3930664 C131.603189,10.2156567 131.293947,10.1269531 130.932617,10.1269531 C130.441078,10.1269531 130.058595,10.3198223 129.785156,10.7055664 C129.511717,11.0913105 129.375,11.6601525 129.375,12.4121094 Z M136.611328,15.0976562 C136.162107,15.0976562 135.756024,14.9869803 135.393066,14.765625 C135.030109,14.5442697 134.747722,14.2358418 134.545898,13.840332 C134.344075,13.4448222 134.243164,13.0013045 134.243164,12.5097656 L134.243164,12.2998047 C134.243164,11.7919896 134.341633,11.3346375 134.538574,10.9277344 C134.735515,10.5208313 135.009764,10.2010103 135.361328,9.96826172 C135.712892,9.73551316 136.093748,9.61914062 136.503906,9.61914062 C137.145185,9.61914062 137.653807,9.8380512 138.029785,10.2758789 C138.405764,10.7137066 138.59375,11.3118452 138.59375,12.0703125 L138.59375,12.3974609 L134.824219,12.3974609 L134.824219,12.5097656 C134.824219,13.108727 134.995929,13.6075826 135.339355,14.0063477 C135.682782,14.4051127 136.114906,14.6044922 136.635742,14.6044922 C136.948244,14.6044922 137.22412,14.5475266 137.463379,14.4335938 C137.702638,14.3196609 137.919921,14.137371 138.115234,13.8867188 L138.481445,14.1650391 C138.051756,14.786787 137.42839,15.0976562 136.611328,15.0976562 Z M136.503906,10.1171875 C136.064451,10.1171875 135.694175,10.2783187 135.393066,10.6005859 C135.091958,10.9228532 134.908854,11.3557916 134.84375,11.8994141 L138.012695,11.8994141 L138.012695,11.8359375 C137.996419,11.3281225 137.851564,10.9147151 137.578125,10.5957031 C137.304686,10.2766911 136.946617,10.1171875 136.503906,10.1171875 Z M140.288086,9.71679688 L140.307617,10.6201172 C140.506186,10.2945947 140.753579,10.0463876 141.049805,9.87548828 C141.34603,9.70458899 141.673175,9.61914062 142.03125,9.61914062 C142.597659,9.61914062 143.019204,9.77864424 143.295898,10.0976562 C143.572593,10.4166683 143.712565,10.8951791 143.71582,11.5332031 L143.71582,15 L143.134766,15 L143.134766,11.5283203 C143.13151,11.0563127 143.031414,10.7047538 142.834473,10.4736328 C142.637532,10.2425119 142.322593,10.1269531 141.889648,10.1269531 C141.528319,10.1269531 141.208497,10.2400705 140.930176,10.4663086 C140.651854,10.6925467 140.445964,10.9977194 140.3125,11.3818359 L140.3125,15 L139.731445,15 L139.731445,9.71679688 L140.288086,9.71679688 Z M146.132812,8.36425781 L146.132812,9.71679688 L147.226562,9.71679688 L147.226562,10.1953125 L146.132812,10.1953125 L146.132812,13.7158203 C146.132812,14.0087905 146.185709,14.2268873 146.291504,14.3701172 C146.397299,14.5133471 146.573892,14.5849609 146.821289,14.5849609 C146.918946,14.5849609 147.076822,14.5686851 147.294922,14.5361328 L147.319336,15.0146484 C147.16634,15.0699873 146.958009,15.0976562 146.694336,15.0976562 C146.293943,15.0976562 146.002605,14.9812837 145.820312,14.7485352 C145.63802,14.5157866 145.546875,14.1731793 145.546875,13.7207031 L145.546875,10.1953125 L144.575195,10.1953125 L144.575195,9.71679688 L145.546875,9.71679688 L145.546875,8.36425781 L146.132812,8.36425781 Z M151.005859,15 L151.005859,7.890625 L152.993164,7.890625 C153.575849,7.890625 154.098305,8.02327341 154.560547,8.28857422 C155.022789,8.55387502 155.383299,8.9339168 155.64209,9.42871094 C155.90088,9.92350508 156.030273,10.4866505 156.030273,11.1181641 L156.030273,11.7724609 C156.030273,12.4072297 155.901694,12.9703751 155.644531,13.4619141 C155.387369,13.953453 155.02523,14.332681 154.558105,14.5996094 C154.090981,14.8665378 153.554691,15 152.949219,15 L151.005859,15 Z M151.606445,8.40332031 L151.606445,14.4921875 L152.954102,14.4921875 C153.702803,14.4921875 154.303383,14.2439803 154.755859,13.7475586 C155.208336,13.2511368 155.43457,12.5797568 155.43457,11.7333984 L155.43457,11.1083984 C155.43457,10.2913371 155.211591,9.63704673 154.765625,9.14550781 C154.319659,8.6539689 153.7321,8.40657554 153.00293,8.40332031 L151.606445,8.40332031 Z M159.462891,15.0976562 C159.01367,15.0976562 158.607586,14.9869803 158.244629,14.765625 C157.881671,14.5442697 157.599285,14.2358418 157.397461,13.840332 C157.195637,13.4448222 157.094727,13.0013045 157.094727,12.5097656 L157.094727,12.2998047 C157.094727,11.7919896 157.193196,11.3346375 157.390137,10.9277344 C157.587078,10.5208313 157.861326,10.2010103 158.212891,9.96826172 C158.564455,9.73551316 158.94531,9.61914062 159.355469,9.61914062 C159.996748,9.61914062 160.505369,9.8380512 160.881348,10.2758789 C161.257326,10.7137066 161.445312,11.3118452 161.445312,12.0703125 L161.445312,12.3974609 L157.675781,12.3974609 L157.675781,12.5097656 C157.675781,13.108727 157.847492,13.6075826 158.190918,14.0063477 C158.534344,14.4051127 158.966469,14.6044922 159.487305,14.6044922 C159.799806,14.6044922 160.075682,14.5475266 160.314941,14.4335938 C160.5542,14.3196609 160.771483,14.137371 160.966797,13.8867188 L161.333008,14.1650391 C160.903318,14.786787 160.279952,15.0976562 159.462891,15.0976562 Z M159.355469,10.1171875 C158.916013,10.1171875 158.545737,10.2783187 158.244629,10.6005859 C157.943521,10.9228532 157.760417,11.3557916 157.695312,11.8994141 L160.864258,11.8994141 L160.864258,11.8359375 C160.847982,11.3281225 160.703126,10.9147151 160.429688,10.5957031 C160.156249,10.2766911 159.798179,10.1171875 159.355469,10.1171875 Z M164.536133,14.6044922 C164.943036,14.6044922 165.284016,14.4897472 165.559082,14.2602539 C165.834149,14.0307606 165.983073,13.7337258 166.005859,13.3691406 L166.567383,13.3691406 C166.551107,13.6914079 166.450196,13.9851875 166.264648,14.2504883 C166.079101,14.5157891 165.832521,14.7233065 165.524902,14.8730469 C165.217284,15.0227872 164.887697,15.0976562 164.536133,15.0976562 C163.84277,15.0976562 163.293459,14.8567732 162.888184,14.375 C162.482908,13.8932268 162.280273,13.2454468 162.280273,12.4316406 L162.280273,12.2558594 C162.280273,11.7350234 162.371418,11.2744161 162.553711,10.8740234 C162.736004,10.4736308 162.997231,10.1643891 163.337402,9.94628906 C163.677573,9.72818901 164.075519,9.61914062 164.53125,9.61914062 C165.11068,9.61914062 165.588377,9.79166494 165.964355,10.1367188 C166.340334,10.4817726 166.541341,10.9358696 166.567383,11.4990234 L166.005859,11.4990234 C165.979818,11.0856099 165.830893,10.7519544 165.559082,10.4980469 C165.287271,10.2441394 164.944664,10.1171875 164.53125,10.1171875 C164.003904,10.1171875 163.594565,10.3076153 163.303223,10.6884766 C163.01188,11.0693378 162.866211,11.6031867 162.866211,12.2900391 L162.866211,12.4609375 C162.866211,13.134769 163.01188,13.6604799 163.303223,14.0380859 C163.594565,14.415692 164.005531,14.6044922 164.536133,14.6044922 Z M169.780273,15.0976562 C169.331052,15.0976562 168.924969,14.9869803 168.562012,14.765625 C168.199054,14.5442697 167.916668,14.2358418 167.714844,13.840332 C167.51302,13.4448222 167.412109,13.0013045 167.412109,12.5097656 L167.412109,12.2998047 C167.412109,11.7919896 167.510578,11.3346375 167.70752,10.9277344 C167.904461,10.5208313 168.178709,10.2010103 168.530273,9.96826172 C168.881838,9.73551316 169.262693,9.61914062 169.672852,9.61914062 C170.314131,9.61914062 170.822752,9.8380512 171.19873,10.2758789 C171.574709,10.7137066 171.762695,11.3118452 171.762695,12.0703125 L171.762695,12.3974609 L167.993164,12.3974609 L167.993164,12.5097656 C167.993164,13.108727 168.164875,13.6075826 168.508301,14.0063477 C168.851727,14.4051127 169.283852,14.6044922 169.804688,14.6044922 C170.117189,14.6044922 170.393065,14.5475266 170.632324,14.4335938 C170.871583,14.3196609 171.088866,14.137371 171.28418,13.8867188 L171.650391,14.1650391 C171.220701,14.786787 170.597335,15.0976562 169.780273,15.0976562 Z M169.672852,10.1171875 C169.233396,10.1171875 168.86312,10.2783187 168.562012,10.6005859 C168.260903,10.9228532 168.0778,11.3557916 168.012695,11.8994141 L171.181641,11.8994141 L171.181641,11.8359375 C171.165365,11.3281225 171.020509,10.9147151 170.74707,10.5957031 C170.473631,10.2766911 170.115562,10.1171875 169.672852,10.1171875 Z M173.457031,9.71679688 L173.476562,10.6201172 C173.675131,10.2945947 173.922525,10.0463876 174.21875,9.87548828 C174.514975,9.70458899 174.842121,9.61914062 175.200195,9.61914062 C175.766604,9.61914062 176.18815,9.77864424 176.464844,10.0976562 C176.741538,10.4166683 176.88151,10.8951791 176.884766,11.5332031 L176.884766,15 L176.303711,15 L176.303711,11.5283203 C176.300456,11.0563127 176.200359,10.7047538 176.003418,10.4736328 C175.806477,10.2425119 175.491539,10.1269531 175.058594,10.1269531 C174.697264,10.1269531 174.377443,10.2400705 174.099121,10.4663086 C173.820799,10.6925467 173.61491,10.9977194 173.481445,11.3818359 L173.481445,15 L172.900391,15 L172.900391,9.71679688 L173.457031,9.71679688 Z M179.301758,8.36425781 L179.301758,9.71679688 L180.395508,9.71679688 L180.395508,10.1953125 L179.301758,10.1953125 L179.301758,13.7158203 C179.301758,14.0087905 179.354654,14.2268873 179.460449,14.3701172 C179.566244,14.5133471 179.742837,14.5849609 179.990234,14.5849609 C180.087891,14.5849609 180.245767,14.5686851 180.463867,14.5361328 L180.488281,15.0146484 C180.335286,15.0699873 180.126954,15.0976562 179.863281,15.0976562 C179.462889,15.0976562 179.17155,14.9812837 178.989258,14.7485352 C178.806965,14.5157866 178.71582,14.1731793 178.71582,13.7207031 L178.71582,10.1953125 L177.744141,10.1953125 L177.744141,9.71679688 L178.71582,9.71679688 L178.71582,8.36425781 L179.301758,8.36425781 Z M184.047852,10.2148438 C183.924153,10.1920572 183.792318,10.1806641 183.652344,10.1806641 C183.287759,10.1806641 182.979331,10.2823883 182.727051,10.4858398 C182.474771,10.6892914 182.294922,10.9846986 182.1875,11.3720703 L182.1875,15 L181.606445,15 L181.606445,9.71679688 L182.177734,9.71679688 L182.1875,10.5566406 C182.496746,9.9316375 182.993161,9.61914062 183.676758,9.61914062 C183.839519,9.61914062 183.968098,9.64029927 184.0625,9.68261719 L184.047852,10.2148438 Z M188.110352,15 C188.051758,14.8339835 188.014323,14.5882178 187.998047,14.2626953 C187.792968,14.5296237 187.53174,14.7355136 187.214355,14.8803711 C186.896971,15.0252286 186.560874,15.0976562 186.206055,15.0976562 C185.69824,15.0976562 185.287274,14.9560561 184.973145,14.6728516 C184.659015,14.389647 184.501953,14.0315777 184.501953,13.5986328 C184.501953,13.0843073 184.715981,12.6774104 185.144043,12.3779297 C185.572105,12.078449 186.168616,11.9287109 186.933594,11.9287109 L187.993164,11.9287109 L187.993164,11.328125 C187.993164,10.9505189 187.876792,10.6534842 187.644043,10.4370117 C187.411294,10.2205393 187.071942,10.1123047 186.625977,10.1123047 C186.219073,10.1123047 185.882163,10.2164703 185.615234,10.4248047 C185.348306,10.6331391 185.214844,10.8837876 185.214844,11.1767578 L184.628906,11.171875 C184.628906,10.751951 184.824217,10.3881851 185.214844,10.0805664 C185.605471,9.77294768 186.085609,9.61914062 186.655273,9.61914062 C187.244469,9.61914062 187.709145,9.76643733 188.049316,10.0610352 C188.389487,10.355633 188.564453,10.7665989 188.574219,11.2939453 L188.574219,13.7939453 C188.574219,14.3050156 188.627929,14.6874987 188.735352,14.9414062 L188.735352,15 L188.110352,15 Z M186.274414,14.5800781 C186.665041,14.5800781 187.014159,14.485678 187.321777,14.296875 C187.629396,14.108072 187.853189,13.8557958 187.993164,13.5400391 L187.993164,12.3779297 L186.948242,12.3779297 C186.365557,12.3844401 185.909832,12.4910471 185.581055,12.6977539 C185.252277,12.9044607 185.087891,13.1884748 185.087891,13.5498047 C185.087891,13.8460301 185.197753,14.0917959 185.41748,14.2871094 C185.637208,14.4824229 185.92285,14.5800781 186.274414,14.5800781 Z M190.786133,15 L190.200195,15 L190.200195,7.5 L190.786133,7.5 L190.786133,15 Z M193.027344,15 L192.441406,15 L192.441406,9.71679688 L193.027344,9.71679688 L193.027344,15 Z M192.338867,8.18847656 C192.338867,8.07779893 192.374674,7.98421262 192.446289,7.90771484 C192.517904,7.83121707 192.615559,7.79296875 192.739258,7.79296875 C192.862956,7.79296875 192.961425,7.83121707 193.034668,7.90771484 C193.107911,7.98421262 193.144531,8.07779893 193.144531,8.18847656 C193.144531,8.2991542 193.107911,8.39192671 193.034668,8.46679688 C192.961425,8.54166704 192.862956,8.57910156 192.739258,8.57910156 C192.615559,8.57910156 192.517904,8.54166704 192.446289,8.46679688 C192.374674,8.39192671 192.338867,8.2991542 192.338867,8.18847656 Z M195,14.5068359 L198.432617,14.5068359 L198.432617,15 L194.277344,15 L194.277344,14.5703125 L197.480469,10.2197266 L194.375,10.2197266 L194.375,9.71679688 L198.217773,9.71679688 L198.217773,10.1513672 L195,14.5068359 Z M201.445312,15.0976562 C200.996092,15.0976562 200.590008,14.9869803 200.227051,14.765625 C199.864093,14.5442697 199.581707,14.2358418 199.379883,13.840332 C199.178059,13.4448222 199.077148,13.0013045 199.077148,12.5097656 L199.077148,12.2998047 C199.077148,11.7919896 199.175618,11.3346375 199.372559,10.9277344 C199.5695,10.5208313 199.843748,10.2010103 200.195312,9.96826172 C200.546877,9.73551316 200.927732,9.61914062 201.337891,9.61914062 C201.97917,9.61914062 202.487791,9.8380512 202.86377,10.2758789 C203.239748,10.7137066 203.427734,11.3118452 203.427734,12.0703125 L203.427734,12.3974609 L199.658203,12.3974609 L199.658203,12.5097656 C199.658203,13.108727 199.829914,13.6075826 200.17334,14.0063477 C200.516766,14.4051127 200.948891,14.6044922 201.469727,14.6044922 C201.782228,14.6044922 202.058104,14.5475266 202.297363,14.4335938 C202.536622,14.3196609 202.753905,14.137371 202.949219,13.8867188 L203.31543,14.1650391 C202.88574,14.786787 202.262374,15.0976562 201.445312,15.0976562 Z M201.337891,10.1171875 C200.898435,10.1171875 200.528159,10.2783187 200.227051,10.6005859 C199.925943,10.9228532 199.742839,11.3557916 199.677734,11.8994141 L202.84668,11.8994141 L202.84668,11.8359375 C202.830404,11.3281225 202.685548,10.9147151 202.412109,10.5957031 C202.138671,10.2766911 201.780601,10.1171875 201.337891,10.1171875 Z M204.331055,12.3095703 C204.331055,11.4892537 204.514158,10.8357772 204.880371,10.3491211 C205.246584,9.86246501 205.743812,9.61914062 206.37207,9.61914062 C207.084965,9.61914062 207.628579,9.90071333 208.00293,10.4638672 L208.00293,7.5 L208.583984,7.5 L208.583984,15 L208.037109,15 L208.012695,14.296875 C207.638344,14.8307318 207.08822,15.0976562 206.362305,15.0976562 C205.753578,15.0976562 205.26286,14.8527043 204.890137,14.362793 C204.517414,13.8728817 204.331055,13.2112672 204.331055,12.3779297 L204.331055,12.3095703 Z M204.921875,12.4121094 C204.921875,13.0859409 205.056965,13.6173483 205.327148,14.0063477 C205.597332,14.395347 205.978188,14.5898438 206.469727,14.5898438 C207.189131,14.5898438 207.700194,14.2724641 208.00293,13.6376953 L208.00293,11.1572266 C207.700194,10.4703742 207.192386,10.1269531 206.479492,10.1269531 C205.987953,10.1269531 205.60547,10.3198223 205.332031,10.7055664 C205.058592,11.0913105 204.921875,11.6601525 204.921875,12.4121094 Z" id="path-3"></path>
        <path d="M111.191406,26 L110.59082,26 L106.503906,19.9160156 L106.503906,26 L105.898438,26 L105.898438,18.890625 L106.503906,18.890625 L110.595703,24.9794922 L110.595703,18.890625 L111.191406,18.890625 L111.191406,26 Z M114.907227,26.0976562 C114.458006,26.0976562 114.051922,25.9869803 113.688965,25.765625 C113.326007,25.5442697 113.043621,25.2358418 112.841797,24.840332 C112.639973,24.4448222 112.539062,24.0013045 112.539062,23.5097656 L112.539062,23.2998047 C112.539062,22.7919896 112.637532,22.3346375 112.834473,21.9277344 C113.031414,21.5208313 113.305662,21.2010103 113.657227,20.9682617 C114.008791,20.7355132 114.389646,20.6191406 114.799805,20.6191406 C115.441084,20.6191406 115.949705,20.8380512 116.325684,21.2758789 C116.701662,21.7137066 116.889648,22.3118452 116.889648,23.0703125 L116.889648,23.3974609 L113.120117,23.3974609 L113.120117,23.5097656 C113.120117,24.108727 113.291828,24.6075826 113.635254,25.0063477 C113.97868,25.4051127 114.410805,25.6044922 114.931641,25.6044922 C115.244142,25.6044922 115.520018,25.5475266 115.759277,25.4335938 C115.998536,25.3196609 116.215819,25.137371 116.411133,24.8867188 L116.777344,25.1650391 C116.347654,25.786787 115.724288,26.0976562 114.907227,26.0976562 Z M114.799805,21.1171875 C114.360349,21.1171875 113.990073,21.2783187 113.688965,21.6005859 C113.387857,21.9228532 113.204753,22.3557916 113.139648,22.8994141 L116.308594,22.8994141 L116.308594,22.8359375 C116.292318,22.3281225 116.147462,21.9147151 115.874023,21.5957031 C115.600585,21.2766911 115.242515,21.1171875 114.799805,21.1171875 Z M118.935547,19.3642578 L118.935547,20.7167969 L120.029297,20.7167969 L120.029297,21.1953125 L118.935547,21.1953125 L118.935547,24.7158203 C118.935547,25.0087905 118.988443,25.2268873 119.094238,25.3701172 C119.200033,25.5133471 119.376626,25.5849609 119.624023,25.5849609 C119.72168,25.5849609 119.879556,25.5686851 120.097656,25.5361328 L120.12207,26.0146484 C119.969075,26.0699873 119.760744,26.0976562 119.49707,26.0976562 C119.096678,26.0976562 118.805339,25.9812837 118.623047,25.7485352 C118.440754,25.5157866 118.349609,25.1731793 118.349609,24.7207031 L118.349609,21.1953125 L117.37793,21.1953125 L117.37793,20.7167969 L118.349609,20.7167969 L118.349609,19.3642578 L118.935547,19.3642578 Z M122.504883,24.7841797 L122.592773,25.2382812 L122.709961,24.7597656 L123.979492,20.7167969 L124.477539,20.7167969 L125.732422,24.7255859 L125.869141,25.2822266 L125.981445,24.7695312 L127.06543,20.7167969 L127.670898,20.7167969 L126.132812,26 L125.634766,26 L124.277344,21.8105469 L124.213867,21.5224609 L124.150391,21.8154297 L122.817383,26 L122.319336,26 L120.786133,20.7167969 L121.386719,20.7167969 L122.504883,24.7841797 Z M128.457031,23.2802734 C128.457031,22.7724584 128.5555,22.3151062 128.752441,21.9082031 C128.949382,21.5013 129.2277,21.1847342 129.587402,20.9584961 C129.947105,20.732258 130.354815,20.6191406 130.810547,20.6191406 C131.513675,20.6191406 132.083331,20.8657202 132.519531,21.3588867 C132.955731,21.8520532 133.173828,22.5055298 133.173828,23.3193359 L133.173828,23.4414062 C133.173828,23.9524765 133.075359,24.4122701 132.878418,24.8208008 C132.681477,25.2293315 132.403973,25.5442697 132.045898,25.765625 C131.687824,25.9869803 131.279299,26.0976562 130.820312,26.0976562 C130.120439,26.0976562 129.551597,25.8510767 129.11377,25.3579102 C128.675942,24.8647436 128.457031,24.2112671 128.457031,23.3974609 L128.457031,23.2802734 Z M129.042969,23.4414062 C129.042969,24.0729198 129.206541,24.5913066 129.533691,24.996582 C129.860841,25.4018575 130.289711,25.6044922 130.820312,25.6044922 C131.347659,25.6044922 131.774901,25.4018575 132.102051,24.996582 C132.429201,24.5913066 132.592773,24.0566439 132.592773,23.3925781 L132.592773,23.2802734 C132.592773,22.8766256 132.517904,22.5071631 132.368164,22.171875 C132.218424,21.8365869 132.008465,21.5769866 131.738281,21.3930664 C131.468098,21.2091462 131.158856,21.1171875 130.810547,21.1171875 C130.289711,21.1171875 129.86491,21.3214498 129.536133,21.7299805 C129.207355,22.1385112 129.042969,22.6731738 129.042969,23.3339844 L129.042969,23.4414062 Z M136.821289,21.2148438 C136.697591,21.1920572 136.565756,21.1806641 136.425781,21.1806641 C136.061196,21.1806641 135.752768,21.2823883 135.500488,21.4858398 C135.248208,21.6892914 135.06836,21.9846986 134.960938,22.3720703 L134.960938,26 L134.379883,26 L134.379883,20.7167969 L134.951172,20.7167969 L134.960938,21.5566406 C135.270184,20.9316375 135.766598,20.6191406 136.450195,20.6191406 C136.612957,20.6191406 136.741536,20.6402993 136.835938,20.6826172 L136.821289,21.2148438 Z M138.999023,23.3388672 L138.330078,23.9833984 L138.330078,26 L137.744141,26 L137.744141,18.5 L138.330078,18.5 L138.330078,23.2998047 L138.881836,22.7041016 L140.90332,20.7167969 L141.640625,20.7167969 L139.399414,22.9433594 L141.835938,26 L141.137695,26 L138.999023,23.3388672 Z M145.805664,24.6572266 C145.805664,24.3675116 145.689292,24.1347665 145.456543,23.9589844 C145.223794,23.7832022 144.873049,23.6456711 144.404297,23.5463867 C143.935545,23.4471024 143.571779,23.3331712 143.312988,23.2045898 C143.054198,23.0760085 142.862143,22.9189462 142.736816,22.7333984 C142.61149,22.5478506 142.548828,22.3232435 142.548828,22.0595703 C142.548828,21.6429016 142.72298,21.2986667 143.071289,21.0268555 C143.419598,20.7550442 143.865557,20.6191406 144.40918,20.6191406 C144.998375,20.6191406 145.47119,20.7648097 145.827637,21.0561523 C146.184084,21.3474949 146.362305,21.7275367 146.362305,22.1962891 L145.776367,22.1962891 C145.776367,21.8870427 145.646974,21.6298838 145.388184,21.4248047 C145.129393,21.2197255 144.803062,21.1171875 144.40918,21.1171875 C144.025063,21.1171875 143.716635,21.2026359 143.483887,21.3735352 C143.251138,21.5444344 143.134766,21.7666002 143.134766,22.0400391 C143.134766,22.3037123 143.231607,22.5079745 143.425293,22.652832 C143.618979,22.7976895 143.972165,22.9303379 144.484863,23.0507812 C144.997561,23.1712246 145.381672,23.299804 145.637207,23.4365234 C145.892742,23.5732429 146.082356,23.7376292 146.206055,23.9296875 C146.329753,24.1217458 146.391602,24.3544908 146.391602,24.6279297 C146.391602,25.0738955 146.211753,25.4303372 145.852051,25.6972656 C145.492348,25.964194 145.022789,26.0976562 144.443359,26.0976562 C143.828122,26.0976562 143.329266,25.948732 142.946777,25.6508789 C142.564288,25.3530259 142.373047,24.9762393 142.373047,24.5205078 L142.958984,24.5205078 C142.981771,24.8623064 143.125812,25.128417 143.391113,25.3188477 C143.656414,25.5092783 144.007159,25.6044922 144.443359,25.6044922 C144.850262,25.6044922 145.179035,25.5149749 145.429688,25.3359375 C145.68034,25.1569001 145.805664,24.9306654 145.805664,24.6572266 Z M151.005859,26 L150.405273,26 L150.405273,18.890625 L151.005859,18.890625 L151.005859,26 Z M153.354492,20.7167969 L153.374023,21.6201172 C153.572592,21.2945947 153.819985,21.0463876 154.116211,20.8754883 C154.412436,20.704589 154.739582,20.6191406 155.097656,20.6191406 C155.664065,20.6191406 156.085611,20.7786442 156.362305,21.0976562 C156.638999,21.4166683 156.778971,21.8951791 156.782227,22.5332031 L156.782227,26 L156.201172,26 L156.201172,22.5283203 C156.197917,22.0563127 156.09782,21.7047538 155.900879,21.4736328 C155.703938,21.2425119 155.389,21.1269531 154.956055,21.1269531 C154.594725,21.1269531 154.274904,21.2400705 153.996582,21.4663086 C153.71826,21.6925467 153.51237,21.9977194 153.378906,22.3818359 L153.378906,26 L152.797852,26 L152.797852,20.7167969 L153.354492,20.7167969 Z M158.945312,26 L158.359375,26 L158.359375,20.7167969 L158.945312,20.7167969 L158.945312,26 Z M158.256836,19.1884766 C158.256836,19.0777989 158.292643,18.9842126 158.364258,18.9077148 C158.435873,18.8312171 158.533528,18.7929688 158.657227,18.7929688 C158.780925,18.7929688 158.879394,18.8312171 158.952637,18.9077148 C159.025879,18.9842126 159.0625,19.0777989 159.0625,19.1884766 C159.0625,19.2991542 159.025879,19.3919267 158.952637,19.4667969 C158.879394,19.541667 158.780925,19.5791016 158.657227,19.5791016 C158.533528,19.5791016 158.435873,19.541667 158.364258,19.4667969 C158.292643,19.3919267 158.256836,19.2991542 158.256836,19.1884766 Z M161.44043,19.3642578 L161.44043,20.7167969 L162.53418,20.7167969 L162.53418,21.1953125 L161.44043,21.1953125 L161.44043,24.7158203 C161.44043,25.0087905 161.493326,25.2268873 161.599121,25.3701172 C161.704916,25.5133471 161.881509,25.5849609 162.128906,25.5849609 C162.226563,25.5849609 162.384439,25.5686851 162.602539,25.5361328 L162.626953,26.0146484 C162.473958,26.0699873 162.265626,26.0976562 162.001953,26.0976562 C161.60156,26.0976562 161.310222,25.9812837 161.12793,25.7485352 C160.945637,25.5157866 160.854492,25.1731793 160.854492,24.7207031 L160.854492,21.1953125 L159.882812,21.1953125 L159.882812,20.7167969 L160.854492,20.7167969 L160.854492,19.3642578 L161.44043,19.3642578 Z M164.399414,26 L163.813477,26 L163.813477,20.7167969 L164.399414,20.7167969 L164.399414,26 Z M163.710938,19.1884766 C163.710938,19.0777989 163.746744,18.9842126 163.818359,18.9077148 C163.889974,18.8312171 163.98763,18.7929688 164.111328,18.7929688 C164.235027,18.7929688 164.333496,18.8312171 164.406738,18.9077148 C164.479981,18.9842126 164.516602,19.0777989 164.516602,19.1884766 C164.516602,19.2991542 164.479981,19.3919267 164.406738,19.4667969 C164.333496,19.541667 164.235027,19.5791016 164.111328,19.5791016 C163.98763,19.5791016 163.889974,19.541667 163.818359,19.4667969 C163.746744,19.3919267 163.710938,19.2991542 163.710938,19.1884766 Z M169.321289,26 C169.262695,25.8339835 169.22526,25.5882178 169.208984,25.2626953 C169.003905,25.5296237 168.742677,25.7355136 168.425293,25.8803711 C168.107909,26.0252286 167.771812,26.0976562 167.416992,26.0976562 C166.909177,26.0976562 166.498211,25.9560561 166.184082,25.6728516 C165.869953,25.389647 165.712891,25.0315777 165.712891,24.5986328 C165.712891,24.0843073 165.926918,23.6774104 166.35498,23.3779297 C166.783043,23.078449 167.379553,22.9287109 168.144531,22.9287109 L169.204102,22.9287109 L169.204102,22.328125 C169.204102,21.9505189 169.087729,21.6534842 168.85498,21.4370117 C168.622232,21.2205393 168.28288,21.1123047 167.836914,21.1123047 C167.430011,21.1123047 167.0931,21.2164703 166.826172,21.4248047 C166.559243,21.6331391 166.425781,21.8837876 166.425781,22.1767578 L165.839844,22.171875 C165.839844,21.751951 166.035154,21.3881851 166.425781,21.0805664 C166.816408,20.7729477 167.296547,20.6191406 167.866211,20.6191406 C168.455407,20.6191406 168.920083,20.7664373 169.260254,21.0610352 C169.600425,21.355633 169.775391,21.7665989 169.785156,22.2939453 L169.785156,24.7939453 C169.785156,25.3050156 169.838867,25.6874987 169.946289,25.9414062 L169.946289,26 L169.321289,26 Z M167.485352,25.5800781 C167.875979,25.5800781 168.225096,25.485678 168.532715,25.296875 C168.840334,25.108072 169.064127,24.8557958 169.204102,24.5400391 L169.204102,23.3779297 L168.15918,23.3779297 C167.576494,23.3844401 167.12077,23.4910471 166.791992,23.6977539 C166.463215,23.9044607 166.298828,24.1884748 166.298828,24.5498047 C166.298828,24.8460301 166.40869,25.0917959 166.628418,25.2871094 C166.848146,25.4824229 167.133787,25.5800781 167.485352,25.5800781 Z M172.250977,19.3642578 L172.250977,20.7167969 L173.344727,20.7167969 L173.344727,21.1953125 L172.250977,21.1953125 L172.250977,24.7158203 C172.250977,25.0087905 172.303873,25.2268873 172.409668,25.3701172 C172.515463,25.5133471 172.692056,25.5849609 172.939453,25.5849609 C173.03711,25.5849609 173.194986,25.5686851 173.413086,25.5361328 L173.4375,26.0146484 C173.284504,26.0699873 173.076173,26.0976562 172.8125,26.0976562 C172.412107,26.0976562 172.120769,25.9812837 171.938477,25.7485352 C171.756184,25.5157866 171.665039,25.1731793 171.665039,24.7207031 L171.665039,21.1953125 L170.693359,21.1953125 L170.693359,20.7167969 L171.665039,20.7167969 L171.665039,19.3642578 L172.250977,19.3642578 Z M175.209961,26 L174.624023,26 L174.624023,20.7167969 L175.209961,20.7167969 L175.209961,26 Z M174.521484,19.1884766 C174.521484,19.0777989 174.557291,18.9842126 174.628906,18.9077148 C174.700521,18.8312171 174.798176,18.7929688 174.921875,18.7929688 C175.045574,18.7929688 175.144043,18.8312171 175.217285,18.9077148 C175.290528,18.9842126 175.327148,19.0777989 175.327148,19.1884766 C175.327148,19.2991542 175.290528,19.3919267 175.217285,19.4667969 C175.144043,19.541667 175.045574,19.5791016 174.921875,19.5791016 C174.798176,19.5791016 174.700521,19.541667 174.628906,19.4667969 C174.557291,19.3919267 174.521484,19.2991542 174.521484,19.1884766 Z M178.442383,25.1943359 L180.048828,20.7167969 L180.649414,20.7167969 L178.676758,26 L178.203125,26 L176.220703,20.7167969 L176.821289,20.7167969 L178.442383,25.1943359 Z M183.588867,26.0976562 C183.139646,26.0976562 182.733563,25.9869803 182.370605,25.765625 C182.007648,25.5442697 181.725261,25.2358418 181.523438,24.840332 C181.321614,24.4448222 181.220703,24.0013045 181.220703,23.5097656 L181.220703,23.2998047 C181.220703,22.7919896 181.319172,22.3346375 181.516113,21.9277344 C181.713054,21.5208313 181.987303,21.2010103 182.338867,20.9682617 C182.690431,20.7355132 183.071287,20.6191406 183.481445,20.6191406 C184.122725,20.6191406 184.631346,20.8380512 185.007324,21.2758789 C185.383303,21.7137066 185.571289,22.3118452 185.571289,23.0703125 L185.571289,23.3974609 L181.801758,23.3974609 L181.801758,23.5097656 C181.801758,24.108727 181.973468,24.6075826 182.316895,25.0063477 C182.660321,25.4051127 183.092445,25.6044922 183.613281,25.6044922 C183.925783,25.6044922 184.201659,25.5475266 184.440918,25.4335938 C184.680177,25.3196609 184.89746,25.137371 185.092773,24.8867188 L185.458984,25.1650391 C185.029295,25.786787 184.405929,26.0976562 183.588867,26.0976562 Z M183.481445,21.1171875 C183.04199,21.1171875 182.671714,21.2783187 182.370605,21.6005859 C182.069497,21.9228532 181.886394,22.3557916 181.821289,22.8994141 L184.990234,22.8994141 L184.990234,22.8359375 C184.973958,22.3281225 184.829103,21.9147151 184.555664,21.5957031 C184.282225,21.2766911 183.924156,21.1171875 183.481445,21.1171875 Z M189.873047,24.6572266 C189.873047,24.3675116 189.756674,24.1347665 189.523926,23.9589844 C189.291177,23.7832022 188.940432,23.6456711 188.47168,23.5463867 C188.002927,23.4471024 187.639161,23.3331712 187.380371,23.2045898 C187.121581,23.0760085 186.929525,22.9189462 186.804199,22.7333984 C186.678873,22.5478506 186.616211,22.3232435 186.616211,22.0595703 C186.616211,21.6429016 186.790363,21.2986667 187.138672,21.0268555 C187.486981,20.7550442 187.93294,20.6191406 188.476562,20.6191406 C189.065758,20.6191406 189.538572,20.7648097 189.89502,21.0561523 C190.251467,21.3474949 190.429688,21.7275367 190.429688,22.1962891 L189.84375,22.1962891 C189.84375,21.8870427 189.714357,21.6298838 189.455566,21.4248047 C189.196776,21.2197255 188.870445,21.1171875 188.476562,21.1171875 C188.092446,21.1171875 187.784018,21.2026359 187.55127,21.3735352 C187.318521,21.5444344 187.202148,21.7666002 187.202148,22.0400391 C187.202148,22.3037123 187.29899,22.5079745 187.492676,22.652832 C187.686362,22.7976895 188.039548,22.9303379 188.552246,23.0507812 C189.064944,23.1712246 189.449055,23.299804 189.70459,23.4365234 C189.960125,23.5732429 190.149739,23.7376292 190.273438,23.9296875 C190.397136,24.1217458 190.458984,24.3544908 190.458984,24.6279297 C190.458984,25.0738955 190.279136,25.4303372 189.919434,25.6972656 C189.559731,25.964194 189.090172,26.0976562 188.510742,26.0976562 C187.895505,26.0976562 187.396649,25.948732 187.01416,25.6508789 C186.631671,25.3530259 186.44043,24.9762393 186.44043,24.5205078 L187.026367,24.5205078 C187.049154,24.8623064 187.193195,25.128417 187.458496,25.3188477 C187.723797,25.5092783 188.074542,25.6044922 188.510742,25.6044922 C188.917645,25.6044922 189.246418,25.5149749 189.49707,25.3359375 C189.747723,25.1569001 189.873047,24.9306654 189.873047,24.6572266 Z" id="path-4"></path>
    </defs>
    <g id="Tau-home" stroke="none" stroke-width="1" fill="none" fill-rule="evenodd">
        <g id="Agoras_home" transform="translate(-222.000000, -212.000000)">
            <g id="logo_header" transform="translate(222.000000, 212.000000)">
                <g id="Group-5">
                    <g id="Group-4">
                        <g id="Clipped">
                            <mask id="mask-2" fill="white">
                                <use xlink:href="#path-1"></use>
                            </mask>
                            <g id="path-1"></g>
                            <g id="Group" mask="url(#mask-2)">
                                <g transform="translate(-7.000000, -2.000000)">
                                    <g transform="translate(0.928571, 0.785714)">
                                        <polygon id="Combined-Shape" fill="#FFFFFF" fill-rule="nonzero" points="42.5 17 36.4285714 17 36.4285714 19.4285714 42.5 19.4285714 42.5 21.8571429 34 21.8571429 34 14.5714286 42.5 14.5714286"></polygon>
                                        <polygon id="Combined-Shape" fill="#FFFFFF" fill-rule="nonzero" points="43.7142857 12.1428571 31.5714286 12.1428571 31.5714286 24.2857143 43.7142857 24.2857143 43.7142857 26.7142857 29.1428571 26.7142857 29.1428571 9.71428571 43.7142857 9.71428571"></polygon>
                                        <path d="M24.2857143,4.85714286 L46.1428571,4.85714286 L46.1428571,30.3571429 L24.2857143,30.3571429 L24.2857143,4.85714286 Z M26.7142857,7.28571429 L26.7142857,27.9285714 L44.9285714,27.9285714 L44.9285714,7.28571429 L26.7142857,7.28571429 Z" id="Combined-Shape" fill="#FFFFFF" fill-rule="nonzero"></path>
                                        <polygon id="Combined-Shape-Copy" fill="#FFFFFF" fill-rule="nonzero" transform="translate(7.892857, 17.000000) rotate(-180.000000) translate(-7.892857, -17.000000) " points="12.1428569 15.7857143 6.07142833 15.7857143 6.07142833 18.2142857 12.1428569 18.2142857 12.1428569 20.6428571 3.6428569 20.6428571 3.6428569 13.3571429 12.1428569 13.3571429"></polygon>
                                        <polygon id="Combined-Shape-Copy-2" fill="#FFFFFF" fill-rule="nonzero" transform="translate(9.714286, 17.000000) rotate(-180.000000) translate(-9.714286, -17.000000) " points="17.0000006 10.9285714 4.85714343 10.9285714 4.85714343 23.0714286 17.0000006 23.0714286 17.0000006 25.5 2.428572 25.5 2.428572 8.5 17.0000006 8.5"></polygon>
                                        <path d="M-9.00000002e-07,4.8571431 L21.857142,4.8571431 L21.857142,30.3571431 L-9.00000002e-07,30.3571431 L-9.00000002e-07,4.8571431 Z M2.42857053,7.28571453 L2.42857053,27.9285716 L20.6428562,27.9285716 L20.6428562,7.28571453 L2.42857053,7.28571453 Z" id="Combined-Shape-Copy-3" fill="#FFFFFF" fill-rule="nonzero" transform="translate(10.928571, 17.607143) rotate(-180.000000) translate(-10.928571, -17.607143) "></path>
                                        <rect id="Rectangle-4" fill="#FFFFFF" fill-rule="nonzero" x="13.3571429" y="0" width="23.0714286" height="3.64285714"></rect>
                                        <rect id="Rectangle-4-Copy" fill="#FFFFFF" fill-rule="nonzero" x="13.3571429" y="32.7857143" width="23.0714286" height="3.64285714"></rect>
                                    </g>
                                </g>
                            </g>
                        </g>
                    </g>
                    <path d="M41.4484286,26.7142857 L41.4484286,8.01428571 L44.7342857,8.01428571 L44.7342857,26.7142857 L41.4484286,26.7142857 Z M49.7298571,26.7142857 L49.7298571,8.01428571 L56.7022857,8.01428571 C62.5794286,8.01428571 66.64,12.0481429 66.64,17.3108571 L66.64,17.3642857 C66.64,22.627 62.5794286,26.7142857 56.7022857,26.7142857 L49.7298571,26.7142857 Z M56.7022857,11.0062857 L53.0157143,11.0062857 L53.0157143,23.7222857 L56.7022857,23.7222857 C60.6292857,23.7222857 63.1938571,21.0775714 63.1938571,17.4177143 L63.1938571,17.3642857 C63.1938571,13.7044286 60.6292857,11.0062857 56.7022857,11.0062857 Z M70.6204286,26.7142857 L70.6204286,8.01428571 L73.6658571,8.01428571 L83.6837143,20.944 L83.6837143,8.01428571 L86.9161429,8.01428571 L86.9161429,26.7142857 L84.1645714,26.7142857 L73.8528571,13.4105714 L73.8528571,26.7142857 L70.6204286,26.7142857 Z M91.9117143,26.7142857 L91.9117143,8.01428571 L95.1975714,8.01428571 L95.1975714,26.7142857 L91.9117143,26.7142857 Z" id="IDNI" fill="#FFFFFF" fill-rule="nonzero"></path>
                </g>
                <g id="Intelligent-Decentralized">
                    <use fill="#000000" xlink:href="#path-3"></use>
                    <use fill="#FFFFFF" xlink:href="#path-3"></use>
                </g>
                <g id="Networks-Initiatives">
                    <use fill="#000000" xlink:href="#path-4"></use>
                    <use fill="#FFFFFF" xlink:href="#path-4"></use>
                </g>
            </g>
        </g>
    </g>
</svg>