<?xml version="1.0" encoding="UTF-8"?>
<svg width="2000px" height="289px" viewBox="0 0 2000 289" version="1.1" xmlns="http://www.w3.org/2000/svg" xmlns:xlink="http://www.w3.org/1999/xlink">
    <!-- Generator: Sketch 50.2 (55047) - http://www.bohemiancoding.com/sketch -->
    <title>Group 15</title>
    <desc>Created with Sketch.</desc>
    <defs>
        <path d="M0,0 L2000,0 L2000,201 C1677.90766,260.964252 1348.656,291.6192 1012.24501,292.964844 C675.834018,294.310488 338.419015,266.322206 0,209 L0,0 Z" id="path-1"></path>
    </defs>
    <g id="Tau-home" stroke="none" stroke-width="1" fill="none" fill-rule="evenodd">
        <g id="Group-15" transform="translate(0.000000, -4.000000)">
            <mask id="mask-2" fill="white">
                <use xlink:href="#path-1"></use>
            </mask>
            <g id="Mask-Copy-4"></g>
            <path d="M-18.9299022,158.331242 C64.3711781,138.452516 157.572518,108.423972 260.674117,68.2456094 C415.326516,7.97806571 566.139454,-35.841977 805.802344,61.2446323 C1045.46523,158.331242 1301.41495,241.076238 1445.84848,229.471878 C1590.28201,217.867519 1670.00317,188.792685 1773.33567,134.139509 C1876.66818,79.4863335 1939.84476,81.9758362 2081.64168,104.920819 C2176.17295,120.217475 2235.08406,200.602172 2258.375,346.07491 L1773.33567,326.047001 L1412.22232,392.264576 L195.956384,346.07491 L-194.132812,314.027058 L-18.9299022,158.331242 Z" id="Path-10" fill="#FFFFFF" opacity="0.05" mask="url(#mask-2)"></path>
        </g>
    </g>
</svg>