<?xml version="1.0" encoding="UTF-8"?>
<svg width="2880px" height="277px" viewBox="0 0 2880 277" version="1.1" xmlns="http://www.w3.org/2000/svg" xmlns:xlink="http://www.w3.org/1999/xlink">
    <!-- Generator: Sketch 50 (54983) - http://www.bohemiancoding.com/sketch -->
    <title>layer1</title>
    <desc>Created with Sketch.</desc>
    <defs></defs>
    <g id="Page-1" stroke="none" stroke-width="1" fill="none" fill-rule="evenodd" opacity="0.05">
        <g id="layer1" fill="#FFFFFF">
            <path d="M1440,115.306796 L1440,276.5532 L0,276.5532 L0,97.5758184 C104.903181,39.1559982 177.730004,7.41408377 218.480469,2.35007501 C281.914062,-5.53273749 347.691406,2.95945001 498.035156,82.0961688 C648.378906,161.232888 850.984375,248.783669 963.515625,219.314919 C1076.04688,189.846169 1170.71094,67.1902005 1298.40234,89.8852313 C1356.66114,100.239767 1403.86036,108.713621 1440,115.306796 Z" id="Combined-Shape"></path>
            <path d="M2880,115.306796 L2880,276.5532 L1440,276.5532 L1440,97.5758184 C1544.90318,39.1559982 1617.73,7.41408377 1658.48047,2.35007501 C1721.91406,-5.53273749 1787.69141,2.95945001 1938.03516,82.0961688 C2088.37891,161.232888 2290.98438,248.783669 2403.51562,219.314919 C2516.04688,189.846169 2610.71094,67.1902005 2738.40234,89.8852313 C2796.66114,100.239767 2843.86036,108.713621 2880,115.306796 Z" id="Combined-Shape-Copy-11" transform="translate(2160.000000, 138.276600) scale(-1, 1) translate(-2160.000000, -138.276600) "></path>
        </g>
    </g>
</svg>