<?xml version="1.0" encoding="UTF-8"?>
<svg width="2880px" height="284px" viewBox="0 0 2880 284" version="1.1" xmlns="http://www.w3.org/2000/svg" xmlns:xlink="http://www.w3.org/1999/xlink">
    <!-- Generator: Sketch 50 (54983) - http://www.bohemiancoding.com/sketch -->
    <title>layer4</title>
    <desc>Created with Sketch.</desc>
    <defs></defs>
    <g id="Page-1" stroke="none" stroke-width="1" fill="none" fill-rule="evenodd" opacity="0.05">
        <g id="layer4" fill="#FFFFFF">
            <path d="M1440,136.174265 L1440,283.188108 L0,283.188108 L0,165.816495 C103.958817,184.03288 179.29866,188.290865 226.019531,178.590451 C299.074219,163.422483 587.074219,25.067014 685.914062,8.21935773 C784.753906,-8.62829852 799.773437,-7.53064227 1179.00781,89.863889 C1288.64486,118.020749 1375.64226,133.457541 1440,136.174265 Z" id="Combined-Shape"></path>
            <path d="M2880,136.174265 L2880,283.188108 L1440,283.188108 L1440,165.816495 C1543.95882,184.03288 1619.29866,188.290865 1666.01953,178.590451 C1739.07422,163.422483 2027.07422,25.067014 2125.91406,8.21935773 C2224.75391,-8.62829852 2239.77344,-7.53064227 2619.00781,89.863889 C2728.64486,118.020749 2815.64226,133.457541 2880,136.174265 Z" id="Combined-Shape-Copy-8" transform="translate(2160.000000, 141.594054) scale(-1, 1) translate(-2160.000000, -141.594054) "></path>
        </g>
    </g>
</svg>