<?xml version="1.0" encoding="UTF-8"?>
<svg width="2000px" height="254px" viewBox="0 0 2000 254" version="1.1" xmlns="http://www.w3.org/2000/svg" xmlns:xlink="http://www.w3.org/1999/xlink">
    <!-- Generator: Sketch 50.2 (55047) - http://www.bohemiancoding.com/sketch -->
    <title>Group 16</title>
    <desc>Created with Sketch.</desc>
    <defs>
        <path d="M0,0 L2000,0 L2000,201 C1677.90766,260.964252 1348.656,291.6192 1012.24501,292.964844 C675.834018,294.310488 338.419015,266.322206 0,209 L0,0 Z" id="path-1"></path>
    </defs>
    <g id="Tau-home" stroke="none" stroke-width="1" fill="none" fill-rule="evenodd">
        <g id="Group-16" transform="translate(0.000000, -39.000000)">
            <mask id="mask-2" fill="white">
                <use xlink:href="#path-1"></use>
            </mask>
            <g id="Mask-Copy-5"></g>
            <path d="M-41.3598699,42.4954402 C94.4442679,113.107274 191.930768,153.101821 251.09963,162.479081 C339.852923,176.544971 455.267646,202.450984 692.707407,128.760905 C930.147168,55.0708255 1003.83259,-10.6312667 1215.73323,95.4942755 C1427.63386,201.619818 1488.8397,278.127071 1792.37725,186.810673 C1994.73562,125.933075 2100.82645,95.4942755 2110.64974,95.4942755 L2083.82184,313.97511 L1755.7547,374.905989 L350.393988,439.589103 C186.446407,442.106459 61.9225867,400.235128 -23.1774733,313.97511 C-108.277533,227.715093 -114.338332,137.22187 -41.3598699,42.4954402 Z" id="Path-9" fill="#FFFFFF" opacity="0.05" mask="url(#mask-2)"></path>
        </g>
    </g>
</svg>