<?xml version="1.0" encoding="UTF-8"?>
<svg width="2000px" height="284px" viewBox="0 0 2000 284" version="1.1" xmlns="http://www.w3.org/2000/svg" xmlns:xlink="http://www.w3.org/1999/xlink">
    <!-- Generator: Sketch 50.2 (55047) - http://www.bohemiancoding.com/sketch -->
    <title>Group 17</title>
    <desc>Created with Sketch.</desc>
    <defs>
        <path d="M0,0 L2000,0 L2000,201 C1677.90766,260.964252 1348.656,291.6192 1012.24501,292.964844 C675.834018,294.310488 338.419015,266.322206 0,209 L0,0 Z" id="path-1"></path>
    </defs>
    <g id="Tau-home" stroke="none" stroke-width="1" fill="none" fill-rule="evenodd">
        <g id="Group-17" transform="translate(0.000000, -9.000000)">
            <mask id="mask-2" fill="white">
                <use xlink:href="#path-1"></use>
            </mask>
            <g id="Mask"></g>
            <path d="M-21.3785651,177.116398 C131.075765,197.804978 240.77873,202.977123 307.730331,192.632833 C408.157733,177.116398 804.067874,35.582375 939.94182,18.3476636 C1075.81577,1.11295232 1096.46294,2.23582593 1617.79188,101.867882 C1965.3445,168.289253 2147.39937,165.516034 2163.95649,93.5482276 L2154.33367,277.839359 L1714.78793,390.302544 L142.080429,414.094677 L-72.8004878,293.108043 L-21.3785651,177.116398 Z" id="Path-8" fill="#FFFFFF" opacity="0.05" mask="url(#mask-2)"></path>
        </g>
    </g>
</svg>