<?xml version="1.0" encoding="UTF-8"?>
<svg width="2880px" height="254px" viewBox="0 0 2880 254" version="1.1" xmlns="http://www.w3.org/2000/svg" xmlns:xlink="http://www.w3.org/1999/xlink">
    <!-- Generator: Sketch 50 (54983) - http://www.bohemiancoding.com/sketch -->
    <title>layer3</title>
    <desc>Created with Sketch.</desc>
    <defs></defs>
    <g id="Page-1" stroke="none" stroke-width="1" fill="none" fill-rule="evenodd" opacity="0.05">
        <g id="layer3" fill="#FFFFFF">
            <path d="M1440,89.9767804 L1440,253.849355 L0,253.849355 L0,21.701456 C84.3435366,78.8051352 145.951609,111.496362 184.824219,119.775136 C249.386719,133.525136 333.34375,158.849355 506.066406,86.814199 C678.789062,14.7790427 732.390625,-49.4475198 886.535156,54.2946677 C1040.67969,158.036855 1085.20312,232.825918 1306.00781,143.560293 C1360.14298,121.674845 1404.80704,103.813674 1440,89.9767804 Z" id="Combined-Shape"></path>
            <path d="M2880,89.9767804 L2880,253.849355 L1440,253.849355 L1440,21.701456 C1524.34354,78.8051352 1585.95161,111.496362 1624.82422,119.775136 C1689.38672,133.525136 1773.34375,158.849355 1946.06641,86.814199 C2118.78906,14.7790427 2172.39062,-49.4475198 2326.53516,54.2946677 C2480.67969,158.036855 2525.20312,232.825918 2746.00781,143.560293 C2800.14298,121.674845 2844.80704,103.813674 2880,89.9767804 Z" id="Combined-Shape-Copy-9" transform="translate(2160.000000, 126.924678) scale(-1, 1) translate(-2160.000000, -126.924678) "></path>
        </g>
    </g>
</svg>