<?xml version="1.0" encoding="UTF-8"?>
<svg width="2000px" height="277px" viewBox="0 0 2000 277" version="1.1" xmlns="http://www.w3.org/2000/svg" xmlns:xlink="http://www.w3.org/1999/xlink">
    <!-- Generator: Sketch 50.2 (55047) - http://www.bohemiancoding.com/sketch -->
    <title>Group 14 Copy 3</title>
    <desc>Created with Sketch.</desc>
    <defs>
        <path d="M0,0 L2000,0 L2000,201 C1677.90766,260.964252 1348.656,291.6192 1012.24501,292.964844 C675.834018,294.310488 338.419015,266.322206 0,209 L0,0 Z" id="path-1"></path>
    </defs>
    <g id="Tau-home" stroke="none" stroke-width="1" fill="none" fill-rule="evenodd">
        <g id="Group-14-Copy-3" transform="translate(1000.000000, 131.000000) scale(-1, 1) translate(-1000.000000, -131.000000) translate(0.000000, -16.000000)">
            <mask id="mask-2" fill="white">
                <use xlink:href="#path-1"></use>
            </mask>
            <g id="Mask-Copy-3"></g>
            <path d="M-19.4991089,123.430252 C133.610346,59.2732765 239.232206,24.5068185 297.366473,19.130878 C384.567872,11.0669671 474.991197,19.7542526 681.666944,100.709044 C888.342692,181.663836 1166.862,271.225993 1321.55735,241.080234 C1476.25271,210.934474 1606.38626,85.460629 1781.9221,108.677051 C1898.946,124.154666 1983.509,135.524594 2035.61111,142.786835 L2087.4841,361.415522 L1482.82544,348.604373 L369.22077,379.932946 L-45.2530292,307.973131 L-19.4991089,123.430252 Z" id="Path-11" fill="#FFFFFF" opacity="0.05" mask="url(#mask-2)"></path>
        </g>
    </g>
</svg>