<?xml version="1.0" encoding="UTF-8"?>
<svg width="2880px" height="289px" viewBox="0 0 2880 289" version="1.1" xmlns="http://www.w3.org/2000/svg" xmlns:xlink="http://www.w3.org/1999/xlink">
    <!-- Generator: Sketch 50 (54983) - http://www.bohemiancoding.com/sketch -->
    <title>layer2</title>
    <desc>Created with Sketch.</desc>
    <defs></defs>
    <g id="Page-1" stroke="none" stroke-width="1" fill="none" fill-rule="evenodd" opacity="0.05">
        <g id="layer2" fill="#FFFFFF">
            <path d="M1440,84.9089238 L1440,288.74154 L0,288.74154 L0,146.799255 C57.6116103,127.420563 121.541298,99.3375223 191.789062,62.5501339 C304.289062,3.63607136 413.996094,-39.1998661 588.335937,55.7063839 C762.675781,150.612634 948.863281,231.499353 1053.92969,220.155603 C1158.99609,208.811853 1216.98828,180.389978 1292.15625,126.964196 C1345.8452,88.8046665 1384.63198,79.1422152 1440,84.9089238 Z" id="Combined-Shape"></path>
            <path d="M2880,84.9089238 L2880,288.74154 L1440,288.74154 L1440,146.799255 C1497.61161,127.420563 1561.5413,99.3375223 1631.78906,62.5501339 C1744.28906,3.63607136 1853.99609,-39.1998661 2028.33594,55.7063839 C2202.67578,150.612634 2388.86328,231.499353 2493.92969,220.155603 C2598.99609,208.811853 2656.98828,180.389978 2732.15625,126.964196 C2785.8452,88.8046665 2824.63198,79.1422152 2880,84.9089238 Z" id="Combined-Shape-Copy-10" transform="translate(2160.000000, 144.370770) scale(-1, 1) translate(-2160.000000, -144.370770) "></path>
        </g>
    </g>
</svg>