<?xml version="1.0" encoding="UTF-8"?>
<svg width="139px" height="139px" viewBox="0 0 139 139" version="1.1" xmlns="http://www.w3.org/2000/svg" xmlns:xlink="http://www.w3.org/1999/xlink">
    <!-- Generator: Sketch 50.2 (55047) - http://www.bohemiancoding.com/sketch -->
    <title>agoras</title>
    <desc>Created with Sketch.</desc>
    <defs></defs>
    <g id="Tau-home" stroke="none" stroke-width="1" fill="none" fill-rule="evenodd">
        <g id="Agoras_home" transform="translate(-650.000000, -193.000000)" fill="#FFFFFF">
            <g id="header">
                <g id="Group-2" transform="translate(533.000000, 192.000000)">
                    <g id="agoras" transform="translate(117.000000, 0.000000)">
                        <path d="M68.129686,47.5471698 C66.2298995,47.5471698 64.5726678,48.1659922 63.1593459,49.3945175 C61.7460241,50.6282539 60.5210548,52.2189531 59.483083,54.1705235 C58.4464663,56.1246994 57.5860066,58.3029542 56.9030592,60.7000767 C56.2174016,63.0998047 55.6753797,65.4878077 55.2783488,67.8653885 C54.8813178,70.244272 54.5926912,72.4629131 54.4178891,74.5213117 C54.2376669,76.5797104 54.1509434,78.2459711 54.1509434,79.5240022 C54.1509434,83.7267832 54.7241315,86.930329 55.8732177,89.1398506 C57.022304,91.3480694 58.8773736,92.4528302 61.4397817,92.4528302 C63.3368581,92.4528302 64.9940898,91.8796052 66.4074117,90.7318526 C67.8180234,89.5854027 69.048413,88.0885039 70.0850297,86.2411563 C71.1202913,84.3938086 71.9726206,82.3028403 72.6365974,79.9669487 C73.2965089,77.6310571 73.8249802,75.2769264 74.2247213,72.9006485 C74.6217523,70.5191594 74.8968283,68.2158374 75.0526596,65.9841684 C75.2071358,63.7551051 75.2830189,61.8374071 75.2830189,60.2232578 C75.2830189,56.2341333 74.788424,53.1191768 73.7938139,50.8901135 C72.7978489,48.6610501 70.9116129,47.5471698 68.129686,47.5471698" id="Fill-1"></path>
                        <path d="M97.4854336,47.17373 L95.03885,47.17373 C93.6702882,47.17373 91.3840932,47.9546546 90.9252766,51.0336539 C89.0689757,63.504784 87.2639465,78.0176246 87.0089023,79.6820196 C86.6447413,82.0773811 86.5014433,83.9639584 86.5934695,85.1616391 C86.7525435,87.2388461 87.2665758,88.7073526 87.7030432,89.4185988 C88.3091018,90.4072442 89.0321652,91.0277769 89.6329651,91.3695958 C90.3389379,91.773205 91.2815497,92.021681 91.2815497,92.021681 L89.28458,106.655473 C88.4366239,106.743557 86.4002144,106.743557 85.235425,106.671249 C84.3690636,106.619976 82.9807819,106.391221 80.7852985,105.854828 C79.3391717,105.502492 77.2698957,104.362657 75.3649524,102.700891 C73.9832439,101.219238 72.5870743,99.6810532 71.3749571,95.8553112 C70.5164836,97.4842096 69.193935,99.4759618 68.0804173,100.634202 C66.965585,101.789813 65.7968517,102.745591 64.5781612,103.492334 C63.358156,104.244335 62.102655,104.799133 60.8182315,105.163302 C59.5324933,105.528785 58.290139,105.710212 57.0898537,105.710212 C51.218579,105.710212 46.6343571,103.675075 43.3358733,99.6048013 C40.0360749,95.5345273 38.3874904,89.4054519 38.3874904,81.2215193 C38.3874904,72.8666771 39.136847,65.6661311 40.6368749,59.6277692 C42.1355881,53.5854632 44.1154671,48.614628 46.580456,44.7139487 C49.0454448,40.8158989 51.8522454,37.9327881 55.0008579,36.0685606 C58.1507849,34.2069624 61.3532984,33.2748486 64.6110277,33.2748486 C68.2526379,33.2748486 71.2645256,34.1530602 73.6414322,35.9121127 C76.0170241,37.6659065 77.8273119,40.0862471 79.0696663,43.1731344 C79.0696663,43.1731344 80.3567191,38.5559502 86.0873252,35.9147421 C92.8039268,32.8173372 98.9723148,36.399862 98.9723148,36.399862 C98.7790597,37.7474171 97.8956077,44.1999057 97.4854336,47.17373 M68.6812173,6.60377358 C33.6652291,6.60377358 5.28301887,34.9852577 5.28301887,69.998028 C5.28301887,105.012113 33.6652291,133.396226 68.6812173,133.396226 C103.694576,133.396226 132.075472,105.012113 132.075472,69.998028 C132.075472,34.9852577 103.694576,6.60377358 68.6812173,6.60377358" id="Fill-3"></path>
                        <path d="M69.4143774,137.048906 C32.7660755,137.048906 2.94871698,107.234189 2.94871698,70.5858868 C2.94871698,33.9375849 32.7660755,4.12154717 69.4143774,4.12154717 C106.062679,4.12154717 135.877396,33.9375849 135.877396,70.5858868 C135.877396,107.234189 106.062679,137.048906 69.4143774,137.048906 M69.4143774,1.17362264 C31.0768302,1.17362264 -0.000528301887,32.2496604 -0.000528301887,70.5858868 C-0.000528301887,108.923434 31.0768302,139.999472 69.4143774,139.999472 C107.749283,139.999472 138.826642,108.923434 138.826642,70.5858868 C138.826642,32.2496604 107.749283,1.17362264 69.4143774,1.17362264" id="Fill-5"></path>
                    </g>
                </g>
            </g>
        </g>
    </g>
</svg>