<?xml version="1.0" encoding="UTF-8"?>
<svg width="417px" height="32px" viewBox="0 0 417 32" version="1.1" xmlns="http://www.w3.org/2000/svg" xmlns:xlink="http://www.w3.org/1999/xlink">
    <!-- Generator: Sketch 50.2 (55047) - http://www.bohemiancoding.com/sketch -->
    <title>Agoras, Knowledge Ec</title>
    <desc>Created with Sketch.</desc>
    <defs></defs>
    <g id="Tau-home" stroke="none" stroke-width="1" fill="none" fill-rule="evenodd">
        <g id="TAU_home" transform="translate(-512.000000, -368.000000)" fill="#FFFFFF">
            <g id="header" transform="translate(-8.000000, 0.000000)">
                <g id="Parallax" transform="translate(0.000000, 2.000000)">
                    <g id="Group">
                        <g id="logo" transform="translate(508.250000, 162.750000)">
                            <path d="M26.984375,222.703125 L18.171875,222.703125 L16.328125,228 L12.21875,228 L20.8125,205.25 L24.359375,205.25 L32.96875,228 L28.84375,228 L26.984375,222.703125 Z M19.28125,219.515625 L25.875,219.515625 L22.578125,210.078125 L19.28125,219.515625 Z M34.515625,219.421875 C34.515625,216.796862 35.1328063,214.700529 36.3671875,213.132812 C37.6015687,211.565096 39.2395731,210.78125 41.28125,210.78125 C43.208343,210.78125 44.7239528,211.453118 45.828125,212.796875 L46,211.09375 L49.421875,211.09375 L49.421875,227.484375 C49.421875,229.703136 48.7317777,231.453119 47.3515625,232.734375 C45.9713473,234.015631 44.1093867,234.65625 41.765625,234.65625 C40.5260355,234.65625 39.3151101,234.39844 38.1328125,233.882812 C36.9505149,233.367185 36.0520864,232.692712 35.4375,231.859375 L37.234375,229.578125 C38.4010475,230.963549 39.8385331,231.65625 41.546875,231.65625 C42.807298,231.65625 43.8020797,231.315108 44.53125,230.632812 C45.2604203,229.950517 45.625,228.947923 45.625,227.625 L45.625,226.484375 C44.5312445,227.703131 43.0729258,228.3125 41.25,228.3125 C39.2708234,228.3125 37.6536521,227.52605 36.3984375,225.953125 C35.1432229,224.3802 34.515625,222.203139 34.515625,219.421875 Z M38.296875,219.75 C38.296875,221.447925 38.6432257,222.783849 39.3359375,223.757812 C40.0286493,224.731776 40.9895772,225.21875 42.21875,225.21875 C43.7500077,225.21875 44.885413,224.562507 45.625,223.25 L45.625,215.8125 C44.9062464,214.531244 43.7812577,213.890625 42.25,213.890625 C40.9999938,213.890625 40.0286493,214.385412 39.3359375,215.375 C38.6432257,216.364588 38.296875,217.822907 38.296875,219.75 Z M52.609375,219.390625 C52.609375,217.734367 52.9374967,216.242194 53.59375,214.914062 C54.2500033,213.585931 55.1718691,212.565108 56.359375,211.851562 C57.5468809,211.138017 58.9114506,210.78125 60.453125,210.78125 C62.7343864,210.78125 64.5859304,211.515618 66.0078125,212.984375 C67.4296946,214.453132 68.1979161,216.40103 68.3125,218.828125 L68.328125,219.71875 C68.328125,221.385425 68.0078157,222.874993 67.3671875,224.1875 C66.7265593,225.500007 65.8099018,226.515621 64.6171875,227.234375 C63.4244732,227.953129 62.0468828,228.3125 60.484375,228.3125 C58.0989464,228.3125 56.1901113,227.518237 54.7578125,225.929688 C53.3255137,224.341138 52.609375,222.223972 52.609375,219.578125 L52.609375,219.390625 Z M56.40625,219.71875 C56.40625,221.458342 56.7656214,222.820308 57.484375,223.804688 C58.2031286,224.789067 59.2031186,225.28125 60.484375,225.28125 C61.7656314,225.28125 62.7630173,224.781255 63.4765625,223.78125 C64.1901077,222.781245 64.546875,221.317718 64.546875,219.390625 C64.546875,217.682283 64.1796912,216.32813 63.4453125,215.328125 C62.7109338,214.32812 61.713548,213.828125 60.453125,213.828125 C59.2135355,213.828125 58.2291703,214.320308 57.5,215.304688 C56.7708297,216.289067 56.40625,217.760407 56.40625,219.71875 Z M80.390625,214.5625 C79.8906225,214.479166 79.3750027,214.4375 78.84375,214.4375 C77.104158,214.4375 75.9322947,215.10416 75.328125,216.4375 L75.328125,228 L71.53125,228 L71.53125,211.09375 L75.15625,211.09375 L75.25,212.984375 C76.1666712,211.515618 77.4374919,210.78125 79.0625,210.78125 C79.6041694,210.78125 80.0520816,210.854166 80.40625,211 L80.390625,214.5625 Z M92.421875,228 C92.2552075,227.677082 92.1093756,227.151045 91.984375,226.421875 C90.7760356,227.682298 89.2968838,228.3125 87.546875,228.3125 C85.8489498,228.3125 84.463547,227.82813 83.390625,226.859375 C82.317703,225.89062 81.78125,224.692715 81.78125,223.265625 C81.78125,221.463533 82.4505141,220.080734 83.7890625,219.117188 C85.1276109,218.153641 87.0416542,217.671875 89.53125,217.671875 L91.859375,217.671875 L91.859375,216.5625 C91.859375,215.687496 91.6145858,214.986982 91.125,214.460938 C90.6354142,213.934893 89.89063,213.671875 88.890625,213.671875 C88.0260373,213.671875 87.3177111,213.888019 86.765625,214.320312 C86.2135389,214.752606 85.9375,215.30208 85.9375,215.96875 L82.140625,215.96875 C82.140625,215.041662 82.4479136,214.174483 83.0625,213.367188 C83.6770864,212.559892 84.5130155,211.927086 85.5703125,211.46875 C86.6276095,211.010414 87.8072852,210.78125 89.109375,210.78125 C91.0885516,210.78125 92.6666608,211.278641 93.84375,212.273438 C95.0208392,213.268234 95.6249998,214.666658 95.65625,216.46875 L95.65625,224.09375 C95.65625,225.614591 95.8697895,226.82812 96.296875,227.734375 L96.296875,228 L92.421875,228 Z M88.25,225.265625 C89.0000037,225.265625 89.7057259,225.083335 90.3671875,224.71875 C91.0286491,224.354165 91.52604,223.864586 91.859375,223.25 L91.859375,220.0625 L89.8125,220.0625 C88.406243,220.0625 87.3489619,220.307289 86.640625,220.796875 C85.9322881,221.286461 85.578125,221.979162 85.578125,222.875 C85.578125,223.60417 85.8203101,224.184894 86.3046875,224.617188 C86.7890649,225.049481 87.4374959,225.265625 88.25,225.265625 Z M109.109375,223.40625 C109.109375,222.729163 108.830732,222.213543 108.273438,221.859375 C107.716143,221.505207 106.791673,221.19271 105.5,220.921875 C104.208327,220.65104 103.130213,220.307294 102.265625,219.890625 C100.369782,218.973954 99.421875,217.645842 99.421875,215.90625 C99.421875,214.447909 100.036452,213.229172 101.265625,212.25 C102.494798,211.270828 104.057282,210.78125 105.953125,210.78125 C107.973968,210.78125 109.606765,211.281245 110.851562,212.28125 C112.09636,213.281255 112.71875,214.578117 112.71875,216.171875 L108.921875,216.171875 C108.921875,215.442705 108.651044,214.83594 108.109375,214.351562 C107.567706,213.867185 106.848963,213.625 105.953125,213.625 C105.119788,213.625 104.440107,213.817706 103.914062,214.203125 C103.388018,214.588544 103.125,215.104163 103.125,215.75 C103.125,216.333336 103.369789,216.786457 103.859375,217.109375 C104.348961,217.432293 105.338534,217.757811 106.828125,218.085938 C108.317716,218.414064 109.486975,218.804685 110.335938,219.257812 C111.1849,219.71094 111.815102,220.255205 112.226562,220.890625 C112.638023,221.526045 112.84375,222.29687 112.84375,223.203125 C112.84375,224.723966 112.213548,225.955724 110.953125,226.898438 C109.692702,227.841151 108.041677,228.3125 106,228.3125 C104.614576,228.3125 103.380214,228.062502 102.296875,227.5625 C101.213536,227.062498 100.369795,226.375004 99.765625,225.5 C99.1614553,224.624996 98.859375,223.682297 98.859375,222.671875 L102.546875,222.671875 C102.598959,223.567713 102.937497,224.25781 103.5625,224.742188 C104.187503,225.226565 105.01562,225.46875 106.046875,225.46875 C107.04688,225.46875 107.807289,225.278648 108.328125,224.898438 C108.848961,224.518227 109.109375,224.020836 109.109375,223.40625 Z M116.6875,233.125 L114.640625,231.90625 C115.244795,230.958329 115.658853,230.132816 115.882812,229.429688 C116.106772,228.726559 116.223958,228.01042 116.234375,227.28125 L116.234375,224.328125 L119.65625,224.328125 L119.640625,227.0625 C119.630208,228.166672 119.351565,229.273432 118.804688,230.382812 C118.25781,231.492193 117.552088,232.406246 116.6875,233.125 Z M138.046875,218.171875 L135.46875,220.90625 L135.46875,228 L131.515625,228 L131.515625,205.25 L135.46875,205.25 L135.46875,215.921875 L137.65625,213.21875 L144.3125,205.25 L149.09375,205.25 L140.640625,215.328125 L149.578125,228 L144.890625,228 L138.046875,218.171875 Z M154.84375,211.09375 L154.953125,213.046875 C156.203131,211.536451 157.84374,210.78125 159.875,210.78125 C163.395851,210.78125 165.1875,212.796855 165.25,216.828125 L165.25,228 L161.453125,228 L161.453125,217.046875 C161.453125,215.973953 161.221356,215.17969 160.757812,214.664062 C160.294269,214.148435 159.536464,213.890625 158.484375,213.890625 C156.953117,213.890625 155.812504,214.583326 155.0625,215.96875 L155.0625,228 L151.265625,228 L151.265625,211.09375 L154.84375,211.09375 Z M168.40625,219.390625 C168.40625,217.734367 168.734372,216.242194 169.390625,214.914062 C170.046878,213.585931 170.968744,212.565108 172.15625,211.851562 C173.343756,211.138017 174.708326,210.78125 176.25,210.78125 C178.531261,210.78125 180.382805,211.515618 181.804688,212.984375 C183.22657,214.453132 183.994791,216.40103 184.109375,218.828125 L184.125,219.71875 C184.125,221.385425 183.804691,222.874993 183.164062,224.1875 C182.523434,225.500007 181.606777,226.515621 180.414062,227.234375 C179.221348,227.953129 177.843758,228.3125 176.28125,228.3125 C173.895821,228.3125 171.986986,227.518237 170.554688,225.929688 C169.122389,224.341138 168.40625,222.223972 168.40625,219.578125 L168.40625,219.390625 Z M172.203125,219.71875 C172.203125,221.458342 172.562496,222.820308 173.28125,223.804688 C174.000004,224.789067 174.999994,225.28125 176.28125,225.28125 C177.562506,225.28125 178.559892,224.781255 179.273438,223.78125 C179.986983,222.781245 180.34375,221.317718 180.34375,219.390625 C180.34375,217.682283 179.976566,216.32813 179.242188,215.328125 C178.507809,214.32812 177.510423,213.828125 176.25,213.828125 C175.01041,213.828125 174.026045,214.320308 173.296875,215.304688 C172.567705,216.289067 172.203125,217.760407 172.203125,219.71875 Z M202.1875,222.765625 L204.875,211.09375 L208.578125,211.09375 L203.96875,228 L200.84375,228 L197.21875,216.390625 L193.65625,228 L190.53125,228 L185.90625,211.09375 L189.609375,211.09375 L192.34375,222.640625 L195.8125,211.09375 L198.671875,211.09375 L202.1875,222.765625 Z M215.15625,228 L211.359375,228 L211.359375,204 L215.15625,204 L215.15625,228 Z M226.734375,228.3125 C224.328113,228.3125 222.377612,227.554695 220.882812,226.039062 C219.388013,224.52343 218.640625,222.505221 218.640625,219.984375 L218.640625,219.515625 C218.640625,217.828117 218.966143,216.320319 219.617188,214.992188 C220.268232,213.664056 221.182286,212.630212 222.359375,211.890625 C223.536464,211.151038 224.848951,210.78125 226.296875,210.78125 C228.59897,210.78125 230.377598,211.515618 231.632812,212.984375 C232.888027,214.453132 233.515625,216.531237 233.515625,219.21875 L233.515625,220.75 L222.46875,220.75 C222.583334,222.14584 223.049475,223.249996 223.867188,224.0625 C224.6849,224.875004 225.713535,225.28125 226.953125,225.28125 C228.692717,225.28125 230.10937,224.578132 231.203125,223.171875 L233.25,225.125 C232.572913,226.135422 231.669276,226.919268 230.539062,227.476562 C229.408849,228.033857 228.140632,228.3125 226.734375,228.3125 Z M226.28125,213.828125 C225.239578,213.828125 224.398441,214.192705 223.757812,214.921875 C223.117184,215.651045 222.708334,216.66666 222.53125,217.96875 L229.765625,217.96875 L229.765625,217.6875 C229.682291,216.41666 229.343753,215.455732 228.75,214.804688 C228.156247,214.153643 227.333339,213.828125 226.28125,213.828125 Z M235.75,219.421875 C235.75,216.817695 236.354161,214.72657 237.5625,213.148438 C238.770839,211.570305 240.390615,210.78125 242.421875,210.78125 C244.213551,210.78125 245.661453,211.406244 246.765625,212.65625 L246.765625,204 L250.5625,204 L250.5625,228 L247.125,228 L246.9375,226.25 C245.802078,227.625007 244.286468,228.3125 242.390625,228.3125 C240.411448,228.3125 238.809902,227.515633 237.585938,225.921875 C236.361973,224.328117 235.75,222.161472 235.75,219.421875 Z M239.546875,219.75 C239.546875,221.468759 239.877601,222.809891 240.539062,223.773438 C241.200524,224.736984 242.140619,225.21875 243.359375,225.21875 C244.911466,225.21875 246.046871,224.526049 246.765625,223.140625 L246.765625,215.921875 C246.067705,214.567702 244.942716,213.890625 243.390625,213.890625 C242.161452,213.890625 241.213545,214.377599 240.546875,215.351562 C239.880205,216.325526 239.546875,217.791657 239.546875,219.75 Z M253.859375,219.421875 C253.859375,216.796862 254.476556,214.700529 255.710938,213.132812 C256.945319,211.565096 258.583323,210.78125 260.625,210.78125 C262.552093,210.78125 264.067703,211.453118 265.171875,212.796875 L265.34375,211.09375 L268.765625,211.09375 L268.765625,227.484375 C268.765625,229.703136 268.075528,231.453119 266.695312,232.734375 C265.315097,234.015631 263.453137,234.65625 261.109375,234.65625 C259.869785,234.65625 258.65886,234.39844 257.476562,233.882812 C256.294265,233.367185 255.395836,232.692712 254.78125,231.859375 L256.578125,229.578125 C257.744798,230.963549 259.182283,231.65625 260.890625,231.65625 C262.151048,231.65625 263.14583,231.315108 263.875,230.632812 C264.60417,229.950517 264.96875,228.947923 264.96875,227.625 L264.96875,226.484375 C263.874995,227.703131 262.416676,228.3125 260.59375,228.3125 C258.614573,228.3125 256.997402,227.52605 255.742188,225.953125 C254.486973,224.3802 253.859375,222.203139 253.859375,219.421875 Z M257.640625,219.75 C257.640625,221.447925 257.986976,222.783849 258.679688,223.757812 C259.372399,224.731776 260.333327,225.21875 261.5625,225.21875 C263.093758,225.21875 264.229163,224.562507 264.96875,223.25 L264.96875,215.8125 C264.249996,214.531244 263.125008,213.890625 261.59375,213.890625 C260.343744,213.890625 259.372399,214.385412 258.679688,215.375 C257.986976,216.364588 257.640625,217.822907 257.640625,219.75 Z M280.109375,228.3125 C277.703113,228.3125 275.752612,227.554695 274.257812,226.039062 C272.763013,224.52343 272.015625,222.505221 272.015625,219.984375 L272.015625,219.515625 C272.015625,217.828117 272.341143,216.320319 272.992188,214.992188 C273.643232,213.664056 274.557286,212.630212 275.734375,211.890625 C276.911464,211.151038 278.223951,210.78125 279.671875,210.78125 C281.97397,210.78125 283.752598,211.515618 285.007812,212.984375 C286.263027,214.453132 286.890625,216.531237 286.890625,219.21875 L286.890625,220.75 L275.84375,220.75 C275.958334,222.14584 276.424475,223.249996 277.242188,224.0625 C278.0599,224.875004 279.088535,225.28125 280.328125,225.28125 C282.067717,225.28125 283.48437,224.578132 284.578125,223.171875 L286.625,225.125 C285.947913,226.135422 285.044276,226.919268 283.914062,227.476562 C282.783849,228.033857 281.515632,228.3125 280.109375,228.3125 Z M279.65625,213.828125 C278.614578,213.828125 277.773441,214.192705 277.132812,214.921875 C276.492184,215.651045 276.083334,216.66666 275.90625,217.96875 L283.140625,217.96875 L283.140625,217.6875 C283.057291,216.41666 282.718753,215.455732 282.125,214.804688 C281.531247,214.153643 280.708339,213.828125 279.65625,213.828125 Z M311.46875,217.84375 L302.125,217.84375 L302.125,224.84375 L313.046875,224.84375 L313.046875,228 L298.171875,228 L298.171875,205.25 L312.9375,205.25 L312.9375,208.4375 L302.125,208.4375 L302.125,214.71875 L311.46875,214.71875 L311.46875,217.84375 Z M322.546875,225.28125 C323.494796,225.28125 324.281247,225.005211 324.90625,224.453125 C325.531253,223.901039 325.864583,223.218754 325.90625,222.40625 L329.484375,222.40625 C329.442708,223.458339 329.114586,224.4401 328.5,225.351562 C327.885414,226.263025 327.052089,226.984372 326,227.515625 C324.947911,228.046878 323.812506,228.3125 322.59375,228.3125 C320.229155,228.3125 318.354174,227.546883 316.96875,226.015625 C315.583326,224.484367 314.890625,222.369805 314.890625,219.671875 L314.890625,219.28125 C314.890625,216.70832 315.578118,214.648445 316.953125,213.101562 C318.328132,211.55468 320.203113,210.78125 322.578125,210.78125 C324.588552,210.78125 326.226556,211.367182 327.492188,212.539062 C328.757819,213.710943 329.421875,215.24999 329.484375,217.15625 L325.90625,217.15625 C325.864583,216.187495 325.533857,215.390628 324.914062,214.765625 C324.294268,214.140622 323.505213,213.828125 322.546875,213.828125 C321.317702,213.828125 320.369795,214.273433 319.703125,215.164062 C319.036455,216.054692 318.697917,217.406241 318.6875,219.21875 L318.6875,219.828125 C318.6875,221.661468 319.018226,223.028641 319.679688,223.929688 C320.341149,224.830734 321.296869,225.28125 322.546875,225.28125 Z M331.640625,219.390625 C331.640625,217.734367 331.968747,216.242194 332.625,214.914062 C333.281253,213.585931 334.203119,212.565108 335.390625,211.851562 C336.578131,211.138017 337.942701,210.78125 339.484375,210.78125 C341.765636,210.78125 343.61718,211.515618 345.039062,212.984375 C346.460945,214.453132 347.229166,216.40103 347.34375,218.828125 L347.359375,219.71875 C347.359375,221.385425 347.039066,222.874993 346.398438,224.1875 C345.757809,225.500007 344.841152,226.515621 343.648438,227.234375 C342.455723,227.953129 341.078133,228.3125 339.515625,228.3125 C337.130196,228.3125 335.221361,227.518237 333.789062,225.929688 C332.356764,224.341138 331.640625,222.223972 331.640625,219.578125 L331.640625,219.390625 Z M335.4375,219.71875 C335.4375,221.458342 335.796871,222.820308 336.515625,223.804688 C337.234379,224.789067 338.234369,225.28125 339.515625,225.28125 C340.796881,225.28125 341.794267,224.781255 342.507812,223.78125 C343.221358,222.781245 343.578125,221.317718 343.578125,219.390625 C343.578125,217.682283 343.210941,216.32813 342.476562,215.328125 C341.742184,214.32812 340.744798,213.828125 339.484375,213.828125 C338.244785,213.828125 337.26042,214.320308 336.53125,215.304688 C335.80208,216.289067 335.4375,217.760407 335.4375,219.71875 Z M354.09375,211.09375 L354.203125,213.046875 C355.453131,211.536451 357.09374,210.78125 359.125,210.78125 C362.645851,210.78125 364.4375,212.796855 364.5,216.828125 L364.5,228 L360.703125,228 L360.703125,217.046875 C360.703125,215.973953 360.471356,215.17969 360.007812,214.664062 C359.544269,214.148435 358.786464,213.890625 357.734375,213.890625 C356.203117,213.890625 355.062504,214.583326 354.3125,215.96875 L354.3125,228 L350.515625,228 L350.515625,211.09375 L354.09375,211.09375 Z M367.65625,219.390625 C367.65625,217.734367 367.984372,216.242194 368.640625,214.914062 C369.296878,213.585931 370.218744,212.565108 371.40625,211.851562 C372.593756,211.138017 373.958326,210.78125 375.5,210.78125 C377.781261,210.78125 379.632805,211.515618 381.054688,212.984375 C382.47657,214.453132 383.244791,216.40103 383.359375,218.828125 L383.375,219.71875 C383.375,221.385425 383.054691,222.874993 382.414062,224.1875 C381.773434,225.500007 380.856777,226.515621 379.664062,227.234375 C378.471348,227.953129 377.093758,228.3125 375.53125,228.3125 C373.145821,228.3125 371.236986,227.518237 369.804688,225.929688 C368.372389,224.341138 367.65625,222.223972 367.65625,219.578125 L367.65625,219.390625 Z M371.453125,219.71875 C371.453125,221.458342 371.812496,222.820308 372.53125,223.804688 C373.250004,224.789067 374.249994,225.28125 375.53125,225.28125 C376.812506,225.28125 377.809892,224.781255 378.523438,223.78125 C379.236983,222.781245 379.59375,221.317718 379.59375,219.390625 C379.59375,217.682283 379.226566,216.32813 378.492188,215.328125 C377.757809,214.32812 376.760423,213.828125 375.5,213.828125 C374.26041,213.828125 373.276045,214.320308 372.546875,215.304688 C371.817705,216.289067 371.453125,217.760407 371.453125,219.71875 Z M390.15625,211.09375 L390.265625,212.859375 C391.453131,211.473951 393.078115,210.78125 395.140625,210.78125 C397.401053,210.78125 398.947913,211.645825 399.78125,213.375 C401.010423,211.645825 402.739572,210.78125 404.96875,210.78125 C406.833343,210.78125 408.22135,211.29687 409.132812,212.328125 C410.044275,213.35938 410.510417,214.880198 410.53125,216.890625 L410.53125,228 L406.734375,228 L406.734375,217 C406.734375,215.927078 406.500002,215.140627 406.03125,214.640625 C405.562498,214.140623 404.786464,213.890625 403.703125,213.890625 C402.838537,213.890625 402.132815,214.122394 401.585938,214.585938 C401.03906,215.049481 400.656251,215.656246 400.4375,216.40625 L400.453125,228 L396.65625,228 L396.65625,216.875 C396.604166,214.885407 395.588552,213.890625 393.609375,213.890625 C392.088534,213.890625 391.01042,214.51041 390.375,215.75 L390.375,228 L386.578125,228 L386.578125,211.09375 L390.15625,211.09375 Z M420.34375,222.5625 L423.78125,211.09375 L427.828125,211.09375 L421.109375,230.5625 C420.07812,233.406264 418.328137,234.828125 415.859375,234.828125 C415.307289,234.828125 414.69792,234.734376 414.03125,234.546875 L414.03125,231.609375 L414.75,231.65625 C415.708338,231.65625 416.429685,231.481773 416.914062,231.132812 C417.39844,230.783852 417.781249,230.197921 418.0625,229.375 L418.609375,227.921875 L412.671875,211.09375 L416.765625,211.09375 L420.34375,222.5625 Z" id="Agoras,-Knowledge-Ec"></path>
                        </g>
                    </g>
                </g>
            </g>
        </g>
    </g>
</svg>