<?xml version="1.0" encoding="UTF-8"?>
<svg width="1440px" height="320px" viewBox="0 0 1440 320" version="1.1" xmlns="http://www.w3.org/2000/svg" xmlns:xlink="http://www.w3.org/1999/xlink">
    <!-- Generator: Sketch 50.2 (55047) - http://www.bohemiancoding.com/sketch -->
    <title>Group</title>
    <desc>Created with Sketch.</desc>
    <defs>
        <path d="M0,0.3671875 L1440,0.3671875 L1440,163.039063 C1333.94694,130.966146 1227.25944,114.929688 1119.9375,114.929688 C958.954597,114.929688 867.496094,154.351563 737.105469,175.117187 C606.714844,195.882812 582.803356,215.911565 387.300781,211.945313 C256.965731,209.301144 127.865471,187.603227 0,146.851562 L0,0.3671875 Z" id="path-1"></path>
    </defs>
    <g id="Page-1" stroke="none" stroke-width="1" fill="none" fill-rule="evenodd">
        <g id="Group" transform="translate(0.000000, -81.000000)">
            <g id="Path-5">
                <g id="Group-6">
                    <mask id="mask-2" fill="white">
                        <use xlink:href="#path-1"></use>
                    </mask>
                    <g id="Mask"></g>
                    <path d="M47.5117188,182.550781 C171.871094,174.36849 308.632812,155.371094 457.796875,125.558594 C681.542969,80.8398438 798.992187,61.8359375 1130.82031,148.921875 C1352.03906,206.979167 1186.78906,280.130208 635.070312,368.375 L47.5117188,182.550781 Z" id="Path-6" fill="#F9B800" opacity="0.5" mask="url(#mask-2)"></path>
                    <path d="M-30.8945312,93.4453125 C79.9648438,88.4166667 195.063802,100.260417 314.402344,128.976563 C493.410156,172.050781 760.707031,210.019531 868.558594,191.035156 C940.459635,178.378906 855.140625,226.417969 612.601562,335.152344 L77.3398438,369.808594 L-30.8945312,93.4453125 Z" id="Path-5" fill="#F9B800" opacity="0.5" mask="url(#mask-2)"></path>
                    <path d="M1487.46484,84.2773438 C1293.09505,71.0768229 1123.04688,98.0976563 977.320313,165.339844 C831.59375,232.582031 990.485677,265.279948 1453.99609,263.433594 L1487.46484,84.2773438 Z" id="Path-7" fill="#F9B800" opacity="0.5" mask="url(#mask-2)"></path>
                </g>
            </g>
            <path d="M1440,162.109375 L1440,400.304688 L0,400.304688 L0,145.921875 C127.865471,186.67354 256.965731,208.371456 387.300781,211.015625 C582.803356,214.981878 606.714844,194.953125 737.105469,174.1875 C867.496094,153.421875 958.954597,114 1119.9375,114 C1227.25944,114 1333.94694,130.036458 1440,162.109375 Z" id="Combined-Shape" fill="#F9B800"></path>
        </g>
    </g>
</svg>